<?xml version="1.0" encoding="utf-8"?>
<!-- Generator: Adobe Illustrator 25.0.1, SVG Export Plug-In . SVG Version: 6.00 Build 0)  -->
<svg version="1.1" id="Calque_1" xmlns="http://www.w3.org/2000/svg" xmlns:xlink="http://www.w3.org/1999/xlink" x="0px" y="0px"
	 viewBox="0 0 30 34" style="enable-background:new 0 0 30 34;" xml:space="preserve">
<style type="text/css">
	.st0{fill:#076EB5;}
	.st1{fill:#1C9EDA;}
</style>
<g>
	<path class="st0" d="M15.1,0c4.8,0,9.6,0,14.4,0c0.5,0,0.6,0.1,0.6,0.6c-0.5,6.2-1.1,12.3-1.6,18.5c-0.3,3.6-0.6,7.3-0.9,10.9
		c0,0.5-0.2,0.7-0.7,0.8c-3.8,1-7.6,2.1-11.4,3.2c-0.3,0.1-0.6,0.1-0.9,0c-3.8-1.1-7.6-2.1-11.4-3.2c-0.4-0.1-0.6-0.3-0.6-0.8
		C2,22.8,1.4,15.5,0.7,8.3C0.5,5.7,0.3,3.1,0.1,0.5C0,0.1,0.1,0,0.4,0C1.3,0,2.1,0,3,0C7.1,0,11.1,0,15.1,0z M15.1,17.7
		c0,2,0,3.9,0,5.9c-1.3-0.3-2.6-0.7-3.9-1c-0.3-0.1-0.3-0.3-0.3-0.5c0-0.7-0.1-1.4-0.1-2.1c0-0.4-0.2-0.5-0.5-0.5c-1,0-1.9,0-2.9,0
		c-0.4,0-0.6,0.1-0.5,0.5c0.2,1.6,0.3,3.2,0.4,4.8c0,0.4,0.2,0.6,0.6,0.7c2.4,0.6,4.8,1.3,7.2,2c0,1.1,0,2.3,0,3.4
		c0,0.4,0.1,0.5,0.5,0.4c1.2-0.3,2.3-0.6,3.5-1c1.7-0.5,3.5-0.9,5.2-1.4c0.3-0.1,0.5-0.2,0.6-0.7c0-1,0.2-1.9,0.2-2.9
		c0.2-1.6,0.3-3.1,0.5-4.7c0.1-1.5,0.2-3.1,0.4-4.6c0.2-1.7,0.3-3.3,0.5-5c0.1-1,0.2-2.1,0.3-3.1c0.2-1.6,0.3-3.2,0.4-4.8
		c0-0.4-0.1-0.6-0.5-0.6c-3.7,0-7.3,0-11,0c-0.4,0-0.5,0.1-0.5,0.5c0,1,0,2.1,0,3.1c-0.2,0-0.4,0-0.6,0c-2.8,0-5.5,0-8.3,0
		c-0.4,0-0.5,0.1-0.5,0.5c0.1,0.9,0.2,1.8,0.2,2.7c0,0.5,0.2,0.6,0.7,0.6c1.9,0,3.9,0,5.8,0c0.3,0,0.6,0,1,0
		c-0.2,0.2-0.4,0.3-0.5,0.4c-2,1-4,2-6.1,3c-0.4,0.2-0.5,0.4-0.5,0.9c0.1,0.9,0.2,1.8,0.2,2.7c0,0.5,0.2,0.6,0.7,0.6
		C9.9,17.7,12.5,17.7,15.1,17.7z"/>
	<path class="st1" d="M15.1,27.5c2.4-0.7,4.8-1.3,7.1-2c0.5-0.1,0.7-0.3,0.7-0.8c0.3-3.4,0.6-6.8,0.9-10.1c0-0.5-0.1-0.7-0.6-0.7
		c-1.9,0-3.9,0-5.8,0c-0.2,0-0.4,0.1-0.6-0.1c0.1-0.2,0.3-0.2,0.5-0.3c2.1-1.1,4.3-2.2,6.4-3.2c0.4-0.2,0.5-0.4,0.5-0.8
		c0.1-0.9,0.1-1.8,0.2-2.7c0.1-0.5-0.1-0.6-0.5-0.6c-2.7,0-5.5,0-8.2,0c-0.2,0-0.4,0-0.6,0c0-1,0-2.1,0-3.1c0-0.4,0.1-0.5,0.5-0.5
		c3.7,0,7.3,0,11,0c0.4,0,0.5,0.2,0.5,0.6c-0.2,1.6-0.3,3.2-0.4,4.8c-0.1,1-0.2,2.1-0.3,3.1c-0.2,1.7-0.3,3.3-0.5,5
		c-0.1,1.5-0.2,3.1-0.4,4.6c-0.1,1.6-0.3,3.1-0.5,4.7c-0.1,1-0.2,1.9-0.2,2.9c0,0.4-0.2,0.6-0.6,0.7c-1.7,0.5-3.5,0.9-5.2,1.4
		c-1.2,0.3-2.3,0.6-3.5,1c-0.5,0.1-0.5,0-0.5-0.4C15.1,29.7,15.1,28.6,15.1,27.5z"/>
	<path class="st1" d="M15.1,17.7c1.4,0,2.7,0,4.1,0c0.3,0,0.4,0.1,0.4,0.4c-0.1,1.4-0.2,2.7-0.3,4.1c0,0.2,0,0.3-0.3,0.4
		c-1.3,0.3-2.6,0.7-3.9,1C15.1,21.6,15.1,19.7,15.1,17.7z"/>
</g>
</svg>
