<?xml version="1.0" encoding="utf-8"?>
<!-- Generator: Adobe Illustrator 25.0.1, SVG Export Plug-In . SVG Version: 6.00 Build 0)  -->
<svg version="1.1" id="Calque_1" xmlns="http://www.w3.org/2000/svg" xmlns:xlink="http://www.w3.org/1999/xlink" x="0px" y="0px"
	 viewBox="0 0 30 39" style="enable-background:new 0 0 30 39;" xml:space="preserve">
<style type="text/css">
	.st0{fill:#E84D20;}
</style>
<path class="st0" d="M26.1,11.8c-1.2-2.2-2.8-4.1-4.8-5.6C16.9,2.6,8.7-3.3,9.5,2.4c0.7,5.5-3,11.7-5.3,14.9c-1,1.4-1.9,3-2.7,4.6
	c-4.5,11.9,2,14.9,7.8,16.5c5,1.4,10.6,0.6,14.9-2.4C33.8,29.1,29.3,17.5,26.1,11.8z M19.1,32.3c-1.9,1.3-4.4,1.7-6.6,1.1
	C9.9,32.6,7,31.3,9,26c0.3-0.7,0.7-1.4,1.2-2.1c1-1.4,2.7-4.2,2.4-6.6c-0.3-2.5,3.3,0.1,5.3,1.7c0.9,0.7,1.6,1.5,2.1,2.5
	C21.4,24.1,23.4,29.2,19.1,32.3z"/>
</svg>
