<?xml version="1.0" encoding="utf-8"?>
<!-- Generator: Adobe Illustrator 25.0.1, SVG Export Plug-In . SVG Version: 6.00 Build 0)  -->
<svg version="1.1" id="Calque_1" xmlns="http://www.w3.org/2000/svg" xmlns:xlink="http://www.w3.org/1999/xlink" x="0px" y="0px"
	 viewBox="0 0 30 34" style="enable-background:new 0 0 30 34;" xml:space="preserve">
<style type="text/css">
	.st0{fill:#E7C831;}
	.st1{fill:#FDDC24;}
</style>
<g>
	<path class="st0" d="M15.1,0c4.8,0,9.6,0,14.5,0c0.5,0,0.6,0.1,0.6,0.6c-0.2,2.7-0.5,5.3-0.7,8c-0.2,2.5-0.5,5.1-0.7,7.6
		c-0.2,2.1-0.3,4.1-0.5,6.2c-0.2,2.1-0.4,4.2-0.6,6.2c0,0.5-0.1,1-0.1,1.6c0,0.3-0.1,0.4-0.4,0.5c-3.9,1.1-7.8,2.2-11.7,3.3
		c-0.3,0.1-0.5,0-0.8,0c-3.8-1.1-7.6-2.1-11.4-3.2c-0.5-0.1-0.6-0.4-0.7-0.9c-0.3-3.5-0.6-7-0.9-10.4c-0.2-2.5-0.4-5-0.6-7.5
		C0.8,8.4,0.5,4.9,0.1,1.4C0,0,0,0,1.3,0C5.9,0,10.5,0,15.1,0z M15.1,17c0,4.6,0,9.2,0,13.7c0,0.5,0.1,0.6,0.6,0.5
		c2.8-0.8,5.7-1.6,8.6-2.3c0.6-0.2,0.7-0.5,0.7-1c0-1.2,0.2-2.4,0.3-3.6c0.1-1.6,0.3-3.3,0.4-4.9c0.1-1,0.2-2.1,0.3-3.1
		c0.2-1.7,0.3-3.3,0.5-5c0.1-1.1,0.2-2.2,0.3-3.2c0.1-1.6,0.3-3.2,0.5-4.8c0.1-0.6-0.2-0.7-0.7-0.7c-3.6,0-7.2,0-10.7,0
		c-0.5,0-0.7,0.2-0.7,0.7C15.1,7.9,15.1,12.5,15.1,17z M14,16.9c0-3.3,0-6.7,0-10c0-0.4-0.1-0.6-0.5-0.6c-0.7,0-1.4,0-2,0
		c-0.6,0-0.8,0.1-0.8,0.7c0,5.2,0,10.3,0,15.5c0,0.5-0.1,0.6-0.6,0.4c-1.6-0.5-3.2-0.9-4.8-1.3c-0.3-0.1-0.4-0.1-0.4,0.3
		c0,0.9,0,1.7,0,2.6c0,0.4,0.1,0.5,0.4,0.6c2.7,0.7,5.4,1.4,8.1,2.2c0.5,0.2,0.6,0.1,0.6-0.5C14,23.5,14,20.2,14,16.9z"/>
	<path class="st1" d="M15.1,17c0-4.6,0-9.1,0-13.7c0-0.5,0.1-0.7,0.7-0.7c3.6,0,7.2,0,10.7,0c0.5,0,0.7,0.1,0.7,0.7
		c-0.2,1.6-0.3,3.2-0.5,4.8c-0.1,1.1-0.2,2.2-0.3,3.2c-0.2,1.7-0.3,3.3-0.5,5c-0.1,1-0.2,2.1-0.3,3.1c-0.1,1.6-0.3,3.3-0.4,4.9
		c-0.1,1.2-0.3,2.4-0.3,3.6c0,0.5-0.1,0.9-0.7,1c-2.9,0.7-5.7,1.5-8.6,2.3c-0.5,0.2-0.6,0-0.6-0.5C15.1,26.2,15.1,21.6,15.1,17z
		 M16.3,12.7c0,2,0,4,0,6c0,0.4,0,0.5,0.5,0.4c1.4-0.3,2.9-0.4,4.3-0.7c0.5-0.1,0.5,0.1,0.5,0.5c-0.1,1.1-0.3,2.2-0.3,3.3
		c0,0.4-0.1,0.5-0.5,0.6c-1.4,0.4-2.7,0.8-4.1,1.1c-0.3,0.1-0.5,0.2-0.4,0.6c0,0.8,0,1.7,0,2.5c0,0.4,0.1,0.5,0.5,0.4
		c2.3-0.6,4.6-1.3,6.9-1.9c0.4-0.1,0.4-0.3,0.4-0.7c0.1-1.3,0.2-2.6,0.3-3.8c0.2-1.9,0.3-3.8,0.5-5.8c0-0.5-0.1-0.6-0.6-0.5
		c-1.4,0.2-2.8,0.4-4.2,0.7c-0.4,0.1-0.6,0-0.6-0.5c0-1.6,0-3.1,0-4.6c0-0.5,0.1-0.6,0.6-0.6c1.6,0,3.2,0,4.8,0
		c0.4,0,0.5-0.1,0.5-0.5c0-0.7,0.1-1.5,0.2-2.2c0-0.4,0-0.6-0.5-0.6c-2.8,0-5.5,0-8.3,0c-0.4,0-0.6,0.1-0.6,0.6
		C16.3,8.8,16.3,10.7,16.3,12.7z"/>
</g>
</svg>
