<?xml version="1.0" encoding="utf-8"?>
<!-- Generator: Adobe Illustrator 25.0.1, SVG Export Plug-In . SVG Version: 6.00 Build 0)  -->
<svg version="1.1" id="Calque_1" xmlns="http://www.w3.org/2000/svg" xmlns:xlink="http://www.w3.org/1999/xlink" x="0px" y="0px"
	 viewBox="0 0 30 34" style="enable-background:new 0 0 30 34;" xml:space="preserve">
<style type="text/css">
	.st0{fill:#395196;}
	.st1{fill:#FFFFFF;}
	.st2{fill:#5E7CBC;}
</style>
<g>
	<g>
		<polygon class="st0" points="15,6.5 9.7,6.7 10.4,15 15,16.6 17.2,15.9 17.3,6.6 		"/>
		<path class="st0" d="M29.5,0c-4.8,0-9.6,0-14.4,0C11.1,0,7,0,3,0C2.1,0,1.3,0,0.5,0C0.1,0,0,0.1,0.1,0.5c0.2,2.6,0.5,5.2,0.7,7.8
			C1.4,15.5,2,22.8,2.6,30c0,0.4,0.2,0.6,0.6,0.8c3.8,1,7.6,2.1,11.4,3.2c0.3,0.1,0.6,0.1,0.9,0c3.8-1.1,7.6-2.1,11.4-3.2
			c0.5-0.1,0.6-0.3,0.7-0.8c0.3-3.6,0.6-7.3,0.9-10.9c0.5-6.2,1-12.3,1.6-18.5C30.1,0.1,30,0,29.5,0z M27.1,3.2
			C27,4.8,26.8,6.4,26.7,8c-0.1,1-0.2,2.1-0.3,3.1c-0.2,1.7-0.3,3.3-0.5,5c-0.1,1.5-0.2,3.1-0.4,4.6c-0.1,1.6-0.3,3.1-0.5,4.7
			c-0.1,1-0.2,1.9-0.2,2.9c0,0.4-0.2,0.6-0.6,0.7c-1.7,0.5-3.5,0.9-5.2,1.4c-1.2,0.3-2.3,0.6-3.5,1c-0.5,0.1-0.5,0-0.5-0.4
			c0-0.4,0-0.9,0-1.3l1.8,0.2l0.2-9.8L15,20.6l-4.3-1.4L11,25l0,0l0.4,5.4l-3.9-1l-0.3-3.9L5.6,2.6h9.4h9.4l0,0c0.7,0,1.4,0,2.2,0
			C27,2.6,27.1,2.8,27.1,3.2z"/>
	</g>
	<path class="st0" d="M7.3,25.5"/>
	<path class="st1" d="M11.2,26.7"/>
	<g>
		<path class="st2" d="M26.6,2.6c-0.7,0-1.4,0-2.2,0l-1.1,15.6l-8.3,2.3v6.9c0,1.1,0,2.3,0,3.4c0,0.4,0.1,0.5,0.5,0.4
			c1.2-0.3,2.3-0.6,3.5-1c1.7-0.5,3.5-0.9,5.2-1.4c0.3-0.1,0.5-0.2,0.6-0.7c0-1,0.2-1.9,0.2-2.9c0.2-1.6,0.3-3.1,0.5-4.7
			c0.1-1.5,0.2-3.1,0.4-4.6c0.2-1.7,0.3-3.3,0.5-5c0.1-1,0.2-2.1,0.3-3.1c0.2-1.6,0.3-3.2,0.4-4.8C27.1,2.8,27,2.6,26.6,2.6z"/>
		<polygon class="st2" points="20.2,6.8 15.1,6.5 15.1,16.5 19.7,15 		"/>
	</g>
</g>
</svg>
