<?xml version="1.0" encoding="utf-8"?>
<!-- Generator: Adobe Illustrator 25.0.1, SVG Export Plug-In . SVG Version: 6.00 Build 0)  -->
<svg version="1.1" id="Calque_1" xmlns="http://www.w3.org/2000/svg" xmlns:xlink="http://www.w3.org/1999/xlink" x="0px" y="0px"
	 viewBox="0 0 30 34" style="enable-background:new 0 0 30 34;" xml:space="preserve">
<style type="text/css">
	.st0{fill:#395196;}
	.st1{fill:#FFFFFF;}
	.st2{fill:#914E88;}
	.st3{fill:#AC7AA4;}
</style>
<g>
	<path class="st0" d="M7.3,25.5"/>
	<path class="st1" d="M11.2,26.7"/>
	<path class="st2" d="M29.5,0c-4.8,0-9.6,0-14.4,0C11.1,0,7,0,3,0C2.1,0,1.3,0,0.5,0C0.1,0,0,0.1,0.1,0.5c0.2,2.6,0.5,5.2,0.7,7.8
		C1.4,15.5,2,22.8,2.6,30c0,0.4,0.2,0.6,0.6,0.8c3.8,1,7.6,2.1,11.4,3.2c0.3,0.1,0.6,0.1,0.9,0c3.8-1.1,7.6-2.1,11.4-3.2
		c0.5-0.1,0.6-0.3,0.7-0.8c0.3-3.6,0.6-7.3,0.9-10.9c0.5-6.2,1-12.3,1.6-18.5C30.1,0.1,30,0,29.5,0z"/>
	<path class="st3" d="M26.6,2.7c-3.7,0-7.3,0-11,0c-0.4,0-0.5,0.1-0.5,0.5c0,1,0,2.1,0,3.1l0,21.2c0,1.1,0,2.3,0,3.4
		c0,0.4,0.1,0.5,0.5,0.4c1.2-0.4,2.3-0.6,3.5-1c1.7-0.5,3.5-0.9,5.2-1.4c0.3-0.1,0.5-0.2,0.6-0.7c0-1,0.2-1.9,0.2-2.9
		c0.2-1.6,0.3-3.1,0.5-4.7c0.1-1.5,0.2-3.1,0.4-4.6c0.1-1.7,0.3-3.3,0.5-5c0.1-1,0.2-2.1,0.3-3.1c0.1-1.6,0.3-3.2,0.4-4.8
		C27.2,2.9,27.1,2.7,26.6,2.7z"/>
	<path class="st1" d="M22.6,9.1l-7.4-2.7c-0.1,0-0.3,0-0.4,0L7.5,9C7.3,9.1,7.2,9.3,7.2,9.5V11c0,0.2,0.1,0.3,0.2,0.4l10.5,10.3
		c0.3,0.3,0.2,0.8-0.2,1l-2.4,0.9c-0.1,0-0.3,0-0.4,0L8,21.3c-0.4-0.1-0.8,0.2-0.8,0.6v2.5c0,0.3,0.2,0.5,0.4,0.6l7.4,2.4
		c0.1,0,0.2,0,0.3,0l7.3-2c0.3-0.1,0.4-0.3,0.4-0.6v-2.1c0-0.2-0.1-0.3-0.2-0.4L12.2,11.9c-0.3-0.3-0.2-0.9,0.3-1l2.3-0.6
		c0.1,0,0.2,0,0.3,0l7,2.3c0.4,0.1,0.8-0.2,0.8-0.6V9.6C23,9.4,22.8,9.2,22.6,9.1z"/>
</g>
</svg>
