<?xml version="1.0" encoding="utf-8"?>
<!-- Generator: Adobe Illustrator 25.0.1, SVG Export Plug-In . SVG Version: 6.00 Build 0)  -->
<svg version="1.1" id="Calque_1" xmlns="http://www.w3.org/2000/svg" xmlns:xlink="http://www.w3.org/1999/xlink" x="0px" y="0px"
	 viewBox="0 0 50 50" style="enable-background:new 0 0 50 50;" xml:space="preserve">
<style type="text/css">
	.st0{fill:url(#SVGID_1_);}
</style>
<g>
	<g>
		<g>
			<linearGradient id="SVGID_1_" gradientUnits="userSpaceOnUse" x1="25" y1="0" x2="25" y2="50">
				<stop  offset="0" style="stop-color:#35BDEE"/>
				<stop  offset="0.9987" style="stop-color:#376AB1"/>
			</linearGradient>
			<path class="st0" d="M39.7,0H10.3C4.6,0,0,4.6,0,10.3v29.5C0,45.4,4.6,50,10.3,50h29.5C45.4,50,50,45.4,50,39.7V10.3
				C50,4.6,45.4,0,39.7,0z M15.4,38.5c-0.5,0.8-1.3,1.2-2.1,1.2c-0.4,0-0.8-0.1-1.2-0.3c-1.2-0.7-1.6-2.2-0.9-3.3l0.5-0.8h5.6
				L15.4,38.5z M10.8,33.3c-1.3,0-2.4-1.1-2.4-2.4s1.1-2.4,2.4-2.4h4.8L22.2,17l-1.8-3.1c-0.7-1.2-0.3-2.7,0.9-3.3h0
				c1.2-0.7,2.7-0.3,3.3,0.9l0.4,0.7l0.4-0.7c0.7-1.2,2.2-1.6,3.3-0.9c0.6,0.3,1,0.9,1.1,1.5c0.2,0.6,0.1,1.3-0.2,1.9l-8.4,14.5h5.3
				l2.8,4.9H10.8z M39.2,33.3h-2l1.6,2.8c0.7,1.2,0.3,2.7-0.9,3.3c-0.4,0.2-0.8,0.3-1.2,0.3c-0.2,0-0.4,0-0.6-0.1
				c-0.6-0.2-1.2-0.6-1.5-1.1l-8.5-14.7l2.8-4.9l5.5,9.5h4.8c1.3,0,2.4,1.1,2.4,2.4S40.6,33.3,39.2,33.3z"/>
		</g>
	</g>
</g>
</svg>
