<?xml version="1.0" encoding="utf-8"?>
<!-- Generator: Adobe Illustrator 25.0.1, SVG Export Plug-In . SVG Version: 6.00 Build 0)  -->
<svg version="1.1" id="Calque_1" xmlns="http://www.w3.org/2000/svg" xmlns:xlink="http://www.w3.org/1999/xlink" x="0px" y="0px"
	 viewBox="0 0 50 50" style="enable-background:new 0 0 50 50;" xml:space="preserve">
<style type="text/css">
	.st0{fill:#FFFFFF;}
	.st1{fill:#E6323E;}
	.st2{fill:#252626;}
</style>
<g>
	<path class="st0" d="M39.7,0H10.3C4.6,0,0,4.6,0,10.3v29.5C0,45.4,4.6,50,10.3,50h29.5C45.4,50,50,45.4,50,39.7V10.3
		C50,4.6,45.4,0,39.7,0z"/>
	<g>
		<path class="st1" d="M14.6,5.6h2.6c0.7,0,1.3,0.1,1.8,0.4c0.5,0.3,0.9,0.7,1.1,1.2s0.4,1.2,0.4,1.9v0c0,0.7-0.1,1.4-0.4,1.9
			S19.5,12,19,12.3s-1.1,0.4-1.8,0.4h-2.6V5.6z M17.1,11.6c0.5,0,0.9-0.1,1.2-0.3c0.3-0.2,0.6-0.5,0.7-0.8c0.2-0.4,0.3-0.8,0.3-1.4
			v0c0-0.5-0.1-1-0.3-1.3c-0.2-0.4-0.4-0.6-0.7-0.8c-0.3-0.2-0.7-0.3-1.2-0.3h-1.2v4.9H17.1z"/>
		<path class="st1" d="M21.5,5.6h4.6v1.1h-3.3v1.9h3.1v1h-3.1v2h3.3v1.1h-4.6V5.6z M23.3,5.1l0.8-1.5h1.1l-1.1,1.5H23.3z"/>
		<path class="st1" d="M28.5,12.4c-0.5-0.3-0.9-0.7-1.1-1.3C27.1,10.6,27,9.9,27,9.2v0c0-0.8,0.1-1.4,0.4-1.9c0.3-0.5,0.7-1,1.1-1.3
			s1.1-0.4,1.8-0.4c0.5,0,1,0.1,1.5,0.3c0.4,0.2,0.8,0.5,1,0.9c0.3,0.4,0.4,0.8,0.5,1.3l0,0H32l0-0.1c-0.1-0.3-0.2-0.5-0.3-0.7
			c-0.2-0.2-0.4-0.3-0.6-0.5c-0.2-0.1-0.5-0.2-0.8-0.2c-0.4,0-0.8,0.1-1.1,0.3c-0.3,0.2-0.5,0.5-0.7,0.9c-0.2,0.4-0.2,0.8-0.2,1.4v0
			c0,0.5,0.1,1,0.2,1.4c0.2,0.4,0.4,0.7,0.7,0.9s0.7,0.3,1.1,0.3c0.3,0,0.6-0.1,0.8-0.2c0.2-0.1,0.4-0.3,0.6-0.5
			c0.2-0.2,0.3-0.4,0.4-0.7l0,0h1.2l0,0.1c-0.1,0.5-0.2,0.9-0.5,1.3c-0.3,0.4-0.6,0.7-1.1,0.9s-0.9,0.3-1.5,0.3
			C29.6,12.8,29,12.7,28.5,12.4z"/>
		<path class="st1" d="M34.2,12.6C34,12.4,34,12.3,34,12.1c0-0.2,0.1-0.4,0.2-0.5c0.1-0.1,0.3-0.2,0.5-0.2c0.2,0,0.4,0.1,0.5,0.2
			c0.1,0.1,0.2,0.3,0.2,0.5c0,0.2-0.1,0.4-0.2,0.5c-0.1,0.1-0.3,0.2-0.5,0.2C34.5,12.8,34.3,12.7,34.2,12.6z"/>
	</g>
	<g>
		<path class="st2" d="M13.9,22.3L13.9,22.3l-5.7,3.9V23l5.7-4h3.3v21.5h-3.3V22.3z"/>
		<path class="st2" d="M25.8,39.4c-1.2-0.9-2.2-2.2-2.8-3.8c-0.7-1.7-1-3.6-1-5.9v0c0-2.3,0.3-4.2,1-5.9c0.7-1.7,1.6-2.9,2.8-3.8
			c1.2-0.9,2.7-1.3,4.4-1.3c1.7,0,3.2,0.4,4.4,1.3c1.2,0.9,2.2,2.2,2.8,3.8c0.7,1.7,1,3.6,1,5.9v0c0,2.3-0.3,4.2-1,5.9
			c-0.7,1.7-1.6,2.9-2.8,3.8s-2.7,1.4-4.4,1.4C28.5,40.8,27,40.3,25.8,39.4z M32.8,37c0.7-0.7,1.3-1.6,1.7-2.9
			c0.4-1.2,0.6-2.7,0.6-4.4v0c0-1.7-0.2-3.2-0.6-4.4c-0.4-1.2-0.9-2.2-1.7-2.9c-0.7-0.7-1.6-1-2.6-1c-1,0-1.9,0.3-2.6,1
			S26.3,24,26,25.2c-0.4,1.2-0.6,2.7-0.6,4.4v0c0,1.7,0.2,3.2,0.6,4.4c0.4,1.2,0.9,2.2,1.6,2.9s1.6,1,2.6,1
			C31.2,38,32.1,37.7,32.8,37z"/>
	</g>
</g>
</svg>
