<?xml version="1.0" encoding="utf-8"?>
<!-- Generator: Adobe Illustrator 25.0.1, SVG Export Plug-In . SVG Version: 6.00 Build 0)  -->
<svg version="1.1" id="Calque_1" xmlns="http://www.w3.org/2000/svg" xmlns:xlink="http://www.w3.org/1999/xlink" x="0px" y="0px"
	 viewBox="0 0 50 50" style="enable-background:new 0 0 50 50;" xml:space="preserve">
<style type="text/css">
	.st0{fill:#E84639;}
	.st1{fill:#FFFFFF;}
</style>
<g>
	<path class="st0" d="M39.7,0H10.3C4.6,0,0,4.6,0,10.3v29.5C0,45.4,4.6,50,10.3,50h29.5C45.4,50,50,45.4,50,39.7V10.3
		C50,4.6,45.4,0,39.7,0z"/>
	<path class="st1" d="M31,11.1c-4.2,0-8,1.9-10.6,4.8c-0.4,0-0.8-0.1-1.2-0.1c-6.5,0-11.7,5.3-11.7,11.7c0,6.5,5.3,11.7,11.7,11.7
		c2,0,9.5,0,11.7,0c7.8,0,14.1-6.3,14.1-14.1S38.8,11.1,31,11.1z M19.3,36.9c-5.2,0-9.4-4.2-9.4-9.4c0-5.2,4.2-9.4,9.4-9.4
		c1.1,0,2.1,0.2,3.1,0.5c0.5,0.1,1.2,0.4,1.8,0.8c0,0,0,0,0.1,0l7.4,4.6c0.5,0.3,0.7,1.1,0.4,1.6c-0.3,0.6-1.1,0.7-1.6,0.4l-7.3-4.6
		c0,0,0,0-0.1,0c-0.5-0.3-0.9-0.5-1.4-0.6c-4.9-1.7-9.4,2-9.4,6.6c0,3.9,3.2,7,7,7c0.4,0,0.8,0,1.2-0.1c0.6,0.7,1.3,1.3,2,1.9
		C21.5,36.7,20.4,36.9,19.3,36.9z M31,36.9c-2.5,0-5-0.8-7-2.3c-0.8-0.6-1.5-1.2-2-1.9c0,0,0,0-0.1-0.1l-3.6-4.3
		c-0.4-0.5-0.3-1.2,0.2-1.7c0.5-0.4,1.2-0.3,1.7,0.2l3.5,4.3c0,0,0.1,0.1,0.1,0.1c0.5,0.6,1,1.1,1.7,1.6c1.6,1.2,3.6,1.9,5.6,1.9
		c5.2,0,9.4-4.2,9.4-9.4c0-5.2-4.2-9.4-9.4-9.4c-2,0-3.9,0.6-5.5,1.8l0,0c0,0-0.1,0-0.1-0.1c-0.7-0.5-1.5-0.8-2.2-1
		c2.1-1.9,4.9-3,7.9-3c6.5,0,11.7,5.3,11.7,11.7C42.8,31.6,37.5,36.9,31,36.9z"/>
</g>
</svg>
