<?xml version="1.0" encoding="utf-8"?>
<!-- Generator: Adobe Illustrator 25.0.1, SVG Export Plug-In . SVG Version: 6.00 Build 0)  -->
<svg version="1.1" id="Calque_1" xmlns="http://www.w3.org/2000/svg" xmlns:xlink="http://www.w3.org/1999/xlink" x="0px" y="0px"
	 viewBox="0 0 50 50" style="enable-background:new 0 0 50 50;" xml:space="preserve">
<style type="text/css">
	.st0{fill:url(#SVGID_1_);}
	.st1{fill:#FDFFFD;}
</style>
<g>
	<linearGradient id="SVGID_1_" gradientUnits="userSpaceOnUse" x1="25" y1="0" x2="25" y2="50.0001">
		<stop  offset="0" style="stop-color:#63B34F"/>
		<stop  offset="0.9987" style="stop-color:#24A637"/>
	</linearGradient>
	<path class="st0" d="M39.7,0H10.3C4.6,0,0,4.6,0,10.3v29.5C0,45.4,4.6,50,10.3,50h29.5C45.4,50,50,45.4,50,39.7V10.3
		C50,4.6,45.4,0,39.7,0z"/>
	<g>
		<path class="st1" d="M24.9,39c-3.9,0-7.8,0-11.7,0c-0.6,0-1.3,0-1.9-0.1c-1.9-0.3-3.2-1.4-3.3-3.3c-0.2-3.8-0.1-7.6-0.1-11.5
			c0-0.7,0.4-0.7,0.9-0.5c3.7,1.2,7.5,2,11.3,2.3c0.7,0.1,0.7,0.5,0.7,1c0.1,1.6,0.5,2,2.2,2c1.3,0,2.7,0,4,0c1.5,0,1.9-0.4,2-1.9
			c0-0.8,0.3-1.1,1.1-1.1c3.7-0.3,7.3-1,10.8-2.2c0.9-0.3,1.1,0,1.1,0.8c0,3.5,0,6.9,0,10.4c-0.1,2.7-1.6,4.1-4.4,4.1
			C33.4,39,29.2,39,24.9,39C24.9,39,24.9,39,24.9,39z"/>
		<path class="st1" d="M25,9.5c1.7,0,3.5,0,5.2,0c2.5,0.1,3.9,1.4,3.8,3.9c0,1.2,0.4,1.4,1.5,1.4c1.4,0,2.8-0.2,4.2,0.5
			c1.8,0.9,2.8,3.2,2.3,5.1c-0.1,0.5-0.5,0.6-0.9,0.7c-10.8,3.8-21.6,3.8-32.4,0c-0.6-0.2-0.8-0.6-0.8-1.2c0-3,1-5.1,4.7-5.1
			c0.3,0,0.5,0,0.8,0c2.3,0,2.3,0,2.6-2.3c0.2-1.8,1.5-2.9,3.5-3c0.9-0.1,1.9,0,2.8,0C23.2,9.5,24.1,9.5,25,9.5
			C25,9.5,25,9.5,25,9.5z M24.9,14.8c1.7,0,3.4-0.1,5.1,0c1.3,0.1,1.4-0.5,1.3-1.5c-0.2-1.1-0.9-1.2-1.8-1.2c-3,0-6,0-9.1,0
			c-0.3,0-0.5,0-0.8,0.1c-1.1,0.2-1,1.1-1,1.9c0,1,0.7,0.7,1.2,0.7C21.5,14.8,23.2,14.8,24.9,14.8z"/>
	</g>
</g>
</svg>
