<?xml version="1.0" encoding="utf-8"?>
<!-- Generator: Adobe Illustrator 25.0.1, SVG Export Plug-In . SVG Version: 6.00 Build 0)  -->
<svg version="1.1" id="Calque_1" xmlns="http://www.w3.org/2000/svg" xmlns:xlink="http://www.w3.org/1999/xlink" x="0px" y="0px"
	 viewBox="0 0 50 50" style="enable-background:new 0 0 50 50;" xml:space="preserve">
<style type="text/css">
	.st0{fill:url(#SVGID_1_);}
	.st1{fill:#FDFBFB;}
</style>
<g>
	<linearGradient id="SVGID_1_" gradientUnits="userSpaceOnUse" x1="25" y1="0" x2="25" y2="50.0001">
		<stop  offset="0" style="stop-color:#E94C72"/>
		<stop  offset="0.9987" style="stop-color:#E41540"/>
	</linearGradient>
	<path class="st0" d="M39.7,0H10.3C4.6,0,0,4.6,0,10.3v29.5C0,45.4,4.6,50,10.3,50h29.5C45.4,50,50,45.4,50,39.7V10.3
		C50,4.6,45.4,0,39.7,0z"/>
	<g>
		<path class="st1" d="M16.5,22.1c2.6-1.2,4.9-2.4,7.2-3.3c0.7-0.3,1.7,0.2,2.5-0.2c0.6-0.2,1.3-0.4,1.3-1.2c0-0.7-0.7-0.9-1.2-1.1
			c-1.6-0.5-2.9-0.1-3.9,1.3c-0.2,0.3-0.5,0.4-0.8,0.5c-1.8,0.9-3.7,1.6-5.4,2.6c-1.3,0.7-2.4,0.4-3.5-0.3c-0.9-0.5-1.9-0.9-2.8-1.4
			c-0.7-0.4-1.3-0.9-1.2-1.8c0.1-0.8,0.6-1.4,1.4-1.7c3.9-1.5,7.6-3.3,11.4-5.1c2.9-1.4,5.6-1.1,8.4,0.5c3,1.7,6.3,3,9.5,4.4
			c0.2,0.1,0.5,0.1,0.7,0.3c0.7,0.4,1.4,0.8,1.4,1.8c0,1-0.8,1.6-1.5,1.9c-3.9,1.5-7.6,3.4-11.4,5.1c-2.4,1.1-4.7,1.1-7-0.1
			C19.9,23.6,18.4,22.9,16.5,22.1z"/>
		<path class="st1" d="M14.9,30.5c0.4-0.1,0.6,0,0.7,0.1c0.7,0.6,0.9,0.1,0.9-0.5c0-1.7,0-3.4,0-5.1c0-0.9,0.2-1.2,1.1-0.7
			c1.2,0.6,2.4,1.1,3.6,1.7c2.6,1.2,5.2,1.2,7.7,0c2.3-1.1,4.6-2.1,6.8-3.1c0.9-0.4,1.2-0.3,1.1,0.7c0,0.5-0.1,0.9,0,1.4
			c0.4,3.6-1.5,5.7-4.6,7c-4.8,1.9-9.6,1.8-14.4,0c-0.4-0.1-0.8-0.7-1.2-0.2c-0.3,0.4,0,0.9,0.4,1.2c0.6,0.6,0.4,1.3,0.5,2
			c0,0.8,0,1.5,0,2.3c0,1.1-0.7,1.6-1.7,1.6c-1.1,0-1.7-0.5-1.7-1.6c0-1.1,0-2.1,0-3.2c0-0.2,0.1-0.4,0.1-0.6
			c0.1-0.6,0.9-0.8,0.9-1.5C14.8,31.6,14.9,31,14.9,30.5z"/>
		<path class="st1" d="M14.9,30c-1.2-1.3-1.7-2.4-1.7-3.8c0-0.8,0-1.6,0-2.4c0-0.4-0.3-1.1,0.4-1.1c0.5,0,1.3,0.2,1.3,1.1
			C14.9,25.7,14.9,27.7,14.9,30z"/>
	</g>
</g>
</svg>
