<?xml version="1.0" encoding="utf-8"?>
<!-- Generator: Adobe Illustrator 25.0.1, SVG Export Plug-In . SVG Version: 6.00 Build 0)  -->
<svg version="1.1" id="Musique" xmlns="http://www.w3.org/2000/svg" xmlns:xlink="http://www.w3.org/1999/xlink" x="0px" y="0px"
	 viewBox="0 0 50 50" style="enable-background:new 0 0 50 50;" xml:space="preserve">
<style type="text/css">
	.st0{fill:url(#SVGID_1_);}
	.st1{fill:#FFFFFF;}
</style>
<linearGradient id="SVGID_1_" gradientUnits="userSpaceOnUse" x1="25" y1="52" x2="25" y2="2" gradientTransform="matrix(1 0 0 -1 0 52)">
	<stop  offset="0" style="stop-color:#1C73F1"/>
	<stop  offset="1" style="stop-color:#1CC6FA"/>
</linearGradient>
<path class="st0" d="M39.7,0H10.3C4.6,0,0,4.6,0,10.3v29.5C0,45.4,4.6,50,10.3,50h29.5C45.4,50,50,45.4,50,39.7V10.3
	C50,4.6,45.4,0,39.7,0z"/>
<g>
	<path class="st1" d="M7.1,13.1L21,27.4c2.2,2.2,5.7,2.2,8,0l13.9-14.2c-0.4-0.3-1-0.5-1.5-0.6c-6.5,0-26,0-32.6,0
		C8.1,12.6,7.6,12.8,7.1,13.1z"/>
	<path class="st1" d="M17.2,25.2c0,0-8.8-9.1-10.9-11.3c-0.3,0.5-0.5,1-0.5,1.6v18.9c0,0.6,0.2,1.1,0.5,1.6L17.2,25.2z"/>
	<path class="st1" d="M32.8,25.1L43.7,36c0.3-0.4,0.4-1,0.4-1.5V15.5c0-0.6-0.2-1.2-0.5-1.7C41.5,16.1,32.8,25.1,32.8,25.1z"/>
	<path class="st1" d="M32.1,26l-2.4,2.5c-2.6,2.7-6.8,2.7-9.4,0L17.9,26L7.1,36.9c0.5,0.4,1.1,0.6,1.8,0.6h32.3
		c0.7,0,1.3-0.2,1.8-0.6L32.1,26z"/>
</g>
</svg>
