<?xml version="1.0" encoding="utf-8"?>
<!-- Generator: Adobe Illustrator 25.0.1, SVG Export Plug-In . SVG Version: 6.00 Build 0)  -->
<svg lass="app" version="1.1" id="Musique" xmlns="http://www.w3.org/2000/svg" xmlns:xlink="http://www.w3.org/1999/xlink" x="0px" y="0px"
	 viewBox="0 0 50 50" style="enable-background:new 0 0 50 50;" xml:space="preserve">
<style type="text/css">
	.Musiquest0{fill:url(#MusiqueSVGID_1_);}
	.Musiquest1{fill:#FFFBFB;}
</style>
<g>
	<linearGradient id="MusiqueSVGID_1_" gradientUnits="userSpaceOnUse" x1="25" y1="0" x2="25" y2="50.0001">
		<stop  offset="0" style="stop-color:#E94C72"/>
		<stop  offset="0.9987" style="stop-color:#E41540"/>
	</linearGradient>
	<path class="Musiquest0" d="M39.7,0H10.3C4.6,0,0,4.6,0,10.3v29.5C0,45.4,4.6,50,10.3,50h29.5C45.4,50,50,45.4,50,39.7V10.3
		C50,4.6,45.4,0,39.7,0z"/>
	<path class="Musiquest1" d="M38.6,21.1c0,4.1,0,8.1,0,12.2c0,2.1-0.8,3.8-2.9,4.6c-1.6,0.6-3.3,1-5,0.1c-1.4-0.8-2.2-2.1-2-3.8
		c0.2-1.7,1.2-2.9,2.8-3.5c1.1-0.4,2.3-0.6,3.5-0.8c1.3-0.3,1.7-0.7,1.7-2c0-3.7,0-7.4,0-11.1c0-1-0.4-1.3-1.4-1.1
		c-4.2,0.8-8.5,1.7-12.7,2.6c-1.1,0.2-1.3,0.5-1.3,1.6c0,5.4,0,10.8,0,16.2c0,1-0.1,2-0.5,3c-0.4,1-1.1,1.8-2.1,2.2
		c-1.7,0.7-3.4,1.2-5.1,0.3c-1.5-0.8-2.4-2.4-2.1-3.9c0.2-1.8,1.3-3,3-3.5c1.1-0.3,2.3-0.6,3.4-0.8c1.2-0.3,1.5-0.7,1.5-1.9
		c0-6.1,0-12.2,0-18.3c0-0.3,0-0.6,0-0.9c0-1,0.5-1.6,1.4-1.8c2.6-0.6,5.2-1.1,7.9-1.6c2.6-0.5,5.3-1,7.9-1.6c1.7-0.4,2.2,0,2.2,1.8
		C38.7,13.1,38.7,17.1,38.6,21.1C38.7,21.1,38.6,21.1,38.6,21.1z"/>
</g>
</svg>
