<?xml version="1.0" encoding="utf-8"?>
<!-- Generator: Adobe Illustrator 25.0.1, SVG Export Plug-In . SVG Version: 6.00 Build 0)  -->
<svg version="1.1" id="Phone" xmlns="http://www.w3.org/2000/svg" xmlns:xlink="http://www.w3.org/1999/xlink" x="0px" y="0px"
	 viewBox="0 0 50 50" style="enable-background:new 0 0 50 50;" xml:space="preserve">
<style type="text/css">
	.Phonest0{fill:#FFFFFF;}
	.Phonest1{fill:url(#PhoneSVGID_1_);}
</style>
<g>
	<path class="Phonest0" d="M35.1,44.3H14.9c-4.3,0-7.8-3.5-7.8-7.8V16.3c0-4.3,3.5-7.8,7.8-7.8h20.2c4.3,0,7.8,3.5,7.8,7.8v20.2
		C42.9,40.8,39.4,44.3,35.1,44.3z"/>
	<g>
		<g>
			<g>
				<linearGradient id="PhoneSVGID_1_" gradientUnits="userSpaceOnUse" x1="25" y1="0" x2="25" y2="50">
					<stop  offset="0" style="stop-color:#78BA5D"/>
					<stop  offset="0.9987" style="stop-color:#49AB38"/>
				</linearGradient>
				<path class="Phonest1" d="M39.7,0H10.3C4.6,0,0,4.6,0,10.3v29.5C0,45.4,4.6,50,10.3,50h29.5C45.4,50,50,45.4,50,39.7V10.3
					C50,4.6,45.4,0,39.7,0z M38.2,36.1l-0.8,1.3c-3.1,3.1-11.1,0-18-6.9c-6.9-6.9-10-14.9-6.9-18l1.3-0.8c1.2-0.7,2.7-0.3,3.4,0.9
					l1.9,3.1c0.6,1,0.4,2.2-0.4,3.1c-1.1,1.1-1.1,3,0,4.1l8.3,8.3c1.1,1.1,3,1.1,4.1,0c0.8-0.8,2.1-1,3.1-0.4l3.1,1.9
					C38.5,33.4,38.9,34.9,38.2,36.1z"/>
			</g>
		</g>
	</g>
</g>
</svg>
