<?xml version="1.0" encoding="utf-8"?>
<!-- Generator: Adobe Illustrator 25.0.1, SVG Export Plug-In . SVG Version: 6.00 Build 0)  -->
<svg version="1.1" id="Calque_1" xmlns="http://www.w3.org/2000/svg" xmlns:xlink="http://www.w3.org/1999/xlink" x="0px" y="0px"
	 viewBox="0 0 50 50" style="enable-background:new 0 0 50 50;" xml:space="preserve">
<style type="text/css">
	.st0{fill:url(#SVGID_1_);}
	.st1{fill:#2E2F30;}
	.st2{fill:url(#SVGID_2_);}
	.st3{fill:url(#SVGID_3_);}
</style>
<g>
	<linearGradient id="SVGID_1_" gradientUnits="userSpaceOnUse" x1="25" y1="0" x2="25" y2="50">
		<stop  offset="0" style="stop-color:#DFE4E8"/>
		<stop  offset="0.9987" style="stop-color:#8E8E92"/>
	</linearGradient>
	<path class="st0" d="M39.7,0H10.3C4.6,0,0,4.6,0,10.3v29.5C0,45.4,4.6,50,10.3,50h29.5C45.4,50,50,45.4,50,39.7V10.3
		C50,4.6,45.4,0,39.7,0z"/>
	<circle class="st1" cx="25" cy="25" r="21.4"/>
	<linearGradient id="SVGID_2_" gradientUnits="userSpaceOnUse" x1="25" y1="6.3273" x2="25" y2="43.9415">
		<stop  offset="0" style="stop-color:#DFE4E8"/>
		<stop  offset="0.9987" style="stop-color:#8E8E92"/>
	</linearGradient>
	<path class="st2" d="M11.3,39.3c0.1-0.1,0.2-0.3,0.3-0.4c0.4-0.5,0.8-1,1.2-1.5c0.1-0.2,0.1-0.3,0-0.4c0,0,0,0,0,0
		c-0.7-0.7-0.7-0.7-1.5-0.2c-0.3,0.2-0.7,0.5-1,0.8c-0.1,0.1-0.3,0.2-0.4,0.2c0,0,0,0-0.1-0.1c0.1-0.1,0.1-0.1,0.2-0.2
		c0.5-0.5,0.9-1,1.4-1.5c0.2-0.3,0.3-0.4,0-0.7c-0.5-0.7-0.6-0.7-1.3-0.3c-0.4,0.2-0.8,0.5-1.2,0.7c-0.1,0.1-0.3,0.1-0.4,0.1
		c0,0,0-0.1,0-0.1c0.1-0.1,0.2-0.2,0.3-0.3c0.5-0.4,1-0.8,1.4-1.2c0.2-0.2,0.3-0.4,0.1-0.6c-0.5-0.8-0.5-0.8-1.3-0.5
		c-0.4,0.2-0.9,0.4-1.3,0.6c-0.1,0.1-0.3,0.1-0.4,0.1c0,0,0-0.1,0-0.1c0.1-0.1,0.2-0.1,0.3-0.2c0.5-0.4,1.1-0.7,1.6-1.1
		c0.3-0.2,0.3-0.4,0.2-0.7c-0.3-0.8-0.4-0.8-1.2-0.6c-0.4,0.1-0.9,0.3-1.3,0.4c-0.1,0-0.3,0.1-0.4,0.1c0,0,0-0.1,0-0.1
		c0.1-0.1,0.2-0.1,0.3-0.2C7,31.2,7.6,31,8.2,30.7c0.2-0.1,0.3-0.2,0.3-0.4c0.2-0.5-0.3-1.1-0.8-1c-0.6,0.1-1.1,0.2-1.7,0.3
		c-0.1,0-0.3,0-0.5,0c0,0,0-0.1,0-0.1c0.1,0,0.2-0.1,0.3-0.1c0.6-0.2,1.2-0.4,1.7-0.6C7.9,28.6,8,28.4,8,28.1c0-0.1,0-0.2,0-0.2
		c-0.1-0.6-0.1-0.7-0.8-0.7c-0.5,0-1.1,0.1-1.6,0.1c-0.1,0-0.3,0-0.4,0c0,0,0-0.1,0-0.1c0.4-0.1,0.8-0.2,1.2-0.3
		c0.4-0.1,0.8-0.2,1.3-0.3c0-0.4,0.1-0.7,0.1-1.1c0-0.3-0.2-0.3-0.5-0.3c-0.6,0-1.3-0.1-1.9-0.1C5.2,25,5.1,25,5,25c0,0,0-0.1,0-0.1
		c0.8-0.1,1.7-0.2,2.5-0.3c0.1-0.4,0.2-0.7,0.2-1.1c0-0.2-0.2-0.3-0.3-0.4c-0.6-0.1-1.2-0.2-1.8-0.3c-0.1,0-0.2-0.1-0.4-0.1
		c0,0,0-0.1,0-0.1c0.8,0,1.7,0,2.5,0c0.1-0.4,0.2-0.7,0.3-1.1c0-0.2-0.1-0.3-0.3-0.4c-0.6-0.2-1.1-0.4-1.7-0.5c-0.1,0-0.2,0-0.2-0.1
		c-0.1,0-0.1-0.1-0.1-0.1c0.1,0,0.1-0.1,0.2-0.1c0.4,0,0.8,0.1,1.1,0.1c0.4,0,0.8,0.1,1.2,0.2c0.1-0.4,0.3-0.7,0.4-1.1
		c0-0.1-0.1-0.3-0.3-0.3c-0.6-0.3-1.1-0.5-1.7-0.8c-0.1,0-0.2-0.1-0.2-0.2c0.8,0,1.6,0.3,2.5,0.5c0.2-0.3,0.3-0.6,0.4-1
		c0-0.1-0.1-0.3-0.2-0.4c-0.5-0.3-1-0.7-1.6-1c-0.1-0.1-0.2-0.1-0.2-0.2c0,0,0-0.1,0-0.1c0.1,0,0.2,0,0.3,0.1
		c0.6,0.2,1.2,0.4,1.8,0.7c0.2,0.1,0.3,0,0.3-0.1c0.1-0.2,0.2-0.4,0.4-0.6c0.1-0.2,0.1-0.4-0.1-0.6c-0.4-0.4-0.9-0.7-1.3-1.1
		c-0.1-0.1-0.2-0.2-0.3-0.2c0,0,0.1-0.1,0.1-0.1c0.7,0.3,1.4,0.7,2.1,1c0.2-0.3,0.4-0.5,0.6-0.8c0.1-0.2,0.1-0.3-0.1-0.5
		c-0.3-0.3-0.6-0.7-0.9-1c-0.1-0.1-0.1-0.2-0.2-0.3c0.7,0.3,1.2,0.7,1.8,1c0.2-0.2,0.5-0.4,0.7-0.7c0.1-0.1,0.1-0.4,0-0.5
		c-0.2-0.4-0.4-0.7-0.7-1c-0.1-0.1-0.1-0.2-0.1-0.3c0,0,0,0,0.1-0.1c0.1,0.1,0.2,0.1,0.3,0.2c0.3,0.3,0.7,0.5,1,0.8
		c0.2,0.2,0.3,0.2,0.5,0c0.1-0.1,0.3-0.2,0.4-0.3c0.2-0.2,0.3-0.4,0.1-0.6c-0.1-0.3-0.3-0.6-0.4-0.9c0-0.1-0.1-0.2-0.1-0.4
		c0,0,0.1,0,0.1-0.1c0.4,0.4,0.8,0.8,1.2,1.2c0.3-0.2,0.5-0.3,0.7-0.5c0.1-0.1,0.1-0.4,0.1-0.6c0-0.3-0.2-0.6-0.2-0.8
		c0-0.1,0-0.3,0-0.4c0,0,0.1,0,0.1,0c0.3,0.4,0.7,0.8,1,1.3c0.3-0.1,0.6-0.2,0.8-0.4c0.1-0.1,0.1-0.4,0.1-0.6c0-0.2-0.1-0.5-0.1-0.8
		c0-0.1,0.1-0.2,0.1-0.3c0,0,0.1,0,0.1,0c0.3,0.4,0.5,0.8,0.8,1.2c0.3-0.1,0.6-0.2,0.9-0.3c0.1,0,0.1-0.1,0.1-0.2c0-0.3,0-0.6,0.1-1
		c0-0.1,0.1-0.2,0.2-0.3C19.9,7,20,7.1,20,7.2c0.1,0.2,0.2,0.5,0.4,0.8c0,0.1,0.2,0.1,0.3,0.1c0,0,0,0,0,0c0.3-0.1,0.6,0,0.7-0.2
		c0.1-0.1,0.1-0.5,0.1-0.7c0,0,0-0.1,0-0.1c0.1-0.2,0.2-0.4,0.4-0.5C22,6.7,22.1,6.8,22.2,7c0.1,0.2,0.1,0.5,0.3,0.6
		c0.1,0.1,0.4,0,0.7,0c0.3,0,0.4-0.1,0.4-0.4c0-0.2,0-0.4,0.1-0.5c0.1-0.1,0.2-0.3,0.4-0.3c0.2,0,0.3,0.1,0.3,0.3
		c0.1,0.3,0.1,0.6,0.2,0.9c0.2,0,0.4,0,0.5,0c0.2,0,0.3,0,0.5,0c0.1-0.3,0.1-0.6,0.2-0.9c0-0.1,0.2-0.2,0.3-0.3
		c0.1,0.1,0.3,0.2,0.4,0.3c0.1,0.2,0.1,0.4,0.1,0.6c0,0.2,0.1,0.4,0.4,0.4c0.2,0,0.4,0.1,0.6,0c0.1,0,0.2-0.1,0.2-0.2
		c0.1-0.2,0.2-0.5,0.3-0.7c0-0.1,0.2-0.2,0.2-0.2c0.1,0,0.2,0.1,0.2,0.2c0.1,0.3,0.1,0.5,0.1,0.8c0,0.2,0.1,0.4,0.3,0.4
		c0.1,0,0.1,0,0.2,0c0.6,0.1,0.6,0.1,0.8-0.4c0.1-0.2,0.1-0.3,0.2-0.5c0-0.1,0.1-0.1,0.2-0.2c0.1,0.1,0.2,0.1,0.2,0.2
		c0,0.3,0.1,0.7,0.1,1c0,0.2,0,0.2,0.2,0.3c0.3,0.1,0.5,0.2,0.8,0.3c0.3-0.4,0.5-0.8,0.8-1.2c0,0,0.1,0,0.1,0c0,0.1,0.1,0.3,0.1,0.4
		c0,0.4,0,0.7-0.1,1.1c0,0.1,0,0.2,0.1,0.2c0.3,0.1,0.6,0.3,0.8,0.4c0.3-0.4,0.7-0.8,1-1.2c0,0,0.1,0,0.1,0c0,0.1,0,0.2,0,0.4
		c-0.1,0.3-0.2,0.5-0.2,0.8c-0.1,0.4-0.1,0.5,0.3,0.7c0.2,0.1,0.4,0.3,0.7,0.5c0.4-0.4,0.8-0.8,1.2-1.3c0,0,0,0,0.1,0
		c0,0.1,0,0.2-0.1,0.3c-0.1,0.3-0.3,0.6-0.4,0.9c-0.2,0.3-0.1,0.5,0.2,0.7c0.2,0.2,0.4,0.4,0.6,0.4c0.2,0,0.4-0.3,0.6-0.4
		c0.3-0.2,0.5-0.4,0.8-0.6c0,0,0.1,0,0.2-0.1c-0.1,0.2-0.1,0.3-0.2,0.4c-0.2,0.3-0.4,0.6-0.6,1c-0.2,0.3-0.2,0.4,0.1,0.7
		c0.2,0.2,0.4,0.4,0.6,0.6c0,0,0,0,0,0c0.6-0.4,1.2-0.7,1.7-1.1c0,0,0.1,0.1,0.1,0.1c-0.1,0.1-0.1,0.2-0.2,0.3
		c-0.3,0.3-0.6,0.7-0.9,1c-0.2,0.2-0.2,0.4,0,0.6c0.2,0.2,0.3,0.4,0.5,0.7c0.7-0.3,1.4-0.7,2.2-1c0,0.1,0.1,0.1,0.1,0.2
		c-0.1,0.1-0.2,0.1-0.3,0.2c-0.4,0.3-0.8,0.7-1.2,1c-0.3,0.3-0.3,0.3-0.1,0.7c0,0.1,0.1,0.1,0.1,0.2c0.3,0.6,0.3,0.5,0.9,0.3
		c0.5-0.2,0.9-0.3,1.4-0.5c0.1,0,0.2,0,0.3-0.1c0,0,0,0.1,0,0.1c-0.1,0.1-0.2,0.1-0.3,0.2c-0.5,0.3-1,0.6-1.5,0.9
		c-0.3,0.2-0.3,0.3-0.2,0.6c0.1,0.2,0.2,0.5,0.4,0.8c0.8-0.2,1.6-0.4,2.5-0.5c0,0,0,0.1,0,0.1c-0.1,0-0.2,0.1-0.3,0.1
		c-0.6,0.3-1.1,0.5-1.7,0.8c-0.3,0.2-0.4,0.2-0.2,0.6c0.1,0.3,0.2,0.6,0.3,0.9c0.5-0.1,1.1-0.1,1.6-0.2c0.2,0,0.4-0.1,0.7-0.1
		c0.1,0,0.2,0,0.2,0.1c-0.1,0.1-0.1,0.1-0.2,0.2c-0.6,0.2-1.2,0.3-1.7,0.5c-0.5,0.2-0.5,0.2-0.4,0.7c0,0.1,0,0.3,0.1,0.4
		c0,0.1,0.1,0.3,0.1,0.4c0.8,0,1.7,0,2.5,0c0,0,0,0.1,0,0.1c-0.1,0-0.2,0.1-0.3,0.1c-0.6,0.1-1.2,0.2-1.8,0.3
		c-0.4,0.1-0.5,0.2-0.4,0.6c0.1,0.3,0.1,0.5,0.1,0.8c0.9,0.1,1.7,0.2,2.5,0.3c0,0,0,0.1,0,0.1c-0.1,0-0.2,0.1-0.3,0.1
		c-0.6,0-1.2,0.1-1.8,0.1c-0.5,0-0.7,0.2-0.5,0.7c0.1,0.2,0,0.5,0,0.8c0.9,0.2,1.7,0.4,2.5,0.6c0,0,0,0.1,0,0.1c-0.1,0-0.3,0-0.4,0
		c-0.6,0-1.1-0.1-1.7-0.1c-0.5,0-0.6,0.1-0.7,0.6c0,0.1,0,0.2,0,0.2c0,0.4,0,0.5,0.4,0.6c0.6,0.2,1.2,0.4,1.7,0.6
		c0.1,0,0.2,0.1,0.3,0.1c0,0,0,0.1,0,0.1c-0.1,0-0.3,0-0.4,0c-0.5-0.1-1-0.2-1.6-0.3c-0.7-0.1-1.2,0.5-0.9,1.2
		c0,0.1,0.1,0.1,0.2,0.2c0.6,0.3,1.1,0.6,1.7,0.8c0.1,0.1,0.2,0.1,0.3,0.2c0,0,0,0.1,0,0.1c-0.1,0-0.3,0-0.4-0.1
		c-0.6-0.2-1.1-0.3-1.7-0.5c-0.5-0.1-0.6,0-0.8,0.4c0,0.1-0.1,0.2-0.1,0.3c-0.1,0.3,0,0.5,0.2,0.6c0.6,0.4,1.1,0.7,1.7,1.1
		c0.1,0.1,0.2,0.1,0.3,0.2c0,0,0,0.1,0,0.1c-0.2,0-0.3-0.1-0.5-0.1c-0.5-0.2-1.1-0.5-1.6-0.7c-0.4-0.2-0.6-0.1-0.8,0.3
		c-0.4,0.7-0.4,0.7,0.2,1.2c0.4,0.3,0.8,0.7,1.2,1c0.1,0.1,0.2,0.1,0.2,0.2c0,0,0,0.1,0,0.1c-0.1,0-0.3-0.1-0.4-0.2
		c-0.5-0.3-1-0.6-1.5-0.8c-0.4-0.2-0.6-0.2-0.9,0.2c-0.4,0.6-0.4,0.6,0.1,1.1c0.5,0.5,0.9,1,1.4,1.4c0,0,0,0.1-0.1,0.1
		c-0.1-0.1-0.3-0.1-0.4-0.2c-0.5-0.3-0.9-0.7-1.4-1c-0.4-0.3-0.6-0.3-0.9,0.1c-0.6,0.6-0.6,0.5-0.1,1.1c0.4,0.4,0.7,0.9,1,1.3
		c0.1,0.1,0.1,0.2,0.2,0.2c0,0,0,0-0.1,0.1c-0.1-0.1-0.2-0.1-0.3-0.2c-0.4-0.4-0.8-0.8-1.3-1.2c-0.3-0.3-0.5-0.3-0.8,0
		c-0.2,0.2-0.5,0.3-0.5,0.5c0,0.2,0.2,0.4,0.3,0.6c0.3,0.5,0.5,0.9,0.8,1.4c0,0.1,0.1,0.2,0.1,0.2c0,0,0,0-0.1,0.1
		c-0.1-0.1-0.2-0.2-0.3-0.3c-0.4-0.4-0.8-0.9-1.2-1.3C35.2,39,35,39,34.7,39.1c-0.2,0.1-0.4,0.2-0.6,0.4C34,39.6,34,39.8,34,39.9
		c0.2,0.5,0.5,0.9,0.7,1.4c0.1,0.2,0.2,0.5,0.3,0.7c0,0-0.1,0-0.1,0.1c-0.1-0.1-0.2-0.2-0.3-0.3c-0.3-0.5-0.6-0.9-1-1.4
		c-0.2-0.3-0.5-0.4-0.8-0.2c-0.2,0.1-0.4,0.2-0.5,0.3c-0.2,0.1-0.2,0.3-0.1,0.5c0.1,0.1,0.1,0.1,0.1,0.2c0.2,0.5,0.3,1.1,0.5,1.6
		c0,0.1,0,0.1-0.1,0.2c-0.1-0.1-0.2-0.2-0.2-0.3c-0.3-0.5-0.5-1-0.8-1.5c-0.2-0.3-0.4-0.4-0.7-0.3c-0.2,0.1-0.4,0.1-0.6,0.2
		c-0.2,0.1-0.3,0.3-0.2,0.5c0.3,0.4,0.3,0.9,0.4,1.4c0.1,0.2,0.1,0.5,0.1,0.7c0,0-0.1,0-0.1,0c-0.1-0.1-0.1-0.2-0.2-0.3
		c-0.2-0.5-0.4-1-0.6-1.5c-0.1-0.3-0.3-0.4-0.6-0.3c-0.2,0-0.4,0.1-0.6,0.1c-0.3,0.1-0.4,0.3-0.3,0.6c0.1,0.5,0.1,1,0.2,1.6
		c0,0-0.1,0-0.1,0c-0.1-0.4-0.3-0.9-0.4-1.3c0-0.1-0.1-0.2-0.1-0.3c-0.1-0.3-0.3-0.4-0.5-0.4c-0.2,0-0.4,0-0.6,0.1
		c-0.4,0.1-0.5,0.2-0.5,0.6c0,0.4,0,0.8,0,1.3c0,0-0.1,0-0.1,0c-0.1-0.4-0.1-0.8-0.2-1.2c-0.1-0.5-0.2-0.6-0.6-0.6
		c-0.2,0-0.3,0-0.5,0c-0.4,0-0.5,0.1-0.5,0.5c-0.1,0.4-0.1,0.8-0.3,1.3c0-0.2-0.1-0.3-0.1-0.5c0-0.3,0-0.6,0-0.8
		c0-0.2-0.1-0.4-0.4-0.4c-0.2,0-0.5-0.1-0.8-0.1c-0.3,0-0.5,0.1-0.5,0.4c-0.1,0.4-0.3,0.9-0.4,1.3c0,0.1-0.1,0.2-0.1,0.3
		c0-0.1,0-0.1,0-0.2c0-0.5,0.1-1,0.2-1.5c0-0.2,0-0.4-0.3-0.5c-0.3-0.1-0.5-0.1-0.8-0.2c-0.3-0.1-0.5,0.1-0.6,0.3
		c-0.2,0.5-0.4,1-0.6,1.5c-0.1,0.1-0.1,0.2-0.2,0.4c0,0-0.1,0-0.1,0c0-0.1,0-0.2,0-0.3c0.1-0.4,0.1-0.9,0.2-1.3
		c0-0.1,0.1-0.3,0.2-0.4c0.1-0.2,0.1-0.4-0.1-0.5c-0.1,0-0.2-0.1-0.3-0.1c-0.8-0.3-0.9-0.3-1.3,0.5c-0.2,0.4-0.4,0.8-0.6,1.2
		c-0.1,0.1-0.1,0.2-0.2,0.3c0-0.1-0.1-0.1-0.1-0.1c0.2-0.7,0.3-1.4,0.7-2c0.1-0.1,0-0.2,0-0.3c0-0.1-0.1-0.1-0.2-0.2
		c-0.9-0.5-1-0.5-1.6,0.3c-0.2,0.3-0.4,0.7-0.7,1c-0.1,0.1-0.2,0.2-0.2,0.3c0,0,0,0-0.1-0.1c0-0.1,0.1-0.2,0.1-0.3
		c0.2-0.5,0.4-0.9,0.6-1.4c0-0.1,0.1-0.2,0.1-0.3c0.3-0.4,0.3-0.4-0.2-0.7c-0.1,0-0.2-0.1-0.2-0.1C15,39,14.8,39,14.5,39.3
		c-0.4,0.4-0.7,0.8-1.1,1.2c-0.1,0.1-0.2,0.2-0.3,0.3c0,0,0,0-0.1-0.1c0-0.1,0.1-0.2,0.1-0.2c0.4-0.6,0.7-1.2,1.1-1.8
		c0.1-0.1,0-0.3,0-0.4c-0.2-0.2-0.4-0.3-0.6-0.5c-0.2-0.2-0.4-0.1-0.6,0.1c-0.4,0.4-0.9,0.8-1.3,1.2C11.6,39.2,11.5,39.3,11.3,39.3
		C11.3,39.4,11.3,39.3,11.3,39.3z M32.3,25.7c-1.5,0-3.1,0-4.6,0c-1.5,0-2.6,0.7-3.3,1.9c-1.5,2.6-3,5.1-4.5,7.7
		C19.3,36.2,19,37,19.3,38c0.2,0.5,0.4,1,0.8,1.3c0.6,0.4,1.2,0.7,1.9,0.9c1.8,0.4,3.7,0.4,5.5,0.1c4.4-0.8,7.9-3,10.3-6.8
		c1-1.4,1.7-3,2-4.7c0.2-1.7-0.4-2.5-2.1-2.9c-0.4-0.1-0.8-0.1-1.2-0.1C35.2,25.7,33.7,25.7,32.3,25.7z M19.6,32.5
		c1.1-1.9,2.3-3.8,3.3-5.7c0.7-1.2,0.7-2.6,0-3.9c-1.3-2.3-2.7-4.6-4-6.9c-0.4-0.6-0.8-1.3-1.3-1.9c-0.9-1-2-1.1-3.2-0.4
		c-0.7,0.4-1.2,1-1.7,1.6c-2.5,3.3-3.5,7-3.1,11c0.2,2.9,1.3,5.4,2.9,7.8c0.6,0.8,1.1,1.5,2,2c0.4,0.2,0.8,0.4,1.2,0.4
		c0.8,0.1,1.5-0.3,2-0.9c0.7-0.8,1.8-2.7,1.8-2.8L19.6,32.5z M36.5,24c0.5,0,1-0.1,1.5-0.2c1.3-0.3,1.8-1,1.8-2.4
		c0-1.1-0.3-2.2-0.7-3.2c-3-6.4-9.8-9.9-16.7-8.8c-0.8,0.1-1.6,0.4-2.3,0.9c-0.3,0.3-0.7,0.5-0.7,1c-0.1,0.5-0.1,1.1,0,1.6
		c0.1,0.6,0.4,1.2,0.8,1.7c0.4,0.6,0.7,1.3,1.1,2c1.1,1.8,2.1,3.6,3.2,5.5c0.4,0.7,1,1.2,1.7,1.5c0.5,0.2,1,0.3,1.5,0.3
		c2.2,0,4.4,0,6.5,0L36.5,24z M25,24c-0.4,0-0.9,0.4-0.9,0.7c0,0.6,0.4,1.1,0.9,1.1c0.5,0,0.9-0.5,0.9-1.1C25.9,24.3,25.4,24,25,24z
		"/>
	<linearGradient id="SVGID_3_" gradientUnits="userSpaceOnUse" x1="25.4113" y1="11.515" x2="25.4113" y2="38.227">
		<stop  offset="0" style="stop-color:#DFE4E8"/>
		<stop  offset="0.9987" style="stop-color:#8E8E92"/>
	</linearGradient>
	<path class="st3" d="M38.1,28.1c-0.1,0-0.2,0-0.3,0c-0.4-0.1-0.8-0.1-1.3-0.2c-0.1,0-0.2,0-0.2,0.1c0,0,0,0,0,0
		C36,28.7,36,28.8,36.6,29c0.3,0.1,0.5,0.2,0.8,0.3c0.1,0,0.2,0.1,0.3,0.2c0,0,0,0,0,0.1c-0.1,0-0.1,0-0.2,0
		c-0.4-0.1-0.9-0.2-1.3-0.3c-0.2-0.1-0.3,0-0.4,0.2C35.5,30,35.5,30,36,30.3c0.3,0.2,0.6,0.3,0.8,0.5c0.1,0,0.1,0.1,0.2,0.2
		c0,0,0,0,0,0.1c-0.1,0-0.2-0.1-0.3-0.1c-0.4-0.1-0.8-0.3-1.2-0.4c-0.2-0.1-0.3,0-0.4,0.1c-0.3,0.5-0.3,0.5,0.2,0.9
		c0.2,0.2,0.5,0.4,0.8,0.6c0.1,0.1,0.1,0.1,0.2,0.2c0,0,0,0,0,0c-0.1,0-0.1-0.1-0.2-0.1c-0.4-0.2-0.8-0.4-1.2-0.6
		c-0.2-0.1-0.3-0.1-0.5,0.1c-0.4,0.5-0.4,0.5,0.1,0.9c0.2,0.2,0.5,0.4,0.7,0.6c0.1,0.1,0.1,0.2,0.2,0.2c0,0,0,0,0,0.1
		c-0.1,0-0.1-0.1-0.2-0.1c-0.4-0.2-0.7-0.5-1.1-0.7c-0.1-0.1-0.2-0.1-0.3-0.1c-0.4,0.1-0.6,0.5-0.3,0.8c0.2,0.3,0.5,0.6,0.7,0.9
		c0.1,0.1,0.1,0.2,0.2,0.3c0,0,0,0-0.1,0c-0.1,0-0.1-0.1-0.2-0.1c-0.3-0.3-0.6-0.5-0.9-0.8c-0.2-0.2-0.3-0.1-0.5,0
		c0,0-0.1,0.1-0.1,0.1c-0.4,0.3-0.4,0.3-0.1,0.7c0.2,0.3,0.4,0.6,0.6,0.9c0.1,0.1,0.1,0.2,0.1,0.3c0,0-0.1,0-0.1,0.1
		c-0.2-0.2-0.4-0.4-0.6-0.6c-0.2-0.2-0.4-0.4-0.6-0.6c-0.2,0.1-0.4,0.2-0.6,0.3c-0.2,0.1-0.1,0.2-0.1,0.4c0.2,0.4,0.4,0.8,0.6,1.1
		c0,0.1,0,0.1,0.1,0.2c0,0-0.1,0-0.1,0c-0.3-0.5-0.7-0.9-1-1.4c-0.2,0.1-0.5,0.1-0.7,0.2c-0.1,0.1-0.1,0.2-0.1,0.3
		c0.1,0.4,0.3,0.8,0.4,1.2c0,0.1,0,0.2,0.1,0.2c0,0-0.1,0-0.1,0c-0.3-0.5-0.6-1-0.8-1.5c-0.3,0.1-0.5,0.1-0.7,0.2
		c-0.1,0-0.1,0.2-0.1,0.3c0.1,0.4,0.2,0.8,0.3,1.2c0,0.1,0,0.1,0,0.2c0,0,0,0.1,0,0.1c0,0-0.1,0-0.1-0.1c-0.1-0.2-0.2-0.5-0.3-0.7
		c-0.1-0.2-0.2-0.5-0.3-0.7c-0.3,0-0.5,0.1-0.7,0.1c-0.1,0-0.1,0.2-0.1,0.3c0,0.4,0.1,0.8,0.1,1.3c0,0.1,0,0.1,0,0.2
		c-0.3-0.5-0.4-1.1-0.5-1.6c-0.2,0-0.5,0-0.7,0.1c-0.1,0-0.2,0.2-0.2,0.2c0,0.4,0,0.8-0.1,1.2c0,0.1,0,0.1,0,0.2c0,0,0,0-0.1,0
		c0-0.1-0.1-0.1-0.1-0.2c-0.1-0.4-0.2-0.9-0.2-1.3c0-0.1-0.1-0.2-0.2-0.2c-0.2,0-0.3,0-0.5,0c-0.2,0-0.3,0.1-0.3,0.2
		c-0.1,0.4-0.1,0.7-0.2,1.1c0,0.1,0,0.2,0,0.3c0,0-0.1,0-0.1,0c0-0.5-0.1-1-0.1-1.6c-0.2,0-0.4-0.1-0.7-0.1c-0.1,0-0.2,0.1-0.3,0.2
		c-0.1,0.3-0.2,0.6-0.3,0.9c0,0.1-0.1,0.2-0.1,0.2c-0.1-0.5,0-0.9,0-1.4c-0.2-0.1-0.4-0.1-0.6-0.2c-0.1,0-0.2,0.1-0.3,0.2
		c-0.1,0.2-0.2,0.5-0.4,0.7c0,0.1-0.1,0.1-0.1,0.2c0,0,0,0-0.1,0c0-0.1,0-0.1,0-0.2c0-0.3,0.1-0.6,0.1-0.9c0-0.2,0-0.2-0.2-0.3
		c-0.1,0-0.2-0.1-0.3-0.1c-0.2-0.1-0.3,0-0.4,0.1c-0.1,0.2-0.3,0.4-0.4,0.6c0,0.1-0.1,0.1-0.2,0.2c0,0-0.1,0-0.1,0
		c0.1-0.4,0.2-0.8,0.3-1.1c-0.2-0.1-0.4-0.2-0.5-0.3c-0.1,0-0.3,0-0.4,0.1c-0.2,0.1-0.3,0.3-0.4,0.4c-0.1,0.1-0.1,0.1-0.2,0.1
		c0,0,0,0-0.1,0c0.1-0.3,0.3-0.7,0.4-1c-0.2-0.1-0.3-0.3-0.5-0.3c-0.1,0-0.3,0-0.4,0.1c-0.1,0.1-0.3,0.2-0.4,0.3
		c-0.1,0-0.2,0-0.2,0.1c0,0,0,0,0-0.1c0.2-0.3,0.3-0.6,0.5-0.9c-0.2-0.1-0.3-0.3-0.5-0.4c0,0-0.1,0-0.2,0c-0.2,0.1-0.4,0.2-0.6,0.3
		c-0.1,0-0.2,0-0.2,0c0-0.1,0-0.2,0.1-0.2c0.1-0.2,0.2-0.3,0.3-0.5c0,0,0-0.1,0-0.2c0,0,0,0,0,0c-0.1-0.1-0.2-0.3-0.4-0.4
		c-0.1,0-0.3,0.1-0.5,0.2c0,0,0,0-0.1,0c-0.1,0-0.3,0-0.4,0c0.1-0.1,0.1-0.2,0.2-0.3c0.1-0.1,0.3-0.2,0.3-0.4c0-0.1-0.2-0.2-0.2-0.4
		c-0.1-0.2-0.2-0.2-0.4-0.1c-0.1,0.1-0.2,0.1-0.3,0.1c-0.1,0-0.2,0-0.3-0.1c-0.1-0.1,0-0.2,0.1-0.3c0.1-0.1,0.3-0.3,0.4-0.4
		c-0.1-0.1-0.1-0.2-0.2-0.3c-0.1-0.1-0.1-0.2-0.2-0.3c-0.2,0.1-0.4,0.1-0.6,0.2c-0.1,0-0.2,0-0.3,0c0-0.1,0-0.2,0.1-0.3
		c0.1-0.1,0.2-0.2,0.3-0.2c0.1-0.1,0.2-0.2,0.1-0.3c-0.1-0.1-0.1-0.2-0.2-0.3c0,0-0.1-0.1-0.2-0.1c-0.2,0-0.3,0.1-0.5,0.1
		c-0.1,0-0.2,0-0.2-0.1c0-0.1,0-0.2,0-0.2c0.1-0.1,0.3-0.2,0.4-0.3c0.1-0.1,0.2-0.2,0.1-0.3c0,0,0-0.1,0-0.1
		c-0.1-0.4-0.1-0.4-0.5-0.3c-0.1,0-0.2,0-0.3,0c-0.1,0-0.1,0-0.2-0.1c0-0.1,0-0.1,0.1-0.2c0.2-0.1,0.4-0.3,0.6-0.4
		c0.1-0.1,0.1-0.1,0.1-0.2c0-0.2-0.1-0.4-0.1-0.6c-0.3,0-0.6,0-1,0c0,0,0,0,0-0.1c0.1-0.1,0.1-0.1,0.2-0.2c0.2-0.1,0.4-0.2,0.6-0.3
		c0,0,0.1-0.1,0.1-0.1c0-0.2,0-0.4,0-0.6c-0.4-0.1-0.7-0.1-1.1-0.2c0,0,0-0.1,0-0.1c0.1,0,0.1-0.1,0.2-0.1c0.2-0.1,0.4-0.1,0.6-0.1
		c0.3-0.1,0.3-0.1,0.3-0.4c0-0.2,0-0.3,0-0.5c-0.4-0.1-0.8-0.2-1.1-0.3c0,0,0,0,0,0c0.1,0,0.1-0.1,0.2-0.1c0.2,0,0.4,0,0.7,0
		c0.2,0,0.3-0.1,0.4-0.3c0-0.2,0.1-0.4,0-0.5c-0.1-0.1-0.3-0.1-0.5-0.2c-0.2-0.1-0.4-0.2-0.6-0.3c0,0,0,0-0.1-0.1c0.1,0,0.2,0,0.3,0
		c0.3,0,0.5,0,0.8,0.1c0.2,0,0.3,0,0.4-0.3c0-0.2,0.1-0.3,0.1-0.5c0,0,0,0,0,0c-0.4-0.2-0.8-0.4-1.2-0.7c0,0,0-0.1,0-0.1
		c0.1,0,0.2,0,0.2,0c0.3,0.1,0.6,0.1,0.9,0.2c0.2,0,0.3,0,0.4-0.2c0.1-0.2,0.1-0.3,0.2-0.5c-0.4-0.3-0.9-0.6-1.3-0.9
		c0,0,0-0.1,0.1-0.1c0.1,0,0.1,0.1,0.2,0.1c0.3,0.1,0.7,0.3,1,0.4c0.3,0.1,0.3,0.1,0.4-0.2c0,0,0-0.1,0.1-0.1
		c0.2-0.4,0.2-0.4-0.1-0.7c-0.3-0.2-0.5-0.4-0.8-0.7c-0.1,0-0.1-0.1-0.1-0.2c0,0,0,0,0-0.1c0.1,0,0.1,0,0.2,0.1
		c0.4,0.2,0.7,0.4,1.1,0.6c0.2,0.1,0.3,0.1,0.4-0.1c0.1-0.2,0.2-0.3,0.3-0.5c-0.4-0.4-0.8-0.8-1.1-1.3c0,0,0,0,0.1-0.1
		c0.1,0,0.1,0.1,0.2,0.1c0.3,0.2,0.7,0.5,1,0.7c0.2,0.1,0.3,0.1,0.4-0.1c0.1-0.2,0.3-0.3,0.4-0.5c-0.2-0.3-0.4-0.6-0.7-0.9
		c-0.1-0.1-0.2-0.2-0.3-0.4c0,0,0-0.1,0-0.2c0.1,0,0.1,0,0.2,0.1c0.3,0.3,0.6,0.6,0.9,0.8c0.3,0.2,0.3,0.2,0.5,0
		c0.1-0.1,0.1-0.1,0.2-0.2c0.1-0.1,0.1-0.1,0.2-0.2c-0.3-0.5-0.6-1-0.8-1.5c0,0,0,0,0-0.1c0.1,0,0.1,0.1,0.2,0.1
		c0.3,0.3,0.5,0.6,0.8,0.9c0.2,0.2,0.3,0.2,0.5,0c0.1-0.1,0.3-0.2,0.4-0.3c-0.2-0.5-0.4-1-0.7-1.6c0,0,0,0,0.1-0.1
		c0.1,0.1,0.1,0.1,0.2,0.2c0.2,0.3,0.4,0.7,0.7,1c0.2,0.3,0.3,0.3,0.6,0.1c0.1-0.1,0.3-0.2,0.4-0.3c-0.2-0.6-0.3-1.1-0.5-1.7
		c0,0,0.1,0,0.1,0c0.1,0.1,0.1,0.1,0.2,0.2c0.2,0.3,0.3,0.7,0.5,1c0.2,0.3,0.3,0.3,0.6,0.2c0,0,0.1,0,0.1-0.1
		c0.2-0.1,0.3-0.2,0.2-0.4c-0.1-0.4-0.1-0.8-0.2-1.2c0-0.1,0-0.1,0-0.2c0,0,0,0,0.1,0c0,0.1,0.1,0.2,0.1,0.2c0.1,0.3,0.2,0.7,0.4,1
		c0.2,0.5,0.7,0.5,1,0.1c0,0,0-0.1,0-0.2c0-0.4-0.1-0.8-0.1-1.3c0-0.1,0-0.2,0-0.3c0,0,0,0,0.1,0c0,0.1,0.1,0.2,0.1,0.3
		c0.1,0.4,0.2,0.8,0.3,1.1c0.1,0.3,0.2,0.4,0.5,0.3c0.1,0,0.1,0,0.2,0c0.2,0,0.3-0.1,0.3-0.3c0-0.4,0.1-0.9,0.1-1.3
		c0-0.1,0-0.1,0-0.2c0,0,0,0,0.1,0c0,0.1,0.1,0.2,0.1,0.3c0.1,0.4,0.1,0.8,0.1,1.2c0,0.3,0.1,0.4,0.4,0.4c0.5,0,0.5,0,0.6-0.5
		c0.1-0.4,0.1-0.7,0.2-1.1c0-0.1,0-0.1,0-0.2c0,0,0,0,0.1,0c0,0.1,0,0.2,0,0.3c0,0.4,0,0.8,0,1.1c0,0.3,0.1,0.4,0.4,0.4
		c0.5,0.1,0.5,0.1,0.6-0.4c0.1-0.4,0.3-0.9,0.4-1.3c0,0,0,0,0.1,0c0,0.1,0,0.2,0,0.3c0,0.4-0.1,0.8-0.1,1.1c0,0.3,0,0.4,0.3,0.5
		c0.6,0.2,0.5,0.1,0.7-0.3c0.1-0.3,0.3-0.7,0.4-1c0-0.1,0.1-0.1,0.1-0.2c0,0,0,0,0.1,0c0,0.1,0,0.2,0,0.3c-0.1,0.4-0.2,0.7-0.3,1.1
		c-0.1,0.3,0,0.4,0.3,0.5c0.2,0.1,0.3,0.2,0.5,0.1c0.1,0,0.2-0.2,0.3-0.4c0.2-0.3,0.4-0.6,0.6-0.9c0-0.1,0.1-0.1,0.1-0.1
		c0,0,0,0,0.1,0c0,0.1,0,0.2-0.1,0.3c-0.1,0.4-0.3,0.7-0.4,1.1c-0.1,0.2,0,0.3,0.2,0.5c0.1,0.1,0.3,0.2,0.4,0.2c0.1,0,0.2,0,0.3-0.1
		c0.2-0.3,0.4-0.6,0.6-0.9c0.1-0.1,0.2-0.3,0.3-0.4c0,0,0,0,0.1,0c0,0.1,0,0.2-0.1,0.2c-0.2,0.3-0.3,0.7-0.5,1
		c-0.1,0.3-0.1,0.4,0.2,0.6c0.1,0.1,0.2,0.2,0.3,0.2c0.2,0.1,0.3,0,0.3-0.1c0-0.1,0-0.1,0.1-0.2c0.3-0.3,0.5-0.5,0.8-0.8
		c0,0,0.1,0,0.1,0c0,0.1-0.1,0.1-0.1,0.2c-0.2,0.3-0.4,0.6-0.6,1c-0.1,0.2-0.1,0.3,0.1,0.5c0.1,0.1,0.2,0.2,0.3,0.3
		c0.1,0.1,0.3,0.1,0.3,0c0.1-0.3,0.5-0.5,0.7-0.7c0.1-0.1,0.2-0.2,0.4-0.3c0,0,0,0,0.1,0c0,0.1-0.1,0.1-0.1,0.2
		c-0.2,0.3-0.5,0.6-0.7,0.9c-0.1,0.2-0.1,0.3,0,0.5c0.1,0.1,0.2,0.2,0.3,0.3c0.2,0.2,0.3,0.1,0.5,0c0.3-0.2,0.6-0.4,0.9-0.6
		c0,0,0,0,0.1,0.1c-0.2,0.2-0.4,0.4-0.6,0.7c0,0-0.1,0.1-0.1,0.1c-0.1,0.1-0.1,0.3,0,0.4c0.1,0.1,0.2,0.2,0.2,0.3
		c0.2,0.2,0.3,0.2,0.5,0.1c0.2-0.1,0.5-0.3,0.7-0.4c0,0,0,0,0,0.1c-0.2,0.2-0.4,0.3-0.6,0.5c-0.3,0.2-0.3,0.3-0.1,0.6
		c0.1,0.1,0.1,0.2,0.2,0.3c0.1,0.2,0.2,0.2,0.5,0.2c0.3-0.1,0.5-0.2,0.8-0.2c-0.1,0.1-0.2,0.2-0.3,0.2c-0.2,0.1-0.3,0.2-0.5,0.3
		c-0.1,0.1-0.2,0.2-0.1,0.4c0.1,0.2,0.1,0.3,0.2,0.5c0.1,0.2,0.2,0.2,0.4,0.2c0.3-0.1,0.6-0.1,0.9-0.2c0.1,0,0.1,0,0.2,0
		c0,0-0.1,0.1-0.1,0.1c-0.3,0.1-0.6,0.3-0.9,0.4c-0.2,0.1-0.2,0.2-0.2,0.3c0,0.2,0.1,0.3,0.2,0.5c0.1,0.2,0.2,0.2,0.4,0.2
		c0.4-0.1,0.7-0.1,1.1-0.1c0.1,0,0.2,0,0.3,0c0,0,0,0,0,0.1c-0.1,0-0.1,0.1-0.2,0.1c-0.3,0.1-0.6,0.2-0.8,0.3c-0.1,0-0.2,0-0.3,0
		c-0.2,0-0.3,0.1-0.3,0.3c0,0.1,0,0.1,0,0.2c0.1,0.6,0.1,0.6,0.7,0.6c0.3,0,0.6,0,0.9,0c0.1,0,0.1,0,0.2,0c0,0,0,0.1-0.1,0.1
		c-0.5,0.1-0.9,0.3-1.4,0.3c-0.1,0-0.1,0.1-0.2,0.1c0,0,0,0.1,0,0.2c0,0.7,0,0.7,0.7,0.8c0.3,0,0.6,0,0.8,0.1c0.1,0,0.2,0,0.2,0.1
		c0,0,0,0,0,0.1c-0.1,0-0.1,0-0.2,0c-0.3,0-0.7,0.1-1,0.1c-0.1,0-0.1,0-0.2,0c-0.3,0-0.4,0-0.4,0.3c0,0.1,0,0.1,0,0.2
		c0,0.3,0,0.4,0.4,0.5c0.4,0.1,0.7,0.1,1.1,0.2c0.1,0,0.2,0.1,0.3,0.1c0,0,0,0,0,0.1c-0.1,0-0.1,0-0.2,0c-0.5,0-0.9,0-1.4,0
		c-0.1,0-0.2,0.1-0.2,0.2c-0.1,0.2-0.1,0.3-0.1,0.5c0,0.2,0.1,0.3,0.2,0.4c0.4,0.1,0.8,0.2,1.1,0.4C37.9,28,38,28,38.1,28.1
		C38.1,28.1,38.1,28.1,38.1,28.1z M23.2,20.4c0.5,0.9,1,1.8,1.5,2.7c0.5,0.8,1.2,1.3,2.2,1.3c2,0,4,0.1,6,0.1c0.6,0,1.2-0.1,1.7-0.6
		c0.2-0.3,0.4-0.5,0.5-0.9c0.1-0.5,0-0.9-0.1-1.4c-0.4-1.2-1-2.3-1.8-3.2c-1.9-2.3-4.4-3.6-7.4-3.8c-1.2-0.1-2.3,0-3.4,0.4
		c-1.1,0.4-1.3,1.1-1,2.2c0.1,0.3,0.2,0.5,0.3,0.7C22.2,18.7,22.7,19.6,23.2,20.4z M31.3,25.6c-1.5,0-3-0.1-4.4,0
		c-0.9,0-1.7,0.4-2.2,1.3c-0.9,1.5-1.8,3.1-2.7,4.6c-0.3,0.4-0.5,0.9-0.7,1.4c-0.3,0.9,0,1.5,0.8,2c0.5,0.3,1,0.4,1.5,0.5
		c2.7,0.4,5.2-0.3,7.5-1.8c1.6-1.1,2.8-2.5,3.6-4.3c0.3-0.6,0.5-1.2,0.5-1.8c0-0.3,0-0.6-0.1-0.8c-0.2-0.5-0.7-0.7-1.2-0.9
		c-0.7-0.2-2.2-0.1-2.2-0.1L31.3,25.6z M20.8,18.5c-0.2-0.3-0.4-0.6-0.6-0.8c-0.6-0.6-1.2-0.7-2-0.3c-0.7,0.4-1.2,0.9-1.6,1.5
		c-2.7,3.9-2.5,9,0.4,12.6c0.4,0.4,0.8,0.8,1.3,1c0.3,0.1,0.6,0.2,0.8,0.1c0.3-0.1,0.6-0.3,0.9-0.5c0.3-0.3,0.5-0.6,0.7-1
		c0.2-0.4,0.5-0.9,0.8-1.3c0.7-1.2,1.4-2.4,2.1-3.7c0.3-0.5,0.4-1,0.3-1.5c0-0.3-0.1-0.7-0.3-1c-0.7-1.3-1.4-2.5-2.2-3.8L20.8,18.5z
		 M24.6,25.2c0.1,0.3,0.5,0.4,0.7,0.3c0.4-0.2,0.5-0.6,0.3-0.9c-0.2-0.3-0.6-0.4-0.9-0.2C24.5,24.6,24.4,25,24.6,25.2z"/>
</g>
</svg>
