<?xml version="1.0" encoding="utf-8"?>
<!-- Generator: Adobe Illustrator 25.0.1, SVG Export Plug-In . SVG Version: 6.00 Build 0)  -->
<svg version="1.1" id="Safari" xmlns="http://www.w3.org/2000/svg" xmlns:xlink="http://www.w3.org/1999/xlink" x="0px" y="0px"
	 viewBox="0 0 50 50" style="enable-background:new 0 0 50 50;" xml:space="preserve">
<style type="text/css">
	.Safarist0{fill:url(#SafariSVGID_1_);}
	.Safarist1{fill:#F3F7FA;}
	.Safarist2{fill:#FFFFFF;}
	.Safarist3{fill:#C7C6C6;}
	.Safarist4{fill:#B83C30;}
	.Safarist5{fill:#EC6C60;}
</style>
<g>
	<linearGradient id="SafariSVGID_1_" gradientUnits="userSpaceOnUse" x1="25" y1="1.5499" x2="25" y2="48.4226">
		<stop  offset="0" style="stop-color:#00B4E9"/>
		<stop  offset="0.3856" style="stop-color:#0E93D1"/>
		<stop  offset="0.7713" style="stop-color:#1979BD"/>
		<stop  offset="1" style="stop-color:#1D6FB6"/>
	</linearGradient>
	<polygon class="Safarist0" points="7.5,6 25,1.5 44.3,8 48.9,24.8 45,42.2 30.6,48.4 8.3,47.7 1.8,34 1.1,16.5 	"/>
	<g>
		<path class="Safarist1" d="M25,50c-4,0-8,0-12,0c-1.5,0-3.1-0.1-4.6-0.4c-1.6-0.4-3-1-4.2-2c-2-1.5-3.1-3.6-3.7-5.9
			C0,39.9,0,38.1,0,36.3c0-8-0.1-15.9,0-23.9c0-1.4,0.1-2.8,0.5-4.2c1.1-4.1,3.7-6.7,7.9-7.8C10.1,0,12,0,13.8,0
			c7.8,0,15.5,0,23.3,0c2.1,0,4.2,0.1,6.1,0.9c3.5,1.5,5.7,4.1,6.4,7.9c0.3,1.6,0.4,3.2,0.4,4.7c0,7.9,0,15.9,0,23.8
			c0,2.3-0.2,4.6-1.4,6.7c-1.8,3.2-4.5,5-8.1,5.6C38.9,50,37.4,50,35.8,50C32.2,50,28.6,50,25,50C25,50,25,50,25,50z M25,46.6
			c5.7,0,11.2-2.2,15.2-6.3c4.7-4.7,6.8-10.5,6.3-17.1C45.8,13,37.1,3.4,25,3.4C13.2,3.3,3.4,13,3.4,25.1
			C3.4,36.9,13.1,46.7,25,46.6z"/>
		<path class="Safarist1" d="M27.7,41.6c0-0.1,0-0.2,0-0.2c0-0.2-0.1-0.4,0.2-0.4c0.2,0,0.2,0.2,0.3,0.3c0.2,0.9,0.3,1.9,0.5,2.8
			c0,0.2,0,0.3-0.2,0.4c-0.2,0-0.2-0.1-0.3-0.3C28,43.3,27.8,42.4,27.7,41.6C27.7,41.6,27.7,41.6,27.7,41.6z"/>
		<path class="st1" d="M22.4,41.2c-0.2,1-0.4,2-0.5,2.9c0,0.2-0.1,0.3-0.3,0.3c-0.2,0-0.2-0.2-0.2-0.3c0.2-1,0.3-1.9,0.5-2.9
			c0-0.2,0.1-0.3,0.3-0.3C22.4,41,22.4,41.1,22.4,41.2z"/>
		<path class="Safarist1" d="M30.5,40.2c0.2,0,0.3,0.1,0.3,0.3c0.3,0.9,0.7,1.8,1,2.7c0.1,0.2,0.1,0.3-0.1,0.4c-0.2,0-0.2-0.1-0.3-0.2
			c-0.3-0.9-0.7-1.8-1-2.8C30.3,40.4,30.4,40.2,30.5,40.2z"/>
		<path class="Safarist1" d="M18.4,43.5c-0.2,0-0.3-0.1-0.3-0.3c0.3-1,0.7-1.9,1.1-2.9c0-0.1,0.1-0.2,0.3-0.2c0.1,0,0.2,0.2,0.2,0.3
			c-0.4,1-0.7,2-1.1,2.9C18.5,43.5,18.4,43.5,18.4,43.5z"/>
		<path class="Safarist1" d="M37.8,10c0,0.2-0.1,0.3-0.2,0.4c-0.5,0.6-1.1,1.3-1.6,1.9c-0.2,0.2-0.4,0.4-0.6,0.2c-0.2-0.2,0-0.4,0.2-0.5
			c0.6-0.7,1.2-1.3,1.7-2c0.1-0.1,0.2-0.1,0.4-0.1C37.7,9.8,37.8,9.9,37.8,10z"/>
		<path class="Safarist1" d="M33.1,39c0.2,0,0.3,0.1,0.3,0.2c0.5,0.8,0.9,1.6,1.4,2.5c0.1,0.1,0.2,0.3,0,0.4c-0.2,0.1-0.3,0-0.4-0.2
			c-0.5-0.8-1-1.7-1.5-2.5C32.9,39.1,32.9,39,33.1,39z"/>
		<path class="Safarist1" d="M9.8,30.6c0,0.2-0.2,0.3-0.3,0.3c-0.9,0.3-1.8,0.6-2.7,1c-0.2,0.1-0.3,0.1-0.4-0.1c-0.1-0.2,0.1-0.3,0.2-0.3
			c0.9-0.3,1.9-0.7,2.8-1C9.6,30.3,9.8,30.4,9.8,30.6z"/>
		<path class="Safarist1" d="M41.3,27.6c1,0.2,1.9,0.3,2.9,0.5c0.2,0,0.3,0.1,0.3,0.3c0,0.2-0.2,0.2-0.4,0.2c-1-0.2-1.9-0.3-2.9-0.5
			c-0.2,0-0.3-0.1-0.3-0.3C40.9,27.6,41.1,27.6,41.3,27.6z"/>
		<path class="Safarist1" d="M40.2,37.5c0,0.1-0.1,0.1-0.1,0.2c-0.1,0.1-0.3,0-0.4-0.1c-0.6-0.5-1.2-1-1.8-1.5c-0.2-0.1-0.4-0.2-0.5-0.4
			c-0.1-0.1-0.1-0.2,0-0.3c0.1-0.1,0.2-0.1,0.3,0c0.8,0.7,1.6,1.3,2.4,2C40.1,37.4,40.2,37.5,40.2,37.5z"/>
		<path class="Safarist1" d="M15.3,42.1c-0.3,0-0.3-0.2-0.2-0.3c0.5-0.9,1-1.8,1.6-2.7c0.1-0.1,0.2-0.1,0.3-0.1c0.2,0.1,0.1,0.3,0.1,0.4
			c-0.2,0.4-0.4,0.7-0.6,1.1c-0.3,0.5-0.5,0.9-0.8,1.4C15.5,41.9,15.4,42.1,15.3,42.1z"/>
		<path class="Safarist1" d="M8.6,22.3c-0.9-0.2-1.9-0.3-2.8-0.5c-0.2,0-0.3-0.1-0.3-0.3c0-0.2,0.2-0.2,0.3-0.2c1,0.2,1.9,0.3,2.9,0.5
			c0.2,0,0.3,0.1,0.3,0.3C9,22.4,8.8,22.3,8.6,22.3z"/>
		<path class="Safarist1" d="M11,33.1c0,0.2-0.1,0.3-0.2,0.3c-0.8,0.5-1.6,0.9-2.4,1.4c-0.2,0.1-0.3,0.2-0.5,0c-0.1-0.2,0.1-0.3,0.2-0.4
			c0.8-0.5,1.6-0.9,2.4-1.4C10.7,32.9,10.9,32.9,11,33.1z"/>
		<path class="Safarist1" d="M40.5,30.4c0.3,0.1,0.7,0.3,1.1,0.4c0.5,0.2,1.1,0.4,1.7,0.6c0.2,0.1,0.4,0.1,0.3,0.4
			c-0.1,0.2-0.3,0.1-0.5,0.1c-0.9-0.3-1.7-0.7-2.6-0.9c-0.2,0-0.3-0.2-0.3-0.4C40.2,30.4,40.3,30.3,40.5,30.4z"/>
		<path class="Safarist1" d="M8.5,27.6c0.2,0.1,0.5-0.1,0.5,0.2c0,0.2-0.3,0.3-0.4,0.3c-0.9,0.2-1.7,0.3-2.6,0.5c-0.2,0-0.4,0.1-0.5-0.1
			c-0.1-0.2,0.1-0.3,0.3-0.3C6.8,28,7.7,27.8,8.5,27.6z"/>
		<path class="Safarist1" d="M41.4,22.3c-0.3,0-0.5,0.1-0.5-0.2c0-0.2,0.2-0.3,0.4-0.3c0.9-0.2,1.8-0.3,2.7-0.5c0.2,0,0.4-0.1,0.4,0.2
			c0.1,0.2-0.2,0.3-0.3,0.3C43.2,22,42.3,22.2,41.4,22.3z"/>
		<path class="Safarist1" d="M22.4,8.7c0,0.2,0,0.3-0.2,0.3c-0.2,0.1-0.3-0.1-0.3-0.3c-0.2-1-0.4-1.9-0.5-2.9c0-0.2,0-0.3,0.2-0.3
			c0.2,0,0.3,0.1,0.3,0.3C22,6.8,22.2,7.7,22.4,8.7z"/>
		<path class="Safarist1" d="M27.6,8.6c0.2-0.9,0.3-1.9,0.5-2.8c0-0.2,0.1-0.3,0.3-0.3c0.2,0,0.2,0.2,0.2,0.4c-0.2,0.9-0.3,1.8-0.5,2.7
			c0,0.2-0.1,0.4-0.3,0.4C27.6,9,27.6,8.8,27.6,8.6z"/>
		<path class="Safarist1" d="M37.8,40c0,0.1-0.1,0.1-0.1,0.2c-0.2,0.1-0.3,0-0.4-0.1c-0.4-0.4-0.7-0.9-1.1-1.3c-0.2-0.3-0.5-0.6-0.8-0.9
			c-0.2-0.2-0.2-0.3-0.1-0.5c0.1-0.1,0.3-0.1,0.4,0.1c0.6,0.8,1.3,1.5,1.9,2.3C37.7,39.8,37.7,39.9,37.8,40z"/>
		<path class="Safarist1" d="M14.7,37.6c-0.1,0.1-0.1,0.2-0.2,0.3c-0.6,0.7-1.1,1.4-1.7,2c-0.1,0.1-0.3,0.4-0.5,0.2
			c-0.2-0.2,0-0.3,0.1-0.5c0.6-0.7,1.2-1.4,1.8-2.1c0.1-0.1,0.2-0.3,0.4-0.2C14.6,37.4,14.7,37.5,14.7,37.6z"/>
		<path class="Safarist1" d="M42.1,34.7c0,0.3-0.2,0.3-0.4,0.2c-0.9-0.5-1.8-1-2.7-1.5c-0.1-0.1-0.2-0.2-0.1-0.3c0.1-0.1,0.2-0.2,0.3-0.1
			c0.9,0.5,1.9,1.1,2.8,1.6C42.1,34.6,42.1,34.7,42.1,34.7z"/>
		<path class="Safarist1" d="M33.2,11C33,11,32.9,10.8,33,10.6c0.5-0.9,1-1.8,1.5-2.6c0.1-0.2,0.2-0.2,0.4-0.1c0.2,0,0.1,0.2,0.1,0.3
			c-0.5,0.9-1,1.8-1.6,2.7C33.3,11,33.3,11,33.2,11z"/>
		<path class="Safarist1" d="M39.2,17c-0.1,0-0.2,0-0.2-0.2c0-0.1,0-0.2,0.1-0.3c0.9-0.5,1.8-1,2.7-1.5c0.1-0.1,0.2-0.1,0.3,0
			c0.1,0.1,0.1,0.2-0.1,0.3c-0.9,0.5-1.8,1-2.7,1.6C39.3,17,39.2,17,39.2,17z"/>
		<path class="Safarist1" d="M43.6,18.3c0,0.2-0.1,0.3-0.3,0.3c-0.9,0.3-1.9,0.7-2.8,1c-0.1,0-0.3,0.1-0.3-0.1c0-0.2,0-0.3,0.2-0.3
			c1-0.4,1.9-0.7,2.9-1.1C43.4,18,43.5,18.1,43.6,18.3z"/>
		<path class="Safarist1" d="M7,25.2c-0.5,0-0.9,0-1.4,0c-0.2,0-0.4-0.1-0.4-0.3c0-0.3,0.2-0.2,0.4-0.2c0.9,0,1.9,0,2.8,0
			c0.2,0,0.4,0,0.4,0.2c0,0.3-0.2,0.3-0.4,0.3C7.9,25.2,7.5,25.2,7,25.2C7,25.2,7,25.2,7,25.2z"/>
		<path class="Safarist1" d="M8.1,15c0.1,0,0.2,0.1,0.3,0.1c0.8,0.4,1.5,0.9,2.3,1.3c0.2,0.1,0.4,0.2,0.3,0.4c-0.1,0.2-0.3,0.1-0.5,0
			c-0.8-0.5-1.6-0.9-2.4-1.4c-0.1-0.1-0.3-0.2-0.3-0.4C7.9,15,8,15,8.1,15z"/>
		<path class="Safarist1" d="M42.9,25.2c-0.5,0-0.9,0-1.4,0c-0.2,0-0.3,0-0.3-0.2c0-0.2,0.2-0.2,0.4-0.2c0.9,0,1.9,0,2.8,0
			c0.2,0,0.4,0,0.4,0.2c0,0.3-0.2,0.3-0.4,0.3C43.9,25.2,43.4,25.2,42.9,25.2z"/>
		<path class="Safarist1" d="M24.8,42.9c0-0.5,0-0.9,0-1.4c0-0.2,0-0.3,0.3-0.3c0.2,0,0.2,0.2,0.2,0.3c0,1,0,1.9,0,2.9
			c0,0.2,0,0.3-0.3,0.3c-0.2,0-0.2-0.2-0.2-0.3C24.8,43.9,24.8,43.4,24.8,42.9C24.8,42.9,24.8,42.9,24.8,42.9z"/>
		<path class="Safarist1" d="M25.2,7.1c0,0.5,0,0.9,0,1.4c0,0.2,0,0.3-0.2,0.3c-0.2,0-0.2-0.2-0.2-0.3c0-1,0-1.9,0-2.9
			c0-0.2,0-0.3,0.3-0.3c0.2,0,0.2,0.2,0.2,0.3C25.3,6.1,25.3,6.6,25.2,7.1C25.3,7.1,25.3,7.1,25.2,7.1z"/>
		<path class="Safarist1" d="M12.4,9.8c0.2,0,0.3,0.1,0.4,0.3c0.6,0.7,1.1,1.4,1.7,2c0.1,0.1,0.3,0.3,0.1,0.5c-0.2,0.1-0.3,0-0.4-0.1
			c-0.7-0.8-1.3-1.5-2-2.3C12,10,12.1,9.8,12.4,9.8z"/>
		<path class="Safarist1" d="M9.8,19.4c0,0.2-0.2,0.2-0.3,0.2c-1-0.3-2-0.7-2.9-1c-0.2-0.1-0.2-0.2-0.1-0.3C6.5,18,6.7,18,6.8,18.1
			c0.5,0.2,1,0.4,1.5,0.6c0.4,0.1,0.8,0.3,1.2,0.5C9.7,19.2,9.8,19.2,9.8,19.4z"/>
		<path class="Safarist1" d="M17,10.8c0,0.1,0,0.2-0.1,0.2c-0.1,0-0.2,0-0.3-0.1c-0.5-0.9-1-1.7-1.5-2.6C15,8.1,15,8,15.1,7.9
			c0.1-0.1,0.2,0,0.3,0.1c0.5,0.9,1,1.8,1.5,2.7C17,10.7,17,10.7,17,10.8z"/>
		<path class="Safarist1" d="M19.6,9.5c0,0.2,0,0.3-0.2,0.3c-0.2,0-0.2-0.1-0.3-0.2c-0.2-0.5-0.4-1-0.5-1.5c-0.2-0.4-0.3-0.9-0.5-1.3
			c-0.1-0.1-0.1-0.3,0.1-0.4c0.1-0.1,0.3,0,0.3,0.1C18.9,7.5,19.3,8.5,19.6,9.5z"/>
		<path class="Safarist1" d="M31.9,6.7c-0.1,0.2-0.2,0.5-0.3,0.8c-0.3,0.7-0.5,1.4-0.8,2.1c-0.1,0.2-0.2,0.3-0.4,0.2
			c-0.2-0.1-0.2-0.2-0.1-0.4c0.3-0.9,0.7-1.8,1-2.8c0.1-0.1,0.1-0.3,0.3-0.2C31.9,6.4,31.9,6.5,31.9,6.7z"/>
		<path class="Safarist1" d="M12.6,14.4c0,0.3-0.2,0.3-0.4,0.2c-0.8-0.6-1.6-1.3-2.3-1.9c-0.1-0.1-0.2-0.2-0.1-0.4c0.1-0.1,0.2-0.1,0.3,0
			c0.8,0.7,1.6,1.3,2.4,2C12.6,14.3,12.6,14.4,12.6,14.4z"/>
		<path class="Safarist1" d="M23.6,43.3c0,0.3-0.1,0.7-0.1,1.1c0,0.1-0.1,0.2-0.2,0.3c-0.1,0-0.2-0.1-0.2-0.2c0-0.4,0-0.8,0-1.3
			c0-0.1,0.1-0.4,0.4-0.4C23.7,42.8,23.7,43,23.6,43.3z"/>
		<path class="Safarist1" d="M41.2,13.8c0,0.2-0.1,0.2-0.2,0.3c-0.3,0.2-0.6,0.4-1,0.6c-0.1,0.1-0.3,0.2-0.4,0c-0.1-0.1,0-0.3,0.1-0.4
			c0.3-0.2,0.7-0.5,1-0.7C41,13.5,41.1,13.6,41.2,13.8z"/>
		<path class="Safarist1" d="M35.4,39.5c0,0,0.1,0.1,0.2,0.1c0.3,0.4,0.5,0.7,0.8,1.1c0.1,0.1,0.1,0.2-0.1,0.3c-0.1,0.1-0.2,0-0.3-0.1
			c-0.3-0.3-0.5-0.7-0.8-1.1C35.1,39.8,35.1,39.6,35.4,39.5z"/>
		<path class="Safarist1" d="M6.3,30.2c-0.2,0-0.3,0-0.4-0.1c-0.1-0.2,0.1-0.3,0.2-0.3c0.4-0.1,0.8-0.2,1.3-0.3c0.1,0,0.3,0,0.3,0.2
			c0,0.1,0,0.2-0.2,0.3C7.2,30,6.7,30.1,6.3,30.2z"/>
		<path class="Safarist1" d="M42.5,29.4c0.4,0.1,0.9,0.2,1.3,0.4c0.1,0,0.2,0.1,0.2,0.3c0,0.2-0.2,0.2-0.3,0.2c-0.4-0.1-0.9-0.2-1.3-0.3
			c-0.1,0-0.3,0-0.3-0.2C42.1,29.4,42.4,29.5,42.5,29.4z"/>
		<path class="Safarist1" d="M36.4,9c0,0.2-0.9,1.3-1,1.4c-0.2,0-0.4,0-0.3-0.3c0.2-0.5,0.5-0.9,0.8-1.2c0.1-0.1,0.2-0.1,0.3,0
			C36.4,8.9,36.4,9,36.4,9z"/>
		<path class="Safarist1" d="M30.2,43.6c0,0.2,0,0.3-0.1,0.4c-0.2,0.1-0.3-0.1-0.3-0.2c-0.1-0.4-0.2-0.9-0.3-1.3c0-0.1,0-0.3,0.1-0.3
			c0.2-0.1,0.3,0.1,0.3,0.2C30,42.8,30.1,43.3,30.2,43.6z"/>
		<path class="Safarist1" d="M20.5,42.6c-0.1,0.4-0.2,0.8-0.4,1.2c0,0.1-0.1,0.2-0.3,0.2c-0.1,0-0.2-0.2-0.2-0.3c0.1-0.4,0.2-0.9,0.3-1.3
			c0-0.1,0.1-0.2,0.3-0.2C20.5,42.2,20.5,42.3,20.5,42.6z"/>
		<path class="Safarist1" d="M6.3,19.7c0.4,0.1,0.8,0.2,1.3,0.3c0.1,0,0.3,0.1,0.2,0.3c-0.1,0.2-0.2,0.3-0.4,0.2c-0.4-0.1-0.8-0.2-1.2-0.4
			c-0.1,0-0.3-0.1-0.3-0.3C6,19.7,6.2,19.7,6.3,19.7z"/>
		<path class="Safarist1" d="M42.6,20.5c-0.2-0.1-0.4,0.1-0.5-0.2c0-0.2,0.2-0.2,0.3-0.3c0.4-0.1,0.8-0.2,1.2-0.3c0.2,0,0.3,0,0.4,0.2
			c0,0.2-0.1,0.2-0.2,0.3C43.4,20.3,42.9,20.4,42.6,20.5z"/>
		<path class="Safarist1" d="M32.6,41.1c0,0,0.1,0,0.2,0.1c0.2,0.4,0.4,0.9,0.6,1.4c0,0.1,0,0.2-0.1,0.2c-0.1,0-0.2,0-0.3-0.1
			c-0.2-0.5-0.4-0.9-0.6-1.4C32.4,41.3,32.5,41.2,32.6,41.1z"/>
		<path class="Safarist1" d="M17.6,41.4c-0.2,0.4-0.4,0.9-0.7,1.3c0,0.1-0.2,0.1-0.3,0c-0.1-0.1-0.1-0.2-0.1-0.3c0.2-0.4,0.4-0.9,0.6-1.3
			c0-0.1,0.2-0.1,0.3-0.1C17.6,41.2,17.6,41.3,17.6,41.4z"/>
		<path class="Safarist1" d="M14.9,39.7c0,0.2-0.8,1.4-1,1.4c-0.1,0-0.2,0-0.2,0c-0.1-0.1-0.1-0.2,0-0.3c0.3-0.4,0.5-0.8,0.8-1.2
			c0.1-0.1,0.2-0.1,0.3,0C14.8,39.6,14.9,39.7,14.9,39.7z"/>
		<path class="Safarist1" d="M9,36.4c-0.1,0-0.1,0-0.2-0.1c0-0.1,0-0.2,0.1-0.3c0.4-0.3,0.8-0.6,1.2-0.8c0.2-0.1,0.3,0,0.3,0.2
			C10.4,35.5,9.2,36.4,9,36.4z"/>
		<path class="Safarist1" d="M39.8,35.1c0.5,0.3,0.9,0.6,1.3,1c0.1,0.1,0,0.2,0,0.3c-0.1,0.1-0.2,0.1-0.3,0c-0.4-0.3-0.8-0.5-1.1-0.8
			c-0.1-0.1-0.1-0.2-0.1-0.3C39.6,35.2,39.7,35.1,39.8,35.1z"/>
		<path class="Safarist1" d="M41.5,17.6c-0.2,0-0.3,0-0.3-0.1c0-0.1,0-0.2,0.1-0.3c0.4-0.2,0.8-0.4,1.3-0.6c0.1-0.1,0.2,0,0.3,0.1
			c0.1,0.1,0,0.2,0,0.3C42.3,17.2,41.9,17.4,41.5,17.6z"/>
		<path class="Safarist1" d="M44.1,23.1c0.2,0,0.5-0.1,0.5,0.2c0,0.3-0.2,0.3-0.4,0.3c-0.3,0-0.7,0.1-1,0.1c-0.2,0-0.4,0-0.4-0.2
			c0-0.2,0.2-0.2,0.3-0.3C43.4,23.1,43.8,23.1,44.1,23.1z"/>
		<path class="Safarist1" d="M5.9,23.1c0.4,0,0.7,0.1,1.1,0.1c0.1,0,0.2,0.1,0.3,0.2c0,0.2-0.1,0.3-0.3,0.3c-0.5,0-1-0.1-1.4-0.1
			c-0.2,0-0.2-0.2-0.2-0.3C5.5,22.9,5.7,23.1,5.9,23.1z"/>
		<path class="Safarist1" d="M14.7,10.4c-0.2,0-0.3-0.1-0.3-0.2c-0.2-0.3-0.5-0.6-0.7-0.9c-0.1-0.1-0.1-0.3,0-0.4c0.2-0.1,0.3,0,0.4,0.1
			c0.2,0.3,0.5,0.7,0.7,1C15,10.2,14.9,10.4,14.7,10.4z"/>
		<path class="Safarist1" d="M8.9,32.6c0,0.2-0.1,0.2-0.2,0.3c-0.4,0.2-0.8,0.4-1.2,0.6c-0.1,0-0.2,0.1-0.3,0c-0.1-0.1-0.1-0.3,0.1-0.3
			c0.4-0.2,0.9-0.4,1.4-0.6C8.7,32.3,8.9,32.4,8.9,32.6z"/>
		<path class="Safarist1" d="M26.3,6.7c0-0.4,0.1-0.7,0.1-1c0-0.2,0.1-0.3,0.2-0.3c0.2,0,0.3,0.2,0.3,0.3c0,0.3-0.1,0.7-0.1,1
			c0,0.2,0.1,0.5-0.3,0.5C26.2,7.2,26.4,6.9,26.3,6.7z"/>
		<path class="Safarist1" d="M23.7,6.7c0,0.2,0.1,0.5-0.3,0.5c-0.3,0-0.2-0.3-0.2-0.5c0-0.4-0.1-0.7-0.1-1.1c0-0.2,0-0.3,0.3-0.3
			c0.2,0,0.2,0.1,0.2,0.3C23.6,6,23.6,6.4,23.7,6.7z"/>
		<path class="Safarist1" d="M43.3,26.3c0.3,0,0.7,0.1,1,0.1c0.2,0,0.4,0,0.3,0.2c0,0.2-0.2,0.2-0.4,0.2c-0.3,0-0.6-0.1-1-0.1
			c-0.2,0-0.5,0-0.5-0.3C42.8,26.2,43.1,26.4,43.3,26.3z"/>
		<path class="Safarist1" d="M9.1,13.5c0.4,0.3,0.9,0.6,1.3,1c0.1,0.1,0.1,0.2,0,0.3c-0.1,0.1-0.2,0.1-0.3,0.1c-0.4-0.3-0.8-0.6-1.2-0.9
			c-0.1-0.1-0.1-0.2,0-0.3C8.9,13.6,9,13.6,9.1,13.5z"/>
		<path class="Safarist1" d="M8.9,17.3c0,0.3-0.2,0.3-0.4,0.2c-0.4-0.2-0.8-0.4-1.2-0.6c-0.1-0.1-0.2-0.2-0.2-0.3c0-0.1,0.1-0.2,0.3-0.2
			c0.5,0.2,0.9,0.4,1.4,0.6C8.8,17.2,8.8,17.3,8.9,17.3z"/>
		<path class="Safarist1" d="M17.6,8.5c0,0.2,0,0.3-0.1,0.3c-0.1,0.1-0.3,0-0.3-0.1c-0.2-0.4-0.4-0.9-0.6-1.3c0-0.1,0-0.2,0.1-0.3
			c0.1-0.1,0.3-0.1,0.3,0C17.2,7.7,17.4,8.1,17.6,8.5z"/>
		<path class="Safarist1" d="M42.9,33.2c0,0.2-0.2,0.3-0.3,0.2c-0.4-0.2-0.9-0.4-1.3-0.6c-0.1,0-0.1-0.2-0.1-0.3c0-0.1,0.2-0.2,0.2-0.1
			c0.5,0.2,0.9,0.4,1.4,0.6C42.8,33,42.8,33.1,42.9,33.2z"/>
		<path class="Safarist1" d="M5.7,26.9c0,0-0.3,0.1-0.3-0.2c0-0.3,0.2-0.2,0.4-0.3c0.3,0,0.7-0.1,1-0.1c0.2,0,0.4,0,0.4,0.2
			c0,0.2-0.2,0.2-0.3,0.2C6.6,26.8,6.2,26.9,5.7,26.9z"/>
		<path class="Safarist1" d="M26.3,43.1c0-0.2,0-0.4,0.2-0.4c0.2,0,0.2,0.2,0.2,0.4c0,0.4,0.1,0.8,0.1,1.1c0,0.2,0,0.3-0.2,0.3
			c-0.2,0-0.2-0.2-0.2-0.3C26.4,43.9,26.4,43.5,26.3,43.1z"/>
		<path class="Safarist1" d="M32.8,8.8c-0.4,0-0.4-0.2-0.4-0.3c0.2-0.4,0.4-0.8,0.6-1.2c0.1-0.1,0.2-0.2,0.4-0.1c0.1,0.1,0.1,0.2,0,0.3
			c-0.2,0.4-0.4,0.8-0.5,1.2C32.8,8.8,32.8,8.8,32.8,8.8z"/>
		<path class="Safarist1" d="M29.5,7.3c0.1-0.3,0.2-0.7,0.3-1.1c0-0.1,0.1-0.3,0.3-0.2c0.2,0,0.2,0.2,0.2,0.3c-0.1,0.4-0.2,0.9-0.3,1.3
			c0,0.2-0.2,0.2-0.3,0.2C29.4,7.7,29.4,7.5,29.5,7.3z"/>
		<path class="Safarist1" d="M20.5,7.3c0,0.2,0.1,0.4-0.1,0.5c-0.2,0-0.3-0.1-0.3-0.2c-0.1-0.4-0.2-0.8-0.3-1.2c0-0.1,0-0.3,0.1-0.4
			c0.2-0.1,0.3,0.1,0.3,0.3C20.3,6.6,20.4,7,20.5,7.3z"/>
		<path class="Safarist1" d="M37.7,37.5c0.2,0,1.3,1.1,1.3,1.2c0,0.2-0.2,0.3-0.3,0.2c-0.4-0.3-0.7-0.6-1.1-1c-0.1-0.1-0.1-0.2,0-0.3
			C37.6,37.6,37.7,37.5,37.7,37.5z"/>
		<path class="Safarist1" d="M39,11.2c0,0.2-1.1,1.3-1.3,1.3c-0.3,0-0.3-0.2-0.1-0.4c0.3-0.4,0.7-0.7,1-1c0.1-0.1,0.2-0.1,0.3,0
			C38.9,11.1,39,11.2,39,11.2z"/>
		<path class="Safarist1" d="M11.2,38.9c0,0-0.1,0-0.1-0.1c-0.1-0.1-0.1-0.2,0-0.3c0.3-0.3,0.7-0.6,1-1c0.1-0.1,0.2-0.1,0.3,0
			c0,0,0.1,0.1,0.1,0.2C12.4,37.9,11.4,38.9,11.2,38.9z"/>
		<path class="Safarist1" d="M11.2,11c0.2,0,1.3,1,1.3,1.2c0,0.1,0,0.2-0.1,0.2c-0.1,0.1-0.2,0.1-0.3,0c-0.3-0.3-0.7-0.7-1-1
			c-0.1-0.1-0.1-0.2,0-0.3C11.1,11.1,11.2,11,11.2,11z"/>
	</g>
	<g>
		<polygon class="Safarist2" points="9.3,37.9 23.3,22.9 25.1,24.9 		"/>
		<polyline class="Safarist3" points="25.1,24.9 9.3,37.9 26.7,27.1 		"/>
		<polygon class="Safarist4" points="40.7,12 26.7,27.1 24.9,25 		"/>
		<polyline class="Safarist5" points="24.9,25 40.7,12.1 23.3,22.9 		"/>
	</g>
</g>
</svg>
