<?xml version="1.0" encoding="utf-8"?>
<!-- Generator: Adobe Illustrator 25.0.1, SVG Export Plug-In . SVG Version: 6.00 Build 0)  -->
<svg class="app" version="1.1" id="Snap" xmlns="http://www.w3.org/2000/svg" xmlns:xlink="http://www.w3.org/1999/xlink" x="0px" y="0px"
	 viewBox="0 0 50 50" style="enable-background:new 0 0 50 50;" xml:space="preserve">
<style type="text/css">
	.Snapst0{fill:#FFFFFF;}
	.Snapst1{fill:#EEE200;}
	.Snapst2{fill:#FFFFFF;stroke:#1D1D1B;stroke-width:0.5;stroke-miterlimit:10;}
</style>
<g>
	<path class="Snapst0" d="M34.2,42H14.1c-4.3,0-7.8-3.5-7.8-7.8V14.1c0-4.3,3.5-7.8,7.8-7.8h20.2c4.3,0,7.8,3.5,7.8,7.8v20.2
		C42,38.5,38.5,42,34.2,42z"/>
	<g>
		<g>
			<path class="Snapst1" d="M39.8,0H12.5C5.7,0,0,5.6,0,12.5v27.3C0,45.4,4.6,50,10.2,50h29.7C45.4,50,50,45.4,50,39.8V10.2
				C50,4.6,45.4,0,39.8,0z M40,33.2c-0.1,0.2-0.4,0.5-0.9,0.7c-0.6,0.3-1.6,0.6-2.9,0.8c-0.1,0-0.2,0.1-0.3,0.2
				c-0.1,0.1-0.1,0.4-0.2,0.8l0,0.2c0,0.2-0.1,0.4-0.1,0.5c-0.1,0.2-0.2,0.3-0.4,0.3c-0.1,0-0.3,0-0.6-0.1c-0.4-0.1-1-0.2-1.7-0.2
				c-0.4,0-0.8,0-1.2,0.1c-0.8,0.2-1.6,0.6-2.4,1.2c-1.1,0.8-2.3,1.6-4.1,1.6c-0.1,0-0.2,0-0.2,0s0,0-0.1,0s-0.1,0-0.1,0
				c-1.8,0-3-0.9-4.1-1.6c-0.8-0.5-1.5-1-2.3-1.2c-0.4-0.1-0.8-0.1-1.2-0.1c-0.7,0-1.3,0.1-1.7,0.2h0c-0.2,0-0.4,0.1-0.6,0.1
				c-0.2,0-0.4-0.1-0.5-0.3c-0.2-0.3-0.2-0.5-0.3-0.7l0-0.1c-0.1-0.3-0.1-0.6-0.2-0.8c0-0.1-0.2-0.2-0.3-0.2c-1.3-0.2-2.3-0.5-3-0.8
				c-0.4-0.2-0.8-0.4-0.9-0.7c0-0.1,0-0.2,0-0.2c0,0,0,0,0-0.1c0.2-0.2,0.2-0.2,0.4-0.3c1-0.2,2-0.6,2.8-1.1c0.7-0.4,1.4-1,2-1.7
				c1-1.2,1.5-2.3,1.6-2.5v0c0.3-0.5,0.3-1,0.2-1.3c-0.3-0.7-1.3-1-1.9-1.2l-0.1,0c-0.1,0-0.2-0.1-0.3-0.1c-0.5-0.2-0.8-0.4-1-0.6
				c-0.3-0.3-0.4-0.6-0.3-0.7c0-0.2,0.2-0.4,0.5-0.6c0.4-0.2,0.8-0.3,1.1-0.1c0.9,0.4,1.7,0.6,2.2,0.3c0.2-0.1,0.2-0.2,0.2-0.4
				c0-0.2,0-0.5,0-0.7v0c-0.1-2.1-0.3-4.6,0.4-6.1c0.5-1,1.1-1.9,1.8-2.6c0.6-0.6,1.3-1.1,2.2-1.4c1.4-0.6,2.7-0.7,3.4-0.7H25
				c0.7,0,2,0.1,3.4,0.7c0.8,0.4,1.5,0.8,2.2,1.4c0.8,0.7,1.4,1.6,1.8,2.6c0.7,1.5,0.5,4,0.4,6.1v0.1c0,0.2,0,0.3,0,0.4v0.2
				c0,0.2,0.1,0.3,0.2,0.4c0.2,0.1,0.4,0.1,0.6,0.1c0,0,0,0,0.1,0c0.4,0,0.9-0.2,1.4-0.4c0.2-0.1,0.4-0.1,0.5-0.1
				c0.2,0,0.4,0,0.6,0.1c0.4,0.2,0.8,0.5,0.8,0.8c0,0.1,0,0.3-0.3,0.6c-0.2,0.2-0.6,0.4-1.1,0.7c-0.1,0-0.2,0.1-0.3,0.1l-0.1,0
				c-0.6,0.2-1.6,0.5-1.9,1.2c-0.2,0.4-0.1,0.8,0.2,1.4c0,0,0,0,0,0.1c0.4,0.8,2.3,4.7,6.4,5.4c0.2,0,0.3,0.2,0.3,0.4
				C40,33.1,40,33.2,40,33.2z M12.5,0C4.2-0.3-0.4,4.2,0,12.5"/>
		</g>
	</g>
	<path class="Snapst2" d="M42.6,33.6c0,0,0-0.1,0-0.2c0-0.2-0.1-0.4-0.3-0.4c-4.7-0.8-7-5.3-7.4-6.2c0,0,0,0,0-0.1
		c-0.3-0.6-0.4-1.2-0.2-1.6c0.4-0.8,1.5-1.2,2.2-1.4l0.1,0c0.1,0,0.2,0,0.3-0.1c0.6-0.3,1-0.5,1.3-0.8c0.3-0.3,0.3-0.5,0.3-0.6
		c0-0.4-0.4-0.7-0.9-0.9c-0.2-0.1-0.4-0.1-0.6-0.1c-0.1,0-0.3,0-0.5,0.1c-0.6,0.3-1.1,0.4-1.6,0.5c0,0-0.1,0-0.1,0
		c-0.2,0-0.5,0-0.6-0.1c-0.2-0.1-0.3-0.3-0.3-0.5v-0.2c0-0.2,0-0.3,0-0.5v-0.1c0.1-2.3,0.4-5.3-0.4-7c-0.5-1.2-1.2-2.2-2.1-3
		c-0.7-0.7-1.6-1.2-2.5-1.6c-1.6-0.7-3.2-0.8-3.9-0.8h-0.7c-0.8,0-2.3,0.1-3.9,0.8c-1,0.4-1.8,1-2.5,1.6c-0.9,0.8-1.6,1.8-2.1,3
		c-0.7,1.7-0.5,4.7-0.4,7v0c0,0.3,0,0.5,0,0.8c0,0.2-0.1,0.4-0.3,0.5c-0.6,0.3-1.5,0.2-2.6-0.3c-0.3-0.2-0.9-0.1-1.3,0.1
		c-0.3,0.2-0.5,0.5-0.5,0.7c0,0.2,0,0.5,0.4,0.8c0.2,0.2,0.6,0.5,1.2,0.7c0.1,0,0.2,0.1,0.4,0.1l0.1,0c0.8,0.2,1.9,0.6,2.2,1.4
		c0.2,0.4,0.1,1-0.2,1.6v0c-0.1,0.2-0.7,1.6-1.9,2.9c-0.7,0.8-1.5,1.5-2.3,2c-1,0.6-2.1,1.1-3.2,1.3c-0.1,0-0.2,0.1-0.4,0.3
		c0,0,0,0,0,0.1c0,0,0,0.1,0,0.2c0.1,0.3,0.5,0.5,1,0.8c0.8,0.3,1.9,0.6,3.4,0.9c0.1,0,0.3,0.1,0.3,0.2c0.1,0.2,0.2,0.5,0.3,0.9
		l0,0.1c0,0.2,0.1,0.5,0.3,0.8c0.1,0.3,0.3,0.4,0.5,0.4c0.2,0,0.5,0,0.7-0.1h0c0.5-0.1,1.1-0.2,1.9-0.2c0.5,0,1,0,1.4,0.1
		c1,0.2,1.8,0.8,2.7,1.4c1.3,0.9,2.7,1.9,4.8,1.9c0,0,0,0,0.1,0c0,0,0,0,0.1,0c0,0,0.1,0,0.2,0c2.1,0,3.5-1,4.7-1.9
		c0.9-0.6,1.8-1.2,2.7-1.4c0.5-0.1,0.9-0.1,1.4-0.1c0.8,0,1.5,0.1,2,0.2c0.4,0.1,0.6,0.1,0.7,0.1c0.3,0,0.4-0.1,0.5-0.4
		c0-0.2,0.1-0.4,0.1-0.6l0-0.2c0.1-0.4,0.1-0.7,0.2-0.9c0.1-0.1,0.2-0.2,0.4-0.3c1.5-0.2,2.7-0.5,3.4-0.9
		C42.1,34.2,42.5,33.9,42.6,33.6z"/>
</g>
</svg>
