<?xml version="1.0" encoding="utf-8"?>
<!-- Generator: Adobe Illustrator 25.0.1, SVG Export Plug-In . SVG Version: 6.00 Build 0)  -->
<svg version="1.1" id="Calque_1" xmlns="http://www.w3.org/2000/svg" xmlns:xlink="http://www.w3.org/1999/xlink" x="0px" y="0px"
	 viewBox="0 0 125 125" style="enable-background:new 0 0 125 125;" xml:space="preserve">
<style type="text/css">
	.st0{fill:#F8F7F5;}
	.st1{fill:#FFFFFF;}
	.st2{fill:#FABC00;}
	.st3{fill:#079C58;}
	.st4{fill:#30A953;}
	.st5{fill:#4771B5;}
	.st6{fill:#CF2E48;}
	.st7{fill:#E74133;}
	.st8{fill:#606469;}
</style>
<g>
	<path class="st0" d="M104.5,125h-84C9.2,125,0,115.8,0,104.5v-84C0,9.2,9.2,0,20.5,0h84C115.8,0,125,9.2,125,20.5v84
		C125,115.8,115.8,125,104.5,125z"/>
	<g>
		
			<image style="overflow:visible;opacity:0.1;" width="126" height="60" xlink:href="9BD02699139F588.png"  transform="matrix(1 0 0 1 -0.5039 0.4961)">
		</image>
		<g>
			<path class="st1" d="M95.1,50.7H29.9c-11.6,0-21.2-9.5-21.2-21.2v0c0-11.6,9.5-21.2,21.2-21.2h65.1c11.6,0,21.2,9.5,21.2,21.2v0
				C116.2,41.1,106.7,50.7,95.1,50.7z"/>
		</g>
	</g>
	<g>
		<g>
			<path class="st2" d="M25.4,29.5c0-1.1,0.3-2.1,0.8-2.9v-3.6h-3.6c-1.4,1.9-2.2,4.2-2.2,6.6s0.8,4.7,2.2,6.6h3.6v-3.6
				C25.7,31.6,25.4,30.6,25.4,29.5z"/>
			<path class="st3" d="M31.1,35.2l-2.5,2.5l2.5,2.5c2.4,0,4.7-0.8,6.6-2.2v-3.6h-3.6C33.2,34.9,32.2,35.2,31.1,35.2z"/>
			<path class="st4" d="M26.2,32.4L22.6,36c0.3,0.4,0.6,0.7,0.9,1.1c2,2,4.7,3.2,7.6,3.2v-5.1C29.1,35.2,27.2,34.1,26.2,32.4
				L26.2,32.4z"/>
			<path class="st5" d="M41.9,29.5c0-0.7-0.1-1.3-0.2-2L41.7,27H31.1v5.1h5.1c-0.5,1-1.3,1.8-2.2,2.3l3.6,3.6
				c0.4-0.3,0.7-0.6,1.1-0.9C40.8,35.1,41.9,32.4,41.9,29.5z"/>
			<path class="st6" d="M35.2,25.4l0.4,0.4l3.6-3.6l-0.4-0.4c-2-2-4.7-3.2-7.6-3.2l-2.5,2.5l2.5,2.5C32.7,23.8,34.1,24.4,35.2,25.4z
				"/>
			<path class="st7" d="M31.1,23.8v-5.1c-2.9,0-5.6,1.1-7.6,3.2c-0.3,0.3-0.6,0.7-0.9,1.1l3.6,3.6C27.2,24.9,29.1,23.8,31.1,23.8z"
				/>
		</g>
	</g>
	<g>
		<path class="st8" d="M15,79.9h1.8v8.8h4.7v1.6H15V79.9z"/>
		<path class="st8" d="M24.1,90.1c-0.4-0.2-0.7-0.5-0.9-0.8c-0.2-0.3-0.3-0.7-0.3-1.2v0c0-0.7,0.3-1.2,0.8-1.6
			c0.5-0.4,1.2-0.6,2.1-0.7l2.9-0.2v1.2L26.1,87c-0.4,0-0.8,0.1-1,0.3c-0.2,0.2-0.4,0.4-0.4,0.7v0c0,0.3,0.1,0.6,0.4,0.7
			c0.2,0.2,0.5,0.3,0.9,0.3c0.3,0,0.6-0.1,0.9-0.2c0.3-0.1,0.5-0.3,0.6-0.6c0.2-0.2,0.2-0.5,0.2-0.8v-2.3c0-0.4-0.1-0.7-0.4-0.9
			c-0.2-0.2-0.6-0.3-1-0.3c-0.4,0-0.8,0.1-1,0.3c-0.3,0.2-0.4,0.4-0.5,0.7l0,0.1h-1.6l0-0.1c0-0.4,0.2-0.8,0.5-1.2
			c0.3-0.4,0.6-0.6,1.1-0.8c0.5-0.2,1-0.3,1.7-0.3c0.6,0,1.2,0.1,1.6,0.3c0.5,0.2,0.8,0.5,1.1,0.9c0.3,0.4,0.4,0.8,0.4,1.3v5.2h-1.8
			v-1.2h0c-0.1,0.3-0.3,0.5-0.6,0.7s-0.5,0.3-0.8,0.5c-0.3,0.1-0.6,0.2-0.9,0.2C25,90.4,24.5,90.3,24.1,90.1z"/>
		<path class="st8" d="M31.5,82.7h1.8v1.2h0c0.2-0.4,0.5-0.7,0.9-1c0.4-0.2,0.9-0.4,1.4-0.4c0.8,0,1.5,0.3,1.9,0.8
			c0.5,0.5,0.7,1.2,0.7,2.1v4.9h-1.8v-4.5c0-0.5-0.1-1-0.4-1.2C35.9,84.2,35.5,84,35,84c-0.3,0-0.6,0.1-0.9,0.2
			c-0.3,0.2-0.4,0.4-0.6,0.6c-0.1,0.3-0.2,0.6-0.2,1v4.4h-1.8V82.7z"/>
		<path class="st8" d="M41.6,89.9c-0.5-0.3-1-0.8-1.3-1.4c-0.3-0.6-0.4-1.3-0.4-2.1v0c0-0.8,0.2-1.5,0.5-2.1c0.3-0.6,0.7-1,1.3-1.4
			c0.5-0.3,1.2-0.5,1.9-0.5c0.7,0,1.2,0.1,1.7,0.4s0.9,0.6,1.1,1c0.3,0.4,0.4,0.9,0.5,1.4v0.1h-1.7l0-0.1c-0.1-0.4-0.2-0.7-0.5-0.9
			C44.4,84.1,44,84,43.6,84c-0.4,0-0.7,0.1-1,0.3c-0.3,0.2-0.5,0.5-0.6,0.9c-0.2,0.4-0.2,0.8-0.2,1.3v0c0,0.5,0.1,1,0.2,1.3
			c0.2,0.4,0.4,0.7,0.6,0.9c0.3,0.2,0.6,0.3,1,0.3c0.5,0,0.8-0.1,1.1-0.4c0.3-0.2,0.5-0.6,0.5-1l0-0.1h1.7l0,0.1
			c0,0.5-0.2,1-0.5,1.4c-0.3,0.4-0.7,0.8-1.2,1c-0.5,0.2-1,0.4-1.7,0.4C42.8,90.4,42.2,90.3,41.6,89.9z"/>
		<path class="st8" d="M49.9,89.9c-0.5-0.3-1-0.8-1.3-1.4c-0.3-0.6-0.4-1.3-0.4-2.1v0c0-0.8,0.1-1.5,0.4-2.1
			c0.3-0.6,0.7-1.1,1.2-1.4s1.2-0.5,1.9-0.5c0.7,0,1.3,0.2,1.9,0.5c0.5,0.3,0.9,0.8,1.2,1.3c0.3,0.6,0.4,1.2,0.4,2v0.6h-6.2v-1.2
			h5.3l-0.9,1.1v-0.7c0-0.5-0.1-0.9-0.2-1.2c-0.2-0.3-0.4-0.6-0.6-0.7c-0.3-0.2-0.6-0.2-0.9-0.2c-0.4,0-0.7,0.1-0.9,0.3
			c-0.3,0.2-0.5,0.4-0.6,0.8c-0.2,0.3-0.2,0.7-0.2,1.2v0.7c0,0.5,0.1,0.9,0.2,1.2c0.2,0.3,0.4,0.6,0.7,0.7c0.3,0.2,0.6,0.3,1,0.3
			c0.3,0,0.6,0,0.8-0.1c0.2-0.1,0.4-0.2,0.6-0.4c0.1-0.1,0.2-0.3,0.3-0.5l0-0.1h1.7l0,0.1c-0.1,0.3-0.2,0.6-0.3,0.9
			c-0.2,0.3-0.4,0.5-0.7,0.8c-0.3,0.2-0.6,0.4-1,0.5c-0.4,0.1-0.8,0.2-1.3,0.2C51.1,90.4,50.4,90.3,49.9,89.9z"/>
		<path class="st8" d="M56.8,89.2l3.9-5.1v0h-3.9v-1.4h5.9v1.2l-3.8,5v0h3.9v1.4h-6V89.2z"/>
		<path class="st8" d="M69.3,90.1c-0.4-0.2-0.7-0.6-0.9-1c-0.2-0.4-0.3-0.9-0.3-1.5v-4.9h1.8v4.5c0,0.5,0.1,1,0.4,1.2
			c0.3,0.3,0.6,0.4,1.1,0.4c0.3,0,0.6-0.1,0.9-0.2c0.2-0.2,0.4-0.4,0.6-0.6s0.2-0.6,0.2-1v-4.4h1.8v7.6H73v-1.2h0
			c-0.2,0.4-0.5,0.7-0.9,1c-0.4,0.2-0.9,0.4-1.4,0.4C70.1,90.4,69.6,90.3,69.3,90.1z"/>
		<path class="st8" d="M76.8,82.7h1.8v1.2h0c0.2-0.4,0.5-0.7,0.9-1c0.4-0.2,0.9-0.4,1.4-0.4c0.8,0,1.5,0.3,1.9,0.8
			c0.5,0.5,0.7,1.2,0.7,2.1v4.9h-1.8v-4.5c0-0.5-0.1-1-0.4-1.2c-0.3-0.3-0.6-0.4-1.1-0.4c-0.3,0-0.6,0.1-0.9,0.2
			c-0.3,0.2-0.4,0.4-0.6,0.6c-0.1,0.3-0.2,0.6-0.2,1v4.4h-1.8V82.7z"/>
		<path class="st8" d="M86.9,89.9c-0.5-0.3-1-0.8-1.3-1.4c-0.3-0.6-0.4-1.3-0.4-2.1v0c0-0.8,0.1-1.5,0.4-2.1
			c0.3-0.6,0.7-1.1,1.2-1.4c0.5-0.3,1.2-0.5,1.9-0.5c0.7,0,1.3,0.2,1.9,0.5c0.5,0.3,0.9,0.8,1.2,1.3c0.3,0.6,0.4,1.2,0.4,2v0.6h-6.2
			v-1.2h5.3l-0.9,1.1v-0.7c0-0.5-0.1-0.9-0.2-1.2c-0.2-0.3-0.4-0.6-0.6-0.7c-0.3-0.2-0.6-0.2-0.9-0.2c-0.4,0-0.7,0.1-0.9,0.3
			c-0.3,0.2-0.5,0.4-0.6,0.8c-0.2,0.3-0.2,0.7-0.2,1.2v0.7c0,0.5,0.1,0.9,0.2,1.2c0.2,0.3,0.4,0.6,0.7,0.7c0.3,0.2,0.6,0.3,1,0.3
			c0.3,0,0.6,0,0.8-0.1c0.2-0.1,0.4-0.2,0.6-0.4c0.1-0.1,0.2-0.3,0.3-0.5l0-0.1h1.7l0,0.1c-0.1,0.3-0.2,0.6-0.3,0.9
			c-0.2,0.3-0.4,0.5-0.7,0.8c-0.3,0.2-0.6,0.4-1,0.5c-0.4,0.1-0.8,0.2-1.3,0.2C88.1,90.4,87.4,90.3,86.9,89.9z"/>
		<path class="st8" d="M14.8,100.3h1.8v1.3h0c0.1-0.5,0.3-0.8,0.6-1.1c0.3-0.3,0.7-0.4,1.1-0.4c0.1,0,0.2,0,0.3,0s0.2,0,0.3,0.1v1.6
			c-0.1,0-0.2-0.1-0.3-0.1c-0.1,0-0.3,0-0.4,0c-0.3,0-0.6,0.1-0.9,0.2c-0.2,0.1-0.4,0.3-0.6,0.6s-0.2,0.6-0.2,1v4.4h-1.8V100.3z"/>
		<path class="st8" d="M21.5,107.5c-0.5-0.3-1-0.8-1.3-1.4c-0.3-0.6-0.4-1.3-0.4-2.1v0c0-0.8,0.1-1.5,0.4-2.1
			c0.3-0.6,0.7-1.1,1.2-1.4c0.5-0.3,1.2-0.5,1.9-0.5c0.7,0,1.3,0.2,1.9,0.5c0.5,0.3,0.9,0.8,1.2,1.3c0.3,0.6,0.4,1.2,0.4,2v0.6h-6.2
			v-1.2H26l-0.9,1.1v-0.7c0-0.5-0.1-0.9-0.2-1.2c-0.2-0.3-0.4-0.6-0.6-0.7c-0.3-0.2-0.6-0.2-0.9-0.2c-0.4,0-0.7,0.1-0.9,0.3
			c-0.3,0.2-0.5,0.4-0.6,0.8c-0.2,0.3-0.2,0.7-0.2,1.2v0.7c0,0.5,0.1,0.9,0.2,1.2c0.2,0.3,0.4,0.6,0.7,0.7c0.3,0.2,0.6,0.3,1,0.3
			c0.3,0,0.6,0,0.8-0.1c0.2-0.1,0.4-0.2,0.6-0.4c0.1-0.1,0.2-0.3,0.3-0.5l0-0.1h1.7l0,0.1c-0.1,0.3-0.2,0.6-0.3,0.9
			c-0.2,0.3-0.4,0.5-0.7,0.8c-0.3,0.2-0.6,0.4-1,0.5c-0.4,0.1-0.8,0.2-1.3,0.2C22.7,108,22,107.8,21.5,107.5z"/>
		<path class="st8" d="M29.9,107.5c-0.5-0.3-1-0.8-1.3-1.4c-0.3-0.6-0.4-1.3-0.4-2.1v0c0-0.8,0.2-1.5,0.5-2.1c0.3-0.6,0.7-1,1.3-1.4
			s1.2-0.5,1.9-0.5c0.7,0,1.2,0.1,1.7,0.4c0.5,0.3,0.9,0.6,1.1,1c0.3,0.4,0.4,0.9,0.5,1.4v0.1h-1.7l0-0.1c-0.1-0.4-0.2-0.7-0.5-0.9
			c-0.3-0.3-0.6-0.4-1.1-0.4c-0.4,0-0.7,0.1-1,0.3c-0.3,0.2-0.5,0.5-0.6,0.9c-0.2,0.4-0.2,0.8-0.2,1.3v0c0,0.5,0.1,1,0.2,1.3
			c0.2,0.4,0.4,0.7,0.6,0.9c0.3,0.2,0.6,0.3,1,0.3c0.5,0,0.8-0.1,1.1-0.4c0.3-0.2,0.5-0.6,0.5-1l0-0.1h1.7l0,0.1
			c0,0.5-0.2,1-0.5,1.4s-0.7,0.8-1.2,1c-0.5,0.2-1,0.4-1.7,0.4C31.1,108,30.5,107.8,29.9,107.5z"/>
		<path class="st8" d="M36.8,97.5h1.8v4h0c0.2-0.5,0.5-0.8,0.9-1.1s0.9-0.4,1.4-0.4c0.5,0,1,0.1,1.4,0.4c0.4,0.3,0.7,0.6,0.9,1.1
			c0.2,0.4,0.3,1,0.3,1.6v4.7h-1.8v-4.4c0-0.6-0.1-1-0.4-1.4c-0.3-0.3-0.7-0.5-1.2-0.5c-0.3,0-0.6,0.1-0.9,0.2
			c-0.2,0.2-0.4,0.4-0.6,0.7c-0.1,0.3-0.2,0.6-0.2,1v4.4h-1.8V97.5z"/>
		<path class="st8" d="M47,107.5c-0.5-0.3-1-0.8-1.3-1.4s-0.4-1.3-0.4-2.1v0c0-0.8,0.1-1.5,0.4-2.1c0.3-0.6,0.7-1.1,1.2-1.4
			c0.5-0.3,1.2-0.5,1.9-0.5c0.7,0,1.3,0.2,1.9,0.5c0.5,0.3,0.9,0.8,1.2,1.3c0.3,0.6,0.4,1.2,0.4,2v0.6h-6.2v-1.2h5.3l-0.9,1.1v-0.7
			c0-0.5-0.1-0.9-0.2-1.2c-0.2-0.3-0.4-0.6-0.6-0.7c-0.3-0.2-0.6-0.2-0.9-0.2c-0.4,0-0.7,0.1-0.9,0.3c-0.3,0.2-0.5,0.4-0.6,0.8
			c-0.2,0.3-0.2,0.7-0.2,1.2v0.7c0,0.5,0.1,0.9,0.2,1.2c0.2,0.3,0.4,0.6,0.7,0.7c0.3,0.2,0.6,0.3,1,0.3c0.3,0,0.6,0,0.8-0.1
			c0.2-0.1,0.4-0.2,0.6-0.4c0.1-0.1,0.2-0.3,0.3-0.5l0-0.1h1.7l0,0.1c-0.1,0.3-0.2,0.6-0.3,0.9c-0.2,0.3-0.4,0.5-0.7,0.8
			c-0.3,0.2-0.6,0.4-1,0.5c-0.4,0.1-0.8,0.2-1.3,0.2C48.2,108,47.6,107.8,47,107.5z"/>
		<path class="st8" d="M54.1,100.3h1.8v1.3h0c0.1-0.5,0.3-0.8,0.6-1.1c0.3-0.3,0.7-0.4,1.1-0.4c0.1,0,0.2,0,0.3,0
			c0.1,0,0.2,0,0.3,0.1v1.6c-0.1,0-0.2-0.1-0.3-0.1c-0.1,0-0.3,0-0.4,0c-0.3,0-0.6,0.1-0.9,0.2c-0.2,0.1-0.4,0.3-0.6,0.6
			c-0.1,0.3-0.2,0.6-0.2,1v4.4h-1.8V100.3z"/>
		<path class="st8" d="M60.7,107.5c-0.5-0.3-1-0.8-1.3-1.4c-0.3-0.6-0.4-1.3-0.4-2.1v0c0-0.8,0.2-1.5,0.5-2.1c0.3-0.6,0.7-1,1.3-1.4
			c0.5-0.3,1.2-0.5,1.9-0.5c0.7,0,1.2,0.1,1.7,0.4c0.5,0.3,0.9,0.6,1.1,1c0.3,0.4,0.4,0.9,0.5,1.4v0.1h-1.7l0-0.1
			c-0.1-0.4-0.2-0.7-0.5-0.9c-0.3-0.3-0.6-0.4-1.1-0.4c-0.4,0-0.7,0.1-1,0.3c-0.3,0.2-0.5,0.5-0.6,0.9s-0.2,0.8-0.2,1.3v0
			c0,0.5,0.1,1,0.2,1.3c0.2,0.4,0.4,0.7,0.6,0.9c0.3,0.2,0.6,0.3,1,0.3c0.5,0,0.8-0.1,1.1-0.4c0.3-0.2,0.5-0.6,0.5-1l0-0.1H66l0,0.1
			c0,0.5-0.2,1-0.5,1.4s-0.7,0.8-1.2,1c-0.5,0.2-1,0.4-1.7,0.4C61.9,108,61.3,107.8,60.7,107.5z"/>
		<path class="st8" d="M67.6,97.5h1.8v4h0c0.2-0.5,0.5-0.8,0.9-1.1s0.9-0.4,1.4-0.4c0.5,0,1,0.1,1.4,0.4c0.4,0.3,0.7,0.6,0.9,1.1
			c0.2,0.4,0.3,1,0.3,1.6v4.7h-1.8v-4.4c0-0.6-0.1-1-0.4-1.4c-0.3-0.3-0.7-0.5-1.2-0.5c-0.3,0-0.6,0.1-0.9,0.2
			c-0.2,0.2-0.4,0.4-0.6,0.7c-0.1,0.3-0.2,0.6-0.2,1v4.4h-1.8V97.5z"/>
		<path class="st8" d="M77.8,107.5c-0.5-0.3-1-0.8-1.3-1.4s-0.4-1.3-0.4-2.1v0c0-0.8,0.1-1.5,0.4-2.1c0.3-0.6,0.7-1.1,1.2-1.4
			c0.5-0.3,1.2-0.5,1.9-0.5c0.7,0,1.3,0.2,1.9,0.5c0.5,0.3,0.9,0.8,1.2,1.3c0.3,0.6,0.4,1.2,0.4,2v0.6H77v-1.2h5.3l-0.9,1.1v-0.7
			c0-0.5-0.1-0.9-0.2-1.2c-0.2-0.3-0.4-0.6-0.6-0.7c-0.3-0.2-0.6-0.2-0.9-0.2c-0.4,0-0.7,0.1-0.9,0.3c-0.3,0.2-0.5,0.4-0.6,0.8
			c-0.2,0.3-0.2,0.7-0.2,1.2v0.7c0,0.5,0.1,0.9,0.2,1.2c0.2,0.3,0.4,0.6,0.7,0.7c0.3,0.2,0.6,0.3,1,0.3c0.3,0,0.6,0,0.8-0.1
			c0.2-0.1,0.4-0.2,0.6-0.4c0.1-0.1,0.2-0.3,0.3-0.5l0-0.1h1.7l0,0.1c-0.1,0.3-0.2,0.6-0.3,0.9c-0.2,0.3-0.4,0.5-0.7,0.8
			c-0.3,0.2-0.6,0.4-1,0.5c-0.4,0.1-0.8,0.2-1.3,0.2C79,108,78.4,107.8,77.8,107.5z"/>
		<path class="st8" d="M85.1,107.7c-0.2-0.2-0.3-0.4-0.3-0.7c0-0.3,0.1-0.5,0.3-0.7c0.2-0.2,0.4-0.3,0.7-0.3c0.3,0,0.5,0.1,0.7,0.3
			s0.3,0.4,0.3,0.7c0,0.3-0.1,0.5-0.3,0.7s-0.4,0.3-0.7,0.3C85.5,108,85.3,107.9,85.1,107.7z"/>
		<path class="st8" d="M89,107.7c-0.2-0.2-0.3-0.4-0.3-0.7c0-0.3,0.1-0.5,0.3-0.7s0.4-0.3,0.7-0.3c0.3,0,0.5,0.1,0.7,0.3
			s0.3,0.4,0.3,0.7c0,0.3-0.1,0.5-0.3,0.7S90,108,89.7,108C89.4,108,89.2,107.9,89,107.7z"/>
		<path class="st8" d="M92.9,107.7c-0.2-0.2-0.3-0.4-0.3-0.7c0-0.3,0.1-0.5,0.3-0.7c0.2-0.2,0.4-0.3,0.7-0.3c0.3,0,0.5,0.1,0.7,0.3
			c0.2,0.2,0.3,0.4,0.3,0.7c0,0.3-0.1,0.5-0.3,0.7c-0.2,0.2-0.4,0.3-0.7,0.3C93.4,108,93.1,107.9,92.9,107.7z"/>
	</g>
</g>
</svg>
