<?xml version="1.0" encoding="utf-8"?>
<!-- Generator: Adobe Illustrator 25.0.1, SVG Export Plug-In . SVG Version: 6.00 Build 0)  -->
<svg version="1.1" id="Calque_1" xmlns="http://www.w3.org/2000/svg" xmlns:xlink="http://www.w3.org/1999/xlink" x="0px" y="0px"
	 viewBox="0 0 125 125" style="enable-background:new 0 0 125 125;" xml:space="preserve">
<style type="text/css">
	.st0{fill:#F8F7F5;}
	.st1{fill:#010102;}
	.st2{fill:url(#SVGID_1_);}
	.st3{fill:url(#SVGID_2_);}
	.st4{fill:url(#SVGID_3_);}
	.st5{fill:url(#SVGID_4_);}
	.st6{fill:url(#SVGID_5_);}
	.st7{fill:url(#SVGID_6_);}
	.st8{fill:url(#SVGID_7_);}
	.st9{fill:url(#SVGID_8_);}
	.st10{fill:url(#SVGID_9_);}
	.st11{fill:url(#SVGID_10_);}
	.st12{fill:url(#SVGID_11_);}
	.st13{fill:url(#SVGID_12_);}
	.st14{fill:url(#SVGID_13_);}
	.st15{fill:url(#SVGID_14_);}
	.st16{fill:url(#SVGID_15_);}
	.st17{fill:url(#SVGID_16_);}
	.st18{opacity:0.38;fill:url(#SVGID_17_);}
	.st19{opacity:0.38;fill:url(#SVGID_18_);}
	.st20{fill:#1A1A1A;}
	.st21{fill:#262626;}
	.st22{fill:#333333;}
	.st23{fill:url(#SVGID_19_);}
	.st24{fill:url(#SVGID_20_);}
	.st25{fill:url(#SVGID_21_);}
	.st26{fill:url(#SVGID_22_);}
	.st27{fill:url(#SVGID_23_);}
	.st28{fill:url(#SVGID_24_);}
	.st29{fill:url(#SVGID_25_);}
	.st30{fill:url(#SVGID_26_);}
	.st31{fill:url(#SVGID_27_);}
	.st32{fill:url(#SVGID_28_);}
	.st33{fill:url(#SVGID_29_);}
	.st34{fill:#575859;}
	.st35{fill:url(#SVGID_30_);}
	.st36{fill:url(#SVGID_31_);}
	.st37{fill:#FFFFFF;}
	.st38{fill:#1D1D1B;}
	.st39{fill:#E6323E;}
	.st40{fill:#020304;}
	.st41{fill:none;stroke:#32A94D;stroke-width:0.75;stroke-miterlimit:10;}
	.st42{fill:#32A94D;}
</style>
<path class="st0" d="M103.5,125h-82C9.7,125,0,115.3,0,103.5v-82C0,9.7,9.7,0,21.5,0h82C115.3,0,125,9.7,125,21.5v82
	C125,115.3,115.3,125,103.5,125z"/>
<image style="overflow:visible;" width="1126" height="2436" xlink:href="DATAVIZ/images/IMG_4990.JPEG"  transform="matrix(4.396666e-02 0 0 4.367016e-02 12.9935 8.1812)">
</image>
<g>
	<path class="st1" d="M57,6H18.4c-4.6,0-8.3,3.7-8.3,8.3v6.6c0.1,0.1,0.1,0.2,0.1,0.4c0,0.2,0,3.7,0,3.8c0,0.1,0,0.3-0.1,0.4v3.2
		c0.2,0.2,0.2,0.4,0.2,0.6c0,0.2,0,7.5,0,7.6c0,0.1,0,0.3-0.2,0.5v1.5c0.2,0.2,0.2,0.4,0.2,0.6c0,0.2,0,7.5,0,7.6
		c0,0.1,0,0.3-0.2,0.5v61.7c0,4.6,3.7,8.3,8.3,8.3H57c4.6,0,8.3-3.7,8.3-8.3V14.3C65.2,9.8,61.5,6,57,6z M61.9,109.3
		c0,2.7-2.2,4.8-4.8,4.8H18.3c-2.7,0-4.8-2.2-4.8-4.8V14.2c0-2.7,2.2-4.8,4.8-4.8h5.2c0.4,0,0.7,0.3,0.7,0.7v0.6
		c0,0.8,0.7,2.6,2.8,2.6c1.1,0,19.6,0,21.5,0s2.7-1.7,2.7-2.7V10c0-0.4,0.3-0.7,0.7-0.7H57c2.7,0,4.8,2.2,4.8,4.8V109.3z"/>
	<path class="st1" d="M10.2,25.1c0-0.1,0-3.6,0-3.8c0-0.2,0-0.3-0.1-0.4v4.5C10.2,25.4,10.2,25.2,10.2,25.1z"/>
	<linearGradient id="SVGID_1_" gradientUnits="userSpaceOnUse" x1="10.0872" y1="23.1886" x2="10.2331" y2="23.1886">
		<stop  offset="0" style="stop-color:#686867"/>
		<stop  offset="8.322608e-02" style="stop-color:#5C5C5B"/>
		<stop  offset="0.3028" style="stop-color:#414141"/>
		<stop  offset="0.5271" style="stop-color:#2E2E2E"/>
		<stop  offset="0.7568" style="stop-color:#232323"/>
		<stop  offset="1" style="stop-color:#1F1F1F"/>
	</linearGradient>
	<path class="st2" d="M10.2,25.1c0-0.1,0-3.6,0-3.8c0-0.2,0-0.3-0.1-0.4v4.5C10.2,25.4,10.2,25.2,10.2,25.1z"/>
	<path class="st1" d="M10.3,36.8c0-0.1,0-7.4,0-7.6c0-0.2,0-0.4-0.2-0.6v8.7C10.3,37.2,10.3,36.9,10.3,36.8z"/>
	<linearGradient id="SVGID_2_" gradientUnits="userSpaceOnUse" x1="10.0853" y1="33.0072" x2="10.296" y2="33.0072">
		<stop  offset="0" style="stop-color:#FFFFFF"/>
		<stop  offset="2.313912e-03" style="stop-color:#FEFEFE"/>
		<stop  offset="0.1238" style="stop-color:#C3C3C3"/>
		<stop  offset="0.2476" style="stop-color:#8F8F8F"/>
		<stop  offset="0.372" style="stop-color:#636363"/>
		<stop  offset="0.4966" style="stop-color:#3F3F3F"/>
		<stop  offset="0.6214" style="stop-color:#242424"/>
		<stop  offset="0.7466" style="stop-color:#101010"/>
		<stop  offset="0.8724" style="stop-color:#040404"/>
		<stop  offset="1" style="stop-color:#000000"/>
	</linearGradient>
	<path class="st3" d="M10.3,36.8c0-0.1,0-7.4,0-7.6c0-0.2,0-0.4-0.2-0.6v8.7C10.3,37.2,10.3,36.9,10.3,36.8z"/>
	<path class="st1" d="M10.3,47c0-0.1,0-7.4,0-7.6c0-0.2,0-0.4-0.2-0.6v8.7C10.3,47.4,10.3,47.1,10.3,47z"/>
	<linearGradient id="SVGID_3_" gradientUnits="userSpaceOnUse" x1="10.0853" y1="43.1967" x2="10.296" y2="43.1967">
		<stop  offset="0" style="stop-color:#FFFFFF"/>
		<stop  offset="2.313912e-03" style="stop-color:#FEFEFE"/>
		<stop  offset="0.1238" style="stop-color:#C3C3C3"/>
		<stop  offset="0.2476" style="stop-color:#8F8F8F"/>
		<stop  offset="0.372" style="stop-color:#636363"/>
		<stop  offset="0.4966" style="stop-color:#3F3F3F"/>
		<stop  offset="0.6214" style="stop-color:#242424"/>
		<stop  offset="0.7466" style="stop-color:#101010"/>
		<stop  offset="0.8724" style="stop-color:#040404"/>
		<stop  offset="1" style="stop-color:#000000"/>
	</linearGradient>
	<path class="st4" d="M10.3,47c0-0.1,0-7.4,0-7.6c0-0.2,0-0.4-0.2-0.6v8.7C10.3,47.4,10.3,47.1,10.3,47z"/>
	<g>
		<g>
			<linearGradient id="SVGID_4_" gradientUnits="userSpaceOnUse" x1="60.1931" y1="7.3149" x2="64.3016" y2="10.0727">
				<stop  offset="0" style="stop-color:#4E4D4D"/>
				<stop  offset="1" style="stop-color:#1A1A1A"/>
			</linearGradient>
			<path class="st5" d="M60,7.6c0.4,0.2,0.8,0.4,1.1,0.6c1.1,0.4,2,1.1,2.8,2c-0.5-0.9-1.2-1.6-2-2.3C61.3,7.6,60.7,7.5,60,7.6z"/>
			<linearGradient id="SVGID_5_" gradientUnits="userSpaceOnUse" x1="61.1006" y1="34.9982" x2="65.0292" y2="34.9982">
				<stop  offset="0" style="stop-color:#7C7D7D"/>
				<stop  offset="0.1393" style="stop-color:#7F8080"/>
				<stop  offset="0.2618" style="stop-color:#898B8B"/>
				<stop  offset="0.3781" style="stop-color:#9B9C9D"/>
				<stop  offset="0.4905" style="stop-color:#B2B5B7"/>
				<stop  offset="0.5991" style="stop-color:#D1D4D7"/>
				<stop  offset="0.7017" style="stop-color:#F5F9FD"/>
				<stop  offset="0.7815" style="stop-color:#F3F6FA"/>
				<stop  offset="0.8315" style="stop-color:#EAEEF2"/>
				<stop  offset="0.8733" style="stop-color:#DCE0E3"/>
				<stop  offset="0.9106" style="stop-color:#C9CBCF"/>
				<stop  offset="0.9449" style="stop-color:#AFB1B4"/>
				<stop  offset="0.9765" style="stop-color:#909193"/>
				<stop  offset="1" style="stop-color:#747476"/>
			</linearGradient>
			<path class="st6" d="M65,61.8V14.4c0-1.5-0.4-2.9-1.1-4.2c-0.7-1-1.6-1.6-2.8-2c2,1.4,3.3,3.6,3.3,6.2v47.4L65,61.8z"/>
		</g>
		<g>
			<linearGradient id="SVGID_6_" gradientUnits="userSpaceOnUse" x1="11.1861" y1="10.001" x2="15.3605" y2="7.2302">
				<stop  offset="0" style="stop-color:#4E4D4D"/>
				<stop  offset="1" style="stop-color:#1A1A1A"/>
			</linearGradient>
			<path class="st7" d="M15.4,7.6C15,7.7,14.6,8,14.3,8.2c-1.1,0.4-2,1.1-2.8,2c0.5-0.9,1.2-1.6,2-2.3C14.1,7.6,14.7,7.5,15.4,7.6z"
				/>
			<g>
				<linearGradient id="SVGID_7_" gradientUnits="userSpaceOnUse" x1="14.3051" y1="34.9224" x2="10.3698" y2="34.9224">
					<stop  offset="0" style="stop-color:#7C7D7D"/>
					<stop  offset="0.1393" style="stop-color:#7F8080"/>
					<stop  offset="0.2618" style="stop-color:#898B8B"/>
					<stop  offset="0.3781" style="stop-color:#9B9C9D"/>
					<stop  offset="0.4905" style="stop-color:#B2B5B7"/>
					<stop  offset="0.5991" style="stop-color:#D1D4D7"/>
					<stop  offset="0.7017" style="stop-color:#F5F9FD"/>
					<stop  offset="0.7815" style="stop-color:#F3F6FA"/>
					<stop  offset="0.8315" style="stop-color:#EAEEF2"/>
					<stop  offset="0.8733" style="stop-color:#DCE0E3"/>
					<stop  offset="0.9106" style="stop-color:#C9CBCF"/>
					<stop  offset="0.9449" style="stop-color:#AFB1B4"/>
					<stop  offset="0.9765" style="stop-color:#909193"/>
					<stop  offset="1" style="stop-color:#747476"/>
				</linearGradient>
				<path class="st8" d="M10.4,61.6V14.4c0-1.5,0.4-2.9,1.1-4.2c0.7-1,1.6-1.6,2.8-2c-2,1.4-3.3,3.6-3.3,6.2v47.2L10.4,61.6z"/>
				<linearGradient id="SVGID_8_" gradientUnits="userSpaceOnUse" x1="37.698" y1="8.0164" x2="37.698" y2="6.2235">
					<stop  offset="0" style="stop-color:#BFC1C7;stop-opacity:0.7"/>
					<stop  offset="0.346" style="stop-color:#C2C4C9;stop-opacity:0.8038"/>
					<stop  offset="0.5671" style="stop-color:#CACCD1;stop-opacity:0.8701"/>
					<stop  offset="0.7531" style="stop-color:#D9DBDE;stop-opacity:0.9259"/>
					<stop  offset="0.9187" style="stop-color:#EEEFF1;stop-opacity:0.9756"/>
					<stop  offset="1" style="stop-color:#FBFCFD"/>
				</linearGradient>
				<path class="st9" d="M56.8,6.2H37.7H18.6c-1.9,0-3.6,0.6-5,1.7c0.6-0.4,1.1-0.5,1.9-0.4c1-0.4,2-0.7,3.2-0.7h19.1h19.1
					C58,6.9,59,7.1,60,7.6c0.7-0.1,1.3,0,1.9,0.4C60.5,6.9,58.7,6.2,56.8,6.2z"/>
			</g>
		</g>
	</g>
	<path d="M65,44.3c0-0.1,0-12.2,0-12.3c0-0.2,0-0.4,0.3-0.6v13.4C64.9,44.6,65,44.4,65,44.3z"/>
	<g>
		<g>
			
				<linearGradient id="SVGID_9_" gradientUnits="userSpaceOnUse" x1="60.1932" y1="-71.457" x2="64.3016" y2="-68.6993" gradientTransform="matrix(1 0 0 -1 0 44.801)">
				<stop  offset="0" style="stop-color:#4E4D4D"/>
				<stop  offset="1" style="stop-color:#1A1A1A"/>
			</linearGradient>
			<path class="st10" d="M60,116c0.4-0.2,0.8-0.4,1.1-0.6c1.1-0.4,2-1.1,2.8-2c-0.5,0.9-1.2,1.6-2,2.3C61.3,116,60.7,116.1,60,116z"
				/>
			<linearGradient id="SVGID_10_" gradientUnits="userSpaceOnUse" x1="61.128" y1="88.5747" x2="65.0074" y2="88.5747">
				<stop  offset="0" style="stop-color:#7C7D7D"/>
				<stop  offset="0.1393" style="stop-color:#7F8080"/>
				<stop  offset="0.2618" style="stop-color:#898B8B"/>
				<stop  offset="0.3781" style="stop-color:#9B9C9D"/>
				<stop  offset="0.4905" style="stop-color:#B2B5B7"/>
				<stop  offset="0.5991" style="stop-color:#D1D4D7"/>
				<stop  offset="0.7017" style="stop-color:#F5F9FD"/>
				<stop  offset="0.7815" style="stop-color:#F3F6FA"/>
				<stop  offset="0.8315" style="stop-color:#EAEEF2"/>
				<stop  offset="0.8733" style="stop-color:#DCE0E3"/>
				<stop  offset="0.9106" style="stop-color:#C9CBCF"/>
				<stop  offset="0.9449" style="stop-color:#AFB1B4"/>
				<stop  offset="0.9765" style="stop-color:#909193"/>
				<stop  offset="1" style="stop-color:#747476"/>
			</linearGradient>
			<path class="st11" d="M65,61.8v47.4c0,1.5-0.4,2.9-1.1,4.2c-0.7,1-1.6,1.6-2.8,2c2-1.4,3.3-3.6,3.3-6.2V61.8L65,61.8z"/>
		</g>
		<g>
			<linearGradient id="SVGID_11_" gradientUnits="userSpaceOnUse" x1="15.2402" y1="116.2828" x2="11.3364" y2="113.6629">
				<stop  offset="0" style="stop-color:#4E4D4D"/>
				<stop  offset="1" style="stop-color:#1A1A1A"/>
			</linearGradient>
			<path class="st12" d="M15.4,116c-0.4-0.2-0.8-0.4-1.1-0.6c-1.1-0.4-2-1.1-2.8-2c0.5,0.9,1.2,1.6,2,2.3
				C14.1,116,14.7,116.1,15.4,116z"/>
			<g>
				<linearGradient id="SVGID_12_" gradientUnits="userSpaceOnUse" x1="14.2724" y1="88.6506" x2="10.3576" y2="88.6506">
					<stop  offset="0" style="stop-color:#7C7D7D"/>
					<stop  offset="0.1393" style="stop-color:#7F8080"/>
					<stop  offset="0.2618" style="stop-color:#898B8B"/>
					<stop  offset="0.3781" style="stop-color:#9B9C9D"/>
					<stop  offset="0.4905" style="stop-color:#B2B5B7"/>
					<stop  offset="0.5991" style="stop-color:#D1D4D7"/>
					<stop  offset="0.7017" style="stop-color:#F5F9FD"/>
					<stop  offset="0.7815" style="stop-color:#F3F6FA"/>
					<stop  offset="0.8315" style="stop-color:#EAEEF2"/>
					<stop  offset="0.8733" style="stop-color:#DCE0E3"/>
					<stop  offset="0.9106" style="stop-color:#C9CBCF"/>
					<stop  offset="0.9449" style="stop-color:#AFB1B4"/>
					<stop  offset="0.9765" style="stop-color:#909193"/>
					<stop  offset="1" style="stop-color:#747476"/>
				</linearGradient>
				<path class="st13" d="M10.4,61.9v47.2c0,1.5,0.4,2.9,1.1,4.2c0.7,1,1.6,1.6,2.8,2c-2-1.4-3.3-3.6-3.3-6.2V61.9L10.4,61.9z"/>
				
					<linearGradient id="SVGID_13_" gradientUnits="userSpaceOnUse" x1="37.698" y1="-70.7555" x2="37.698" y2="-72.5485" gradientTransform="matrix(1 0 0 -1 0 44.801)">
					<stop  offset="0" style="stop-color:#BFC1C7;stop-opacity:0.7"/>
					<stop  offset="0.346" style="stop-color:#C2C4C9;stop-opacity:0.8038"/>
					<stop  offset="0.5671" style="stop-color:#CACCD1;stop-opacity:0.8701"/>
					<stop  offset="0.7531" style="stop-color:#D9DBDE;stop-opacity:0.9259"/>
					<stop  offset="0.9187" style="stop-color:#EEEFF1;stop-opacity:0.9756"/>
					<stop  offset="1" style="stop-color:#FBFCFD"/>
				</linearGradient>
				<path class="st14" d="M56.8,117.3H37.7H18.6c-1.9,0-3.6-0.6-5-1.7c0.6,0.4,1.1,0.5,1.9,0.4c1,0.4,2,0.7,3.2,0.7h19.1h19.1
					c1.1,0,2.2-0.3,3.2-0.7c0.7,0.1,1.3,0,1.9-0.4C60.5,116.7,58.7,117.3,56.8,117.3z"/>
			</g>
		</g>
	</g>
	<linearGradient id="SVGID_14_" gradientUnits="userSpaceOnUse" x1="11.1603" y1="61.7472" x2="64.2396" y2="61.7472">
		<stop  offset="0" style="stop-color:#2E2E2E"/>
		<stop  offset="6.534460e-02" style="stop-color:#000000"/>
		<stop  offset="0.1849" style="stop-color:#363636"/>
		<stop  offset="0.8005" style="stop-color:#363636"/>
		<stop  offset="0.9365" style="stop-color:#000000"/>
		<stop  offset="1" style="stop-color:#2E2E2E"/>
	</linearGradient>
	<path class="st15" d="M57,116.5H18.5c-4.1,0-7.4-3.3-7.4-7.4V14.3c0-4,3.3-7.3,7.3-7.3h38.4c4.1,0,7.4,3.3,7.4,7.4v94.8
		C64.2,113.2,61,116.5,57,116.5z M18.4,7.3c-3.9,0-7,3.1-7,7v94.8c0,3.9,3.2,7.1,7.1,7.1H57c3.9,0,7-3.1,7-7V14.4
		c0-3.9-3.2-7.1-7.1-7.1H18.4z"/>
	<linearGradient id="SVGID_15_" gradientUnits="userSpaceOnUse" x1="59.7828" y1="61.7263" x2="63.9033" y2="61.7263">
		<stop  offset="0" style="stop-color:#6B6C70;stop-opacity:0.7"/>
		<stop  offset="0.412" style="stop-color:#6D6E72;stop-opacity:0.8236"/>
		<stop  offset="0.5813" style="stop-color:#747579;stop-opacity:0.8744"/>
		<stop  offset="0.706" style="stop-color:#808185;stop-opacity:0.9118"/>
		<stop  offset="0.8089" style="stop-color:#929295;stop-opacity:0.9427"/>
		<stop  offset="0.8983" style="stop-color:#A9A8AB;stop-opacity:0.9695"/>
		<stop  offset="0.9769" style="stop-color:#C4C4C6;stop-opacity:0.9931"/>
		<stop  offset="1" style="stop-color:#CECDCF"/>
	</linearGradient>
	<path class="st16" d="M63.8,15c0-4-1.9-6.1-4.1-7c0.6,1.2,3.1,2.2,3.1,6.9v93.5c0,4.8-2.5,5.8-3.1,6.9c2.1-0.9,4.1-2.9,4.1-7
		l0.1-46.7L63.8,15z"/>
	
		<linearGradient id="SVGID_16_" gradientUnits="userSpaceOnUse" x1="-45.4547" y1="61.7263" x2="-41.3342" y2="61.7263" gradientTransform="matrix(-1 0 0 1 -29.6967 0)">
		<stop  offset="0" style="stop-color:#6B6C70;stop-opacity:0.7"/>
		<stop  offset="0.412" style="stop-color:#6D6E72;stop-opacity:0.8236"/>
		<stop  offset="0.5813" style="stop-color:#747579;stop-opacity:0.8744"/>
		<stop  offset="0.706" style="stop-color:#808185;stop-opacity:0.9118"/>
		<stop  offset="0.8089" style="stop-color:#929295;stop-opacity:0.9427"/>
		<stop  offset="0.8983" style="stop-color:#A9A8AB;stop-opacity:0.9695"/>
		<stop  offset="0.9769" style="stop-color:#C4C4C6;stop-opacity:0.9931"/>
		<stop  offset="1" style="stop-color:#CECDCF"/>
	</linearGradient>
	<path class="st17" d="M11.7,15c0-4,1.9-6.1,4.1-7c-0.6,1.2-3.1,2.2-3.1,6.9v93.5c0,4.8,2.5,5.8,3.1,6.9c-2.1-0.9-4.1-2.9-4.1-7
		l-0.1-46.7L11.7,15z"/>
	<linearGradient id="SVGID_17_" gradientUnits="userSpaceOnUse" x1="15.314" y1="8.1392" x2="59.9173" y2="8.1392">
		<stop  offset="0" style="stop-color:#000000;stop-opacity:0"/>
		<stop  offset="1.223741e-02" style="stop-color:#1F1F1F;stop-opacity:5.475402e-02"/>
		<stop  offset="3.481372e-02" style="stop-color:#535353;stop-opacity:0.1558"/>
		<stop  offset="5.839052e-02" style="stop-color:#818181;stop-opacity:0.2613"/>
		<stop  offset="8.251567e-02" style="stop-color:#A8A8A8;stop-opacity:0.3692"/>
		<stop  offset="0.1073" style="stop-color:#C8C8C8;stop-opacity:0.4801"/>
		<stop  offset="0.1329" style="stop-color:#E0E0E0;stop-opacity:0.5949"/>
		<stop  offset="0.1599" style="stop-color:#F1F1F1;stop-opacity:0.7152"/>
		<stop  offset="0.1888" style="stop-color:#FCFCFC;stop-opacity:0.8448"/>
		<stop  offset="0.2235" style="stop-color:#FFFFFF"/>
		<stop  offset="0.6845" style="stop-color:#FFFFFF"/>
		<stop  offset="0.7631" style="stop-color:#FFFFFF"/>
		<stop  offset="0.8418" style="stop-color:#FDFDFD;stop-opacity:0.6677"/>
		<stop  offset="0.8742" style="stop-color:#F6F6F6;stop-opacity:0.5312"/>
		<stop  offset="0.898" style="stop-color:#EAEAEA;stop-opacity:0.4306"/>
		<stop  offset="0.9177" style="stop-color:#D8D8D8;stop-opacity:0.3475"/>
		<stop  offset="0.9348" style="stop-color:#C1C1C1;stop-opacity:0.2754"/>
		<stop  offset="0.9501" style="stop-color:#A5A5A5;stop-opacity:0.2107"/>
		<stop  offset="0.9641" style="stop-color:#838383;stop-opacity:0.1517"/>
		<stop  offset="0.977" style="stop-color:#5C5C5C;stop-opacity:9.708208e-02"/>
		<stop  offset="0.9886" style="stop-color:#323232;stop-opacity:4.798812e-02"/>
		<stop  offset="0.9995" style="stop-color:#020202;stop-opacity:1.976430e-03"/>
		<stop  offset="1" style="stop-color:#000000;stop-opacity:0"/>
	</linearGradient>
	<path class="st18" d="M56.6,7.5h-19h-19c-1.2,0-2.3,0.3-3.3,0.8l0.2,0.5c0.9-0.3,2-0.6,3.1-0.6h19h19c1.1,0,2.1,0.2,3,0.6l0.3-0.6
		C58.9,7.7,57.8,7.5,56.6,7.5z"/>
	
		<linearGradient id="SVGID_18_" gradientUnits="userSpaceOnUse" x1="15.314" y1="326.6267" x2="59.9173" y2="326.6267" gradientTransform="matrix(1 0 0 -1 0 441.8746)">
		<stop  offset="0" style="stop-color:#000000;stop-opacity:0"/>
		<stop  offset="1.223741e-02" style="stop-color:#1F1F1F;stop-opacity:5.475402e-02"/>
		<stop  offset="3.481372e-02" style="stop-color:#535353;stop-opacity:0.1558"/>
		<stop  offset="5.839052e-02" style="stop-color:#818181;stop-opacity:0.2613"/>
		<stop  offset="8.251567e-02" style="stop-color:#A8A8A8;stop-opacity:0.3692"/>
		<stop  offset="0.1073" style="stop-color:#C8C8C8;stop-opacity:0.4801"/>
		<stop  offset="0.1329" style="stop-color:#E0E0E0;stop-opacity:0.5949"/>
		<stop  offset="0.1599" style="stop-color:#F1F1F1;stop-opacity:0.7152"/>
		<stop  offset="0.1888" style="stop-color:#FCFCFC;stop-opacity:0.8448"/>
		<stop  offset="0.2235" style="stop-color:#FFFFFF"/>
		<stop  offset="0.6845" style="stop-color:#FFFFFF"/>
		<stop  offset="0.7631" style="stop-color:#FFFFFF"/>
		<stop  offset="0.8418" style="stop-color:#FDFDFD;stop-opacity:0.6677"/>
		<stop  offset="0.8742" style="stop-color:#F6F6F6;stop-opacity:0.5312"/>
		<stop  offset="0.898" style="stop-color:#EAEAEA;stop-opacity:0.4306"/>
		<stop  offset="0.9177" style="stop-color:#D8D8D8;stop-opacity:0.3475"/>
		<stop  offset="0.9348" style="stop-color:#C1C1C1;stop-opacity:0.2754"/>
		<stop  offset="0.9501" style="stop-color:#A5A5A5;stop-opacity:0.2107"/>
		<stop  offset="0.9641" style="stop-color:#838383;stop-opacity:0.1517"/>
		<stop  offset="0.977" style="stop-color:#5C5C5C;stop-opacity:9.708208e-02"/>
		<stop  offset="0.9886" style="stop-color:#323232;stop-opacity:4.798812e-02"/>
		<stop  offset="0.9995" style="stop-color:#020202;stop-opacity:1.976430e-03"/>
		<stop  offset="1" style="stop-color:#000000;stop-opacity:0"/>
	</linearGradient>
	<path class="st19" d="M56.6,115.9h-19h-19c-1.2,0-2.3-0.3-3.3-0.8l0.2-0.5c0.9,0.3,2,0.6,3.1,0.6h19h19c1.1,0,2.1-0.2,3-0.6
		l0.3,0.6C58.9,115.6,57.8,115.9,56.6,115.9z"/>
	<g>
		<path class="st20" d="M41.1,10.3c0,0,0-0.1-0.1-0.1L41.1,10.3L41.1,10.3z"/>
		<polygon class="st20" points="35.6,10.6 35.5,10.7 35.6,10.8 35.6,10.8 35.7,10.7 		"/>
		<polygon class="st20" points="35.4,10.8 35.4,10.8 35.4,10.8 		"/>
		<rect x="40.4" y="10.5" transform="matrix(0.7072 -0.707 0.707 0.7072 4.3888 31.7238)" class="st20" width="0.1" height="0.1"/>
		
			<rect x="40.1" y="10.5" transform="matrix(0.7071 -0.7071 0.7071 0.7071 4.2992 31.5051)" class="st20" width="0.1" height="0.1"/>
		<rect x="38" y="10.3" transform="matrix(0.7071 -0.7071 0.7071 0.7071 3.8074 30.0006)" class="st20" width="0.1" height="0.1"/>
		<path class="st20" d="M41,10.2c0,0-0.1-0.1-0.1-0.1L41,10.2L41,10.2z"/>
		<polygon class="st20" points="36.2,10.6 36.1,10.7 36.2,10.8 36.2,10.8 36.3,10.7 		"/>
		<polygon class="st20" points="35.3,10.6 35.2,10.7 35.2,10.8 35.3,10.8 35.4,10.7 		"/>
		<polygon class="st20" points="35.7,10.8 35.8,10.8 35.7,10.8 		"/>
		<path class="st20" d="M40.8,10.8C40.8,10.8,40.8,10.8,40.8,10.8L40.8,10.8L40.8,10.8z"/>
		<polygon class="st20" points="40.7,10.6 40.6,10.7 40.6,10.8 40.7,10.8 40.8,10.7 		"/>
		<polygon class="st20" points="36,10.8 36.1,10.8 36.1,10.8 		"/>
		<path class="st20" d="M41.1,10.6c0,0,0-0.1,0-0.1L41.1,10.6L41.1,10.6z"/>
		<path class="st20" d="M40.9,10.7L40.9,10.7c0.1,0,0.1,0,0.2,0L41,10.6L40.9,10.7z"/>
		<polygon class="st20" points="35.9,10.6 35.8,10.7 35.9,10.8 35.9,10.8 36,10.7 		"/>
		
			<rect x="38.4" y="10.3" transform="matrix(0.7071 -0.7071 0.7071 0.7071 3.9003 30.2249)" class="st20" width="0.1" height="0.1"/>
		<polygon class="st20" points="39.7,10.2 39.8,10.1 39.8,10.1 39.6,10.1 39.6,10.1 		"/>
		
			<rect x="38.8" y="10.5" transform="matrix(0.7071 -0.7071 0.7071 0.7071 3.9275 30.6079)" class="st20" width="0.1" height="0.1"/>
		<rect x="37.4" y="10.3" transform="matrix(0.7071 -0.7071 0.7071 0.7071 3.6216 29.552)" class="st20" width="0.1" height="0.1"/>
		<path class="st20" d="M34.6,10.6l-0.1,0.1l0.1,0.1c0,0,0,0,0,0h0l0.1-0.1L34.6,10.6z"/>
		
			<rect x="39.2" y="10.5" transform="matrix(0.7071 -0.7071 0.7071 0.7071 4.0205 30.8322)" class="st20" width="0.1" height="0.1"/>
		<rect x="38.5" y="10.5" transform="matrix(0.707 -0.7072 0.7072 0.707 3.8377 30.3889)" class="st20" width="0.1" height="0.1"/>
		<polygon class="st20" points="40.7,10.2 40.8,10.1 40.7,10.1 40.6,10.1 40.6,10.1 		"/>
		
			<rect x="34.4" y="10.5" transform="matrix(0.7071 -0.7071 0.7071 0.7071 2.6268 27.4675)" class="st20" width="0.1" height="0.1"/>
		<polygon class="st20" points="39.4,10.2 39.5,10.1 39.5,10.1 39.3,10.1 39.3,10.1 		"/>
		<polygon class="st20" points="34.9,10.6 34.8,10.7 34.9,10.8 35,10.8 35,10.7 		"/>
		
			<rect x="39.8" y="10.5" transform="matrix(0.7071 -0.7071 0.7071 0.7071 4.2063 31.2808)" class="st20" width="0.1" height="0.1"/>
		<polygon class="st20" points="40.3,10.2 40.4,10.1 40.4,10.1 40.3,10.1 40.2,10.1 		"/>
		
			<rect x="37.7" y="10.3" transform="matrix(0.7071 -0.7071 0.7071 0.7071 3.7145 29.7763)" class="st20" width="0.1" height="0.1"/>
		<polygon class="st20" points="35.1,10.8 35.1,10.8 35.1,10.8 		"/>
		
			<rect x="39.5" y="10.5" transform="matrix(0.7071 -0.7071 0.7071 0.7071 4.1134 31.0565)" class="st20" width="0.1" height="0.1"/>
		<polygon class="st20" points="40,10.2 40.1,10.1 40.1,10.1 39.9,10.1 39.9,10.1 		"/>
		<polygon class="st20" points="34.8,10.8 34.8,10.8 34.8,10.8 		"/>
		<polygon class="st20" points="40.2,10.8 40.2,10.8 40.2,10.8 		"/>
		<polygon class="st20" points="38.8,10.6 38.6,10.7 38.7,10.8 38.8,10.8 38.9,10.7 		"/>
		<rect x="39.6" y="10.3" transform="matrix(0.7071 -0.7071 0.7071 0.7071 4.272 31.1222)" class="st20" width="0.1" height="0.1"/>
		<polygon class="st20" points="37.3,10.8 37.3,10.8 37.3,10.8 		"/>
		<polygon class="st20" points="38.6,10.8 38.6,10.8 38.6,10.8 		"/>
		<rect x="39" y="10.3" transform="matrix(0.7071 -0.7071 0.7071 0.7071 4.0862 30.6736)" class="st20" width="0.1" height="0.1"/>
		<polygon class="st20" points="39.1,10.6 39,10.7 39,10.8 39.1,10.8 39.2,10.7 		"/>
		<polygon class="st20" points="38.9,10.8 38.9,10.8 38.9,10.8 		"/>
		<polygon class="st20" points="40.5,10.8 40.5,10.8 40.5,10.8 		"/>
		<polygon class="st20" points="37.8,10.6 37.7,10.7 37.8,10.8 37.8,10.8 37.9,10.7 		"/>
		
			<rect x="39.9" y="10.3" transform="matrix(0.7071 -0.7071 0.7071 0.7071 4.3649 31.3465)" class="st20" width="0.1" height="0.1"/>
		<polygon class="st20" points="37.9,10.8 38,10.8 38,10.8 		"/>
		<polygon class="st20" points="38.1,10.6 38,10.7 38.1,10.8 38.1,10.8 38.2,10.7 		"/>
		<rect x="39.3" y="10.3" transform="matrix(0.707 -0.7072 0.7072 0.707 4.1823 30.9033)" class="st20" width="0.1" height="0.1"/>
		<polygon class="st20" points="37.5,10.6 37.4,10.7 37.5,10.8 37.5,10.8 37.6,10.7 		"/>
		<polygon class="st20" points="38.4,10.6 38.3,10.7 38.4,10.8 38.5,10.8 38.5,10.7 		"/>
		<polygon class="st20" points="38.3,10.8 38.3,10.8 38.3,10.8 		"/>
		<polygon class="st20" points="37.2,10.6 37.1,10.7 37.1,10.8 37.2,10.8 37.3,10.7 		"/>
		<polygon class="st20" points="36.5,10.6 36.4,10.7 36.5,10.8 36.6,10.8 36.6,10.7 		"/>
		<polygon class="st20" points="40,10.6 39.9,10.7 40,10.8 40,10.8 40.1,10.7 		"/>
		<polygon class="st20" points="39.1,10.2 39.2,10.1 39.2,10.1 39,10.1 39,10.1 		"/>
		
			<rect x="38.7" y="10.3" transform="matrix(0.7071 -0.7071 0.7071 0.7071 3.9933 30.4492)" class="st20" width="0.1" height="0.1"/>
		<polygon class="st20" points="39.2,10.8 39.3,10.8 39.2,10.8 		"/>
		
			<rect x="40.6" y="10.3" transform="matrix(0.7069 -0.7073 0.7073 0.7069 4.5574 31.8063)" class="st20" width="0.1" height="0.1"/>
		<polygon class="st20" points="40.3,10.6 40.2,10.7 40.3,10.8 40.4,10.8 40.4,10.7 		"/>
		<polygon class="st20" points="39.8,10.8 39.9,10.8 39.9,10.8 		"/>
		<polygon class="st20" points="36.4,10.8 36.4,10.8 36.4,10.8 		"/>
		<polygon class="st20" points="39.4,10.6 39.3,10.7 39.4,10.8 39.4,10.8 39.5,10.7 		"/>
		<polygon class="st20" points="36.8,10.6 36.7,10.7 36.8,10.8 36.9,10.8 37,10.7 		"/>
		<polygon class="st20" points="37,10.8 37,10.8 37,10.8 		"/>
		<polygon class="st20" points="36.7,10.8 36.7,10.8 36.7,10.8 		"/>
		<polygon class="st20" points="39.7,10.6 39.6,10.7 39.7,10.8 39.7,10.8 39.8,10.7 		"/>
		
			<rect x="40.3" y="10.3" transform="matrix(0.7071 -0.7071 0.7071 0.7071 4.4578 31.5708)" class="st20" width="0.1" height="0.1"/>
		<polygon class="st20" points="39.5,10.8 39.6,10.8 39.5,10.8 		"/>
		<polygon class="st20" points="37.6,10.8 37.7,10.8 37.6,10.8 		"/>
		<rect x="34.6" y="10.3" transform="matrix(0.707 -0.7072 0.7072 0.707 2.788 27.538)" class="st20" width="0.1" height="0.1"/>
		<rect x="35" y="10.5" transform="matrix(0.7071 -0.7071 0.7071 0.7071 2.8126 27.9161)" class="st20" width="0.1" height="0.1"/>
		<rect x="38.2" y="10.2" transform="matrix(0.707 -0.7072 0.7072 0.707 3.9691 30.0716)" class="st20" width="0.1" height="0.1"/>
		<polygon class="st20" points="35.9,10.2 36,10.1 36,10.1 35.8,10.1 35.8,10.1 		"/>
		<rect x="37.9" y="10.2" transform="matrix(0.707 -0.7072 0.7072 0.707 3.8762 29.8472)" class="st20" width="0.1" height="0.1"/>
		<polygon class="st20" points="35.3,10.2 35.4,10.1 35.3,10.1 35.2,10.1 35.2,10.1 		"/>
		
			<rect x="37.6" y="10.2" transform="matrix(0.7071 -0.7071 0.7071 0.7071 3.7802 29.6177)" class="st20" width="0.1" height="0.1"/>
		
			<rect x="34.7" y="10.5" transform="matrix(0.7071 -0.7071 0.7071 0.7071 2.7197 27.6918)" class="st20" width="0.1" height="0.1"/>
		<polygon class="st20" points="35.6,10.2 35.7,10.1 35.7,10.1 35.5,10.1 35.5,10.1 		"/>
		
			<rect x="34.9" y="10.3" transform="matrix(0.7071 -0.7071 0.7071 0.7071 2.8783 27.7575)" class="st20" width="0.1" height="0.1"/>
		<polygon class="st20" points="36.5,10.2 36.6,10.1 36.6,10.1 36.4,10.1 36.4,10.1 		"/>
		
			<rect x="36.9" y="10.2" transform="matrix(0.7071 -0.7071 0.7071 0.7071 3.5944 29.1691)" class="st20" width="0.1" height="0.1"/>
		
			<rect x="35.7" y="10.5" transform="matrix(0.7071 -0.7071 0.7071 0.7071 2.9984 28.3647)" class="st20" width="0.1" height="0.1"/>
		<polygon class="st20" points="36.2,10.2 36.3,10.1 36.3,10.1 36.1,10.1 36.1,10.1 		"/>
		<rect x="37.3" y="10.2" transform="matrix(0.707 -0.7072 0.7072 0.707 3.6903 29.3985)" class="st20" width="0.1" height="0.1"/>
		<rect x="35.3" y="10.5" transform="matrix(0.7072 -0.707 0.707 0.7072 2.9028 28.1354)" class="st20" width="0.1" height="0.1"/>
		
			<rect x="39.8" y="10.2" transform="matrix(0.7071 -0.7071 0.7071 0.7071 4.4306 31.1879)" class="st20" width="0.1" height="0.1"/>
		
			<rect x="40.9" y="10.3" transform="matrix(0.7071 -0.7071 0.7071 0.7071 4.6436 32.0194)" class="st20" width="0.1" height="0.1"/>
		<path class="st20" d="M34.4,10.4l-0.1-0.1l0,0c0,0,0,0.1,0,0.1c0,0,0,0,0,0l0,0L34.4,10.4z"/>
		
			<rect x="40.4" y="10.2" transform="matrix(0.7071 -0.7071 0.7071 0.7071 4.6165 31.6365)" class="st20" width="0.1" height="0.1"/>
		<rect x="40.7" y="10.2" transform="matrix(0.707 -0.7072 0.7072 0.707 4.7127 31.8664)" class="st20" width="0.1" height="0.1"/>
		<rect x="40.7" y="10.5" transform="matrix(0.707 -0.7072 0.7072 0.707 4.4878 31.9583)" class="st20" width="0.1" height="0.1"/>
		<path class="st20" d="M34.3,10.6C34.4,10.7,34.4,10.7,34.3,10.6L34.3,10.6L34.3,10.6z"/>
		<rect x="38.5" y="10.2" transform="matrix(0.707 -0.7072 0.7072 0.707 4.062 30.2959)" class="st20" width="0.1" height="0.1"/>
		
			<rect x="40.1" y="10.2" transform="matrix(0.7071 -0.7071 0.7071 0.7071 4.5235 31.4122)" class="st20" width="0.1" height="0.1"/>
		<polygon class="st20" points="34.9,10.2 35,10.1 35,10.1 34.9,10.1 34.8,10.1 		"/>
		
			<rect x="39.2" y="10.2" transform="matrix(0.7071 -0.7071 0.7071 0.7071 4.2448 30.7393)" class="st20" width="0.1" height="0.1"/>
		<rect x="38.8" y="10.2" transform="matrix(0.707 -0.7072 0.7072 0.707 4.155 30.5203)" class="st20" width="0.1" height="0.1"/>
		<rect x="36" y="10.5" transform="matrix(0.7071 -0.7071 0.7071 0.7071 3.0913 28.589)" class="st20" width="0.1" height="0.1"/>
		<rect x="39.5" y="10.2" transform="matrix(0.707 -0.7072 0.7072 0.707 4.3409 30.969)" class="st20" width="0.1" height="0.1"/>
		<path class="st20" d="M34.7,10.1L34.7,10.1l-0.1,0c0,0-0.1,0-0.1,0l0.1,0.1L34.7,10.1z"/>
		<polygon class="st20" points="37.8,10.2 37.9,10.1 37.9,10.1 37.7,10.1 37.7,10.1 		"/>
		
			<rect x="35.3" y="10.2" transform="matrix(0.7071 -0.7071 0.7071 0.7071 3.1298 28.0475)" class="st20" width="0.1" height="0.1"/>
		
			<rect x="37.6" y="10.5" transform="matrix(0.7071 -0.7071 0.7071 0.7071 3.5559 29.7106)" class="st20" width="0.1" height="0.1"/>
		
			<rect x="36.8" y="10.3" transform="matrix(0.7071 -0.7071 0.7071 0.7071 3.4358 29.1033)" class="st20" width="0.1" height="0.1"/>
		
			<rect x="35.7" y="10.2" transform="matrix(0.7071 -0.7071 0.7071 0.7071 3.2227 28.2718)" class="st20" width="0.1" height="0.1"/>
		<rect x="37.3" y="10.5" transform="matrix(0.7072 -0.707 0.707 0.7072 3.4601 29.4811)" class="st20" width="0.1" height="0.1"/>
		<polygon class="st20" points="38.4,10.2 38.5,10.1 38.5,10.1 38.3,10.1 38.3,10.1 		"/>
		<polygon class="st20" points="38.1,10.2 38.2,10.1 38.2,10.1 38,10.1 38,10.1 		"/>
		
			<rect x="36.5" y="10.3" transform="matrix(0.7071 -0.7071 0.7071 0.7071 3.3429 28.8791)" class="st20" width="0.1" height="0.1"/>
		<rect x="35" y="10.2" transform="matrix(0.7071 -0.7071 0.7071 0.7071 3.0369 27.8232)" class="st20" width="0.1" height="0.1"/>
		<rect x="34.7" y="10.2" transform="matrix(0.7071 -0.7071 0.7071 0.7071 2.944 27.5989)" class="st20" width="0.1" height="0.1"/>
		<rect x="34.4" y="10.2" transform="matrix(0.707 -0.7072 0.7072 0.707 2.8537 27.3794)" class="st20" width="0.1" height="0.1"/>
		
			<rect x="38.2" y="10.5" transform="matrix(0.7071 -0.7071 0.7071 0.7071 3.7417 30.1592)" class="st20" width="0.1" height="0.1"/>
		
			<rect x="37.9" y="10.5" transform="matrix(0.7071 -0.7071 0.7071 0.7071 3.6488 29.9349)" class="st20" width="0.1" height="0.1"/>
		<polygon class="st20" points="38.8,10.2 38.9,10.1 38.8,10.1 38.7,10.1 38.6,10.1 		"/>
		
			<rect x="37.1" y="10.3" transform="matrix(0.7071 -0.7071 0.7071 0.7071 3.5287 29.3276)" class="st20" width="0.1" height="0.1"/>
		<rect x="36.6" y="10.2" transform="matrix(0.707 -0.7072 0.7072 0.707 3.5044 28.9499)" class="st20" width="0.1" height="0.1"/>
		<rect x="35.8" y="10.3" transform="matrix(0.7071 -0.7071 0.7071 0.7071 3.157 28.4304)" class="st20" width="0.1" height="0.1"/>
		<polygon class="st20" points="37.5,10.2 37.6,10.1 37.6,10.1 37.4,10.1 37.4,10.1 		"/>
		<polygon class="st20" points="37.2,10.2 37.3,10.1 37.3,10.1 37.1,10.1 37.1,10.1 		"/>
		<rect x="36.3" y="10.2" transform="matrix(0.707 -0.7072 0.7072 0.707 3.4114 28.7255)" class="st20" width="0.1" height="0.1"/>
		
			<rect x="35.5" y="10.3" transform="matrix(0.7071 -0.7071 0.7071 0.7071 3.0641 28.2061)" class="st20" width="0.1" height="0.1"/>
		<rect x="36" y="10.2" transform="matrix(0.707 -0.7072 0.7072 0.707 3.3185 28.5011)" class="st20" width="0.1" height="0.1"/>
		
			<rect x="36.6" y="10.5" transform="matrix(0.7071 -0.7071 0.7071 0.7071 3.2772 29.0377)" class="st20" width="0.1" height="0.1"/>
		<rect x="36.1" y="10.3" transform="matrix(0.7072 -0.707 0.707 0.7072 3.2471 28.6496)" class="st20" width="0.1" height="0.1"/>
		
			<rect x="35.2" y="10.3" transform="matrix(0.7071 -0.7071 0.7071 0.7071 2.9712 27.9818)" class="st20" width="0.1" height="0.1"/>
		<polygon class="st20" points="36.8,10.2 37,10.1 36.9,10.1 36.8,10.1 36.7,10.1 		"/>
		<rect x="36.9" y="10.5" transform="matrix(0.7071 -0.7071 0.7071 0.7071 3.3701 29.262)" class="st20" width="0.1" height="0.1"/>
		
			<rect x="36.3" y="10.5" transform="matrix(0.7071 -0.7071 0.7071 0.7071 3.1842 28.8133)" class="st20" width="0.1" height="0.1"/>
		<path class="st21" d="M34.5,10.7l-0.1-0.1l-0.1,0.1c0,0,0,0,0,0L34.5,10.7L34.5,10.7z"/>
		<path class="st21" d="M34.3,10.5C34.3,10.5,34.3,10.5,34.3,10.5L34.3,10.5L34.3,10.5z"/>
		<path class="st21" d="M34.5,10.8c0,0,0.1,0,0.1,0L34.5,10.8L34.5,10.8z"/>
		<polygon class="st21" points="34.8,10.8 34.8,10.8 34.9,10.8 34.8,10.7 		"/>
		
			<rect x="34.7" y="10.6" transform="matrix(0.7071 -0.7071 0.7071 0.7071 2.6403 27.6589)" class="st21" width="0.1" height="0.1"/>
		
			<rect x="34.4" y="10.3" transform="matrix(0.7073 -0.7069 0.7069 0.7073 2.7669 27.3327)" class="st21" width="0.1" height="0.1"/>
		
			<rect x="34.5" y="10.4" transform="matrix(0.7069 -0.7073 0.7073 0.7069 2.7109 27.5093)" class="st21" width="0.1" height="0.1"/>
		<rect x="34.7" y="10.3" transform="matrix(0.7072 -0.707 0.707 0.7072 2.862 27.5611)" class="st21" width="0.1" height="0.1"/>
		<rect x="35" y="10.6" transform="matrix(0.7069 -0.7073 0.7073 0.7069 2.7382 27.8924)" class="st21" width="0.1" height="0.1"/>
		<polygon class="st21" points="35.1,10.8 35.1,10.8 35.2,10.8 35.2,10.7 		"/>
		<rect x="34.8" y="10.4" transform="matrix(0.707 -0.7072 0.7072 0.707 2.8017 27.7296)" class="st21" width="0.1" height="0.1"/>
		<polygon class="st21" points="34.6,10.2 34.6,10.2 34.5,10.1 34.5,10.1 34.5,10.1 		"/>
		<polygon class="st21" points="35.4,10.8 35.4,10.8 35.6,10.8 35.5,10.7 		"/>
		<rect x="35" y="10.3" transform="matrix(0.7071 -0.7071 0.7071 0.7071 2.9576 27.7903)" class="st21" width="0.1" height="0.1"/>
		
			<rect x="35.3" y="10.6" transform="matrix(0.7071 -0.7071 0.7071 0.7071 2.8262 28.1075)" class="st21" width="0.1" height="0.1"/>
		
			<rect x="35.1" y="10.4" transform="matrix(0.7071 -0.7071 0.7071 0.7071 2.8919 27.9489)" class="st21" width="0.1" height="0.1"/>
		
			<rect x="34.8" y="10.1" transform="matrix(0.7071 -0.7071 0.7071 0.7071 3.0233 27.6317)" class="st21" width="0.1" height="0.1"/>
		<polygon class="st21" points="34.7,10.1 34.7,10.1 34.7,10.1 		"/>
		<polygon class="st21" points="35.7,10.8 35.8,10.8 35.9,10.8 35.8,10.7 		"/>
		<rect x="35.1" y="10.1" transform="matrix(0.7071 -0.7071 0.7071 0.7071 3.1162 27.856)" class="st21" width="0.1" height="0.1"/>
		
			<rect x="35.6" y="10.6" transform="matrix(0.7071 -0.7071 0.7071 0.7071 2.9191 28.3319)" class="st21" width="0.1" height="0.1"/>
		<rect x="35.3" y="10.3" transform="matrix(0.7072 -0.707 0.707 0.7072 3.0478 28.0096)" class="st21" width="0.1" height="0.1"/>
		<rect x="35.5" y="10.4" transform="matrix(0.707 -0.7072 0.7072 0.707 2.9875 28.1783)" class="st21" width="0.1" height="0.1"/>
		<polygon class="st21" points="35.1,10.1 35,10.1 35,10.1 		"/>
		<rect x="35.5" y="10.1" transform="matrix(0.7072 -0.707 0.707 0.7072 3.2064 28.0753)" class="st21" width="0.1" height="0.1"/>
		<rect x="35.9" y="10.6" transform="matrix(0.7073 -0.7069 0.7069 0.7073 3.006 28.5451)" class="st21" width="0.1" height="0.1"/>
		
			<rect x="35.8" y="10.4" transform="matrix(0.7071 -0.7071 0.7071 0.7071 3.0778 28.3976)" class="st21" width="0.1" height="0.1"/>
		<polygon class="st21" points="36.1,10.8 36.1,10.8 36.2,10.8 36.1,10.7 		"/>
		<polygon class="st21" points="35.4,10.1 35.3,10.1 35.4,10.1 		"/>
		<rect x="35.6" y="10.3" transform="matrix(0.7072 -0.707 0.707 0.7072 3.1407 28.2339)" class="st21" width="0.1" height="0.1"/>
		
			<rect x="35.8" y="10.1" transform="matrix(0.7071 -0.7071 0.7071 0.7071 3.3025 28.3056)" class="st21" width="0.1" height="0.1"/>
		
			<rect x="36.3" y="10.6" transform="matrix(0.7071 -0.7071 0.7071 0.7071 3.1049 28.7805)" class="st21" width="0.1" height="0.1"/>
		<polygon class="st21" points="35.7,10.1 35.7,10.1 35.7,10.1 		"/>
		
			<rect x="36.1" y="10.4" transform="matrix(0.7071 -0.7071 0.7071 0.7071 3.1706 28.6218)" class="st21" width="0.1" height="0.1"/>
		
			<rect x="35.9" y="10.3" transform="matrix(0.7071 -0.7071 0.7071 0.7071 3.2363 28.4632)" class="st21" width="0.1" height="0.1"/>
		<polygon class="st21" points="36.4,10.8 36.4,10.8 36.5,10.8 36.4,10.7 		"/>
		
			<rect x="36.4" y="10.4" transform="matrix(0.7071 -0.7071 0.7071 0.7071 3.2636 28.8462)" class="st21" width="0.1" height="0.1"/>
		<rect x="36.1" y="10.1" transform="matrix(0.7072 -0.707 0.707 0.7072 3.3921 28.5239)" class="st21" width="0.1" height="0.1"/>
		<rect x="36.6" y="10.6" transform="matrix(0.7069 -0.7073 0.7073 0.7069 3.203 29.0142)" class="st21" width="0.1" height="0.1"/>
		<polygon class="st21" points="36.7,10.8 36.7,10.8 36.8,10.8 36.7,10.7 		"/>
		<polygon class="st21" points="36,10.1 36,10.1 36,10.1 		"/>
		<rect x="36.3" y="10.3" transform="matrix(0.7072 -0.707 0.707 0.7072 3.3264 28.6825)" class="st21" width="0.1" height="0.1"/>
		
			<rect x="36.9" y="10.6" transform="matrix(0.7073 -0.7069 0.7069 0.7073 3.2846 29.2178)" class="st21" width="0.1" height="0.1"/>
		<rect x="36.7" y="10.4" transform="matrix(0.7072 -0.707 0.707 0.7072 3.3536 29.0654)" class="st21" width="0.1" height="0.1"/>
		<polygon class="st21" points="37,10.8 37,10.8 37.1,10.8 37.1,10.7 		"/>
		<polygon class="st21" points="36.3,10.1 36.3,10.1 36.3,10.1 		"/>
		
			<rect x="36.4" y="10.1" transform="matrix(0.7071 -0.7071 0.7071 0.7071 3.4879 28.7533)" class="st21" width="0.1" height="0.1"/>
		
			<rect x="36.6" y="10.3" transform="matrix(0.7071 -0.7071 0.7071 0.7071 3.4222 28.9119)" class="st21" width="0.1" height="0.1"/>
		<rect x="36.9" y="10.3" transform="matrix(0.7072 -0.707 0.707 0.7072 3.5122 29.131)" class="st21" width="0.1" height="0.1"/>
		<rect x="37" y="10.4" transform="matrix(0.707 -0.7072 0.7072 0.707 3.4523 29.3)" class="st21" width="0.1" height="0.1"/>
		<polygon class="st21" points="36.7,10.1 36.6,10.1 36.6,10.1 		"/>
		
			<rect x="36.7" y="10.1" transform="matrix(0.7071 -0.7071 0.7071 0.7071 3.5813 28.9786)" class="st21" width="0.1" height="0.1"/>
		<polygon class="st21" points="37.3,10.8 37.3,10.8 37.5,10.8 37.4,10.7 		"/>
		
			<rect x="37.2" y="10.6" transform="matrix(0.7071 -0.7071 0.7071 0.7071 3.3837 29.4534)" class="st21" width="0.1" height="0.1"/>
		<polygon class="st21" points="37,10.1 36.9,10.1 37,10.1 		"/>
		<rect x="37.2" y="10.3" transform="matrix(0.7072 -0.707 0.707 0.7072 3.6051 29.3553)" class="st21" width="0.1" height="0.1"/>
		
			<rect x="37.4" y="10.4" transform="matrix(0.7071 -0.7071 0.7071 0.7071 3.5423 29.5191)" class="st21" width="0.1" height="0.1"/>
		<polygon class="st21" points="37.6,10.8 37.7,10.8 37.8,10.8 37.7,10.7 		"/>
		<rect x="37" y="10.1" transform="matrix(0.7071 -0.7071 0.7071 0.7071 3.6737 29.2019)" class="st21" width="0.1" height="0.1"/>
		<rect x="37.5" y="10.6" transform="matrix(0.7069 -0.7073 0.7073 0.7069 3.482 29.6874)" class="st21" width="0.1" height="0.1"/>
		<polygon class="st21" points="38,10.8 38,10.8 38.1,10.8 38,10.7 		"/>
		
			<rect x="37.7" y="10.4" transform="matrix(0.7071 -0.7071 0.7071 0.7071 3.6352 29.7434)" class="st21" width="0.1" height="0.1"/>
		<polygon class="st21" points="37.3,10.1 37.3,10.1 37.3,10.1 		"/>
		
			<rect x="37.5" y="10.3" transform="matrix(0.7071 -0.7071 0.7071 0.7071 3.7009 29.5848)" class="st21" width="0.1" height="0.1"/>
		
			<rect x="37.4" y="10.1" transform="matrix(0.7071 -0.7071 0.7071 0.7071 3.7666 29.4262)" class="st21" width="0.1" height="0.1"/>
		
			<rect x="37.8" y="10.6" transform="matrix(0.7069 -0.7073 0.7073 0.7069 3.5749 29.9117)" class="st21" width="0.1" height="0.1"/>
		<polygon class="st21" points="38.3,10.8 38.3,10.8 38.4,10.8 38.3,10.7 		"/>
		<polygon class="st21" points="37.6,10.1 37.6,10.1 37.6,10.1 		"/>
		
			<rect x="37.8" y="10.3" transform="matrix(0.7071 -0.7071 0.7071 0.7071 3.7938 29.8091)" class="st21" width="0.1" height="0.1"/>
		<rect x="38" y="10.4" transform="matrix(0.7071 -0.7071 0.7071 0.7071 3.7281 29.9677)" class="st21" width="0.1" height="0.1"/>
		
			<rect x="38.2" y="10.6" transform="matrix(0.7069 -0.7073 0.7073 0.7069 3.6679 30.1361)" class="st21" width="0.1" height="0.1"/>
		
			<rect x="37.7" y="10.1" transform="matrix(0.7071 -0.7071 0.7071 0.7071 3.8595 29.6505)" class="st21" width="0.1" height="0.1"/>
		<polygon class="st21" points="38.6,10.8 38.6,10.8 38.7,10.8 38.6,10.7 		"/>
		<polygon class="st21" points="37.9,10.1 37.9,10.1 37.9,10.1 		"/>
		<rect x="38" y="10.1" transform="matrix(0.7071 -0.7071 0.7071 0.7071 3.9525 29.8748)" class="st21" width="0.1" height="0.1"/>
		<rect x="38.3" y="10.4" transform="matrix(0.7072 -0.707 0.707 0.7072 3.818 30.1867)" class="st21" width="0.1" height="0.1"/>
		
			<rect x="38.5" y="10.6" transform="matrix(0.7071 -0.7071 0.7071 0.7071 3.7543 30.3488)" class="st21" width="0.1" height="0.1"/>
		
			<rect x="38.2" y="10.3" transform="matrix(0.7071 -0.7071 0.7071 0.7071 3.8868 30.0335)" class="st21" width="0.1" height="0.1"/>
		
			<rect x="38.3" y="10.1" transform="matrix(0.7071 -0.7071 0.7071 0.7071 4.0459 30.1001)" class="st21" width="0.1" height="0.1"/>
		<rect x="38.8" y="10.6" transform="matrix(0.7071 -0.7071 0.7071 0.7071 3.8482 30.575)" class="st21" width="0.1" height="0.1"/>
		<polygon class="st21" points="38.9,10.8 38.9,10.8 39,10.8 39,10.7 		"/>
		<polygon class="st21" points="38.2,10.1 38.2,10.1 38.2,10.1 		"/>
		
			<rect x="38.6" y="10.4" transform="matrix(0.7071 -0.7071 0.7071 0.7071 3.9139 30.4163)" class="st21" width="0.1" height="0.1"/>
		
			<rect x="38.5" y="10.3" transform="matrix(0.7071 -0.7071 0.7071 0.7071 3.9796 30.2577)" class="st21" width="0.1" height="0.1"/>
		
			<rect x="38.6" y="10.1" transform="matrix(0.7071 -0.7071 0.7071 0.7071 4.1383 30.3235)" class="st21" width="0.1" height="0.1"/>
		<polygon class="st21" points="38.6,10.1 38.5,10.1 38.5,10.1 		"/>
		
			<rect x="39.1" y="10.6" transform="matrix(0.7069 -0.7073 0.7073 0.7069 3.9469 30.8093)" class="st21" width="0.1" height="0.1"/>
		<rect x="38.8" y="10.3" transform="matrix(0.7072 -0.707 0.707 0.7072 4.0695 30.4767)" class="st21" width="0.1" height="0.1"/>
		<rect x="39" y="10.4" transform="matrix(0.7071 -0.7071 0.7071 0.7071 4.0069 30.6407)" class="st21" width="0.1" height="0.1"/>
		<polygon class="st21" points="39.2,10.8 39.3,10.8 39.4,10.8 39.3,10.7 		"/>
		<rect x="39.4" y="10.6" transform="matrix(0.7071 -0.7071 0.7071 0.7071 4.033 31.0217)" class="st21" width="0.1" height="0.1"/>
		<rect x="39.1" y="10.3" transform="matrix(0.7072 -0.707 0.707 0.7072 4.1624 30.701)" class="st21" width="0.1" height="0.1"/>
		<polygon class="st21" points="39.5,10.8 39.6,10.8 39.7,10.8 39.6,10.7 		"/>
		<rect x="39" y="10.1" transform="matrix(0.707 -0.7072 0.7072 0.707 4.2344 30.5531)" class="st21" width="0.1" height="0.1"/>
		<rect x="39.3" y="10.4" transform="matrix(0.7071 -0.7071 0.7071 0.7071 4.0998 30.865)" class="st21" width="0.1" height="0.1"/>
		<polygon class="st21" points="38.9,10.1 38.8,10.1 38.9,10.1 		"/>
		<rect x="39.3" y="10.1" transform="matrix(0.707 -0.7072 0.7072 0.707 4.3278 30.7785)" class="st21" width="0.1" height="0.1"/>
		<polygon class="st21" points="39.9,10.8 39.9,10.8 40,10.8 39.9,10.7 		"/>
		<polygon class="st21" points="39.2,10.1 39.2,10.1 39.2,10.1 		"/>
		
			<rect x="39.4" y="10.3" transform="matrix(0.7071 -0.7071 0.7071 0.7071 4.2584 30.9307)" class="st21" width="0.1" height="0.1"/>
		<rect x="39.7" y="10.6" transform="matrix(0.7069 -0.7073 0.7073 0.7069 4.1328 31.258)" class="st21" width="0.1" height="0.1"/>
		
			<rect x="39.6" y="10.4" transform="matrix(0.7071 -0.7071 0.7071 0.7071 4.1927 31.0893)" class="st21" width="0.1" height="0.1"/>
		<rect x="39.7" y="10.3" transform="matrix(0.7072 -0.707 0.707 0.7072 4.3481 31.1495)" class="st21" width="0.1" height="0.1"/>
		
			<rect x="40.1" y="10.6" transform="matrix(0.7069 -0.7073 0.7073 0.7069 4.2258 31.4824)" class="st21" width="0.1" height="0.1"/>
		<rect x="39.6" y="10.1" transform="matrix(0.7071 -0.7071 0.7071 0.7071 4.417 30.9964)" class="st21" width="0.1" height="0.1"/>
		<polygon class="st21" points="40.2,10.8 40.2,10.8 40.3,10.8 40.2,10.7 		"/>
		<polygon class="st21" points="39.5,10.1 39.5,10.1 39.5,10.1 		"/>
		<rect x="39.9" y="10.4" transform="matrix(0.707 -0.7072 0.7072 0.707 4.2888 31.3191)" class="st21" width="0.1" height="0.1"/>
		<rect x="39.9" y="10.1" transform="matrix(0.707 -0.7072 0.7072 0.707 4.5132 31.2262)" class="st21" width="0.1" height="0.1"/>
		
			<rect x="40.4" y="10.6" transform="matrix(0.7075 -0.7067 0.7067 0.7075 4.3009 31.6761)" class="st21" width="0.1" height="0.1"/>
		
			<rect x="40.2" y="10.4" transform="matrix(0.7071 -0.7071 0.7071 0.7071 4.3785 31.5379)" class="st21" width="0.1" height="0.1"/>
		<polygon class="st21" points="39.8,10.1 39.8,10.1 39.8,10.1 		"/>
		<polygon class="st21" points="40.5,10.8 40.5,10.8 40.6,10.8 40.6,10.7 		"/>
		
			<rect x="40.1" y="10.3" transform="matrix(0.7071 -0.7071 0.7071 0.7071 4.4442 31.3793)" class="st21" width="0.1" height="0.1"/>
		<polygon class="st21" points="40.1,10.1 40.1,10.1 40.1,10.1 		"/>
		<rect x="40.2" y="10.1" transform="matrix(0.707 -0.7072 0.7072 0.707 4.6061 31.4505)" class="st21" width="0.1" height="0.1"/>
		
			<rect x="40.4" y="10.3" transform="matrix(0.7071 -0.7071 0.7071 0.7071 4.5372 31.6036)" class="st21" width="0.1" height="0.1"/>
		
			<rect x="40.7" y="10.6" transform="matrix(0.7071 -0.7071 0.7071 0.7071 4.4058 31.9209)" class="st21" width="0.1" height="0.1"/>
		<path class="st21" d="M40.8,10.8L40.8,10.8c0,0,0.1,0,0.1,0L40.8,10.8L40.8,10.8z"/>
		
			<rect x="40.5" y="10.4" transform="matrix(0.7071 -0.7071 0.7071 0.7071 4.4715 31.7623)" class="st21" width="0.1" height="0.1"/>
		<polygon class="st21" points="40.5,10.1 40.4,10.1 40.4,10.1 		"/>
		<path class="st21" d="M41,10.6L41,10.6c0.1,0,0.1,0,0.1,0L41,10.6L41,10.6z"/>
		<rect x="40.5" y="10.1" transform="matrix(0.7072 -0.707 0.707 0.7072 4.6924 31.6638)" class="st21" width="0.1" height="0.1"/>
		<rect x="40.7" y="10.3" transform="matrix(0.707 -0.7072 0.7072 0.707 4.6334 31.8335)" class="st21" width="0.1" height="0.1"/>
		<rect x="40.9" y="10.4" transform="matrix(0.7072 -0.707 0.707 0.7072 4.561 31.9809)" class="st21" width="0.1" height="0.1"/>
		<path class="st21" d="M41,10.3l0.1,0.1l0,0c0,0,0,0,0,0L41,10.3L41,10.3z"/>
		<polygon class="st21" points="40.9,10.2 41,10.2 40.9,10.1 40.9,10.1 40.8,10.1 		"/>
		<polygon class="st21" points="40.8,10.1 40.8,10.1 40.7,10.1 40.8,10.1 		"/>
		<path class="st22" d="M34.5,10.1L34.5,10.1c-0.1,0-0.1,0-0.1,0.1l0,0L34.5,10.1z"/>
		<path class="st22" d="M34.3,10.3C34.3,10.3,34.3,10.3,34.3,10.3L34.3,10.3L34.3,10.3z"/>
		<path class="st22" d="M34.4,10.2L34.4,10.2C34.3,10.2,34.3,10.3,34.4,10.2L34.4,10.2L34.4,10.2z"/>
		<path class="st22" d="M34.5,10.1C34.5,10.1,34.5,10.1,34.5,10.1L34.5,10.1L34.5,10.1z"/>
		<polygon class="st22" points="34.9,10.1 34.8,10.1 34.8,10.1 		"/>
		
			<rect x="34.5" y="10.3" transform="matrix(0.7071 -0.7071 0.7071 0.7071 2.8182 27.4538)" class="st22" width="0.1" height="0.1"/>
		
			<rect x="34.6" y="10.1" transform="matrix(0.7071 -0.7071 0.7071 0.7071 2.9769 27.5195)" class="st22" width="0.1" height="0.1"/>
		
			<rect x="34.3" y="10.4" transform="matrix(0.7071 -0.7071 0.7071 0.7071 2.6596 27.3881)" class="st22" width="0.1" height="0.1"/>
		<path class="st22" d="M34.3,10.5L34.3,10.5c0,0.1,0,0.1,0,0.1L34.3,10.5L34.3,10.5z"/>
		<rect x="34.4" y="10.4" transform="matrix(0.7071 -0.7071 0.7071 0.7071 2.7389 27.421)" class="st22" width="0.1" height="0.1"/>
		
			<rect x="34.6" y="10.2" transform="matrix(0.7069 -0.7073 0.7073 0.7069 2.9024 27.4956)" class="st22" width="0.1" height="0.1"/>
		<polygon class="st22" points="34.8,10.1 34.8,10.1 34.8,10.1 34.7,10.1 34.7,10.1 		"/>
		
			<rect x="34.8" y="10.3" transform="matrix(0.7073 -0.7069 0.7069 0.7073 2.9062 27.6691)" class="st22" width="0.1" height="0.1"/>
		<rect x="34.6" y="10.4" transform="matrix(0.7072 -0.707 0.707 0.7072 2.7499 27.6075)" class="st22" width="0.1" height="0.1"/>
		<polygon class="st22" points="35.2,10.1 35.1,10.1 35.2,10.1 		"/>
		<rect x="35" y="10.1" transform="matrix(0.7073 -0.7069 0.7069 0.7073 3.0648 27.7348)" class="st22" width="0.1" height="0.1"/>
		
			<rect x="34.5" y="10.6" transform="matrix(0.7073 -0.7069 0.7069 0.7073 2.5891 27.5377)" class="st22" width="0.1" height="0.1"/>
		<polygon class="st22" points="34.4,10.7 34.4,10.7 34.4,10.7 		"/>
		<path class="st22" d="M34.5,10.7L34.5,10.7L34.5,10.7c0,0.1,0,0.1,0,0.1L34.5,10.7L34.5,10.7z"/>
		<rect x="34.6" y="10.5" transform="matrix(0.7069 -0.7073 0.7073 0.7069 2.678 27.5886)" class="st22" width="0.1" height="0.1"/>
		
			<rect x="34.7" y="10.4" transform="matrix(0.7071 -0.7071 0.7071 0.7071 2.8318 27.6453)" class="st22" width="0.1" height="0.1"/>
		<rect x="34.9" y="10.2" transform="matrix(0.7071 -0.7071 0.7071 0.7071 2.9905 27.711)" class="st22" width="0.1" height="0.1"/>
		<polygon class="st22" points="35.1,10.1 35.2,10.1 35.1,10.1 35.1,10.1 35,10.1 		"/>
		<rect x="35.1" y="10.3" transform="matrix(0.7069 -0.7073 0.7073 0.7069 3.009 27.9116)" class="st22" width="0.1" height="0.1"/>
		
			<rect x="35.3" y="10.1" transform="matrix(0.7071 -0.7071 0.7071 0.7071 3.1627 27.9681)" class="st22" width="0.1" height="0.1"/>
		
			<rect x="34.8" y="10.6" transform="matrix(0.7071 -0.7071 0.7071 0.7071 2.6868 27.7711)" class="st22" width="0.1" height="0.1"/>
		<polygon class="st22" points="34.7,10.7 34.7,10.8 34.8,10.8 34.8,10.8 		"/>
		<polygon class="st22" points="35.5,10.1 35.5,10.1 35.5,10.1 		"/>
		<rect x="35" y="10.4" transform="matrix(0.7071 -0.7071 0.7071 0.7071 2.8455 27.8368)" class="st22" width="0.1" height="0.1"/>
		
			<rect x="34.7" y="10.7" transform="matrix(0.7071 -0.7071 0.7071 0.7071 2.6075 27.7382)" class="st22" width="0.1" height="0.1"/>
		<rect x="34.9" y="10.5" transform="matrix(0.7069 -0.7073 0.7073 0.7069 2.771 27.813)" class="st22" width="0.1" height="0.1"/>
		
			<rect x="35.1" y="10.4" transform="matrix(0.7071 -0.7071 0.7071 0.7071 2.9248 27.8696)" class="st22" width="0.1" height="0.1"/>
		
			<rect x="35.2" y="10.2" transform="matrix(0.7069 -0.7073 0.7073 0.7069 3.0884 27.9444)" class="st22" width="0.1" height="0.1"/>
		<polygon class="st22" points="35.4,10.1 35.5,10.1 35.5,10.1 35.4,10.1 35.4,10.1 		"/>
		<polygon class="st22" points="35.8,10.1 35.8,10.1 35.8,10.1 		"/>
		
			<rect x="35.1" y="10.6" transform="matrix(0.7069 -0.7073 0.7073 0.7069 2.7847 28.0045)" class="st22" width="0.1" height="0.1"/>
		
			<rect x="35.3" y="10.4" transform="matrix(0.7071 -0.7071 0.7071 0.7071 2.9384 28.0611)" class="st22" width="0.1" height="0.1"/>
		<polygon class="st22" points="35,10.7 35,10.8 35.1,10.8 35.1,10.8 		"/>
		
			<rect x="35.6" y="10.1" transform="matrix(0.7071 -0.7071 0.7071 0.7071 3.2556 28.1925)" class="st22" width="0.1" height="0.1"/>
		
			<rect x="35.4" y="10.3" transform="matrix(0.7073 -0.7069 0.7069 0.7073 3.0919 28.1176)" class="st22" width="0.1" height="0.1"/>
		
			<rect x="35.1" y="10.7" transform="matrix(0.7073 -0.7069 0.7069 0.7073 2.6965 27.9551)" class="st22" width="0.1" height="0.1"/>
		<rect x="35.2" y="10.5" transform="matrix(0.7071 -0.7071 0.7071 0.7071 2.859 28.0282)" class="st22" width="0.1" height="0.1"/>
		
			<rect x="35.4" y="10.4" transform="matrix(0.7071 -0.7071 0.7071 0.7071 3.0177 28.0939)" class="st22" width="0.1" height="0.1"/>
		
			<rect x="35.5" y="10.2" transform="matrix(0.7071 -0.7071 0.7071 0.7071 3.1763 28.1596)" class="st22" width="0.1" height="0.1"/>
		<polygon class="st22" points="35.7,10.1 35.8,10.1 35.8,10.1 35.7,10.1 35.7,10.1 		"/>
		<polygon class="st22" points="36.1,10.1 36.1,10.1 36.1,10.1 		"/>
		
			<rect x="35.6" y="10.4" transform="matrix(0.7071 -0.7071 0.7071 0.7071 3.0313 28.2854)" class="st22" width="0.1" height="0.1"/>
		
			<rect x="35.4" y="10.6" transform="matrix(0.7069 -0.7073 0.7073 0.7069 2.8776 28.2289)" class="st22" width="0.1" height="0.1"/>
		<polygon class="st22" points="35.4,10.7 35.3,10.8 35.4,10.8 35.4,10.8 		"/>
		
			<rect x="35.7" y="10.3" transform="matrix(0.7071 -0.7071 0.7071 0.7071 3.1899 28.3511)" class="st22" width="0.1" height="0.1"/>
		
			<rect x="35.9" y="10.1" transform="matrix(0.7071 -0.7071 0.7071 0.7071 3.3485 28.4168)" class="st22" width="0.1" height="0.1"/>
		
			<rect x="35.4" y="10.7" transform="matrix(0.7071 -0.7071 0.7071 0.7071 2.7933 28.1869)" class="st22" width="0.1" height="0.1"/>
		<rect x="35.5" y="10.5" transform="matrix(0.7069 -0.7073 0.7073 0.7069 2.957 28.2618)" class="st22" width="0.1" height="0.1"/>
		
			<rect x="35.7" y="10.4" transform="matrix(0.7071 -0.7071 0.7071 0.7071 3.1106 28.3183)" class="st22" width="0.1" height="0.1"/>
		<rect x="35.9" y="10.2" transform="matrix(0.7073 -0.7069 0.7069 0.7073 3.264 28.3747)" class="st22" width="0.1" height="0.1"/>
		<polygon class="st22" points="36.1,10.1 36.1,10.1 36.1,10.1 36,10.1 36,10.1 		"/>
		<polygon class="st22" points="35.7,10.7 35.6,10.8 35.7,10.8 35.7,10.8 		"/>
		<rect x="35.7" y="10.6" transform="matrix(0.7071 -0.7071 0.7071 0.7071 2.9656 28.444)" class="st22" width="0.1" height="0.1"/>
		<polygon class="st22" points="36.4,10.1 36.4,10.1 36.4,10.1 		"/>
		
			<rect x="36.1" y="10.3" transform="matrix(0.7073 -0.7069 0.7069 0.7073 3.2776 28.5661)" class="st22" width="0.1" height="0.1"/>
		
			<rect x="35.9" y="10.4" transform="matrix(0.7071 -0.7071 0.7071 0.7071 3.1242 28.5097)" class="st22" width="0.1" height="0.1"/>
		
			<rect x="36.2" y="10.1" transform="matrix(0.7071 -0.7071 0.7071 0.7071 3.4414 28.6411)" class="st22" width="0.1" height="0.1"/>
		
			<rect x="35.7" y="10.7" transform="matrix(0.7071 -0.7071 0.7071 0.7071 2.8872 28.4129)" class="st22" width="0.1" height="0.1"/>
		<rect x="35.9" y="10.5" transform="matrix(0.7069 -0.7073 0.7073 0.7069 3.05 28.4861)" class="st22" width="0.1" height="0.1"/>
		<rect x="36" y="10.4" transform="matrix(0.7069 -0.7073 0.7073 0.7069 3.2086 28.5518)" class="st22" width="0.1" height="0.1"/>
		
			<rect x="36.2" y="10.2" transform="matrix(0.7071 -0.7071 0.7071 0.7071 3.3621 28.6082)" class="st22" width="0.1" height="0.1"/>
		<polygon class="st22" points="36.4,10.1 36.4,10.1 36.4,10.1 36.3,10.1 36.3,10.1 		"/>
		<polygon class="st22" points="36.8,10.1 36.7,10.1 36.7,10.1 		"/>
		
			<rect x="36.4" y="10.3" transform="matrix(0.7071 -0.7071 0.7071 0.7071 3.3757 28.7997)" class="st22" width="0.1" height="0.1"/>
		
			<rect x="36.1" y="10.6" transform="matrix(0.7069 -0.7073 0.7073 0.7069 3.0636 28.6777)" class="st22" width="0.1" height="0.1"/>
		<rect x="36.5" y="10.1" transform="matrix(0.7073 -0.7069 0.7069 0.7073 3.529 28.8561)" class="st22" width="0.1" height="0.1"/>
		<polygon class="st22" points="36,10.7 35.9,10.8 36,10.8 36.1,10.8 		"/>
		<rect x="36.2" y="10.4" transform="matrix(0.7072 -0.707 0.707 0.7072 3.2143 28.7289)" class="st22" width="0.1" height="0.1"/>
		<rect x="36" y="10.7" transform="matrix(0.7071 -0.7071 0.7071 0.7071 2.9802 28.6372)" class="st22" width="0.1" height="0.1"/>
		
			<rect x="36.2" y="10.5" transform="matrix(0.7069 -0.7073 0.7073 0.7069 3.1429 28.7105)" class="st22" width="0.1" height="0.1"/>
		
			<rect x="36.3" y="10.4" transform="matrix(0.7071 -0.7071 0.7071 0.7071 3.2964 28.7669)" class="st22" width="0.1" height="0.1"/>
		
			<rect x="36.5" y="10.2" transform="matrix(0.7069 -0.7073 0.7073 0.7069 3.4603 28.8419)" class="st22" width="0.1" height="0.1"/>
		<polygon class="st22" points="36.7,10.1 36.7,10.1 36.7,10.1 36.7,10.1 36.6,10.1 		"/>
		<polygon class="st22" points="37.1,10.1 37,10.1 37.1,10.1 		"/>
		<rect x="36.5" y="10.4" transform="matrix(0.7071 -0.7071 0.7071 0.7071 3.31 28.9584)" class="st22" width="0.1" height="0.1"/>
		
			<rect x="36.9" y="10.1" transform="matrix(0.7071 -0.7071 0.7071 0.7071 3.6272 29.0898)" class="st22" width="0.1" height="0.1"/>
		
			<rect x="36.7" y="10.3" transform="matrix(0.7069 -0.7073 0.7073 0.7069 3.4739 29.0335)" class="st22" width="0.1" height="0.1"/>
		
			<rect x="36.4" y="10.6" transform="matrix(0.7071 -0.7071 0.7071 0.7071 3.1514 28.8927)" class="st22" width="0.1" height="0.1"/>
		<polygon class="st22" points="36.3,10.7 36.2,10.8 36.4,10.8 36.4,10.8 		"/>
		
			<rect x="36.3" y="10.7" transform="matrix(0.7071 -0.7071 0.7071 0.7071 3.0721 28.8598)" class="st22" width="0.1" height="0.1"/>
		
			<rect x="36.5" y="10.5" transform="matrix(0.7071 -0.7071 0.7071 0.7071 3.2307 28.9255)" class="st22" width="0.1" height="0.1"/>
		
			<rect x="36.7" y="10.4" transform="matrix(0.7069 -0.7073 0.7073 0.7069 3.3946 29.0006)" class="st22" width="0.1" height="0.1"/>
		
			<rect x="36.8" y="10.2" transform="matrix(0.7073 -0.7069 0.7069 0.7073 3.5426 29.0475)" class="st22" width="0.1" height="0.1"/>
		<polygon class="st22" points="37,10.1 37.1,10.1 37,10.1 37,10.1 37,10.1 		"/>
		<polygon class="st22" points="36.6,10.7 36.6,10.8 36.7,10.8 36.7,10.8 		"/>
		
			<rect x="36.7" y="10.6" transform="matrix(0.7069 -0.7073 0.7073 0.7069 3.2496 29.1264)" class="st22" width="0.1" height="0.1"/>
		<rect x="37" y="10.3" transform="matrix(0.7073 -0.7069 0.7069 0.7073 3.5562 29.2388)" class="st22" width="0.1" height="0.1"/>
		
			<rect x="37.2" y="10.1" transform="matrix(0.7073 -0.7069 0.7069 0.7073 3.7148 29.3046)" class="st22" width="0.1" height="0.1"/>
		
			<rect x="36.9" y="10.4" transform="matrix(0.7071 -0.7071 0.7071 0.7071 3.4029 29.1826)" class="st22" width="0.1" height="0.1"/>
		<polygon class="st22" points="37.4,10.1 37.4,10.1 37.4,10.1 		"/>
		
			<rect x="36.7" y="10.7" transform="matrix(0.7073 -0.7069 0.7069 0.7073 3.1608 29.0764)" class="st22" width="0.1" height="0.1"/>
		
			<rect x="36.8" y="10.5" transform="matrix(0.7071 -0.7071 0.7071 0.7071 3.3237 29.1498)" class="st22" width="0.1" height="0.1"/>
		<rect x="37" y="10.4" transform="matrix(0.7071 -0.7071 0.7071 0.7071 3.4822 29.2155)" class="st22" width="0.1" height="0.1"/>
		
			<rect x="37.1" y="10.2" transform="matrix(0.7071 -0.7071 0.7071 0.7071 3.6409 29.2812)" class="st22" width="0.1" height="0.1"/>
		<polygon class="st22" points="37.3,10.1 37.4,10.1 37.4,10.1 37.3,10.1 37.3,10.1 		"/>
		<polygon class="st22" points="37,10.7 36.9,10.8 37,10.8 37,10.8 		"/>
		<rect x="37" y="10.6" transform="matrix(0.7071 -0.7071 0.7071 0.7071 3.3372 29.3413)" class="st22" width="0.1" height="0.1"/>
		<rect x="37.2" y="10.4" transform="matrix(0.7071 -0.7071 0.7071 0.7071 3.4958 29.407)" class="st22" width="0.1" height="0.1"/>
		<rect x="37.3" y="10.3" transform="matrix(0.7073 -0.7069 0.7069 0.7073 3.649 29.4631)" class="st22" width="0.1" height="0.1"/>
		
			<rect x="37.5" y="10.1" transform="matrix(0.7071 -0.7071 0.7071 0.7071 3.8131 29.5384)" class="st22" width="0.1" height="0.1"/>
		<polygon class="st22" points="37.7,10.1 37.7,10.1 37.7,10.1 		"/>
		<rect x="37" y="10.7" transform="matrix(0.7071 -0.7071 0.7071 0.7071 3.2589 29.3102)" class="st22" width="0.1" height="0.1"/>
		
			<rect x="37.1" y="10.5" transform="matrix(0.7069 -0.7073 0.7073 0.7069 3.4218 29.3837)" class="st22" width="0.1" height="0.1"/>
		
			<rect x="37.3" y="10.4" transform="matrix(0.7069 -0.7073 0.7073 0.7069 3.5805 29.4494)" class="st22" width="0.1" height="0.1"/>
		<rect x="37.4" y="10.2" transform="matrix(0.7073 -0.7069 0.7069 0.7073 3.7283 29.496)" class="st22" width="0.1" height="0.1"/>
		<polygon class="st22" points="37.6,10.1 37.7,10.1 37.7,10.1 37.6,10.1 37.6,10.1 		"/>
		<polygon class="st22" points="37.3,10.7 37.2,10.8 37.3,10.8 37.3,10.8 		"/>
		<polygon class="st22" points="38,10.1 38,10.1 38,10.1 		"/>
		
			<rect x="37.5" y="10.4" transform="matrix(0.7071 -0.7071 0.7071 0.7071 3.5888 29.6313)" class="st22" width="0.1" height="0.1"/>
		<rect x="37.6" y="10.3" transform="matrix(0.7071 -0.7071 0.7071 0.7071 3.7474 29.697)" class="st22" width="0.1" height="0.1"/>
		
			<rect x="37.3" y="10.6" transform="matrix(0.7069 -0.7073 0.7073 0.7069 3.4355 29.5752)" class="st22" width="0.1" height="0.1"/>
		<rect x="37.8" y="10.1" transform="matrix(0.7071 -0.7071 0.7071 0.7071 3.906 29.7627)" class="st22" width="0.1" height="0.1"/>
		
			<rect x="37.3" y="10.7" transform="matrix(0.7073 -0.7069 0.7069 0.7073 3.3455 29.5231)" class="st22" width="0.1" height="0.1"/>
		<rect x="37.4" y="10.5" transform="matrix(0.7069 -0.7073 0.7073 0.7069 3.5148 29.608)" class="st22" width="0.1" height="0.1"/>
		
			<rect x="37.6" y="10.4" transform="matrix(0.7071 -0.7071 0.7071 0.7071 3.6681 29.6641)" class="st22" width="0.1" height="0.1"/>
		
			<rect x="37.8" y="10.2" transform="matrix(0.7069 -0.7073 0.7073 0.7069 3.8322 29.7394)" class="st22" width="0.1" height="0.1"/>
		<polygon class="st22" points="38,10.1 38,10.1 38,10.1 37.9,10.1 37.9,10.1 		"/>
		
			<rect x="37.6" y="10.6" transform="matrix(0.7069 -0.7073 0.7073 0.7069 3.5285 29.7996)" class="st22" width="0.1" height="0.1"/>
		
			<rect x="37.8" y="10.4" transform="matrix(0.7071 -0.7071 0.7071 0.7071 3.6817 29.8556)" class="st22" width="0.1" height="0.1"/>
		<rect x="38" y="10.3" transform="matrix(0.7071 -0.7071 0.7071 0.7071 3.8403 29.9213)" class="st22" width="0.1" height="0.1"/>
		<polygon class="st22" points="37.6,10.7 37.5,10.8 37.6,10.8 37.6,10.8 		"/>
		<polygon class="st22" points="38.3,10.1 38.3,10.1 38.3,10.1 		"/>
		
			<rect x="38.1" y="10.1" transform="matrix(0.7073 -0.7069 0.7069 0.7073 3.9933 29.9773)" class="st22" width="0.1" height="0.1"/>
		
			<rect x="37.6" y="10.7" transform="matrix(0.7071 -0.7071 0.7071 0.7071 3.4448 29.7589)" class="st22" width="0.1" height="0.1"/>
		
			<rect x="37.8" y="10.5" transform="matrix(0.7069 -0.7073 0.7073 0.7069 3.6078 29.8324)" class="st22" width="0.1" height="0.1"/>
		<rect x="37.9" y="10.4" transform="matrix(0.7071 -0.7071 0.7071 0.7071 3.761 29.8884)" class="st22" width="0.1" height="0.1"/>
		
			<rect x="38.1" y="10.2" transform="matrix(0.7069 -0.7073 0.7073 0.7069 3.9252 29.9638)" class="st22" width="0.1" height="0.1"/>
		<polygon class="st22" points="38.3,10.1 38.3,10.1 38.3,10.1 38.2,10.1 38.2,10.1 		"/>
		
			<rect x="38.1" y="10.4" transform="matrix(0.7071 -0.7071 0.7071 0.7071 3.7746 30.0799)" class="st22" width="0.1" height="0.1"/>
		<polygon class="st22" points="37.9,10.7 37.8,10.8 37.9,10.8 38,10.8 		"/>
		<rect x="38" y="10.6" transform="matrix(0.7071 -0.7071 0.7071 0.7071 3.6159 30.0142)" class="st22" width="0.1" height="0.1"/>
		
			<rect x="38.4" y="10.1" transform="matrix(0.7071 -0.7071 0.7071 0.7071 4.0918 30.2113)" class="st22" width="0.1" height="0.1"/>
		
			<rect x="38.3" y="10.3" transform="matrix(0.7069 -0.7073 0.7073 0.7069 3.9388 30.1554)" class="st22" width="0.1" height="0.1"/>
		<polygon class="st22" points="38.7,10.1 38.6,10.1 38.6,10.1 		"/>
		
			<rect x="37.9" y="10.7" transform="matrix(0.7071 -0.7071 0.7071 0.7071 3.5366 29.9814)" class="st22" width="0.1" height="0.1"/>
		
			<rect x="38.1" y="10.5" transform="matrix(0.7071 -0.7071 0.7071 0.7071 3.6953 30.0471)" class="st22" width="0.1" height="0.1"/>
		
			<rect x="38.2" y="10.4" transform="matrix(0.7069 -0.7073 0.7073 0.7069 3.8595 30.1225)" class="st22" width="0.1" height="0.1"/>
		
			<rect x="38.4" y="10.2" transform="matrix(0.7071 -0.7071 0.7071 0.7071 4.0125 30.1785)" class="st22" width="0.1" height="0.1"/>
		<polygon class="st22" points="38.6,10.1 38.6,10.1 38.6,10.1 38.6,10.1 38.5,10.1 		"/>
		
			<rect x="38.6" y="10.3" transform="matrix(0.7071 -0.7071 0.7071 0.7071 4.0261 30.3699)" class="st22" width="0.1" height="0.1"/>
		<polygon class="st22" points="39,10.1 39,10.1 39,10.1 		"/>
		<polygon class="st22" points="38.2,10.7 38.1,10.8 38.3,10.8 38.3,10.8 		"/>
		
			<rect x="38.8" y="10.1" transform="matrix(0.7069 -0.7073 0.7073 0.7069 4.1905 30.4454)" class="st22" width="0.1" height="0.1"/>
		
			<rect x="38.3" y="10.6" transform="matrix(0.7069 -0.7073 0.7073 0.7069 3.7144 30.2483)" class="st22" width="0.1" height="0.1"/>
		
			<rect x="38.4" y="10.4" transform="matrix(0.7071 -0.7071 0.7071 0.7071 3.8675 30.3042)" class="st22" width="0.1" height="0.1"/>
		
			<rect x="38.2" y="10.7" transform="matrix(0.7073 -0.7069 0.7069 0.7073 3.6251 30.1977)" class="st22" width="0.1" height="0.1"/>
		
			<rect x="38.4" y="10.5" transform="matrix(0.7071 -0.7071 0.7071 0.7071 3.7882 30.2713)" class="st22" width="0.1" height="0.1"/>
		<rect x="38.6" y="10.4" transform="matrix(0.7071 -0.7071 0.7071 0.7071 3.9468 30.337)" class="st22" width="0.1" height="0.1"/>
		
			<rect x="38.7" y="10.2" transform="matrix(0.7071 -0.7071 0.7071 0.7071 4.1054 30.4027)" class="st22" width="0.1" height="0.1"/>
		<polygon class="st22" points="38.9,10.1 39,10.1 39,10.1 38.9,10.1 38.9,10.1 		"/>
		<polygon class="st22" points="38.5,10.7 38.5,10.8 38.6,10.8 38.6,10.8 		"/>
		<rect x="38.9" y="10.3" transform="matrix(0.7071 -0.7071 0.7071 0.7071 4.119 30.5942)" class="st22" width="0.1" height="0.1"/>
		
			<rect x="38.8" y="10.4" transform="matrix(0.7071 -0.7071 0.7071 0.7071 3.9604 30.5285)" class="st22" width="0.1" height="0.1"/>
		<polygon class="st22" points="39.3,10.1 39.3,10.1 39.3,10.1 		"/>
		
			<rect x="39.1" y="10.1" transform="matrix(0.7071 -0.7071 0.7071 0.7071 4.2776 30.6599)" class="st22" width="0.1" height="0.1"/>
		
			<rect x="38.6" y="10.6" transform="matrix(0.7071 -0.7071 0.7071 0.7071 3.8018 30.4628)" class="st22" width="0.1" height="0.1"/>
		
			<rect x="38.6" y="10.7" transform="matrix(0.7071 -0.7071 0.7071 0.7071 3.7236 30.4319)" class="st22" width="0.1" height="0.1"/>
		
			<rect x="38.7" y="10.5" transform="matrix(0.7071 -0.7071 0.7071 0.7071 3.8811 30.4957)" class="st22" width="0.1" height="0.1"/>
		
			<rect x="38.9" y="10.4" transform="matrix(0.7069 -0.7073 0.7073 0.7069 4.0454 30.5712)" class="st22" width="0.1" height="0.1"/>
		<rect x="39" y="10.2" transform="matrix(0.7069 -0.7073 0.7073 0.7069 4.2041 30.637)" class="st22" width="0.1" height="0.1"/>
		<polygon class="st22" points="39.2,10.1 39.3,10.1 39.3,10.1 39.2,10.1 39.2,10.1 		"/>
		<rect x="38.9" y="10.6" transform="matrix(0.7073 -0.7069 0.7069 0.7073 3.889 30.6772)" class="st22" width="0.1" height="0.1"/>
		<polygon class="st22" points="39.6,10.1 39.6,10.1 39.6,10.1 		"/>
		
			<rect x="39.2" y="10.3" transform="matrix(0.7069 -0.7073 0.7073 0.7069 4.2177 30.8285)" class="st22" width="0.1" height="0.1"/>
		<polygon class="st22" points="38.9,10.7 38.8,10.8 38.9,10.8 38.9,10.8 		"/>
		
			<rect x="39.4" y="10.1" transform="matrix(0.7073 -0.7069 0.7069 0.7073 4.3647 30.8743)" class="st22" width="0.1" height="0.1"/>
		
			<rect x="39.1" y="10.4" transform="matrix(0.7071 -0.7071 0.7071 0.7071 4.0533 30.7529)" class="st22" width="0.1" height="0.1"/>
		<rect x="38.9" y="10.7" transform="matrix(0.7069 -0.7073 0.7073 0.7069 3.821 30.6642)" class="st22" width="0.1" height="0.1"/>
		<rect x="39" y="10.5" transform="matrix(0.7071 -0.7071 0.7071 0.7071 3.974 30.72)" class="st22" width="0.1" height="0.1"/>
		
			<rect x="39.2" y="10.4" transform="matrix(0.7071 -0.7071 0.7071 0.7071 4.1326 30.7857)" class="st22" width="0.1" height="0.1"/>
		
			<rect x="39.3" y="10.2" transform="matrix(0.7071 -0.7071 0.7071 0.7071 4.2912 30.8514)" class="st22" width="0.1" height="0.1"/>
		<polygon class="st22" points="39.5,10.1 39.6,10.1 39.6,10.1 39.5,10.1 39.5,10.1 		"/>
		<polygon class="st22" points="39.2,10.7 39.1,10.8 39.2,10.8 39.2,10.8 		"/>
		<polygon class="st22" points="39.9,10.1 39.9,10.1 39.9,10.1 		"/>
		
			<rect x="39.2" y="10.6" transform="matrix(0.7071 -0.7071 0.7071 0.7071 3.9876 30.9114)" class="st22" width="0.1" height="0.1"/>
		<rect x="39.4" y="10.4" transform="matrix(0.707 -0.7072 0.7072 0.707 4.1494 30.9826)" class="st22" width="0.1" height="0.1"/>
		
			<rect x="39.6" y="10.3" transform="matrix(0.7071 -0.7071 0.7071 0.7071 4.3049 31.0428)" class="st22" width="0.1" height="0.1"/>
		
			<rect x="39.7" y="10.1" transform="matrix(0.7071 -0.7071 0.7071 0.7071 4.4635 31.1085)" class="st22" width="0.1" height="0.1"/>
		
			<rect x="39.2" y="10.7" transform="matrix(0.7071 -0.7071 0.7071 0.7071 3.9094 30.8805)" class="st22" width="0.1" height="0.1"/>
		<rect x="39.3" y="10.5" transform="matrix(0.7071 -0.7071 0.7071 0.7071 4.067 30.9443)" class="st22" width="0.1" height="0.1"/>
		<rect x="39.5" y="10.4" transform="matrix(0.7071 -0.7071 0.7071 0.7071 4.2255 31.01)" class="st22" width="0.1" height="0.1"/>
		
			<rect x="39.7" y="10.2" transform="matrix(0.7069 -0.7073 0.7073 0.7069 4.3901 31.0857)" class="st22" width="0.1" height="0.1"/>
		<polygon class="st22" points="39.9,10.1 39.9,10.1 39.9,10.1 39.8,10.1 39.8,10.1 		"/>
		<rect x="40" y="10.1" transform="matrix(0.7071 -0.7071 0.7071 0.7071 4.5564 31.3329)" class="st22" width="0.1" height="0.1"/>
		<polygon class="st22" points="39.5,10.7 39.4,10.8 39.5,10.8 39.5,10.8 		"/>
		<polygon class="st22" points="40.3,10.1 40.2,10.1 40.2,10.1 		"/>
		
			<rect x="39.9" y="10.3" transform="matrix(0.7073 -0.7069 0.7069 0.7073 4.3918 31.2571)" class="st22" width="0.1" height="0.1"/>
		
			<rect x="39.7" y="10.4" transform="matrix(0.7071 -0.7071 0.7071 0.7071 4.2391 31.2015)" class="st22" width="0.1" height="0.1"/>
		
			<rect x="39.6" y="10.6" transform="matrix(0.7069 -0.7073 0.7073 0.7069 4.0863 31.1458)" class="st22" width="0.1" height="0.1"/>
		
			<rect x="39.5" y="10.7" transform="matrix(0.7073 -0.7069 0.7069 0.7073 3.9966 31.0948)" class="st22" width="0.1" height="0.1"/>
		
			<rect x="39.7" y="10.5" transform="matrix(0.7071 -0.7071 0.7071 0.7071 4.1598 31.1686)" class="st22" width="0.1" height="0.1"/>
		
			<rect x="39.8" y="10.4" transform="matrix(0.7071 -0.7071 0.7071 0.7071 4.3185 31.2343)" class="st22" width="0.1" height="0.1"/>
		<rect x="40" y="10.2" transform="matrix(0.7073 -0.7069 0.7069 0.7073 4.4711 31.29)" class="st22" width="0.1" height="0.1"/>
		<polygon class="st22" points="40.2,10.1 40.2,10.1 40.2,10.1 40.1,10.1 40.1,10.1 		"/>
		
			<rect x="40.3" y="10.1" transform="matrix(0.7069 -0.7073 0.7073 0.7069 4.6554 31.5673)" class="st22" width="0.1" height="0.1"/>
		
			<rect x="40.2" y="10.3" transform="matrix(0.7071 -0.7071 0.7071 0.7071 4.4907 31.4915)" class="st22" width="0.1" height="0.1"/>
		
			<rect x="39.9" y="10.6" transform="matrix(0.7071 -0.7071 0.7071 0.7071 4.1734 31.3601)" class="st22" width="0.1" height="0.1"/>
		<polygon class="st22" points="39.8,10.7 39.7,10.8 39.8,10.8 39.9,10.8 		"/>
		<polygon class="st22" points="40.6,10.1 40.5,10.1 40.6,10.1 		"/>
		<rect x="40" y="10.4" transform="matrix(0.7071 -0.7071 0.7071 0.7071 4.3321 31.4258)" class="st22" width="0.1" height="0.1"/>
		
			<rect x="39.8" y="10.7" transform="matrix(0.7071 -0.7071 0.7071 0.7071 4.0941 31.3272)" class="st22" width="0.1" height="0.1"/>
		<rect x="40" y="10.5" transform="matrix(0.7069 -0.7073 0.7073 0.7069 4.2587 31.4031)" class="st22" width="0.1" height="0.1"/>
		
			<rect x="40.1" y="10.4" transform="matrix(0.7069 -0.7073 0.7073 0.7069 4.4173 31.4688)" class="st22" width="0.1" height="0.1"/>
		<rect x="40.3" y="10.2" transform="matrix(0.7071 -0.7071 0.7071 0.7071 4.57 31.5243)" class="st22" width="0.1" height="0.1"/>
		<polygon class="st22" points="40.5,10.1 40.6,10.1 40.5,10.1 40.5,10.1 40.4,10.1 		"/>
		<polygon class="st22" points="40.1,10.7 40,10.8 40.2,10.8 40.2,10.8 		"/>
		
			<rect x="40.2" y="10.6" transform="matrix(0.7073 -0.7069 0.7069 0.7073 4.2604 31.5742)" class="st22" width="0.1" height="0.1"/>
		
			<rect x="40.7" y="10.1" transform="matrix(0.7071 -0.7071 0.7071 0.7071 4.7433 31.7835)" class="st22" width="0.1" height="0.1"/>
		<rect x="40.3" y="10.4" transform="matrix(0.7071 -0.7071 0.7071 0.7071 4.425 31.6501)" class="st22" width="0.1" height="0.1"/>
		
			<rect x="40.5" y="10.3" transform="matrix(0.7071 -0.7071 0.7071 0.7071 4.5836 31.7158)" class="st22" width="0.1" height="0.1"/>
		
			<rect x="40.1" y="10.7" transform="matrix(0.7071 -0.7071 0.7071 0.7071 4.1871 31.5516)" class="st22" width="0.1" height="0.1"/>
		
			<rect x="40.3" y="10.5" transform="matrix(0.7069 -0.7073 0.7073 0.7069 4.3516 31.6274)" class="st22" width="0.1" height="0.1"/>
		<rect x="40.5" y="10.4" transform="matrix(0.7071 -0.7071 0.7071 0.7071 4.5043 31.683)" class="st22" width="0.1" height="0.1"/>
		
			<rect x="40.6" y="10.2" transform="matrix(0.7071 -0.7071 0.7071 0.7071 4.6629 31.7487)" class="st22" width="0.1" height="0.1"/>
		<path class="st22" d="M40.8,10.1L40.8,10.1C40.8,10.1,40.8,10.1,40.8,10.1L40.8,10.1L40.8,10.1z"/>
		<path class="st22" d="M41,10.2L41,10.2C41,10.2,41,10.2,41,10.2L41,10.2L41,10.2z"/>
		
			<rect x="40.8" y="10.3" transform="matrix(0.7071 -0.7071 0.7071 0.7071 4.6765 31.9401)" class="st22" width="0.1" height="0.1"/>
		
			<rect x="40.7" y="10.4" transform="matrix(0.7071 -0.7071 0.7071 0.7071 4.5179 31.8744)" class="st22" width="0.1" height="0.1"/>
		
			<rect x="40.5" y="10.6" transform="matrix(0.7071 -0.7071 0.7071 0.7071 4.3593 31.8087)" class="st22" width="0.1" height="0.1"/>
		<polygon class="st22" points="40.4,10.7 40.4,10.8 40.5,10.8 40.5,10.8 		"/>
		<rect x="40.5" y="10.7" transform="matrix(0.7071 -0.7071 0.7071 0.7071 4.28 31.7758)" class="st22" width="0.1" height="0.1"/>
		
			<rect x="40.6" y="10.5" transform="matrix(0.7073 -0.7069 0.7069 0.7073 4.4326 31.8313)" class="st22" width="0.1" height="0.1"/>
		
			<rect x="40.8" y="10.4" transform="matrix(0.7071 -0.7071 0.7071 0.7071 4.5972 31.9072)" class="st22" width="0.1" height="0.1"/>
		
			<rect x="40.9" y="10.2" transform="matrix(0.7071 -0.7071 0.7071 0.7071 4.7558 31.9729)" class="st22" width="0.1" height="0.1"/>
		<polygon class="st22" points="41,10.5 41,10.6 41.1,10.5 41.1,10.5 41.1,10.4 		"/>
		
			<rect x="40.8" y="10.6" transform="matrix(0.7071 -0.7071 0.7071 0.7071 4.4511 32.0311)" class="st22" width="0.1" height="0.1"/>
		<path class="st22" d="M40.8,10.7L40.8,10.7L40.8,10.7C40.8,10.8,40.8,10.8,40.8,10.7L40.8,10.7L40.8,10.7z"/>
		
			<rect x="40.8" y="10.7" transform="matrix(0.7073 -0.7069 0.7069 0.7073 4.3669 31.9899)" class="st22" width="0.1" height="0.1"/>
		
			<rect x="40.9" y="10.5" transform="matrix(0.7073 -0.7069 0.7069 0.7073 4.5254 32.0555)" class="st22" width="0.1" height="0.1"/>
		<path class="st22" d="M41.1,10.5C41.1,10.4,41.1,10.4,41.1,10.5C41.1,10.4,41.1,10.4,41.1,10.5L41.1,10.5L41.1,10.5z"/>
	</g>
	<g>
		<g>
			<path class="st20" d="M44.2,10c0,0.1,0.1,0.2,0.1,0.3c0,0.5-0.4,0.8-0.8,0.8c0,0,0,0-0.1,0c0.1,0,0.1,0,0.2,0
				c0.4,0,0.8-0.3,0.8-0.8C44.4,10.3,44.3,10.2,44.2,10z"/>
		</g>
		<radialGradient id="SVGID_19_" cx="43.5633" cy="10.4085" r="0.4924" gradientUnits="userSpaceOnUse">
			<stop  offset="0.6004" style="stop-color:#000000"/>
			<stop  offset="0.6551" style="stop-color:#010305;stop-opacity:0.8768"/>
			<stop  offset="0.7218" style="stop-color:#060A14;stop-opacity:0.7266"/>
			<stop  offset="0.7947" style="stop-color:#0D162D;stop-opacity:0.5625"/>
			<stop  offset="0.872" style="stop-color:#16274F;stop-opacity:0.3883"/>
			<stop  offset="0.952" style="stop-color:#233D7B;stop-opacity:0.2081"/>
			<stop  offset="1" style="stop-color:#2B4C99;stop-opacity:0.1"/>
		</radialGradient>
		<path class="st23" d="M44.1,10.4c0,0.3-0.2,0.5-0.5,0.5s-0.5-0.2-0.5-0.5c0-0.3,0.2-0.5,0.5-0.5S44.1,10.1,44.1,10.4z"/>
		<g>
			<linearGradient id="SVGID_20_" gradientUnits="userSpaceOnUse" x1="43.5254" y1="10.1619" x2="43.9648" y2="10.6914">
				<stop  offset="0" style="stop-color:#5977B8"/>
				<stop  offset="7.786375e-02" style="stop-color:#465D91;stop-opacity:0.9204"/>
				<stop  offset="0.1782" style="stop-color:#314165;stop-opacity:0.8178"/>
				<stop  offset="0.2799" style="stop-color:#1F2A40;stop-opacity:0.7139"/>
				<stop  offset="0.3814" style="stop-color:#111724;stop-opacity:0.6102"/>
				<stop  offset="0.4827" style="stop-color:#080A10;stop-opacity:0.5066"/>
				<stop  offset="0.5839" style="stop-color:#020304;stop-opacity:0.4032"/>
				<stop  offset="0.6848" style="stop-color:#000000;stop-opacity:0.3"/>
			</linearGradient>
			<path class="st24" d="M43.8,10.1c-0.3,0-0.4,0.3-0.1,0.6C43.9,10.7,44,10.4,43.8,10.1z"/>
			<linearGradient id="SVGID_21_" gradientUnits="userSpaceOnUse" x1="43.212" y1="10.1777" x2="43.6447" y2="10.699">
				<stop  offset="0" style="stop-color:#5977B8"/>
				<stop  offset="6.355818e-02" style="stop-color:#465D91;stop-opacity:0.9204"/>
				<stop  offset="0.1455" style="stop-color:#314165;stop-opacity:0.8178"/>
				<stop  offset="0.2285" style="stop-color:#1F2A40;stop-opacity:0.7139"/>
				<stop  offset="0.3113" style="stop-color:#111724;stop-opacity:0.6102"/>
				<stop  offset="0.3941" style="stop-color:#080A10;stop-opacity:0.5066"/>
				<stop  offset="0.4766" style="stop-color:#020304;stop-opacity:0.4032"/>
				<stop  offset="0.559" style="stop-color:#000000;stop-opacity:0.3"/>
			</linearGradient>
			<path class="st25" d="M43.4,10c-0.3,0.1-0.4,0.5-0.1,0.7C43.3,10.5,43.6,10.2,43.4,10z"/>
		</g>
	</g>
	<linearGradient id="SVGID_22_" gradientUnits="userSpaceOnUse" x1="64.348" y1="61.7402" x2="65.239" y2="61.7402">
		<stop  offset="0" style="stop-color:#808080"/>
		<stop  offset="8.178127e-02" style="stop-color:#8C8C8C;stop-opacity:0.9836"/>
		<stop  offset="0.3108" style="stop-color:#A8A7A7;stop-opacity:0.9378"/>
		<stop  offset="0.5409" style="stop-color:#BCBABA;stop-opacity:0.8918"/>
		<stop  offset="0.7707" style="stop-color:#C8C6C6;stop-opacity:0.8459"/>
		<stop  offset="1" style="stop-color:#CCCACA;stop-opacity:0.8"/>
	</linearGradient>
	<path class="st26" d="M64.3,106.7h0.9v-0.7h-0.9V106.7z M64.3,16.8v0.7h0.9v-0.7H64.3z"/>
	
		<linearGradient id="SVGID_23_" gradientUnits="userSpaceOnUse" x1="-74.0755" y1="61.7402" x2="-73.1846" y2="61.7402" gradientTransform="matrix(-1 0 0 1 -63.1039 0)">
		<stop  offset="0" style="stop-color:#808080"/>
		<stop  offset="8.178127e-02" style="stop-color:#8C8C8C;stop-opacity:0.9918"/>
		<stop  offset="0.3108" style="stop-color:#A8A7A7;stop-opacity:0.9689"/>
		<stop  offset="0.5409" style="stop-color:#BCBABA;stop-opacity:0.9459"/>
		<stop  offset="0.7707" style="stop-color:#C8C6C6;stop-opacity:0.9229"/>
		<stop  offset="1" style="stop-color:#CCCACA;stop-opacity:0.9"/>
	</linearGradient>
	<path class="st27" d="M11,106.1h-0.9v0.7H11V106.1z M10.1,16.8v0.7H11v-0.7H10.1z"/>
	<g>
		<linearGradient id="SVGID_24_" gradientUnits="userSpaceOnUse" x1="65.4353" y1="38.1432" x2="65.5905" y2="38.1432">
			<stop  offset="0" style="stop-color:#4B4A4A"/>
			<stop  offset="0.1686" style="stop-color:#4F4E4E"/>
			<stop  offset="0.3297" style="stop-color:#5A5959"/>
			<stop  offset="0.4877" style="stop-color:#6E6D6D"/>
			<stop  offset="0.644" style="stop-color:#898888"/>
			<stop  offset="0.799" style="stop-color:#ACABAB"/>
			<stop  offset="0.9509" style="stop-color:#D6D5D5"/>
			<stop  offset="1" style="stop-color:#E5E4E4"/>
		</linearGradient>
		<path class="st28" d="M65.5,31.8c-0.1,0.1-0.1,0.5-0.1,1.1s0,10.8,0,11s0,0.5,0.1,0.5c0,0,0.1-0.2,0.1-0.3s0-11.7,0-11.9
			C65.6,32.1,65.6,31.9,65.5,31.8z"/>
		<linearGradient id="SVGID_25_" gradientUnits="userSpaceOnUse" x1="65.3088" y1="31.5963" x2="65.3088" y2="44.6119">
			<stop  offset="1.600000e-02" style="stop-color:#000000"/>
			<stop  offset="2.492092e-02" style="stop-color:#1A1A1A"/>
			<stop  offset="4.857355e-02" style="stop-color:#5A5A5A"/>
			<stop  offset="7.118123e-02" style="stop-color:#8F8F8F"/>
			<stop  offset="9.211725e-02" style="stop-color:#B8B8B8"/>
			<stop  offset="0.111" style="stop-color:#D6D6D6"/>
			<stop  offset="0.1272" style="stop-color:#E8E8E8"/>
			<stop  offset="0.1389" style="stop-color:#EEEEEE"/>
			<stop  offset="0.8655" style="stop-color:#EEEEEE"/>
			<stop  offset="0.8779" style="stop-color:#E9E9E9"/>
			<stop  offset="0.8927" style="stop-color:#DBDBDB"/>
			<stop  offset="0.9086" style="stop-color:#C3C3C3"/>
			<stop  offset="0.9253" style="stop-color:#A1A1A1"/>
			<stop  offset="0.9427" style="stop-color:#767676"/>
			<stop  offset="0.9606" style="stop-color:#424242"/>
			<stop  offset="0.9787" style="stop-color:#050505"/>
			<stop  offset="0.98" style="stop-color:#000000"/>
		</linearGradient>
		<path class="st29" d="M65.4,44c0-0.2,0-10.4,0-11s0-1,0.1-1.1l-0.3-0.2c-0.2,0.2-0.2,0.8-0.2,1c0,0.2,0,10.6,0,11.1
			c0,0.5,0,0.8,0.1,0.9l0.3-0.1C65.4,44.4,65.4,44.2,65.4,44z"/>
	</g>
	<g>
		
			<linearGradient id="SVGID_26_" gradientUnits="userSpaceOnUse" x1="-86.3028" y1="33.0632" x2="-86.1476" y2="33.0632" gradientTransform="matrix(-1 0 0 1 -76.4188 0)">
			<stop  offset="0" style="stop-color:#4B4A4A"/>
			<stop  offset="0.1686" style="stop-color:#4F4E4E"/>
			<stop  offset="0.3297" style="stop-color:#5A5959"/>
			<stop  offset="0.4877" style="stop-color:#6E6D6D"/>
			<stop  offset="0.644" style="stop-color:#898888"/>
			<stop  offset="0.799" style="stop-color:#ACABAB"/>
			<stop  offset="0.9509" style="stop-color:#D6D5D5"/>
			<stop  offset="1" style="stop-color:#E5E4E4"/>
		</linearGradient>
		<path class="st30" d="M9.8,29.1c0.1,0.1,0.1,0.5,0.1,1.1c0,0.6,0,6.1,0,6.3s0,0.5-0.1,0.5c0,0-0.1-0.2-0.1-0.3c0-0.1,0-7,0-7.2
			C9.7,29.4,9.7,29.1,9.8,29.1z"/>
		
			<linearGradient id="SVGID_27_" gradientUnits="userSpaceOnUse" x1="-86.4293" y1="28.8865" x2="-86.4293" y2="37.1649" gradientTransform="matrix(-1 0 0 1 -76.4188 0)">
			<stop  offset="0" style="stop-color:#111211"/>
			<stop  offset="2.964777e-03" style="stop-color:#1A1B1A"/>
			<stop  offset="2.530000e-02" style="stop-color:#5A5A5A"/>
			<stop  offset="4.663299e-02" style="stop-color:#8F8F8F"/>
			<stop  offset="6.639103e-02" style="stop-color:#B8B8B8"/>
			<stop  offset="8.424107e-02" style="stop-color:#D6D6D6"/>
			<stop  offset="9.955138e-02" style="stop-color:#E8E8E8"/>
			<stop  offset="0.1106" style="stop-color:#EEEEEE"/>
			<stop  offset="0.9109" style="stop-color:#EEEEEE"/>
			<stop  offset="0.9214" style="stop-color:#E9E9E9"/>
			<stop  offset="0.934" style="stop-color:#DBDBDB"/>
			<stop  offset="0.9475" style="stop-color:#C3C3C3"/>
			<stop  offset="0.9617" style="stop-color:#A1A1A2"/>
			<stop  offset="0.9765" style="stop-color:#767678"/>
			<stop  offset="0.9915" style="stop-color:#434344"/>
			<stop  offset="1" style="stop-color:#222224"/>
		</linearGradient>
		<path class="st31" d="M9.9,36.5c0-0.2,0-5.7,0-6.3c0-0.6,0-1-0.1-1.1l0.3-0.2c0.2,0.2,0.2,0.8,0.2,1s0,5.9,0,6.4
			c0,0.5,0,0.8-0.1,0.9L9.8,37C9.9,37,9.9,36.7,9.9,36.5z"/>
	</g>
	<g>
		
			<linearGradient id="SVGID_28_" gradientUnits="userSpaceOnUse" x1="-86.3028" y1="43.2458" x2="-86.1476" y2="43.2458" gradientTransform="matrix(-1 0 0 1 -76.4188 0)">
			<stop  offset="0" style="stop-color:#4B4A4A"/>
			<stop  offset="0.1686" style="stop-color:#4F4E4E"/>
			<stop  offset="0.3297" style="stop-color:#5A5959"/>
			<stop  offset="0.4877" style="stop-color:#6E6D6D"/>
			<stop  offset="0.644" style="stop-color:#898888"/>
			<stop  offset="0.799" style="stop-color:#ACABAB"/>
			<stop  offset="0.9509" style="stop-color:#D6D5D5"/>
			<stop  offset="1" style="stop-color:#E5E4E4"/>
		</linearGradient>
		<path class="st32" d="M9.8,39.3c0.1,0.1,0.1,0.5,0.1,1.1s0,6.1,0,6.3s0,0.5-0.1,0.5c0,0-0.1-0.2-0.1-0.3c0-0.1,0-7,0-7.2
			C9.7,39.6,9.7,39.3,9.8,39.3z"/>
		
			<linearGradient id="SVGID_29_" gradientUnits="userSpaceOnUse" x1="-86.4293" y1="39.0691" x2="-86.4293" y2="47.3475" gradientTransform="matrix(-1 0 0 1 -76.4188 0)">
			<stop  offset="0" style="stop-color:#111211"/>
			<stop  offset="2.964777e-03" style="stop-color:#1A1B1A"/>
			<stop  offset="2.530000e-02" style="stop-color:#5A5A5A"/>
			<stop  offset="4.663299e-02" style="stop-color:#8F8F8F"/>
			<stop  offset="6.639103e-02" style="stop-color:#B8B8B8"/>
			<stop  offset="8.424107e-02" style="stop-color:#D6D6D6"/>
			<stop  offset="9.955138e-02" style="stop-color:#E8E8E8"/>
			<stop  offset="0.1106" style="stop-color:#EEEEEE"/>
			<stop  offset="0.9109" style="stop-color:#EEEEEE"/>
			<stop  offset="0.9214" style="stop-color:#E9E9E9"/>
			<stop  offset="0.934" style="stop-color:#DBDBDB"/>
			<stop  offset="0.9475" style="stop-color:#C3C3C3"/>
			<stop  offset="0.9617" style="stop-color:#A1A1A2"/>
			<stop  offset="0.9765" style="stop-color:#767678"/>
			<stop  offset="0.9915" style="stop-color:#434344"/>
			<stop  offset="1" style="stop-color:#222224"/>
		</linearGradient>
		<path class="st33" d="M9.9,46.7c0-0.2,0-5.7,0-6.3s0-1-0.1-1.1l0.3-0.2c0.2,0.2,0.2,0.8,0.2,1c0,0.2,0,5.9,0,6.4
			c0,0.5,0,0.8-0.1,0.9l-0.3-0.1C9.9,47.2,9.9,46.9,9.9,46.7z"/>
	</g>
	<g>
		<polygon class="st34" points="9.7,21.2 9.7,25.2 9.8,25.3 9.8,21.1 		"/>
		<linearGradient id="SVGID_30_" gradientUnits="userSpaceOnUse" x1="9.9851" y1="21.069" x2="9.9851" y2="25.2684">
			<stop  offset="0" style="stop-color:#111211"/>
			<stop  offset="2.964777e-03" style="stop-color:#1A1B1A"/>
			<stop  offset="2.530000e-02" style="stop-color:#5A5A5A"/>
			<stop  offset="4.663299e-02" style="stop-color:#8F8F8F"/>
			<stop  offset="6.639103e-02" style="stop-color:#B8B8B8"/>
			<stop  offset="8.424107e-02" style="stop-color:#D6D6D6"/>
			<stop  offset="9.955138e-02" style="stop-color:#E8E8E8"/>
			<stop  offset="0.1106" style="stop-color:#EEEEEE"/>
			<stop  offset="0.9109" style="stop-color:#EEEEEE"/>
			<stop  offset="0.9214" style="stop-color:#E9E9E9"/>
			<stop  offset="0.934" style="stop-color:#DBDBDB"/>
			<stop  offset="0.9475" style="stop-color:#C3C3C3"/>
			<stop  offset="0.9617" style="stop-color:#A1A1A2"/>
			<stop  offset="0.9765" style="stop-color:#767678"/>
			<stop  offset="0.9915" style="stop-color:#434344"/>
			<stop  offset="1" style="stop-color:#222224"/>
		</linearGradient>
		<path class="st35" d="M10.1,21.1H9.8v4.2l0,0h0.3c0,0,0.1-0.1,0.1-0.2c0-0.1,0-3.6,0-3.7C10.2,21.2,10.2,21.1,10.1,21.1z"/>
	</g>
	<path d="M39.4,117.2h-1.9c0,0-0.1,0-0.3,0h-1.9c-0.3,0-0.6,0-1.2,0.3h6.6C40,117.2,39.7,117.2,39.4,117.2z"/>
	<linearGradient id="SVGID_31_" gradientUnits="userSpaceOnUse" x1="37.3179" y1="117.275" x2="37.3179" y2="117.54">
		<stop  offset="0" style="stop-color:#616369"/>
		<stop  offset="0.1105" style="stop-color:#515358"/>
		<stop  offset="0.3349" style="stop-color:#37383C"/>
		<stop  offset="0.5593" style="stop-color:#242527"/>
		<stop  offset="0.7817" style="stop-color:#191A1B"/>
		<stop  offset="1" style="stop-color:#151617"/>
	</linearGradient>
	<path class="st36" d="M39.3,117.3h-1.8c0,0-0.1,0-0.3,0h-1.8c-0.3,0-0.6,0-1.1,0.3h6.2C39.9,117.3,39.5,117.3,39.3,117.3z"/>
</g>
<g>
	
		<image style="overflow:visible;opacity:0.15;" width="57" height="81" xlink:href="8CE700F2D5E51BAB.png"  transform="matrix(1 0 0 1 66.4961 46.4961)">
	</image>
	<g>
		<path class="st37" d="M102.5,117.5H88.1c-6.8,0-12.4-5.6-12.4-12.4V66.8c0-6.8,5.6-12.4,12.4-12.4h14.3c6.8,0,12.4,5.6,12.4,12.4
			v38.3C114.9,111.9,109.3,117.5,102.5,117.5z"/>
	</g>
</g>
<g>
	<path class="st38" d="M86.2,92.2h2.7c0.7,0,1.4,0.1,1.9,0.4c0.5,0.3,0.9,0.7,1.2,1.3c0.3,0.6,0.4,1.2,0.4,2v0c0,0.8-0.1,1.5-0.4,2
		c-0.3,0.6-0.7,1-1.2,1.3c-0.5,0.3-1.2,0.4-1.9,0.4h-2.7V92.2z M88.8,98.5c0.5,0,0.9-0.1,1.3-0.3c0.3-0.2,0.6-0.5,0.8-0.9
		c0.2-0.4,0.3-0.9,0.3-1.4v0c0-0.6-0.1-1-0.3-1.4c-0.2-0.4-0.4-0.7-0.8-0.9c-0.3-0.2-0.8-0.3-1.3-0.3h-1.3v5.2H88.8z"/>
	<path class="st38" d="M94.8,99.4c-0.4-0.2-0.7-0.6-0.9-1c-0.2-0.4-0.3-0.9-0.3-1.5v0c0-0.6,0.1-1.1,0.3-1.5c0.2-0.4,0.5-0.8,0.9-1
		c0.4-0.2,0.8-0.4,1.4-0.4c0.5,0,1,0.1,1.4,0.3c0.4,0.2,0.7,0.6,0.9,1c0.2,0.4,0.3,0.9,0.3,1.4v0.4h-4.5v-0.9H98l-0.6,0.8v-0.5
		c0-0.4-0.1-0.7-0.2-0.9c-0.1-0.2-0.3-0.4-0.5-0.5c-0.2-0.1-0.4-0.2-0.7-0.2c-0.3,0-0.5,0.1-0.7,0.2c-0.2,0.1-0.4,0.3-0.5,0.5
		c-0.1,0.2-0.2,0.5-0.2,0.9v0.5c0,0.3,0.1,0.6,0.2,0.9c0.1,0.2,0.3,0.4,0.5,0.5c0.2,0.1,0.5,0.2,0.7,0.2c0.2,0,0.4,0,0.6-0.1
		c0.2-0.1,0.3-0.2,0.4-0.3c0.1-0.1,0.2-0.2,0.2-0.3l0,0h1.2l0,0.1c0,0.2-0.1,0.4-0.2,0.6c-0.1,0.2-0.3,0.4-0.5,0.5
		c-0.2,0.2-0.4,0.3-0.7,0.4c-0.3,0.1-0.6,0.1-1,0.1C95.6,99.8,95.2,99.7,94.8,99.4z M95.6,93.6l0.9-1.7h1.2l-1.2,1.7H95.6z"/>
	<path class="st38" d="M100.9,99.4c-0.4-0.2-0.7-0.6-0.9-1c-0.2-0.4-0.3-0.9-0.3-1.5v0c0-0.6,0.1-1.1,0.3-1.5c0.2-0.4,0.5-0.8,0.9-1
		c0.4-0.2,0.9-0.3,1.4-0.3c0.5,0,0.9,0.1,1.2,0.3c0.4,0.2,0.6,0.4,0.8,0.7c0.2,0.3,0.3,0.6,0.3,1v0h-1.2l0,0
		c-0.1-0.3-0.2-0.5-0.4-0.7c-0.2-0.2-0.5-0.3-0.8-0.3c-0.3,0-0.5,0.1-0.7,0.2c-0.2,0.1-0.4,0.4-0.5,0.6c-0.1,0.3-0.2,0.6-0.2,1v0
		c0,0.4,0.1,0.7,0.2,1c0.1,0.3,0.3,0.5,0.5,0.6c0.2,0.1,0.4,0.2,0.7,0.2c0.3,0,0.6-0.1,0.8-0.3c0.2-0.2,0.3-0.4,0.4-0.7l0,0h1.2l0,0
		c0,0.4-0.2,0.7-0.4,1c-0.2,0.3-0.5,0.5-0.8,0.7c-0.3,0.2-0.8,0.3-1.2,0.3C101.7,99.8,101.3,99.7,100.9,99.4z"/>
	<path class="st38" d="M106,99.5c-0.1-0.1-0.2-0.3-0.2-0.5c0-0.2,0.1-0.4,0.2-0.5c0.1-0.1,0.3-0.2,0.5-0.2c0.2,0,0.4,0.1,0.5,0.2
		c0.1,0.1,0.2,0.3,0.2,0.5c0,0.2-0.1,0.4-0.2,0.5c-0.1,0.1-0.3,0.2-0.5,0.2C106.3,99.7,106.1,99.7,106,99.5z"/>
</g>
<g>
	<path class="st39" d="M92.9,105.5L92.9,105.5l-1.7,1.2v-1.1l1.7-1.2H94v6.6h-1.2V105.5z"/>
	<path class="st39" d="M97,110.7c-0.4-0.3-0.7-0.7-0.9-1.2c-0.2-0.5-0.3-1.1-0.3-1.8v0c0-0.7,0.1-1.3,0.3-1.8
		c0.2-0.5,0.5-0.9,0.9-1.2c0.4-0.3,0.9-0.4,1.4-0.4c0.5,0,1,0.1,1.4,0.4c0.4,0.3,0.7,0.7,0.9,1.2c0.2,0.5,0.3,1.1,0.3,1.8v0
		c0,0.7-0.1,1.3-0.3,1.8c-0.2,0.5-0.5,0.9-0.9,1.2c-0.4,0.3-0.9,0.4-1.4,0.4C97.9,111.2,97.4,111,97,110.7z M99.2,109.9
		c0.2-0.2,0.4-0.5,0.5-0.8c0.1-0.4,0.2-0.8,0.2-1.3v0c0-0.5-0.1-1-0.2-1.3c-0.1-0.4-0.3-0.6-0.5-0.8c-0.2-0.2-0.5-0.3-0.8-0.3
		c-0.3,0-0.6,0.1-0.8,0.3s-0.4,0.5-0.5,0.8c-0.1,0.4-0.2,0.8-0.2,1.3v0c0,0.5,0.1,1,0.2,1.3c0.1,0.4,0.3,0.6,0.5,0.8
		s0.5,0.3,0.8,0.3C98.7,110.2,99,110.1,99.2,109.9z"/>
</g>
<path d="M87.4,72.5h1.7c0.3,0,0.5-0.2,0.5-0.5v-1.7c0-0.3-0.2-0.5-0.5-0.5h-1.7c-0.3,0-0.5,0.2-0.5,0.5V72
	C86.9,72.3,87.1,72.5,87.4,72.5z"/>
<path d="M92.1,72.5h1.7c0.3,0,0.5-0.2,0.5-0.5v-1.7c0-0.3-0.2-0.5-0.5-0.5h-1.7c-0.3,0-0.5,0.2-0.5,0.5V72
	C91.6,72.3,91.8,72.5,92.1,72.5z"/>
<path d="M96.8,72.5h1.7c0.3,0,0.5-0.2,0.5-0.5v-1.7c0-0.3-0.2-0.5-0.5-0.5h-1.7c-0.3,0-0.5,0.2-0.5,0.5V72
	C96.3,72.3,96.5,72.5,96.8,72.5z"/>
<path d="M104.2,62.8h-1v-2.1c0-0.6-0.4-1.1-1-1.1h-1c-0.5,0-1,0.5-1,1.1v2.1h-9.8v-2.1c0-0.6-0.4-1.1-1-1.1h-1c-0.5,0-1,0.5-1,1.1
	v2.1h-1c-1.6,0-3,1.4-3,3.2v15.9c0,1.8,1.3,3.2,3,3.2h17.7c1.6,0,3-1.4,3-3.2V66C107.1,64.2,105.8,62.8,104.2,62.8z M105.7,81.8
	c0,0.6-0.9,1.6-1.4,1.6H86.1c-0.5,0-1.3-1-1.3-1.6V67.7h20.8V81.8z"/>
<path class="st40" d="M114.8,45.8H75.7c-0.1,0-0.2-0.1-0.2-0.2V45c0-0.1,0.1-0.2,0.2-0.2h39.1c0.1,0,0.2,0.1,0.2,0.2v0.6
	C115.1,45.7,115,45.8,114.8,45.8z"/>
<g>
	<path class="st38" d="M83.2,33.4L83.2,33.4l-1.9,1.3v-1.2l1.9-1.3h1.3v7.1h-1.3V33.4z"/>
	<path class="st38" d="M87.7,39c-0.4-0.3-0.7-0.7-1-1.3c-0.2-0.6-0.3-1.2-0.3-2v0c0-0.8,0.1-1.4,0.3-2c0.2-0.6,0.5-1,1-1.3
		c0.4-0.3,0.9-0.4,1.5-0.4c0.6,0,1.1,0.1,1.5,0.4c0.4,0.3,0.7,0.7,1,1.3c0.2,0.6,0.3,1.2,0.3,2v0c0,0.8-0.1,1.4-0.3,2
		c-0.2,0.6-0.5,1-1,1.3c-0.4,0.3-0.9,0.5-1.5,0.5C88.6,39.5,88.1,39.3,87.7,39z M90,38.1c0.2-0.2,0.4-0.5,0.5-0.9
		c0.1-0.4,0.2-0.9,0.2-1.4v0c0-0.6-0.1-1-0.2-1.4c-0.1-0.4-0.3-0.7-0.5-0.9c-0.2-0.2-0.5-0.3-0.8-0.3c-0.3,0-0.6,0.1-0.8,0.3
		c-0.2,0.2-0.4,0.5-0.5,0.9c-0.1,0.4-0.2,0.9-0.2,1.4v0c0,0.6,0.1,1,0.2,1.4c0.1,0.4,0.3,0.7,0.5,0.9c0.2,0.2,0.5,0.3,0.8,0.3
		C89.5,38.4,89.8,38.3,90,38.1z"/>
	<path class="st38" d="M94.5,39c-0.4-0.3-0.7-0.7-1-1.3c-0.2-0.6-0.3-1.2-0.3-2v0c0-0.8,0.1-1.4,0.3-2c0.2-0.6,0.5-1,1-1.3
		c0.4-0.3,0.9-0.4,1.5-0.4c0.6,0,1.1,0.1,1.5,0.4c0.4,0.3,0.7,0.7,1,1.3c0.2,0.6,0.3,1.2,0.3,2v0c0,0.8-0.1,1.4-0.3,2
		c-0.2,0.6-0.5,1-1,1.3c-0.4,0.3-0.9,0.5-1.5,0.5C95.4,39.5,94.9,39.3,94.5,39z M96.8,38.1c0.2-0.2,0.4-0.5,0.5-0.9
		c0.1-0.4,0.2-0.9,0.2-1.4v0c0-0.6-0.1-1-0.2-1.4c-0.1-0.4-0.3-0.7-0.5-0.9c-0.2-0.2-0.5-0.3-0.8-0.3c-0.3,0-0.6,0.1-0.8,0.3
		c-0.2,0.2-0.4,0.5-0.5,0.9c-0.1,0.4-0.2,0.9-0.2,1.4v0c0,0.6,0.1,1,0.2,1.4c0.1,0.4,0.3,0.7,0.5,0.9c0.2,0.2,0.5,0.3,0.8,0.3
		C96.3,38.4,96.6,38.3,96.8,38.1z"/>
	<path class="st38" d="M100.5,35.3c-0.3-0.3-0.4-0.8-0.4-1.3v0c0-0.6,0.1-1,0.4-1.3c0.3-0.3,0.7-0.5,1.2-0.5c0.5,0,0.9,0.2,1.2,0.5
		c0.3,0.3,0.4,0.8,0.4,1.3v0c0,0.6-0.1,1-0.4,1.3c-0.3,0.3-0.7,0.5-1.2,0.5C101.1,35.8,100.7,35.7,100.5,35.3z M102.1,34.8
		c0.1-0.2,0.2-0.5,0.2-0.8v0c0-0.4-0.1-0.6-0.2-0.8c-0.1-0.2-0.3-0.3-0.5-0.3c-0.2,0-0.4,0.1-0.5,0.3c-0.1,0.2-0.2,0.5-0.2,0.8v0
		c0,0.4,0.1,0.6,0.2,0.8c0.1,0.2,0.3,0.3,0.5,0.3C101.8,35.1,102,35,102.1,34.8z M101.2,39.3l4.5-7.1h1l-4.5,7.1H101.2z M105.2,38.9
		c-0.3-0.3-0.4-0.8-0.4-1.3v0c0-0.6,0.1-1,0.4-1.3c0.3-0.3,0.7-0.5,1.2-0.5c0.5,0,0.9,0.2,1.2,0.5c0.3,0.3,0.4,0.8,0.4,1.3v0
		c0,0.6-0.1,1-0.4,1.3c-0.3,0.3-0.7,0.5-1.2,0.5C105.8,39.4,105.5,39.2,105.2,38.9z M106.8,38.4c0.1-0.2,0.2-0.5,0.2-0.8v0
		c0-0.4-0.1-0.6-0.2-0.8c-0.1-0.2-0.3-0.3-0.5-0.3c-0.2,0-0.4,0.1-0.5,0.3c-0.1,0.2-0.2,0.5-0.2,0.8v0c0,0.4,0.1,0.6,0.2,0.8
		c0.1,0.2,0.3,0.3,0.5,0.3C106.5,38.7,106.7,38.6,106.8,38.4z"/>
</g>
<path class="st41" d="M106.1,10.8c0.9,0,1.7,0.9,1.7,2v9.1c0,1.3-0.9,2.4-2.1,2.4H82.4c-1.1,0-2.1-1.1-2.1-2.4v-8.6
	c0-1.3,0.9-2.4,2.1-2.4H106.1"/>
<path class="st42" d="M104.4,12.8L104.4,12.8L104.4,12.8l-6.9,0h-7.1h-6.8c0,0-0.1,0-0.1,0c-0.8,0-1.4,0.6-1.4,1.4v6.5
	c0,0.7,0.6,1.4,1.4,1.4v0h0.1h6.8h7.1h6.8c0,0,0.1,0,0.1,0c0.8,0,1.4-0.6,1.4-1.4v-6.5C105.7,13.5,105.1,12.9,104.4,12.8z"/>
<g>
	<path class="st42" d="M110,20.1C110.1,20.1,110.1,20.1,110,20.1c1.6,0,1.4-2.6,1.4-2.6s0.2-2.7-1.4-2.6v0H110h-0.4v0.2v4.8v0.2H110
		z"/>
</g>
<path d="M101.5,72.5h1.7c0.3,0,0.5-0.2,0.5-0.5v-1.7c0-0.3-0.2-0.5-0.5-0.5h-1.7c-0.3,0-0.5,0.2-0.5,0.5V72
	C101,72.3,101.2,72.5,101.5,72.5z"/>
<path d="M87.4,77.4h1.7c0.3,0,0.5-0.2,0.5-0.5v-1.7c0-0.3-0.2-0.5-0.5-0.5h-1.7c-0.3,0-0.5,0.2-0.5,0.5v1.7
	C86.9,77.2,87.1,77.4,87.4,77.4z"/>
<path d="M92.1,77.4h1.7c0.3,0,0.5-0.2,0.5-0.5v-1.7c0-0.3-0.2-0.5-0.5-0.5h-1.7c-0.3,0-0.5,0.2-0.5,0.5v1.7
	C91.6,77.2,91.8,77.4,92.1,77.4z"/>
<path d="M87.4,82.4h1.7c0.3,0,0.5-0.2,0.5-0.5v-1.7c0-0.3-0.2-0.5-0.5-0.5h-1.7c-0.3,0-0.5,0.2-0.5,0.5v1.7
	C86.9,82.1,87.1,82.4,87.4,82.4z"/>
<path d="M96.8,77.4h1.7c0.3,0,0.5-0.2,0.5-0.5v-1.7c0-0.3-0.2-0.5-0.5-0.5h-1.7c-0.3,0-0.5,0.2-0.5,0.5v1.7
	C96.3,77.2,96.5,77.4,96.8,77.4z"/>
</svg>
