<?xml version="1.0" encoding="utf-8"?>
<!-- Generator: Adobe Illustrator 25.0.1, SVG Export Plug-In . SVG Version: 6.00 Build 0)  -->
<svg version="1.1" id="Calque_1" xmlns="http://www.w3.org/2000/svg" xmlns:xlink="http://www.w3.org/1999/xlink" x="0px" y="0px"
	 viewBox="0 0 35 15" style="enable-background:new 0 0 35 15;" xml:space="preserve">
<style type="text/css">
	.st0{opacity:0.5;fill:none;stroke:#FFFFFF;stroke-width:0.25;stroke-miterlimit:10;enable-background:new    ;}
	.st1{opacity:0.5;}
	.st2{fill:#FFFFFF;}
</style>
<path class="st0" d="M28.4,0.2c1,0,1.8,1,1.8,2.2V12c0,1.5-1,2.7-2.3,2.7H2.6c-1.2,0-2.3-1.2-2.3-2.7V2.9c0-1.4,1-2.7,2.3-2.7H28.4"
	/>
<g class="st1">
	<path class="st2" d="M32.8,10.1L32.8,10.1c1.6,0,1.5-2.7,1.5-2.7s0.2-2.8-1.3-2.7l0,0h-0.1h-0.4V5v4.8v0.2
		C32.4,10.1,32.8,10.1,32.8,10.1z"/>
</g>
<path class="st2" d="M26.5,2.3L26.5,2.3L26.5,2.3H19h-7.6H4h0C3.1,2.3,2.4,3,2.4,3.8V11c0,0.8,0.6,1.5,1.5,1.6l0,0H4h7.4H19h7.4h0
	c0.9,0,1.6-0.7,1.6-1.6V3.8C27.9,3,27.2,2.3,26.5,2.3z"/>
</svg>
