<?xml version="1.0" encoding="utf-8"?>
<!-- Generator: Adobe Illustrator 25.0.1, SVG Export Plug-In . SVG Version: 6.00 Build 0)  -->
<svg version="1.1" id="Calque_1" xmlns="http://www.w3.org/2000/svg" xmlns:xlink="http://www.w3.org/1999/xlink" x="0px" y="0px"
	 viewBox="0 0 25 15" style="enable-background:new 0 0 25 15;" xml:space="preserve">
<style type="text/css">
	.st0{fill:#FFFFFF;}
	.st1{opacity:0.5;fill:#FFFFFF;enable-background:new    ;}
</style>
<path class="st0" d="M8.7,15L8.7,15c-1.2,0-2.1-0.9-2.1-2.1V8.6c0-1.2,0.9-2.1,2.1-2.1l0,0c1.2,0,2.1,0.9,2.1,2.1v4.3
	C10.9,14.1,9.9,15,8.7,15z"/>
<path class="st0" d="M2.2,15L2.2,15C1,15,0,14.1,0,12.9v-1.5C0,10.2,1,9.2,2.2,9.2l0,0c1.2,0,2.1,0.9,2.1,2.1v1.5
	C4.2,14.1,3.3,15,2.2,15z"/>
<path class="st0" d="M15.3,15L15.3,15c-1.2,0-2.1-0.9-2.1-2.1V5.5c0-1.2,0.9-2.1,2.1-2.1l0,0c1.2,0,2.1,0.9,2.1,2.1v7.4
	C17.5,14.1,16.5,15,15.3,15z"/>
<path class="st1" d="M21.9,15L21.9,15c-1.2,0-2.1-0.9-2.1-2.1V2.1c0-1.2,0.9-2.1,2.1-2.1l0,0c1.2,0,2.1,0.9,2.1,2.1v10.7
	C24.1,14.1,23.2,15,21.9,15z"/>
</svg>
