<?xml version="1.0" encoding="utf-8"?>
<!-- Generator: Adobe Illustrator 25.0.1, SVG Export Plug-In . SVG Version: 6.00 Build 0)  -->
<svg version="1.1" id="Calque_1" xmlns="http://www.w3.org/2000/svg" xmlns:xlink="http://www.w3.org/1999/xlink" x="0px" y="0px"
	 viewBox="0 0 100 100" style="enable-background:new 0 0 100 100;" xml:space="preserve">
<style type="text/css">
	.st0{fill:#FFFFFF;}
</style>
<g>
	<path class="st0" d="M80.7,98H19.8c-1.3,0-2.4-1.1-2.4-2.4V44.8c0-1.3,1.1-2.4,2.4-2.4h60.8c1.3,0,2.4,1.1,2.4,2.4v50.8
		C83.1,96.9,82,98,80.7,98z"/>
	<path class="st0" d="M33.9,42.4c0,0-5.3-30,16.4-30.2s16.2,30.2,16.2,30.2l9.6,0.4c0,0,5.3-41-25.8-40.8c0,0-30.7-0.9-27.5,41.4
		S33.9,42.4,33.9,42.4z"/>
</g>
</svg>
