<svg id="Calque_1" data-name="Calque 1" xmlns="http://www.w3.org/2000/svg" xmlns:xlink="http://www.w3.org/1999/xlink" viewBox="0 0 159.56 318.35"><defs><style>.cls-1{fill:#010102;}.cls-2{fill:url(#linear-gradient);}.cls-3{fill:url(#linear-gradient-2);}.cls-4{fill:url(#linear-gradient-3);}.cls-5{fill:url(#linear-gradient-4);}.cls-6{fill:url(#linear-gradient-5);}.cls-7{fill:url(#linear-gradient-6);}.cls-8{fill:url(#linear-gradient-7);}.cls-9{fill:url(#linear-gradient-8);}.cls-10{fill:url(#linear-gradient-9);}.cls-11{fill:url(#linear-gradient-10);}.cls-12{fill:url(#linear-gradient-11);}.cls-13{fill:url(#linear-gradient-12);}.cls-14{fill:url(#linear-gradient-13);}.cls-15{fill:url(#linear-gradient-14);}.cls-16{fill:url(#linear-gradient-15);}.cls-17{fill:url(#linear-gradient-16);}.cls-18,.cls-19{opacity:0.38;}.cls-18{fill:url(#linear-gradient-17);}.cls-19{fill:url(#linear-gradient-18);}.cls-20{fill:#1a1a1a;}.cls-21{fill:#262626;}.cls-22{fill:#333;}.cls-23{fill:url(#radial-gradient);}.cls-24{fill:url(#linear-gradient-19);}.cls-25{fill:url(#linear-gradient-20);}.cls-26{fill:url(#linear-gradient-21);}.cls-27{fill:url(#linear-gradient-22);}.cls-28{fill:url(#linear-gradient-23);}.cls-29{fill:url(#linear-gradient-24);}.cls-30{fill:url(#linear-gradient-25);}.cls-31{fill:url(#linear-gradient-26);}.cls-32{fill:url(#linear-gradient-27);}.cls-33{fill:url(#linear-gradient-28);}.cls-34{fill:#575859;}.cls-35{fill:url(#linear-gradient-29);}.cls-36{fill:url(#linear-gradient-30);}</style><linearGradient id="linear-gradient" x1="1.99" y1="50.18" x2="2.4" y2="50.18" gradientUnits="userSpaceOnUse"><stop offset="0" stop-color="#686867"/><stop offset="0.08" stop-color="#5c5c5b"/><stop offset="0.3" stop-color="#414141"/><stop offset="0.53" stop-color="#2e2e2e"/><stop offset="0.76" stop-color="#232323"/><stop offset="1" stop-color="#1f1f1f"/></linearGradient><linearGradient id="linear-gradient-2" x1="1.98" y1="78.21" x2="2.58" y2="78.21" gradientUnits="userSpaceOnUse"><stop offset="0" stop-color="#fff"/><stop offset="0" stop-color="#fefefe"/><stop offset="0.12" stop-color="#c3c3c3"/><stop offset="0.25" stop-color="#8f8f8f"/><stop offset="0.37" stop-color="#636363"/><stop offset="0.5" stop-color="#3f3f3f"/><stop offset="0.62" stop-color="#242424"/><stop offset="0.75" stop-color="#101010"/><stop offset="0.87" stop-color="#040404"/><stop offset="1"/></linearGradient><linearGradient id="linear-gradient-3" x1="1.98" y1="107.31" x2="2.58" y2="107.31" xlink:href="#linear-gradient-2"/><linearGradient id="linear-gradient-4" x1="145.06" y1="4.85" x2="156.79" y2="12.73" gradientUnits="userSpaceOnUse"><stop offset="0" stop-color="#4e4d4d"/><stop offset="1" stop-color="#1a1a1a"/></linearGradient><linearGradient id="linear-gradient-5" x1="147.65" y1="83.9" x2="158.87" y2="83.9" gradientUnits="userSpaceOnUse"><stop offset="0" stop-color="#7c7d7d"/><stop offset="0.14" stop-color="#7f8080"/><stop offset="0.26" stop-color="#898b8b"/><stop offset="0.38" stop-color="#9b9c9d"/><stop offset="0.49" stop-color="#b3b5b7"/><stop offset="0.6" stop-color="#d1d4d7"/><stop offset="0.7" stop-color="#f5f9fd"/><stop offset="0.78" stop-color="#f3f6fa"/><stop offset="0.83" stop-color="#eaeef2"/><stop offset="0.87" stop-color="#dce0e3"/><stop offset="0.91" stop-color="#c9cbcf"/><stop offset="0.94" stop-color="#afb1b4"/><stop offset="0.98" stop-color="#909193"/><stop offset="1" stop-color="#747476"/></linearGradient><linearGradient id="linear-gradient-6" x1="5.12" y1="12.52" x2="17.04" y2="4.61" xlink:href="#linear-gradient-4"/><linearGradient id="linear-gradient-7" x1="14.03" y1="83.68" x2="2.79" y2="83.68" xlink:href="#linear-gradient-5"/><linearGradient id="linear-gradient-8" x1="80.83" y1="6.86" x2="80.83" y2="1.74" gradientUnits="userSpaceOnUse"><stop offset="0" stop-color="#bfc1c7" stop-opacity="0.7"/><stop offset="0.28" stop-color="#c0c2c8" stop-opacity="0.71"/><stop offset="0.45" stop-color="#c5c7cc" stop-opacity="0.73"/><stop offset="0.6" stop-color="#ccced3" stop-opacity="0.77"/><stop offset="0.73" stop-color="#d7d9dd" stop-opacity="0.82"/><stop offset="0.85" stop-color="#e5e6e9" stop-opacity="0.89"/><stop offset="0.97" stop-color="#f6f7f8" stop-opacity="0.97"/><stop offset="1" stop-color="#fbfcfd"/></linearGradient><linearGradient id="linear-gradient-9" x1="145.06" y1="-75.13" x2="156.79" y2="-67.25" gradientTransform="matrix(1, 0, 0, -1, 0, 240.8)" xlink:href="#linear-gradient-4"/><linearGradient id="linear-gradient-10" x1="147.73" y1="236.88" x2="158.81" y2="236.88" xlink:href="#linear-gradient-5"/><linearGradient id="linear-gradient-11" x1="16.7" y1="316" x2="5.55" y2="308.52" xlink:href="#linear-gradient-4"/><linearGradient id="linear-gradient-12" x1="13.94" y1="237.1" x2="2.76" y2="237.1" xlink:href="#linear-gradient-5"/><linearGradient id="linear-gradient-13" x1="80.83" y1="-73.13" x2="80.83" y2="-78.25" gradientTransform="matrix(1, 0, 0, -1, 0, 240.8)" xlink:href="#linear-gradient-8"/><linearGradient id="linear-gradient-14" x1="5.05" y1="160.28" x2="156.61" y2="160.28" gradientUnits="userSpaceOnUse"><stop offset="0" stop-color="#2e2e2e"/><stop offset="0.07"/><stop offset="0.18" stop-color="#363636"/><stop offset="0.8" stop-color="#363636"/><stop offset="0.94"/><stop offset="1" stop-color="#2e2e2e"/></linearGradient><linearGradient id="linear-gradient-15" x1="143.89" y1="160.22" x2="155.65" y2="160.22" gradientUnits="userSpaceOnUse"><stop offset="0" stop-color="#6b6c70" stop-opacity="0.7"/><stop offset="0.39" stop-color="#6d6d71" stop-opacity="0.7"/><stop offset="0.55" stop-color="#727377" stop-opacity="0.72"/><stop offset="0.66" stop-color="#7b7c80" stop-opacity="0.75"/><stop offset="0.76" stop-color="#88898c" stop-opacity="0.79"/><stop offset="0.84" stop-color="#9a9a9d" stop-opacity="0.84"/><stop offset="0.92" stop-color="#afafb1" stop-opacity="0.91"/><stop offset="0.98" stop-color="#c8c7c9" stop-opacity="0.98"/><stop offset="1" stop-color="#cecdcf"/></linearGradient><linearGradient id="linear-gradient-16" x1="-9.88" y1="160.22" x2="1.89" y2="160.22" gradientTransform="matrix(-1, 0, 0, 1, 8.3, 0)" xlink:href="#linear-gradient-15"/><linearGradient id="linear-gradient-17" x1="16.91" y1="7.21" x2="144.27" y2="7.21" gradientUnits="userSpaceOnUse"><stop offset="0" stop-opacity="0"/><stop offset="0.01" stop-color="#1f1f1f" stop-opacity="0.12"/><stop offset="0.03" stop-color="#535353" stop-opacity="0.33"/><stop offset="0.06" stop-color="#818181" stop-opacity="0.51"/><stop offset="0.08" stop-color="#a8a8a8" stop-opacity="0.66"/><stop offset="0.11" stop-color="#c8c8c8" stop-opacity="0.78"/><stop offset="0.13" stop-color="#e0e0e0" stop-opacity="0.88"/><stop offset="0.16" stop-color="#f1f1f1" stop-opacity="0.95"/><stop offset="0.19" stop-color="#fcfcfc" stop-opacity="0.99"/><stop offset="0.22" stop-color="#fff"/><stop offset="0.68" stop-color="#fff"/><stop offset="0.76" stop-color="#fff"/><stop offset="0.84" stop-color="#fdfdfd" stop-opacity="0.99"/><stop offset="0.87" stop-color="#f6f6f6" stop-opacity="0.96"/><stop offset="0.9" stop-color="#eaeaea" stop-opacity="0.92"/><stop offset="0.92" stop-color="#d8d8d8" stop-opacity="0.85"/><stop offset="0.93" stop-color="#c1c1c1" stop-opacity="0.76"/><stop offset="0.95" stop-color="#a5a5a5" stop-opacity="0.65"/><stop offset="0.96" stop-color="#838383" stop-opacity="0.52"/><stop offset="0.98" stop-color="#5c5c5c" stop-opacity="0.36"/><stop offset="0.99" stop-color="#323232" stop-opacity="0.19"/><stop offset="1" stop-color="#020202" stop-opacity="0.01"/><stop offset="1" stop-opacity="0"/></linearGradient><linearGradient id="linear-gradient-18" x1="16.91" y1="324.83" x2="144.27" y2="324.83" gradientTransform="matrix(1, 0, 0, -1, 0, 637.87)" xlink:href="#linear-gradient-17"/><radialGradient id="radial-gradient" cx="97.57" cy="13.69" r="1.41" gradientUnits="userSpaceOnUse"><stop offset="0.6"/><stop offset="0.81" stop-color="#0f1a34" stop-opacity="0.7"/><stop offset="1" stop-color="#2b4c99" stop-opacity="0.1"/></radialGradient><linearGradient id="linear-gradient-19" x1="97.47" y1="12.98" x2="98.72" y2="14.49" gradientUnits="userSpaceOnUse"><stop offset="0" stop-color="#5977b8"/><stop offset="0.08" stop-color="#465d91" stop-opacity="0.85"/><stop offset="0.18" stop-color="#314165" stop-opacity="0.68"/><stop offset="0.28" stop-color="#1f2a40" stop-opacity="0.54"/><stop offset="0.38" stop-color="#111724" stop-opacity="0.44"/><stop offset="0.48" stop-color="#080a10" stop-opacity="0.36"/><stop offset="0.58" stop-color="#020304" stop-opacity="0.32"/><stop offset="0.68" stop-opacity="0.3"/></linearGradient><linearGradient id="linear-gradient-20" x1="96.57" y1="13.03" x2="97.81" y2="14.52" gradientUnits="userSpaceOnUse"><stop offset="0" stop-color="#5977b8"/><stop offset="0.06" stop-color="#465d91" stop-opacity="0.85"/><stop offset="0.15" stop-color="#314165" stop-opacity="0.68"/><stop offset="0.23" stop-color="#1f2a40" stop-opacity="0.54"/><stop offset="0.31" stop-color="#111724" stop-opacity="0.44"/><stop offset="0.39" stop-color="#080a10" stop-opacity="0.36"/><stop offset="0.48" stop-color="#020304" stop-opacity="0.32"/><stop offset="0.56" stop-opacity="0.3"/></linearGradient><linearGradient id="linear-gradient-21" x1="156.92" y1="160.26" x2="159.47" y2="160.26" gradientUnits="userSpaceOnUse"><stop offset="0" stop-color="gray"/><stop offset="0.33" stop-color="#a9a8a8" stop-opacity="0.89"/><stop offset="0.66" stop-color="#c3c2c2" stop-opacity="0.82"/><stop offset="1" stop-color="#cccaca" stop-opacity="0.8"/></linearGradient><linearGradient id="linear-gradient-22" x1="-29.62" y1="160.26" x2="-27.07" y2="160.26" gradientTransform="matrix(-1, 0, 0, 1, -25.1, 0)" gradientUnits="userSpaceOnUse"><stop offset="0" stop-color="gray"/><stop offset="0.2" stop-color="#9b9a9a" stop-opacity="0.96"/><stop offset="0.46" stop-color="#b6b5b5" stop-opacity="0.93"/><stop offset="0.73" stop-color="#c7c5c5" stop-opacity="0.91"/><stop offset="1" stop-color="#cccaca" stop-opacity="0.9"/></linearGradient><linearGradient id="linear-gradient-23" x1="160.03" y1="92.88" x2="160.47" y2="92.88" gradientUnits="userSpaceOnUse"><stop offset="0" stop-color="#4b4a4a"/><stop offset="0.17" stop-color="#4f4e4e"/><stop offset="0.33" stop-color="#5a5959"/><stop offset="0.49" stop-color="#6e6d6d"/><stop offset="0.64" stop-color="#898888"/><stop offset="0.8" stop-color="#acabab"/><stop offset="0.95" stop-color="#d6d5d5"/><stop offset="1" stop-color="#e5e4e4"/></linearGradient><linearGradient id="linear-gradient-24" x1="159.67" y1="74.19" x2="159.67" y2="111.35" gradientUnits="userSpaceOnUse"><stop offset="0.02"/><stop offset="0.02" stop-color="#1a1a1a"/><stop offset="0.05" stop-color="#5a5a5a"/><stop offset="0.07" stop-color="#8f8f8f"/><stop offset="0.09" stop-color="#b8b8b8"/><stop offset="0.11" stop-color="#d6d6d6"/><stop offset="0.13" stop-color="#e8e8e8"/><stop offset="0.14" stop-color="#eee"/><stop offset="0.87" stop-color="#eee"/><stop offset="0.88" stop-color="#e9e9e9"/><stop offset="0.89" stop-color="#dbdbdb"/><stop offset="0.91" stop-color="#c3c3c3"/><stop offset="0.93" stop-color="#a1a1a1"/><stop offset="0.94" stop-color="#767676"/><stop offset="0.96" stop-color="#424242"/><stop offset="0.98" stop-color="#050505"/><stop offset="0.98"/></linearGradient><linearGradient id="linear-gradient-25" x1="-39.83" y1="78.37" x2="-39.38" y2="78.37" gradientTransform="matrix(-1, 0, 0, 1, -38.42, 0)" xlink:href="#linear-gradient-23"/><linearGradient id="linear-gradient-26" x1="-40.19" y1="66.45" x2="-40.19" y2="90.09" gradientTransform="matrix(-1, 0, 0, 1, -38.42, 0)" gradientUnits="userSpaceOnUse"><stop offset="0" stop-color="#111211"/><stop offset="0" stop-color="#1a1b1a"/><stop offset="0.03" stop-color="#5a5a5a"/><stop offset="0.05" stop-color="#8f8f8f"/><stop offset="0.07" stop-color="#b8b8b8"/><stop offset="0.08" stop-color="#d6d6d6"/><stop offset="0.1" stop-color="#e8e8e8"/><stop offset="0.11" stop-color="#eee"/><stop offset="0.91" stop-color="#eee"/><stop offset="0.92" stop-color="#e9e9e9"/><stop offset="0.93" stop-color="#dbdbdb"/><stop offset="0.95" stop-color="#c3c3c3"/><stop offset="0.96" stop-color="#a1a1a2"/><stop offset="0.98" stop-color="#767678"/><stop offset="0.99" stop-color="#434344"/><stop offset="1" stop-color="#222224"/></linearGradient><linearGradient id="linear-gradient-27" x1="-39.83" y1="107.45" x2="-39.38" y2="107.45" gradientTransform="matrix(-1, 0, 0, 1, -38.42, 0)" xlink:href="#linear-gradient-23"/><linearGradient id="linear-gradient-28" x1="-40.19" y1="95.52" x2="-40.19" y2="119.16" xlink:href="#linear-gradient-26"/><linearGradient id="linear-gradient-29" x1="1.7" y1="44.13" x2="1.7" y2="56.12" gradientTransform="matrix(1, 0, 0, 1, 0, 0)" xlink:href="#linear-gradient-26"/><linearGradient id="linear-gradient-30" x1="79.74" y1="318.83" x2="79.74" y2="319.59" gradientUnits="userSpaceOnUse"><stop offset="0" stop-color="#616369"/><stop offset="0.11" stop-color="#515358"/><stop offset="0.33" stop-color="#37383c"/><stop offset="0.56" stop-color="#242527"/><stop offset="0.78" stop-color="#191a1b"/><stop offset="1" stop-color="#151617"/></linearGradient></defs><path class="cls-1" d="M135.83,1.23H25.61A23.63,23.63,0,0,0,2,24.86V43.74a1.13,1.13,0,0,1,.41,1V55.59c0,.23,0,.84-.41,1v9.24a2.23,2.23,0,0,1,.59,1.71V89.18A1.49,1.49,0,0,1,2,90.58v4.36a2.26,2.26,0,0,1,.59,1.72v21.62a1.49,1.49,0,0,1-.59,1.4V296a23.63,23.63,0,0,0,23.62,23.63H135.83A23.63,23.63,0,0,0,159.46,296V24.86A23.63,23.63,0,0,0,135.83,1.23Zm14,294.86a13.8,13.8,0,0,1-13.8,13.8H25.43a13.8,13.8,0,0,1-13.8-13.8V24.39a13.8,13.8,0,0,1,13.8-13.8h15a1.86,1.86,0,0,1,1.86,1.86v1.67a7.83,7.83,0,0,0,8,7.42h61.39c5.41,0,7.75-5,7.75-7.57V12.45a1.86,1.86,0,0,1,1.86-1.86H136a13.8,13.8,0,0,1,13.8,13.8Z" transform="translate(-0.9 -1.23)"/><path class="cls-1" d="M2.4,55.59V44.78a1.13,1.13,0,0,0-.41-1V56.61C2.39,56.43,2.4,55.82,2.4,55.59Z" transform="translate(-0.9 -1.23)"/><path class="cls-2" d="M2.4,55.59V44.78a1.13,1.13,0,0,0-.41-1V56.61C2.39,56.43,2.4,55.82,2.4,55.59Z" transform="translate(-0.9 -1.23)"/><path class="cls-1" d="M2.58,89.18V67.56A2.23,2.23,0,0,0,2,65.85V90.58A1.49,1.49,0,0,0,2.58,89.18Z" transform="translate(-0.9 -1.23)"/><path class="cls-3" d="M2.58,89.18V67.56A2.23,2.23,0,0,0,2,65.85V90.58A1.49,1.49,0,0,0,2.58,89.18Z" transform="translate(-0.9 -1.23)"/><path class="cls-1" d="M2.58,118.28V96.66A2.26,2.26,0,0,0,2,94.94v24.74A1.49,1.49,0,0,0,2.58,118.28Z" transform="translate(-0.9 -1.23)"/><path class="cls-4" d="M2.58,118.28V96.66A2.26,2.26,0,0,0,2,94.94v24.74A1.49,1.49,0,0,0,2.58,118.28Z" transform="translate(-0.9 -1.23)"/><path class="cls-5" d="M144.5,5.57a21.38,21.38,0,0,1,3.16,1.81,16.83,16.83,0,0,1,7.88,5.83,23.61,23.61,0,0,0-5.71-6.48A7.93,7.93,0,0,0,144.5,5.57Z" transform="translate(-0.9 -1.23)"/><path class="cls-6" d="M158.82,160.42V25.12a23.19,23.19,0,0,0-3.28-11.91,16.83,16.83,0,0,0-7.88-5.83A21.53,21.53,0,0,1,157,25.12v135.3Z" transform="translate(-0.9 -1.23)"/><path class="cls-7" d="M17.15,5.57A22.45,22.45,0,0,0,14,7.38a16.88,16.88,0,0,0-7.88,5.83,23.61,23.61,0,0,1,5.71-6.48A7.94,7.94,0,0,1,17.15,5.57Z" transform="translate(-0.9 -1.23)"/><path class="cls-8" d="M2.83,160V25.12A23.19,23.19,0,0,1,6.11,13.21,16.88,16.88,0,0,1,14,7.38,21.53,21.53,0,0,0,4.64,25.12V160Z" transform="translate(-0.9 -1.23)"/><path class="cls-9" d="M135.47,1.78H26.18a23.25,23.25,0,0,0-14.36,5,7.94,7.94,0,0,1,5.33-1.16,21.49,21.49,0,0,1,9-2H135.47a21.45,21.45,0,0,1,9,2,7.93,7.93,0,0,1,5.33,1.16A23.23,23.23,0,0,0,135.47,1.78Z" transform="translate(-0.9 -1.23)"/><path d="M158.66,110.48V75.27a1.93,1.93,0,0,1,.8-1.72v38.33A1.31,1.31,0,0,1,158.66,110.48Z" transform="translate(-0.9 -1.23)"/><path class="cls-10" d="M144.5,315.21a21.38,21.38,0,0,0,3.16-1.81,16.77,16.77,0,0,0,7.88-5.83,23.61,23.61,0,0,1-5.71,6.48A7.87,7.87,0,0,1,144.5,315.21Z" transform="translate(-0.9 -1.23)"/><path class="cls-11" d="M158.82,160.36v135.3a23.19,23.19,0,0,1-3.28,11.91,16.77,16.77,0,0,1-7.88,5.83A21.53,21.53,0,0,0,157,295.66V160.36Z" transform="translate(-0.9 -1.23)"/><path class="cls-12" d="M17.15,315.21A22.45,22.45,0,0,1,14,313.4a16.82,16.82,0,0,1-7.88-5.83,23.61,23.61,0,0,0,5.71,6.48A7.88,7.88,0,0,0,17.15,315.21Z" transform="translate(-0.9 -1.23)"/><path class="cls-13" d="M2.83,160.8V295.66a23.19,23.19,0,0,0,3.28,11.91A16.82,16.82,0,0,0,14,313.4a21.53,21.53,0,0,1-9.35-17.74V160.8Z" transform="translate(-0.9 -1.23)"/><path class="cls-14" d="M135.47,319H26.18a23.26,23.26,0,0,1-14.36-5,7.88,7.88,0,0,0,5.33,1.16,21.49,21.49,0,0,0,9,2H135.47a21.46,21.46,0,0,0,9-2,7.87,7.87,0,0,0,5.33-1.16A23.24,23.24,0,0,1,135.47,319Z" transform="translate(-0.9 -1.23)"/><path class="cls-15" d="M135.9,316.54H26.08a21,21,0,0,1-21-21V24.88A20.87,20.87,0,0,1,25.91,4H135.56a21.05,21.05,0,0,1,21.05,21.06V295.83A20.71,20.71,0,0,1,135.9,316.54ZM25.79,4.74a20,20,0,0,0-20,20V295.52a20.3,20.3,0,0,0,20.31,20.3H135.9a20,20,0,0,0,20-20V25.06A20.33,20.33,0,0,0,135.56,4.74Z" transform="translate(-0.9 -1.23)"/><path class="cls-16" d="M155.48,26.8c0-11.56-5.49-17.31-11.59-19.9,1.63,3.34,8.76,6.24,8.76,19.81v267c0,13.57-7.13,16.47-8.76,19.81,6.1-2.6,11.59-8.34,11.59-19.9l.17-133.42Z" transform="translate(-0.9 -1.23)"/><path class="cls-17" d="M6.59,26.8c0-11.56,5.49-17.31,11.59-19.9-1.63,3.34-8.76,6.24-8.76,19.81v267c0,13.57,7.13,16.47,8.76,19.81-6.1-2.6-11.59-8.34-11.59-19.9L6.41,160.22Z" transform="translate(-0.9 -1.23)"/><path class="cls-18" d="M134.86,5.25H26.34a20.9,20.9,0,0,0-9.43,2.24l.7,1.44a25.26,25.26,0,0,1,8.73-1.6H134.86a20.46,20.46,0,0,1,8.56,1.84l.85-1.8A22.36,22.36,0,0,0,134.86,5.25Z" transform="translate(-0.9 -1.23)"/><path class="cls-19" d="M134.86,315H26.34a20.9,20.9,0,0,1-9.43-2.24l.7-1.44a25.26,25.26,0,0,0,8.73,1.61H134.86a20.62,20.62,0,0,0,8.56-1.84l.85,1.79A22.36,22.36,0,0,1,134.86,315Z" transform="translate(-0.9 -1.23)"/><path class="cls-20" d="M90.57,13.45a1.08,1.08,0,0,0-.16-.3l-.07.07Z" transform="translate(-0.9 -1.23)"/><polygon class="cls-20" points="73.88 13.06 73.59 13.35 73.81 13.57 73.95 13.57 74.17 13.35 73.88 13.06"/><polygon class="cls-20" points="73.36 13.57 73.49 13.57 73.43 13.51 73.36 13.57"/><rect class="cls-20" x="88.61" y="13.92" width="0.41" height="0.41" transform="translate(15.12 65.7) rotate(-44.99)"/><rect class="cls-20" x="87.71" y="13.92" width="0.41" height="0.41" transform="translate(14.86 65.07) rotate(-45)"/><rect class="cls-20" x="81.82" y="13.47" width="0.41" height="0.41" transform="translate(13.46 60.78) rotate(-45)"/><path class="cls-20" d="M90.26,13a1,1,0,0,0-.36-.19l.28.27Z" transform="translate(-0.9 -1.23)"/><polygon class="cls-20" points="75.69 13.06 75.4 13.35 75.62 13.57 75.76 13.57 75.98 13.35 75.69 13.06"/><polygon class="cls-20" points="72.97 13.06 72.68 13.35 72.91 13.57 73.04 13.57 73.27 13.35 72.97 13.06"/><polygon class="cls-20" points="74.27 13.57 74.4 13.57 74.33 13.51 74.27 13.57"/><path class="cls-20" d="M89.68,14.79l.08,0,0,0Z" transform="translate(-0.9 -1.23)"/><polygon class="cls-20" points="88.37 13.06 88.08 13.35 88.3 13.57 88.44 13.57 88.67 13.35 88.37 13.06"/><polygon class="cls-20" points="75.17 13.57 75.3 13.57 75.24 13.51 75.17 13.57"/><path class="cls-20" d="M90.48,14.27a1,1,0,0,0,.13-.42l-.27.28Z" transform="translate(-0.9 -1.23)"/><path class="cls-20" d="M89.88,14.58l.13.13a1.2,1.2,0,0,0,.34-.25l-.17-.17Z" transform="translate(-0.9 -1.23)"/><polygon class="cls-20" points="74.78 13.06 74.49 13.35 74.72 13.57 74.85 13.57 75.08 13.35 74.78 13.06"/><rect class="cls-20" x="82.72" y="13.47" width="0.41" height="0.41" transform="translate(13.72 61.42) rotate(-45)"/><polygon class="cls-20" points="85.65 11.83 85.95 11.54 85.9 11.49 85.41 11.49 85.36 11.54 85.65 11.83"/><rect class="cls-20" x="84.08" y="13.92" width="0.41" height="0.41" transform="translate(13.8 62.51) rotate(-45)"/><rect class="cls-20" x="80.01" y="13.47" width="0.41" height="0.41" transform="translate(12.92 59.49) rotate(-45)"/><path class="cls-20" d="M72.06,14.29l-.29.29.21.21.07,0h.08l.22-.23Z" transform="translate(-0.9 -1.23)"/><rect class="cls-20" x="84.99" y="13.92" width="0.41" height="0.41" transform="translate(14.06 63.15) rotate(-45)"/><rect class="cls-20" x="83.18" y="13.92" width="0.41" height="0.41" transform="translate(13.54 61.88) rotate(-45.01)"/><polygon class="cls-20" points="88.37 11.83 88.67 11.54 88.62 11.49 88.13 11.49 88.08 11.54 88.37 11.83"/><rect class="cls-20" x="71.4" y="13.92" width="0.41" height="0.41" transform="translate(10.08 53.54) rotate(-45)"/><polygon class="cls-20" points="84.75 11.83 85.04 11.54 85 11.49 84.5 11.49 84.45 11.54 84.75 11.83"/><polygon class="cls-20" points="72.07 13.06 71.77 13.35 72 13.57 72.14 13.57 72.36 13.35 72.07 13.06"/><rect class="cls-20" x="86.8" y="13.92" width="0.41" height="0.41" transform="translate(14.59 64.43) rotate(-45)"/><polygon class="cls-20" points="87.47 11.83 87.76 11.54 87.71 11.49 87.22 11.49 87.17 11.54 87.47 11.83"/><rect class="cls-20" x="80.91" y="13.47" width="0.41" height="0.41" transform="translate(13.19 60.13) rotate(-45)"/><polygon class="cls-20" points="72.45 13.57 72.58 13.57 72.52 13.51 72.45 13.57"/><rect class="cls-20" x="85.89" y="13.92" width="0.41" height="0.41" transform="translate(14.33 63.79) rotate(-45)"/><polygon class="cls-20" points="86.56 11.83 86.85 11.54 86.81 11.49 86.31 11.49 86.27 11.54 86.56 11.83"/><polygon class="cls-20" points="71.55 13.57 71.68 13.57 71.61 13.51 71.55 13.57"/><polygon class="cls-20" points="86.95 13.57 87.08 13.57 87.01 13.51 86.95 13.57"/><polygon class="cls-20" points="82.94 13.06 82.64 13.35 82.87 13.57 83.01 13.57 83.23 13.35 82.94 13.06"/><rect class="cls-20" x="86.35" y="13.47" width="0.41" height="0.41" transform="translate(14.78 63.98) rotate(-45)"/><polygon class="cls-20" points="78.8 13.57 78.93 13.57 78.86 13.51 78.8 13.57"/><polygon class="cls-20" points="82.42 13.57 82.55 13.57 82.48 13.51 82.42 13.57"/><rect class="cls-20" x="84.54" y="13.47" width="0.41" height="0.41" transform="translate(14.25 62.7) rotate(-45)"/><polygon class="cls-20" points="83.84 13.06 83.55 13.35 83.77 13.57 83.91 13.57 84.14 13.35 83.84 13.06"/><polygon class="cls-20" points="83.33 13.57 83.45 13.57 83.39 13.51 83.33 13.57"/><polygon class="cls-20" points="87.85 13.57 87.98 13.57 87.92 13.51 87.85 13.57"/><polygon class="cls-20" points="80.22 13.06 79.93 13.35 80.15 13.57 80.29 13.57 80.51 13.35 80.22 13.06"/><rect class="cls-20" x="87.25" y="13.47" width="0.41" height="0.41" transform="translate(15.05 64.62) rotate(-45)"/><polygon class="cls-20" points="80.61 13.57 80.74 13.57 80.67 13.51 80.61 13.57"/><polygon class="cls-20" points="81.13 13.06 80.83 13.35 81.06 13.57 81.19 13.57 81.42 13.35 81.13 13.06"/><rect class="cls-20" x="85.44" y="13.47" width="0.41" height="0.41" transform="translate(14.52 63.35) rotate(-45.01)"/><polygon class="cls-20" points="79.31 13.06 79.02 13.35 79.25 13.57 79.38 13.57 79.61 13.35 79.31 13.06"/><polygon class="cls-20" points="82.03 13.06 81.74 13.35 81.96 13.57 82.1 13.57 82.32 13.35 82.03 13.06"/><polygon class="cls-20" points="81.51 13.57 81.64 13.57 81.58 13.51 81.51 13.57"/><polygon class="cls-20" points="78.41 13.06 78.11 13.35 78.34 13.57 78.48 13.57 78.7 13.35 78.41 13.06"/><polygon class="cls-20" points="76.6 13.06 76.3 13.35 76.53 13.57 76.67 13.57 76.89 13.35 76.6 13.06"/><polygon class="cls-20" points="86.56 13.06 86.27 13.35 86.49 13.57 86.63 13.57 86.85 13.35 86.56 13.06"/><polygon class="cls-20" points="83.84 11.83 84.14 11.54 84.09 11.49 83.6 11.49 83.55 11.54 83.84 11.83"/><rect class="cls-20" x="83.63" y="13.47" width="0.41" height="0.41" transform="translate(13.99 62.06) rotate(-45)"/><polygon class="cls-20" points="84.23 13.57 84.36 13.57 84.3 13.51 84.23 13.57"/><rect class="cls-20" x="89.06" y="13.47" width="0.41" height="0.41" transform="translate(15.59 65.92) rotate(-45.02)"/><polygon class="cls-20" points="87.47 13.06 87.17 13.35 87.4 13.57 87.53 13.57 87.76 13.35 87.47 13.06"/><polygon class="cls-20" points="86.04 13.57 86.17 13.57 86.11 13.51 86.04 13.57"/><polygon class="cls-20" points="76.08 13.57 76.21 13.57 76.14 13.51 76.08 13.57"/><polygon class="cls-20" points="84.75 13.06 84.45 13.35 84.68 13.57 84.82 13.57 85.04 13.35 84.75 13.06"/><polygon class="cls-20" points="77.5 13.06 77.21 13.35 77.43 13.57 77.57 13.57 77.8 13.35 77.5 13.06"/><polygon class="cls-20" points="77.89 13.57 78.02 13.57 77.95 13.51 77.89 13.57"/><polygon class="cls-20" points="76.98 13.57 77.11 13.57 77.05 13.51 76.98 13.57"/><polygon class="cls-20" points="85.65 13.06 85.36 13.35 85.59 13.57 85.72 13.57 85.95 13.35 85.65 13.06"/><rect class="cls-20" x="88.16" y="13.47" width="0.41" height="0.41" transform="translate(15.31 65.26) rotate(-45)"/><polygon class="cls-20" points="85.14 13.57 85.27 13.57 85.2 13.51 85.14 13.57"/><polygon class="cls-20" points="79.7 13.57 79.83 13.57 79.77 13.51 79.7 13.57"/><rect class="cls-20" x="71.85" y="13.47" width="0.41" height="0.41" transform="translate(10.54 53.74) rotate(-45.01)"/><rect class="cls-20" x="73.21" y="13.92" width="0.41" height="0.41" transform="translate(10.61 54.82) rotate(-45)"/><rect class="cls-20" x="82.27" y="13.01" width="0.41" height="0.41" transform="translate(13.92 60.97) rotate(-45.01)"/><polygon class="cls-20" points="74.78 11.83 75.08 11.54 75.03 11.49 74.54 11.49 74.49 11.54 74.78 11.83"/><rect class="cls-20" x="81.36" y="13.01" width="0.41" height="0.41" transform="translate(13.65 60.33) rotate(-45.01)"/><polygon class="cls-20" points="72.97 11.83 73.27 11.54 73.22 11.49 72.73 11.49 72.68 11.54 72.97 11.83"/><rect class="cls-20" x="80.46" y="13.01" width="0.41" height="0.41" transform="translate(13.38 59.68) rotate(-45)"/><rect class="cls-20" x="72.31" y="13.92" width="0.41" height="0.41" transform="translate(10.35 54.18) rotate(-45)"/><polygon class="cls-20" points="73.88 11.83 74.17 11.54 74.13 11.49 73.63 11.49 73.59 11.54 73.88 11.83"/><rect class="cls-20" x="72.76" y="13.47" width="0.41" height="0.41" transform="translate(10.8 54.37) rotate(-45)"/><polygon class="cls-20" points="76.6 11.83 76.89 11.54 76.84 11.49 76.35 11.49 76.3 11.54 76.6 11.83"/><rect class="cls-20" x="78.65" y="13.01" width="0.41" height="0.41" transform="translate(12.85 58.4) rotate(-45)"/><rect class="cls-20" x="75.02" y="13.92" width="0.41" height="0.41" transform="translate(11.15 56.1) rotate(-45)"/><polygon class="cls-20" points="75.69 11.83 75.98 11.54 75.94 11.49 75.44 11.49 75.4 11.54 75.69 11.83"/><rect class="cls-20" x="79.55" y="13.01" width="0.41" height="0.41" transform="translate(13.12 59.05) rotate(-45.01)"/><rect class="cls-20" x="74.12" y="13.92" width="0.41" height="0.41" transform="translate(10.87 55.45) rotate(-44.99)"/><rect class="cls-20" x="86.8" y="13.01" width="0.41" height="0.41" transform="translate(15.23 64.17) rotate(-45)"/><rect class="cls-20" x="89.97" y="13.47" width="0.41" height="0.41" transform="translate(15.84 66.54) rotate(-45)"/><path class="cls-20" d="M71.45,13.67l-.29-.29-.09.09a.94.94,0,0,0-.06.29.24.24,0,0,0,0,.08l.13.13Z" transform="translate(-0.9 -1.23)"/><rect class="cls-20" x="88.61" y="13.01" width="0.41" height="0.41" transform="translate(15.77 65.45) rotate(-45)"/><rect class="cls-20" x="89.52" y="13.01" width="0.41" height="0.41" transform="translate(16.04 66.1) rotate(-45.01)"/><rect class="cls-20" x="89.52" y="13.92" width="0.41" height="0.41" transform="translate(15.4 66.36) rotate(-45.01)"/><path class="cls-20" d="M71.21,14.34a1.1,1.1,0,0,0,.23.25h0Z" transform="translate(-0.9 -1.23)"/><rect class="cls-20" x="83.18" y="13.01" width="0.41" height="0.41" transform="translate(14.18 61.61) rotate(-45.01)"/><rect class="cls-20" x="87.71" y="13.01" width="0.41" height="0.41" transform="translate(15.5 64.81) rotate(-45)"/><polygon class="cls-20" points="72.07 11.83 72.36 11.54 72.31 11.49 71.82 11.49 71.77 11.54 72.07 11.83"/><rect class="cls-20" x="84.99" y="13.01" width="0.41" height="0.41" transform="translate(14.7 62.88) rotate(-45)"/><rect class="cls-20" x="84.08" y="13.01" width="0.41" height="0.41" transform="translate(14.45 62.25) rotate(-45.01)"/><rect class="cls-20" x="75.93" y="13.92" width="0.41" height="0.41" transform="translate(11.41 56.74) rotate(-45)"/><rect class="cls-20" x="85.89" y="13.01" width="0.41" height="0.41" transform="translate(14.98 63.54) rotate(-45.01)"/><path class="cls-20" d="M72.35,12.77l0,0h-.26a.82.82,0,0,0-.27.06l.28.28Z" transform="translate(-0.9 -1.23)"/><polygon class="cls-20" points="80.22 11.83 80.51 11.54 80.47 11.49 79.97 11.49 79.93 11.54 80.22 11.83"/><rect class="cls-20" x="74.12" y="13.01" width="0.41" height="0.41" transform="translate(11.52 55.2) rotate(-45)"/><rect class="cls-20" x="80.46" y="13.92" width="0.41" height="0.41" transform="translate(12.74 59.95) rotate(-45)"/><rect class="cls-20" x="78.19" y="13.47" width="0.41" height="0.41" transform="translate(12.39 58.21) rotate(-45)"/><rect class="cls-20" x="75.02" y="13.01" width="0.41" height="0.41" transform="translate(11.79 55.84) rotate(-45)"/><rect class="cls-20" x="79.55" y="13.92" width="0.41" height="0.41" transform="translate(12.46 59.3) rotate(-44.99)"/><polygon class="cls-20" points="82.03 11.83 82.32 11.54 82.28 11.49 81.78 11.49 81.74 11.54 82.03 11.83"/><polygon class="cls-20" points="81.13 11.83 81.42 11.54 81.37 11.49 80.88 11.49 80.83 11.54 81.13 11.83"/><rect class="cls-20" x="77.29" y="13.47" width="0.41" height="0.41" transform="translate(12.13 57.57) rotate(-45)"/><rect class="cls-20" x="73.21" y="13.01" width="0.41" height="0.41" transform="translate(11.26 54.56) rotate(-45)"/><rect class="cls-20" x="72.31" y="13.01" width="0.41" height="0.41" transform="translate(10.99 53.92) rotate(-45)"/><rect class="cls-20" x="71.4" y="13.01" width="0.41" height="0.41" transform="translate(10.73 53.29) rotate(-45.01)"/><rect class="cls-20" x="82.27" y="13.92" width="0.41" height="0.41" transform="translate(13.27 61.23) rotate(-45)"/><rect class="cls-20" x="81.36" y="13.92" width="0.41" height="0.41" transform="translate(13 60.59) rotate(-45)"/><polygon class="cls-20" points="82.94 11.83 83.23 11.54 83.18 11.49 82.69 11.49 82.64 11.54 82.94 11.83"/><rect class="cls-20" x="79.1" y="13.47" width="0.41" height="0.41" transform="translate(12.66 58.85) rotate(-45)"/><rect class="cls-20" x="77.74" y="13.01" width="0.41" height="0.41" transform="translate(12.59 57.77) rotate(-45.01)"/><rect class="cls-20" x="75.48" y="13.47" width="0.41" height="0.41" transform="translate(11.6 56.29) rotate(-45)"/><polygon class="cls-20" points="79.31 11.83 79.61 11.54 79.56 11.49 79.07 11.49 79.02 11.54 79.31 11.83"/><polygon class="cls-20" points="78.41 11.83 78.7 11.54 78.66 11.49 78.16 11.49 78.11 11.54 78.41 11.83"/><rect class="cls-20" x="76.84" y="13.01" width="0.41" height="0.41" transform="translate(12.32 57.13) rotate(-45.01)"/><rect class="cls-20" x="74.57" y="13.47" width="0.41" height="0.41" transform="translate(11.33 55.65) rotate(-45)"/><rect class="cls-20" x="75.93" y="13.01" width="0.41" height="0.41" transform="translate(12.06 56.49) rotate(-45.01)"/><rect class="cls-20" x="77.74" y="13.92" width="0.41" height="0.41" transform="translate(11.94 58.03) rotate(-45)"/><rect class="cls-20" x="76.38" y="13.47" width="0.41" height="0.41" transform="translate(11.86 56.92) rotate(-44.99)"/><rect class="cls-20" x="73.67" y="13.47" width="0.41" height="0.41" transform="translate(11.07 55.01) rotate(-45)"/><polygon class="cls-20" points="77.5 11.83 77.8 11.54 77.75 11.49 77.25 11.49 77.21 11.54 77.5 11.83"/><rect class="cls-20" x="78.65" y="13.92" width="0.41" height="0.41" transform="translate(12.21 58.67) rotate(-45)"/><rect class="cls-20" x="76.84" y="13.92" width="0.41" height="0.41" transform="translate(11.68 57.39) rotate(-45)"/><path class="cls-21" d="M71.61,14.42l-.29-.29-.15.15,0,.06.24.24Z" transform="translate(-0.9 -1.23)"/><path class="cls-21" d="M71,13.84a.78.78,0,0,0,0,.21l.09-.08Z" transform="translate(-0.9 -1.23)"/><path class="cls-21" d="M71.63,14.71a1.05,1.05,0,0,0,.35.08l-.21-.21Z" transform="translate(-0.9 -1.23)"/><polygon class="cls-21" points="71.61 13.51 71.68 13.57 72 13.57 71.77 13.35 71.61 13.51"/><rect class="cls-21" x="72.17" y="14.15" width="0.23" height="0.41" transform="translate(10.12 54.09) rotate(-45)"/><rect class="cls-21" x="71.27" y="13.24" width="0.23" height="0.41" transform="translate(10.49 53.17) rotate(-44.98)"/><rect class="cls-21" x="71.72" y="13.69" width="0.23" height="0.41" transform="translate(10.32 53.65) rotate(-45.02)"/><rect class="cls-21" x="72.17" y="13.24" width="0.23" height="0.41" transform="translate(10.76 53.81) rotate(-44.99)"/><rect class="cls-21" x="73.08" y="14.15" width="0.23" height="0.41" transform="translate(10.4 54.75) rotate(-45.02)"/><polygon class="cls-21" points="72.52 13.51 72.58 13.57 72.91 13.57 72.68 13.35 72.52 13.51"/><rect class="cls-21" x="72.63" y="13.69" width="0.23" height="0.41" transform="translate(10.58 54.29) rotate(-45.01)"/><path class="cls-21" d="M71.9,13.22l.16-.16-.28-.28h0l-.14.15Z" transform="translate(-0.9 -1.23)"/><polygon class="cls-21" points="73.43 13.51 73.49 13.57 73.81 13.57 73.59 13.35 73.43 13.51"/><rect class="cls-21" x="73.08" y="13.24" width="0.23" height="0.41" transform="translate(11.03 54.46) rotate(-45)"/><rect class="cls-21" x="73.99" y="14.15" width="0.23" height="0.41" transform="translate(10.65 55.37) rotate(-45)"/><rect class="cls-21" x="73.53" y="13.69" width="0.23" height="0.41" transform="translate(10.84 54.92) rotate(-45)"/><rect class="cls-21" x="72.63" y="12.79" width="0.23" height="0.41" transform="translate(11.22 54.01) rotate(-45)"/><polygon class="cls-21" points="71.5 11.49 71.41 11.49 71.45 11.54 71.5 11.49"/><polygon class="cls-21" points="74.33 13.51 74.4 13.57 74.72 13.57 74.49 13.35 74.33 13.51"/><rect class="cls-21" x="73.53" y="12.79" width="0.23" height="0.41" transform="translate(11.48 54.65) rotate(-45)"/><rect class="cls-21" x="74.89" y="14.15" width="0.23" height="0.41" transform="translate(10.92 56.01) rotate(-45)"/><rect class="cls-21" x="73.99" y="13.24" width="0.23" height="0.41" transform="translate(11.29 55.09) rotate(-44.99)"/><rect class="cls-21" x="74.44" y="13.69" width="0.23" height="0.41" transform="translate(11.11 55.57) rotate(-45.01)"/><polygon class="cls-21" points="72.41 11.49 72.31 11.49 72.36 11.54 72.41 11.49"/><rect class="cls-21" x="74.44" y="12.79" width="0.23" height="0.41" transform="translate(11.74 55.28) rotate(-44.99)"/><rect class="cls-21" x="75.8" y="14.15" width="0.23" height="0.41" transform="translate(11.17 56.63) rotate(-44.98)"/><rect class="cls-21" x="75.35" y="13.69" width="0.23" height="0.41" transform="translate(11.37 56.2) rotate(-45)"/><polygon class="cls-21" points="75.24 13.51 75.3 13.57 75.62 13.57 75.4 13.35 75.24 13.51"/><polygon class="cls-21" points="73.31 11.49 73.22 11.49 73.27 11.54 73.31 11.49"/><rect class="cls-21" x="74.89" y="13.24" width="0.23" height="0.41" transform="translate(11.55 55.74) rotate(-44.99)"/><rect class="cls-21" x="75.34" y="12.79" width="0.23" height="0.41" transform="translate(12.01 55.93) rotate(-45)"/><rect class="cls-21" x="76.7" y="14.15" width="0.23" height="0.41" transform="translate(11.45 57.29) rotate(-45)"/><polygon class="cls-21" points="74.22 11.49 74.13 11.49 74.17 11.54 74.22 11.49"/><rect class="cls-21" x="76.25" y="13.69" width="0.23" height="0.41" transform="translate(11.64 56.84) rotate(-45)"/><rect class="cls-21" x="75.8" y="13.24" width="0.23" height="0.41" transform="translate(11.82 56.39) rotate(-45)"/><polygon class="cls-21" points="76.14 13.51 76.21 13.57 76.53 13.57 76.3 13.35 76.14 13.51"/><rect class="cls-21" x="77.16" y="13.69" width="0.23" height="0.41" transform="translate(11.9 57.48) rotate(-45)"/><rect class="cls-21" x="76.25" y="12.79" width="0.23" height="0.41" transform="translate(12.27 56.56) rotate(-44.99)"/><rect class="cls-21" x="77.61" y="14.15" width="0.23" height="0.41" transform="translate(11.73 57.95) rotate(-45.02)"/><polygon class="cls-21" points="77.05 13.51 77.11 13.57 77.43 13.57 77.21 13.35 77.05 13.51"/><polygon class="cls-21" points="75.12 11.49 75.03 11.49 75.08 11.54 75.12 11.49"/><rect class="cls-21" x="76.7" y="13.24" width="0.23" height="0.41" transform="translate(12.08 57.02) rotate(-44.99)"/><rect class="cls-21" x="78.52" y="14.15" width="0.23" height="0.41" transform="translate(11.96 58.55) rotate(-44.98)"/><rect class="cls-21" x="78.06" y="13.69" width="0.23" height="0.41" transform="translate(12.16 58.11) rotate(-44.99)"/><polygon class="cls-21" points="77.95 13.51 78.02 13.57 78.34 13.57 78.11 13.35 77.95 13.51"/><polygon class="cls-21" points="76.03 11.49 75.94 11.49 75.98 11.54 76.03 11.49"/><rect class="cls-21" x="77.16" y="12.79" width="0.23" height="0.41" transform="translate(12.54 57.21) rotate(-45)"/><rect class="cls-21" x="77.61" y="13.24" width="0.23" height="0.41" transform="translate(12.36 57.67) rotate(-45)"/><rect class="cls-21" x="78.52" y="13.24" width="0.23" height="0.41" transform="translate(12.61 58.3) rotate(-44.99)"/><rect class="cls-21" x="78.97" y="13.69" width="0.23" height="0.41" transform="translate(12.44 58.77) rotate(-45.01)"/><polygon class="cls-21" points="76.94 11.49 76.84 11.49 76.89 11.54 76.94 11.49"/><rect class="cls-21" x="78.06" y="12.79" width="0.23" height="0.41" transform="translate(12.81 57.86) rotate(-45)"/><polygon class="cls-21" points="78.86 13.51 78.93 13.57 79.25 13.57 79.02 13.35 78.86 13.51"/><rect class="cls-21" x="79.42" y="14.15" width="0.23" height="0.41" transform="translate(12.25 59.21) rotate(-45)"/><polygon class="cls-21" points="77.84 11.49 77.75 11.49 77.8 11.54 77.84 11.49"/><rect class="cls-21" x="79.42" y="13.24" width="0.23" height="0.41" transform="translate(12.88 58.94) rotate(-44.99)"/><rect class="cls-21" x="79.87" y="13.69" width="0.23" height="0.41" transform="translate(12.7 59.4) rotate(-45)"/><polygon class="cls-21" points="79.77 13.51 79.83 13.57 80.15 13.57 79.93 13.35 79.77 13.51"/><rect class="cls-21" x="78.97" y="12.79" width="0.23" height="0.41" transform="translate(13.07 58.49) rotate(-45)"/><rect class="cls-21" x="80.33" y="14.15" width="0.23" height="0.41" transform="translate(12.52 59.87) rotate(-45.02)"/><polygon class="cls-21" points="80.67 13.51 80.74 13.57 81.06 13.57 80.83 13.35 80.67 13.51"/><rect class="cls-21" x="80.78" y="13.69" width="0.23" height="0.41" transform="translate(12.96 60.04) rotate(-45)"/><polygon class="cls-21" points="78.75 11.49 78.66 11.49 78.7 11.54 78.75 11.49"/><rect class="cls-21" x="80.33" y="13.24" width="0.23" height="0.41" transform="translate(13.15 59.59) rotate(-45)"/><rect class="cls-21" x="79.87" y="12.79" width="0.23" height="0.41" transform="translate(13.34 59.14) rotate(-45)"/><rect class="cls-21" x="81.23" y="14.15" width="0.23" height="0.41" transform="translate(12.79 60.51) rotate(-45.02)"/><polygon class="cls-21" points="81.58 13.51 81.64 13.57 81.96 13.57 81.74 13.35 81.58 13.51"/><polygon class="cls-21" points="79.65 11.49 79.56 11.49 79.61 11.54 79.65 11.49"/><rect class="cls-21" x="81.23" y="13.24" width="0.23" height="0.41" transform="translate(13.42 60.23) rotate(-45)"/><rect class="cls-21" x="81.69" y="13.69" width="0.23" height="0.41" transform="translate(13.23 60.68) rotate(-45)"/><rect class="cls-21" x="82.14" y="14.15" width="0.23" height="0.41" transform="translate(13.05 61.15) rotate(-45.02)"/><rect class="cls-21" x="80.78" y="12.79" width="0.23" height="0.41" transform="translate(13.6 59.78) rotate(-45)"/><polygon class="cls-21" points="82.48 13.51 82.55 13.57 82.87 13.57 82.64 13.35 82.48 13.51"/><polygon class="cls-21" points="80.56 11.49 80.47 11.49 80.51 11.54 80.56 11.49"/><rect class="cls-21" x="81.69" y="12.79" width="0.23" height="0.41" transform="translate(13.87 60.42) rotate(-45)"/><rect class="cls-21" x="82.59" y="13.69" width="0.23" height="0.41" transform="translate(13.49 61.31) rotate(-44.99)"/><rect class="cls-21" x="83.04" y="14.15" width="0.23" height="0.41" transform="translate(13.3 61.77) rotate(-45)"/><rect class="cls-21" x="82.14" y="13.24" width="0.23" height="0.41" transform="translate(13.68 60.87) rotate(-45)"/><rect class="cls-21" x="82.59" y="12.79" width="0.23" height="0.41" transform="translate(14.14 61.06) rotate(-45)"/><rect class="cls-21" x="83.95" y="14.15" width="0.23" height="0.41" transform="translate(13.57 62.42) rotate(-45)"/><polygon class="cls-21" points="83.39 13.51 83.45 13.57 83.77 13.57 83.55 13.35 83.39 13.51"/><polygon class="cls-21" points="81.47 11.49 81.37 11.49 81.42 11.54 81.47 11.49"/><rect class="cls-21" x="83.5" y="13.69" width="0.23" height="0.41" transform="translate(13.76 61.96) rotate(-45)"/><rect class="cls-21" x="83.04" y="13.24" width="0.23" height="0.41" transform="translate(13.95 61.51) rotate(-45)"/><rect class="cls-21" x="83.5" y="12.79" width="0.23" height="0.41" transform="translate(14.4 61.7) rotate(-45)"/><polygon class="cls-21" points="82.37 11.49 82.28 11.49 82.32 11.54 82.37 11.49"/><rect class="cls-21" x="84.86" y="14.15" width="0.23" height="0.41" transform="translate(13.85 63.08) rotate(-45.02)"/><rect class="cls-21" x="83.95" y="13.24" width="0.23" height="0.41" transform="translate(14.2 62.14) rotate(-44.99)"/><rect class="cls-21" x="84.4" y="13.69" width="0.23" height="0.41" transform="translate(14.02 62.6) rotate(-45)"/><polygon class="cls-21" points="84.3 13.51 84.36 13.57 84.68 13.57 84.45 13.35 84.3 13.51"/><rect class="cls-21" x="85.76" y="14.15" width="0.23" height="0.41" transform="translate(14.1 63.69) rotate(-45)"/><rect class="cls-21" x="84.86" y="13.24" width="0.23" height="0.41" transform="translate(14.47 62.78) rotate(-44.99)"/><polygon class="cls-21" points="85.2 13.51 85.27 13.57 85.59 13.57 85.36 13.35 85.2 13.51"/><rect class="cls-21" x="84.4" y="12.79" width="0.23" height="0.41" transform="translate(14.67 62.35) rotate(-45.01)"/><rect class="cls-21" x="85.31" y="13.69" width="0.23" height="0.41" transform="translate(14.29 63.24) rotate(-45)"/><polygon class="cls-21" points="83.28 11.49 83.18 11.49 83.23 11.54 83.28 11.49"/><rect class="cls-21" x="85.31" y="12.79" width="0.23" height="0.41" transform="translate(14.94 62.99) rotate(-45.01)"/><polygon class="cls-21" points="86.11 13.51 86.17 13.57 86.49 13.57 86.27 13.35 86.11 13.51"/><polygon class="cls-21" points="84.18 11.49 84.09 11.49 84.14 11.54 84.18 11.49"/><rect class="cls-21" x="85.76" y="13.24" width="0.23" height="0.41" transform="translate(14.74 63.43) rotate(-45)"/><rect class="cls-21" x="86.67" y="14.15" width="0.23" height="0.41" transform="translate(14.38 64.36) rotate(-45.02)"/><rect class="cls-21" x="86.21" y="13.69" width="0.23" height="0.41" transform="translate(14.56 63.88) rotate(-45)"/><rect class="cls-21" x="86.67" y="13.24" width="0.23" height="0.41" transform="translate(15 64.06) rotate(-44.99)"/><rect class="cls-21" x="87.57" y="14.15" width="0.23" height="0.41" transform="translate(14.65 65) rotate(-45.02)"/><rect class="cls-21" x="86.21" y="12.79" width="0.23" height="0.41" transform="translate(15.2 63.62) rotate(-45)"/><polygon class="cls-21" points="87.01 13.51 87.08 13.57 87.4 13.57 87.17 13.35 87.01 13.51"/><polygon class="cls-21" points="85.09 11.49 85 11.49 85.04 11.54 85.09 11.49"/><rect class="cls-21" x="87.12" y="13.69" width="0.23" height="0.41" transform="translate(14.83 64.54) rotate(-45.01)"/><rect class="cls-21" x="87.12" y="12.79" width="0.23" height="0.41" transform="translate(15.47 64.27) rotate(-45.01)"/><rect class="cls-21" x="88.48" y="14.15" width="0.23" height="0.41" transform="translate(14.87 65.58) rotate(-44.97)"/><rect class="cls-21" x="88.03" y="13.69" width="0.23" height="0.41" transform="translate(15.09 65.17) rotate(-45)"/><polygon class="cls-21" points="85.99 11.49 85.9 11.49 85.95 11.54 85.99 11.49"/><polygon class="cls-21" points="87.92 13.51 87.98 13.57 88.3 13.57 88.08 13.35 87.92 13.51"/><rect class="cls-21" x="87.57" y="13.24" width="0.23" height="0.41" transform="translate(15.27 64.71) rotate(-45)"/><polygon class="cls-21" points="86.9 11.49 86.81 11.49 86.85 11.54 86.9 11.49"/><rect class="cls-21" x="88.03" y="12.79" width="0.23" height="0.41" transform="translate(15.73 64.91) rotate(-45.01)"/><rect class="cls-21" x="88.48" y="13.24" width="0.23" height="0.41" transform="translate(15.54 65.35) rotate(-45)"/><rect class="cls-21" x="89.38" y="14.15" width="0.23" height="0.41" transform="translate(15.16 66.26) rotate(-45)"/><path class="cls-21" d="M89.72,14.74l0,0a.76.76,0,0,0,.25-.06l-.13-.13Z" transform="translate(-0.9 -1.23)"/><rect class="cls-21" x="88.93" y="13.69" width="0.23" height="0.41" transform="translate(15.35 65.81) rotate(-45)"/><polygon class="cls-21" points="87.81 11.49 87.71 11.49 87.76 11.54 87.81 11.49"/><path class="cls-21" d="M90.18,14.29l.17.17a1.27,1.27,0,0,0,.13-.19l-.14-.14Z" transform="translate(-0.9 -1.23)"/><rect class="cls-21" x="88.93" y="12.79" width="0.23" height="0.41" transform="translate(15.98 65.53) rotate(-44.99)"/><rect class="cls-21" x="89.38" y="13.24" width="0.23" height="0.41" transform="translate(15.81 66) rotate(-45.01)"/><rect class="cls-21" x="89.84" y="13.69" width="0.23" height="0.41" transform="translate(15.61 66.43) rotate(-44.99)"/><path class="cls-21" d="M90.18,13.38l.29.29.12-.11s0-.08,0-.11l-.23-.23Z" transform="translate(-0.9 -1.23)"/><path class="cls-21" d="M90,13.22l.16-.16-.28-.27h0l-.15.15Z" transform="translate(-0.9 -1.23)"/><path class="cls-21" d="M89.61,12.73h-.09l0,0Z" transform="translate(-0.9 -1.23)"/><path class="cls-22" d="M71.61,12.93l-.06-.06a1,1,0,0,0-.31.27l.08.08Z" transform="translate(-0.9 -1.23)"/><path class="cls-22" d="M71.11,13.34a.5.5,0,0,0,0,.13l.09-.09Z" transform="translate(-0.9 -1.23)"/><path class="cls-22" d="M71.32,13.22l-.08-.08a.86.86,0,0,0-.13.2l0,0Z" transform="translate(-0.9 -1.23)"/><path class="cls-22" d="M71.75,12.78l-.2.09.06.06Z" transform="translate(-0.9 -1.23)"/><polygon class="cls-22" points="71.82 11.49 71.73 11.49 71.77 11.54 71.82 11.49"/><rect class="cls-22" x="71.63" y="13.34" width="0.41" height="0.23" transform="translate(10.63 53.5) rotate(-45)"/><rect class="cls-22" x="72.08" y="12.88" width="0.41" height="0.23" transform="translate(11.08 53.69) rotate(-45)"/><rect class="cls-22" x="71.17" y="13.79" width="0.41" height="0.23" transform="translate(10.18 53.32) rotate(-45)"/><path class="cls-22" d="M71.16,14l-.09.08a.67.67,0,0,0,.1.23l.15-.15Z" transform="translate(-0.9 -1.23)"/><rect class="cls-22" x="71.5" y="13.56" width="0.23" height="0.23" transform="translate(10.4 53.41) rotate(-45)"/><rect class="cls-22" x="71.95" y="13.11" width="0.23" height="0.23" transform="translate(10.87 53.61) rotate(-45.02)"/><polygon class="cls-22" points="71.61 11.7 71.77 11.54 71.73 11.49 71.5 11.49 71.45 11.54 71.61 11.7"/><rect class="cls-22" x="72.53" y="13.34" width="0.41" height="0.23" transform="translate(10.88 54.13) rotate(-44.98)"/><rect class="cls-22" x="72.08" y="13.79" width="0.41" height="0.23" transform="translate(10.44 53.95) rotate(-44.99)"/><polygon class="cls-22" points="72.73 11.49 72.63 11.49 72.68 11.54 72.73 11.49"/><rect class="cls-22" x="72.99" y="12.88" width="0.41" height="0.23" transform="translate(11.34 54.31) rotate(-44.98)"/><rect class="cls-22" x="71.63" y="14.24" width="0.41" height="0.23" transform="translate(9.98 53.75) rotate(-44.98)"/><path class="cls-22" d="M71.45,14.58h0l0,0Z" transform="translate(-0.9 -1.23)"/><path class="cls-22" d="M71.61,14.42l-.16.16,0,0a1.4,1.4,0,0,0,.16.1l.14-.13Z" transform="translate(-0.9 -1.23)"/><rect class="cls-22" x="71.95" y="14.01" width="0.23" height="0.23" transform="translate(10.23 53.88) rotate(-45.02)"/><rect class="cls-22" x="72.4" y="13.56" width="0.23" height="0.23" transform="translate(10.67 54.05) rotate(-45)"/><rect class="cls-22" x="72.85" y="13.11" width="0.23" height="0.23" transform="translate(11.12 54.24) rotate(-45)"/><polygon class="cls-22" points="72.52 11.7 72.68 11.54 72.63 11.49 72.41 11.49 72.36 11.54 72.52 11.7"/><rect class="cls-22" x="73.44" y="13.34" width="0.41" height="0.23" transform="translate(11.17 54.8) rotate(-45.02)"/><rect class="cls-22" x="73.89" y="12.88" width="0.41" height="0.23" transform="translate(11.61 54.97) rotate(-45)"/><rect class="cls-22" x="72.53" y="14.24" width="0.41" height="0.23" transform="translate(10.26 54.41) rotate(-45)"/><polygon class="cls-22" points="71.45 13.35 71.23 13.57 71.55 13.57 71.61 13.51 71.45 13.35"/><polygon class="cls-22" points="73.63 11.49 73.54 11.49 73.59 11.54 73.63 11.49"/><rect class="cls-22" x="72.99" y="13.79" width="0.41" height="0.23" transform="translate(10.71 54.6) rotate(-45)"/><rect class="cls-22" x="72.4" y="14.47" width="0.23" height="0.23" transform="translate(10.03 54.32) rotate(-45)"/><rect class="cls-22" x="72.85" y="14.01" width="0.23" height="0.23" transform="translate(10.49 54.52) rotate(-45.02)"/><rect class="cls-22" x="73.31" y="13.56" width="0.23" height="0.23" transform="translate(10.94 54.69) rotate(-45)"/><rect class="cls-22" x="73.76" y="13.11" width="0.23" height="0.23" transform="translate(11.4 54.9) rotate(-45.02)"/><polygon class="cls-22" points="73.43 11.7 73.59 11.54 73.54 11.49 73.31 11.49 73.27 11.54 73.43 11.7"/><polygon class="cls-22" points="74.54 11.49 74.44 11.49 74.49 11.54 74.54 11.49"/><rect class="cls-22" x="73.44" y="14.24" width="0.41" height="0.23" transform="translate(10.53 55.07) rotate(-45.02)"/><rect class="cls-22" x="73.89" y="13.79" width="0.41" height="0.23" transform="translate(10.97 55.24) rotate(-45)"/><polygon class="cls-22" points="72.36 13.35 72.14 13.57 72.45 13.57 72.52 13.51 72.36 13.35"/><rect class="cls-22" x="74.8" y="12.88" width="0.41" height="0.23" transform="translate(11.88 55.61) rotate(-45)"/><rect class="cls-22" x="74.34" y="13.34" width="0.41" height="0.23" transform="translate(11.41 55.41) rotate(-44.98)"/><rect class="cls-22" x="73.31" y="14.47" width="0.23" height="0.23" transform="translate(10.29 54.94) rotate(-44.99)"/><rect class="cls-22" x="73.76" y="14.01" width="0.23" height="0.23" transform="translate(10.75 55.14) rotate(-45)"/><rect class="cls-22" x="74.21" y="13.56" width="0.23" height="0.23" transform="translate(11.2 55.33) rotate(-45)"/><rect class="cls-22" x="74.67" y="13.11" width="0.23" height="0.23" transform="translate(11.65 55.52) rotate(-45)"/><polygon class="cls-22" points="74.33 11.7 74.49 11.54 74.44 11.49 74.22 11.49 74.17 11.54 74.33 11.7"/><polygon class="cls-22" points="75.44 11.49 75.35 11.49 75.4 11.54 75.44 11.49"/><rect class="cls-22" x="74.8" y="13.79" width="0.41" height="0.23" transform="translate(11.24 55.88) rotate(-45)"/><rect class="cls-22" x="74.34" y="14.24" width="0.41" height="0.23" transform="translate(10.8 55.71) rotate(-45.02)"/><polygon class="cls-22" points="73.27 13.35 73.04 13.57 73.36 13.57 73.43 13.51 73.27 13.35"/><rect class="cls-22" x="75.25" y="13.34" width="0.41" height="0.23" transform="translate(11.69 56.07) rotate(-45)"/><rect class="cls-22" x="75.7" y="12.88" width="0.41" height="0.23" transform="translate(12.14 56.25) rotate(-45)"/><rect class="cls-22" x="74.21" y="14.47" width="0.23" height="0.23" transform="translate(10.56 55.6) rotate(-45)"/><rect class="cls-22" x="74.67" y="14.01" width="0.23" height="0.23" transform="translate(11.02 55.8) rotate(-45.02)"/><rect class="cls-22" x="75.12" y="13.56" width="0.23" height="0.23" transform="translate(11.47 55.97) rotate(-45)"/><rect class="cls-22" x="75.57" y="13.11" width="0.23" height="0.23" transform="translate(11.91 56.14) rotate(-44.98)"/><polygon class="cls-22" points="75.24 11.7 75.4 11.54 75.35 11.49 75.12 11.49 75.08 11.54 75.24 11.7"/><polygon class="cls-22" points="74.17 13.35 73.95 13.57 74.27 13.57 74.33 13.51 74.17 13.35"/><rect class="cls-22" x="75.25" y="14.24" width="0.41" height="0.23" transform="translate(11.05 56.33) rotate(-45)"/><polygon class="cls-22" points="76.35 11.49 76.26 11.49 76.3 11.54 76.35 11.49"/><rect class="cls-22" x="76.16" y="13.34" width="0.41" height="0.23" transform="translate(11.94 56.69) rotate(-44.98)"/><rect class="cls-22" x="75.7" y="13.79" width="0.41" height="0.23" transform="translate(11.5 56.52) rotate(-45)"/><rect class="cls-22" x="76.61" y="12.88" width="0.41" height="0.23" transform="translate(12.41 56.89) rotate(-45)"/><rect class="cls-22" x="75.12" y="14.47" width="0.23" height="0.23" transform="translate(10.83 56.24) rotate(-45)"/><rect class="cls-22" x="75.57" y="14.01" width="0.23" height="0.23" transform="translate(11.29 56.44) rotate(-45.02)"/><rect class="cls-22" x="76.02" y="13.56" width="0.23" height="0.23" transform="translate(11.74 56.63) rotate(-45.02)"/><rect class="cls-22" x="76.48" y="13.11" width="0.23" height="0.23" transform="translate(12.18 56.8) rotate(-45)"/><polygon class="cls-22" points="76.14 11.7 76.3 11.54 76.26 11.49 76.03 11.49 75.98 11.54 76.14 11.7"/><polygon class="cls-22" points="77.25 11.49 77.16 11.49 77.21 11.54 77.25 11.49"/><rect class="cls-22" x="77.06" y="13.34" width="0.41" height="0.23" transform="translate(12.22 57.35) rotate(-45)"/><rect class="cls-22" x="76.16" y="14.24" width="0.41" height="0.23" transform="translate(11.33 56.99) rotate(-45.02)"/><rect class="cls-22" x="77.52" y="12.88" width="0.41" height="0.23" transform="translate(12.66 57.52) rotate(-44.98)"/><polygon class="cls-22" points="75.08 13.35 74.85 13.57 75.17 13.57 75.24 13.51 75.08 13.35"/><rect class="cls-22" x="76.61" y="13.79" width="0.41" height="0.23" transform="translate(11.76 57.15) rotate(-44.99)"/><rect class="cls-22" x="76.02" y="14.47" width="0.23" height="0.23" transform="translate(11.09 56.88) rotate(-45)"/><rect class="cls-22" x="76.48" y="14.01" width="0.23" height="0.23" transform="translate(11.56 57.08) rotate(-45.02)"/><rect class="cls-22" x="76.93" y="13.56" width="0.23" height="0.23" transform="translate(12 57.25) rotate(-45)"/><rect class="cls-22" x="77.38" y="13.11" width="0.23" height="0.23" transform="translate(12.46 57.46) rotate(-45.02)"/><polygon class="cls-22" points="77.05 11.7 77.21 11.54 77.16 11.49 76.94 11.49 76.89 11.54 77.05 11.7"/><polygon class="cls-22" points="78.16 11.49 78.07 11.49 78.11 11.54 78.16 11.49"/><rect class="cls-22" x="77.52" y="13.79" width="0.41" height="0.23" transform="translate(12.04 57.8) rotate(-45)"/><rect class="cls-22" x="78.42" y="12.88" width="0.41" height="0.23" transform="translate(12.94 58.17) rotate(-45)"/><rect class="cls-22" x="77.97" y="13.34" width="0.41" height="0.23" transform="translate(12.5 58.01) rotate(-45.02)"/><rect class="cls-22" x="77.06" y="14.24" width="0.41" height="0.23" transform="translate(11.58 57.61) rotate(-45)"/><polygon class="cls-22" points="75.98 13.35 75.76 13.57 76.08 13.57 76.14 13.51 75.98 13.35"/><rect class="cls-22" x="76.93" y="14.47" width="0.23" height="0.23" transform="translate(11.36 57.52) rotate(-45)"/><rect class="cls-22" x="77.38" y="14.01" width="0.23" height="0.23" transform="translate(11.81 57.71) rotate(-45)"/><rect class="cls-22" x="77.84" y="13.56" width="0.23" height="0.23" transform="translate(12.27 57.91) rotate(-45.02)"/><rect class="cls-22" x="78.29" y="13.11" width="0.23" height="0.23" transform="translate(12.7 58.06) rotate(-44.98)"/><polygon class="cls-22" points="77.95 11.7 78.11 11.54 78.07 11.49 77.84 11.49 77.8 11.54 77.95 11.7"/><polygon class="cls-22" points="76.89 13.35 76.67 13.57 76.98 13.57 77.05 13.51 76.89 13.35"/><rect class="cls-22" x="77.97" y="14.24" width="0.41" height="0.23" transform="translate(11.86 58.27) rotate(-45.02)"/><rect class="cls-22" x="78.87" y="13.34" width="0.41" height="0.23" transform="translate(12.74 58.61) rotate(-44.98)"/><rect class="cls-22" x="79.33" y="12.88" width="0.41" height="0.23" transform="translate(13.19 58.8) rotate(-44.98)"/><rect class="cls-22" x="78.42" y="13.79" width="0.41" height="0.23" transform="translate(12.3 58.44) rotate(-45)"/><polygon class="cls-22" points="79.07 11.49 78.97 11.49 79.02 11.54 79.07 11.49"/><rect class="cls-22" x="77.84" y="14.47" width="0.23" height="0.23" transform="translate(11.61 58.14) rotate(-44.99)"/><rect class="cls-22" x="78.29" y="14.01" width="0.23" height="0.23" transform="translate(12.07 58.35) rotate(-45)"/><rect class="cls-22" x="78.74" y="13.56" width="0.23" height="0.23" transform="translate(12.53 58.53) rotate(-45)"/><rect class="cls-22" x="79.19" y="13.11" width="0.23" height="0.23" transform="translate(12.98 58.72) rotate(-45)"/><polygon class="cls-22" points="78.86 11.7 79.02 11.54 78.97 11.49 78.75 11.49 78.7 11.54 78.86 11.7"/><polygon class="cls-22" points="77.8 13.35 77.57 13.57 77.89 13.57 77.95 13.51 77.8 13.35"/><rect class="cls-22" x="78.87" y="14.24" width="0.41" height="0.23" transform="translate(12.11 58.89) rotate(-45)"/><rect class="cls-22" x="79.33" y="13.79" width="0.41" height="0.23" transform="translate(12.57 59.08) rotate(-45)"/><rect class="cls-22" x="79.78" y="13.34" width="0.41" height="0.23" transform="translate(13.01 59.25) rotate(-44.98)"/><rect class="cls-22" x="80.23" y="12.88" width="0.41" height="0.23" transform="translate(13.47 59.46) rotate(-45)"/><polygon class="cls-22" points="79.97 11.49 79.88 11.49 79.93 11.54 79.97 11.49"/><rect class="cls-22" x="78.74" y="14.47" width="0.23" height="0.23" transform="translate(11.89 58.8) rotate(-45)"/><rect class="cls-22" x="79.19" y="14.01" width="0.23" height="0.23" transform="translate(12.35 59.01) rotate(-45.02)"/><rect class="cls-22" x="79.65" y="13.56" width="0.23" height="0.23" transform="translate(12.81 59.19) rotate(-45.02)"/><rect class="cls-22" x="80.1" y="13.11" width="0.23" height="0.23" transform="translate(13.23 59.34) rotate(-44.98)"/><polygon class="cls-22" points="79.77 11.7 79.93 11.54 79.88 11.49 79.65 11.49 79.61 11.54 79.77 11.7"/><polygon class="cls-22" points="78.7 13.35 78.48 13.57 78.8 13.57 78.86 13.51 78.7 13.35"/><polygon class="cls-22" points="80.88 11.49 80.79 11.49 80.83 11.54 80.88 11.49"/><rect class="cls-22" x="80.23" y="13.79" width="0.41" height="0.23" transform="translate(12.83 59.72) rotate(-45)"/><rect class="cls-22" x="80.69" y="13.34" width="0.41" height="0.23" transform="translate(13.28 59.91) rotate(-45)"/><rect class="cls-22" x="79.78" y="14.24" width="0.41" height="0.23" transform="translate(12.39 59.55) rotate(-45.02)"/><rect class="cls-22" x="81.14" y="12.88" width="0.41" height="0.23" transform="translate(13.74 60.1) rotate(-45)"/><rect class="cls-22" x="79.65" y="14.47" width="0.23" height="0.23" transform="translate(12.14 59.42) rotate(-44.98)"/><rect class="cls-22" x="80.1" y="14.01" width="0.23" height="0.23" transform="translate(12.62 59.65) rotate(-45.02)"/><rect class="cls-22" x="80.55" y="13.56" width="0.23" height="0.23" transform="translate(13.06 59.81) rotate(-45)"/><rect class="cls-22" x="81.01" y="13.11" width="0.23" height="0.23" transform="translate(13.52 60.02) rotate(-45.02)"/><polygon class="cls-22" points="80.67 11.7 80.83 11.54 80.79 11.49 80.56 11.49 80.51 11.54 80.67 11.7"/><rect class="cls-22" x="80.69" y="14.24" width="0.41" height="0.23" transform="translate(12.66 60.19) rotate(-45.02)"/><rect class="cls-22" x="81.14" y="13.79" width="0.41" height="0.23" transform="translate(13.1 60.36) rotate(-45)"/><rect class="cls-22" x="81.59" y="13.34" width="0.41" height="0.23" transform="translate(13.55 60.55) rotate(-45)"/><polygon class="cls-22" points="79.61 13.35 79.38 13.57 79.7 13.57 79.77 13.51 79.61 13.35"/><polygon class="cls-22" points="81.78 11.49 81.69 11.49 81.74 11.54 81.78 11.49"/><rect class="cls-22" x="82.04" y="12.88" width="0.41" height="0.23" transform="translate(13.99 60.72) rotate(-44.98)"/><rect class="cls-22" x="80.55" y="14.47" width="0.23" height="0.23" transform="translate(12.42 60.08) rotate(-45)"/><rect class="cls-22" x="81.01" y="14.01" width="0.23" height="0.23" transform="translate(12.88 60.29) rotate(-45.02)"/><rect class="cls-22" x="81.46" y="13.56" width="0.23" height="0.23" transform="translate(13.32 60.46) rotate(-45)"/><rect class="cls-22" x="81.91" y="13.11" width="0.23" height="0.23" transform="translate(13.79 60.66) rotate(-45.02)"/><polygon class="cls-22" points="81.58 11.7 81.74 11.54 81.69 11.49 81.47 11.49 81.42 11.54 81.58 11.7"/><rect class="cls-22" x="82.04" y="13.79" width="0.41" height="0.23" transform="translate(13.36 61) rotate(-45)"/><polygon class="cls-22" points="80.51 13.35 80.29 13.57 80.61 13.57 80.67 13.51 80.51 13.35"/><rect class="cls-22" x="81.59" y="14.24" width="0.41" height="0.23" transform="translate(12.91 60.81) rotate(-45)"/><rect class="cls-22" x="82.95" y="12.88" width="0.41" height="0.23" transform="translate(14.27 61.38) rotate(-45)"/><rect class="cls-22" x="82.5" y="13.34" width="0.41" height="0.23" transform="translate(13.83 61.21) rotate(-45.02)"/><polygon class="cls-22" points="82.69 11.49 82.6 11.49 82.64 11.54 82.69 11.49"/><rect class="cls-22" x="81.46" y="14.47" width="0.23" height="0.23" transform="translate(12.68 60.72) rotate(-45)"/><rect class="cls-22" x="81.91" y="14.01" width="0.23" height="0.23" transform="translate(13.14 60.91) rotate(-45)"/><rect class="cls-22" x="82.37" y="13.56" width="0.23" height="0.23" transform="translate(13.6 61.11) rotate(-45.02)"/><rect class="cls-22" x="82.82" y="13.11" width="0.23" height="0.23" transform="translate(14.04 61.28) rotate(-45)"/><polygon class="cls-22" points="82.48 11.7 82.64 11.54 82.6 11.49 82.37 11.49 82.32 11.54 82.48 11.7"/><rect class="cls-22" x="83.4" y="13.34" width="0.41" height="0.23" transform="translate(14.08 61.83) rotate(-45)"/><polygon class="cls-22" points="83.6 11.49 83.5 11.49 83.55 11.54 83.6 11.49"/><polygon class="cls-22" points="81.42 13.35 81.19 13.57 81.51 13.57 81.58 13.51 81.42 13.35"/><rect class="cls-22" x="83.86" y="12.88" width="0.41" height="0.23" transform="translate(14.55 62.04) rotate(-45.02)"/><rect class="cls-22" x="82.5" y="14.24" width="0.41" height="0.23" transform="translate(13.19 61.47) rotate(-45.02)"/><rect class="cls-22" x="82.95" y="13.79" width="0.41" height="0.23" transform="translate(13.63 61.64) rotate(-45)"/><rect class="cls-22" x="82.36" y="14.47" width="0.23" height="0.23" transform="translate(12.94 61.35) rotate(-44.99)"/><rect class="cls-22" x="82.82" y="14.01" width="0.23" height="0.23" transform="translate(13.4 61.55) rotate(-45)"/><rect class="cls-22" x="83.27" y="13.56" width="0.23" height="0.23" transform="translate(13.85 61.74) rotate(-45)"/><rect class="cls-22" x="83.72" y="13.11" width="0.23" height="0.23" transform="translate(14.31 61.92) rotate(-45)"/><polygon class="cls-22" points="83.39 11.7 83.55 11.54 83.5 11.49 83.28 11.49 83.23 11.54 83.39 11.7"/><polygon class="cls-22" points="82.32 13.35 82.1 13.57 82.42 13.57 82.48 13.51 82.32 13.35"/><rect class="cls-22" x="84.31" y="13.34" width="0.41" height="0.23" transform="translate(14.35 62.47) rotate(-45)"/><rect class="cls-22" x="83.86" y="13.79" width="0.41" height="0.23" transform="translate(13.89 62.28) rotate(-45)"/><polygon class="cls-22" points="84.5 11.49 84.41 11.49 84.45 11.54 84.5 11.49"/><rect class="cls-22" x="84.76" y="12.88" width="0.41" height="0.23" transform="translate(14.8 62.66) rotate(-45)"/><rect class="cls-22" x="83.4" y="14.24" width="0.41" height="0.23" transform="translate(13.44 62.1) rotate(-45)"/><rect class="cls-22" x="83.27" y="14.47" width="0.23" height="0.23" transform="translate(13.22 62.01) rotate(-45)"/><rect class="cls-22" x="83.72" y="14.01" width="0.23" height="0.23" transform="translate(13.67 62.19) rotate(-45)"/><rect class="cls-22" x="84.18" y="13.56" width="0.23" height="0.23" transform="translate(14.13 62.4) rotate(-45.02)"/><rect class="cls-22" x="84.63" y="13.11" width="0.23" height="0.23" transform="translate(14.59 62.58) rotate(-45.02)"/><polygon class="cls-22" points="84.3 11.7 84.45 11.54 84.41 11.49 84.18 11.49 84.14 11.54 84.3 11.7"/><rect class="cls-22" x="84.31" y="14.24" width="0.41" height="0.23" transform="translate(13.69 62.72) rotate(-44.98)"/><polygon class="cls-22" points="85.41 11.49 85.31 11.49 85.36 11.54 85.41 11.49"/><rect class="cls-22" x="85.21" y="13.34" width="0.41" height="0.23" transform="translate(14.62 63.13) rotate(-45.02)"/><polygon class="cls-22" points="83.23 13.35 83.01 13.57 83.33 13.57 83.39 13.51 83.23 13.35"/><rect class="cls-22" x="85.67" y="12.88" width="0.41" height="0.23" transform="translate(15.05 63.28) rotate(-44.98)"/><rect class="cls-22" x="84.76" y="13.79" width="0.41" height="0.23" transform="translate(14.16 62.92) rotate(-45)"/><rect class="cls-22" x="84.18" y="14.47" width="0.23" height="0.23" transform="translate(13.49 62.66) rotate(-45.02)"/><rect class="cls-22" x="84.63" y="14.01" width="0.23" height="0.23" transform="translate(13.93 62.83) rotate(-45)"/><rect class="cls-22" x="85.08" y="13.56" width="0.23" height="0.23" transform="translate(14.38 63.02) rotate(-45)"/><rect class="cls-22" x="85.54" y="13.11" width="0.23" height="0.23" transform="translate(14.84 63.2) rotate(-45)"/><polygon class="cls-22" points="85.2 11.7 85.36 11.54 85.31 11.49 85.09 11.49 85.04 11.54 85.2 11.7"/><polygon class="cls-22" points="84.14 13.35 83.91 13.57 84.23 13.57 84.3 13.51 84.14 13.35"/><polygon class="cls-22" points="86.31 11.49 86.22 11.49 86.27 11.54 86.31 11.49"/><rect class="cls-22" x="85.21" y="14.24" width="0.41" height="0.23" transform="translate(13.97 63.38) rotate(-45)"/><rect class="cls-22" x="85.67" y="13.79" width="0.41" height="0.23" transform="translate(14.43 63.57) rotate(-45.01)"/><rect class="cls-22" x="86.12" y="13.34" width="0.41" height="0.23" transform="translate(14.88 63.75) rotate(-45)"/><rect class="cls-22" x="86.57" y="12.88" width="0.41" height="0.23" transform="translate(15.33 63.94) rotate(-45)"/><rect class="cls-22" x="85.08" y="14.47" width="0.23" height="0.23" transform="translate(13.75 63.29) rotate(-45)"/><rect class="cls-22" x="85.54" y="14.01" width="0.23" height="0.23" transform="translate(14.2 63.47) rotate(-45)"/><rect class="cls-22" x="85.99" y="13.56" width="0.23" height="0.23" transform="translate(14.65 63.66) rotate(-45)"/><rect class="cls-22" x="86.44" y="13.11" width="0.23" height="0.23" transform="translate(15.12 63.87) rotate(-45.02)"/><polygon class="cls-22" points="86.11 11.7 86.27 11.54 86.22 11.49 85.99 11.49 85.95 11.54 86.11 11.7"/><rect class="cls-22" x="87.48" y="12.88" width="0.41" height="0.23" transform="translate(15.59 64.58) rotate(-45)"/><polygon class="cls-22" points="85.04 13.35 84.82 13.57 85.14 13.57 85.2 13.51 85.04 13.35"/><polygon class="cls-22" points="87.22 11.49 87.13 11.49 87.17 11.54 87.22 11.49"/><rect class="cls-22" x="87.03" y="13.34" width="0.41" height="0.23" transform="translate(15.13 64.37) rotate(-44.98)"/><rect class="cls-22" x="86.57" y="13.79" width="0.41" height="0.23" transform="translate(14.69 64.2) rotate(-45)"/><rect class="cls-22" x="86.12" y="14.24" width="0.41" height="0.23" transform="translate(14.25 64.04) rotate(-45.02)"/><rect class="cls-22" x="85.99" y="14.47" width="0.23" height="0.23" transform="translate(14 63.91) rotate(-44.99)"/><rect class="cls-22" x="86.44" y="14.01" width="0.23" height="0.23" transform="translate(14.46 64.11) rotate(-45)"/><rect class="cls-22" x="86.89" y="13.56" width="0.23" height="0.23" transform="translate(14.91 64.3) rotate(-45)"/><rect class="cls-22" x="87.35" y="13.11" width="0.23" height="0.23" transform="translate(15.35 64.47) rotate(-44.98)"/><polygon class="cls-22" points="87.01 11.7 87.17 11.54 87.13 11.49 86.9 11.49 86.85 11.54 87.01 11.7"/><rect class="cls-22" x="88.39" y="12.88" width="0.41" height="0.23" transform="translate(15.87 65.24) rotate(-45.02)"/><rect class="cls-22" x="87.93" y="13.34" width="0.41" height="0.23" transform="translate(15.41 65.03) rotate(-45)"/><rect class="cls-22" x="87.03" y="14.24" width="0.41" height="0.23" transform="translate(14.5 64.66) rotate(-45)"/><polygon class="cls-22" points="85.95 13.35 85.72 13.57 86.04 13.57 86.11 13.51 85.95 13.35"/><polygon class="cls-22" points="88.13 11.49 88.03 11.49 88.08 11.54 88.13 11.49"/><rect class="cls-22" x="87.48" y="13.79" width="0.41" height="0.23" transform="translate(14.95 64.84) rotate(-45)"/><rect class="cls-22" x="86.89" y="14.47" width="0.23" height="0.23" transform="translate(14.27 64.56) rotate(-45)"/><rect class="cls-22" x="87.35" y="14.01" width="0.23" height="0.23" transform="translate(14.74 64.77) rotate(-45.02)"/><rect class="cls-22" x="87.8" y="13.56" width="0.23" height="0.23" transform="translate(15.19 64.96) rotate(-45.02)"/><rect class="cls-22" x="88.25" y="13.11" width="0.23" height="0.23" transform="translate(15.63 65.13) rotate(-45)"/><polygon class="cls-22" points="87.92 11.7 88.08 11.54 88.03 11.49 87.81 11.49 87.76 11.54 87.92 11.7"/><polygon class="cls-22" points="86.85 13.35 86.63 13.57 86.95 13.57 87.01 13.51 86.85 13.35"/><rect class="cls-22" x="87.93" y="14.24" width="0.41" height="0.23" transform="translate(14.75 65.28) rotate(-44.98)"/><rect class="cls-22" x="89.29" y="12.88" width="0.41" height="0.23" transform="translate(16.13 65.86) rotate(-45)"/><rect class="cls-22" x="88.39" y="13.79" width="0.41" height="0.23" transform="translate(15.22 65.49) rotate(-45)"/><rect class="cls-22" x="88.84" y="13.34" width="0.41" height="0.23" transform="translate(15.67 65.67) rotate(-45)"/><rect class="cls-22" x="87.8" y="14.47" width="0.23" height="0.23" transform="translate(14.54 65.2) rotate(-45)"/><rect class="cls-22" x="88.25" y="14.01" width="0.23" height="0.23" transform="translate(15.01 65.41) rotate(-45.02)"/><rect class="cls-22" x="88.71" y="13.56" width="0.23" height="0.23" transform="translate(15.45 65.58) rotate(-45)"/><rect class="cls-22" x="89.16" y="13.11" width="0.23" height="0.23" transform="translate(15.9 65.77) rotate(-45)"/><path class="cls-22" d="M89.72,12.93l.15-.15a.75.75,0,0,0-.26,0l0,0Z" transform="translate(-0.9 -1.23)"/><path class="cls-22" d="M90.34,13.22l.07-.07L90.26,13l-.08.08Z" transform="translate(-0.9 -1.23)"/><rect class="cls-22" x="89.74" y="13.33" width="0.41" height="0.23" transform="translate(15.94 66.31) rotate(-45)"/><rect class="cls-22" x="89.29" y="13.79" width="0.41" height="0.23" transform="translate(15.48 66.13) rotate(-45)"/><rect class="cls-22" x="88.84" y="14.24" width="0.41" height="0.23" transform="translate(15.03 65.94) rotate(-45)"/><polygon class="cls-22" points="87.76 13.35 87.53 13.57 87.85 13.57 87.92 13.51 87.76 13.35"/><rect class="cls-22" x="88.71" y="14.47" width="0.23" height="0.23" transform="translate(14.8 65.84) rotate(-45)"/><rect class="cls-22" x="89.16" y="14.01" width="0.23" height="0.23" transform="translate(15.24 66.01) rotate(-44.98)"/><rect class="cls-22" x="89.61" y="13.56" width="0.23" height="0.23" transform="translate(15.71 66.22) rotate(-45)"/><rect class="cls-22" x="90.06" y="13.11" width="0.23" height="0.23" transform="translate(16.16 66.41) rotate(-45)"/><path class="cls-22" d="M90.18,14l.16.16.27-.28v0l-.15-.15Z" transform="translate(-0.9 -1.23)"/><rect class="cls-22" x="89.74" y="14.24" width="0.41" height="0.23" transform="translate(15.29 66.57) rotate(-45)"/><path class="cls-22" d="M89.56,14.58l-.22.23h.25l.09,0,0,0Z" transform="translate(-0.9 -1.23)"/><rect class="cls-22" x="89.61" y="14.47" width="0.23" height="0.23" transform="translate(15.06 66.46) rotate(-44.98)"/><rect class="cls-22" x="90.06" y="14.01" width="0.23" height="0.23" transform="translate(15.51 66.65) rotate(-44.98)"/><path class="cls-22" d="M90.62,13.82s0,0,0-.06a1.42,1.42,0,0,0,0-.2l-.12.11Z" transform="translate(-0.9 -1.23)"/><path class="cls-20" d="M99.48,12.62a2.25,2.25,0,0,1,.21,1A2.39,2.39,0,0,1,97.31,16l-.19,0a2,2,0,0,0,.55.08,2.19,2.19,0,0,0,2.19-2.19A2.15,2.15,0,0,0,99.48,12.62Z" transform="translate(-0.9 -1.23)"/><path class="cls-23" d="M99,13.69a1.41,1.41,0,1,1-1.41-1.41A1.41,1.41,0,0,1,99,13.69Z" transform="translate(-0.9 -1.23)"/><path class="cls-24" d="M98.16,12.69c-.74.06-1.1.74-.37,1.81C98.56,14.43,98.89,13.72,98.16,12.69Z" transform="translate(-0.9 -1.23)"/><path class="cls-25" d="M97.2,12.64a1.1,1.1,0,0,0-.15,2C96.89,13.93,97.56,13.2,97.2,12.64Z" transform="translate(-0.9 -1.23)"/><path class="cls-26" d="M156.92,288.71h2.55V286.8h-2.55Zm0-256.9v1.91h2.55V31.81Z" transform="translate(-0.9 -1.23)"/><path class="cls-27" d="M4.51,286.8H2v1.91H4.51ZM2,31.81v1.91H4.51V31.81Z" transform="translate(-0.9 -1.23)"/><path class="cls-28" d="M160.35,74.85c-.32.32-.32,1.31-.32,3.15v31.53c0,.61,0,1.29.28,1.38.14-.11.15-.45.15-.84V76.13A3.54,3.54,0,0,0,160.35,74.85Z" transform="translate(-0.9 -1.23)"/><path class="cls-29" d="M160,109.53V78c0-1.84,0-2.83.32-3.15l-.93-.58a6,6,0,0,0-.44,2.78V108.7c0,1.45.09,2.39.37,2.59l1-.38C160,110.82,160,110.14,160,109.53Z" transform="translate(-0.9 -1.23)"/><path class="cls-30" d="M1.08,67.08c.33.32.33,1.31.33,3.15V88.29c0,.6,0,1.29-.29,1.38C1,89.56,1,89.22,1,88.83V68.36A3.54,3.54,0,0,1,1.08,67.08Z" transform="translate(-0.9 -1.23)"/><path class="cls-31" d="M1.41,88.29V70.23c0-1.84,0-2.83-.33-3.15L2,66.5a6,6,0,0,1,.44,2.78V87.46c0,1.45-.09,2.38-.37,2.59l-1-.38C1.43,89.58,1.41,88.89,1.41,88.29Z" transform="translate(-0.9 -1.23)"/><path class="cls-32" d="M1.08,96.16c.33.31.33,1.3.33,3.15v18c0,.61,0,1.29-.29,1.38-.13-.11-.15-.45-.15-.84V97.43A3.48,3.48,0,0,1,1.08,96.16Z" transform="translate(-0.9 -1.23)"/><path class="cls-33" d="M1.41,117.36v-18c0-1.85,0-2.84-.33-3.15L2,95.58a6,6,0,0,1,.44,2.77v18.19c0,1.44-.09,2.38-.37,2.58l-1-.38C1.43,118.65,1.41,118,1.41,117.36Z" transform="translate(-0.9 -1.23)"/><polygon class="cls-34" points="0 43.18 0 54.58 0.28 54.87 0.28 42.9 0 43.18"/><path class="cls-35" d="M2,44.13H1.18v12l0,0h.86c.14-.14.15-.35.15-.66V44.78C2.21,44.43,2.17,44.21,2,44.13Z" transform="translate(-0.9 -1.23)"/><path d="M85.68,318.65H73.8a6.39,6.39,0,0,0-3.45.93H89.13A6.39,6.39,0,0,0,85.68,318.65Z" transform="translate(-0.9 -1.23)"/><path class="cls-36" d="M85.32,318.83H74.17a6.81,6.81,0,0,0-3.24.75H88.55A6.75,6.75,0,0,0,85.32,318.83Z" transform="translate(-0.9 -1.23)"/></svg>