<?xml version="1.0" encoding="utf-8"?>
<!-- Generator: Adobe Illustrator 25.0.1, SVG Export Plug-In . SVG Version: 6.00 Build 0)  -->
<svg version="1.1" id="Calque_1" xmlns="http://www.w3.org/2000/svg" xmlns:xlink="http://www.w3.org/1999/xlink" x="0px" y="0px"
	 viewBox="0 0 25 15" style="enable-background:new 0 0 25 15;" xml:space="preserve">
<g>
	<path d="M12.5,0C8.6,0,4.8,1.6,2.1,4.1C2,4.3,2,4.5,2.1,4.7l1.3,1.3c0.2,0.2,0.4,0.2,0.5,0C5,5,6.2,4.1,7.7,3.5
		c1.6-0.7,3.2-1,4.9-1s3.4,0.3,4.9,1c1.4,0.6,2.6,1.4,3.8,2.4c0.2,0.2,0.4,0.2,0.5,0L23,4.7c0.2-0.2,0.2-0.4,0-0.5
		C20.2,1.6,16.3,0,12.5,0z"/>
	<path d="M5.8,8.5l1.4,1.4c0.2,0.2,0.4,0.2,0.5,0C9,8.6,10.7,8,12.5,8c1.8,0,3.5,0.7,4.8,1.8c0.2,0.2,0.4,0.2,0.5,0l1.4-1.4
		c0.2-0.2,0.2-0.4,0-0.5c-1.7-1.6-4.1-2.6-6.7-2.6s-5,1-6.7,2.6C5.6,8.1,5.6,8.3,5.8,8.5L5.8,8.5z M12.5,10.7
		c-1.1,0-2.1,0.5-2.8,1.2c-0.2,0.2-0.2,0.4,0,0.5l2.5,2.5c0.2,0.2,0.4,0.2,0.5,0l2.5-2.5c0.2-0.2,0.2-0.4,0-0.5
		C14.6,11.1,13.6,10.7,12.5,10.7L12.5,10.7z"/>
</g>
</svg>
