<?xml version="1.0" encoding="utf-8"?>
<!-- Generator: Adobe Illustrator 25.0.1, SVG Export Plug-In . SVG Version: 6.00 Build 0)  -->
<svg version="1.1" id="Calque_1" xmlns="http://www.w3.org/2000/svg" xmlns:xlink="http://www.w3.org/1999/xlink" x="0px" y="0px"
	 viewBox="0 0 30 30" style="enable-background:new 0 0 30 30;" xml:space="preserve">
<style type="text/css">
	.st0{fill:#E73558;}
	.st1{fill:#FFFFFF;}
</style>
<g>
	<path class="st0" d="M27.7,30H2.3C1,30,0,29,0,27.7L0,2.3C0,1,1,0,2.3,0l25.5,0C29,0,30,1,30,2.3v25.5C30,29,29,30,27.7,30z"/>
	<g>
		<path class="st1" d="M23.7,20c-1.1,0-1.2-1.2-2.9-1.2c-1.7,0-1.8,1.2-2.9,1.2c-1.1,0-1.2-1.2-2.9-1.2c-1.7,0-1.8,1.2-2.9,1.2
			c-1.1,0-1.2-1.2-2.9-1.2c-1.7,0-1.8,1.2-2.9,1.2v-3.1c0-1,0.8-1.9,1.9-1.9h0.6V9.4h2.5V15h2.5V9.4h2.5V15h2.5V9.4h2.5V15h0.6
			c1,0,1.9,0.8,1.9,1.9L23.7,20L23.7,20z M23.7,24.9H6.3v-3.7C8,21.2,8.2,20,9.2,20s1.2,1.2,2.9,1.2c1.7,0,1.8-1.2,2.9-1.2
			c1.1,0,1.2,1.2,2.9,1.2c1.7,0,1.8-1.2,2.9-1.2c1.1,0,1.2,1.2,2.9,1.2L23.7,24.9L23.7,24.9z M10.1,8.8c-0.7,0-1.2-0.6-1.2-1.2
			c0-1.2,1.2-0.9,1.2-2.5c0.5,0,1.2,1.1,1.2,2.2S10.7,8.8,10.1,8.8z M15,8.8c-0.7,0-1.2-0.6-1.2-1.2c0-1.2,1.2-0.9,1.2-2.5
			c0.5,0,1.2,1.1,1.2,2.2S15.7,8.8,15,8.8z M19.9,8.8c-0.7,0-1.2-0.6-1.2-1.2c0-1.2,1.2-0.9,1.2-2.5c0.5,0,1.2,1.1,1.2,2.2
			S20.6,8.8,19.9,8.8z"/>
	</g>
</g>
</svg>
