<?xml version="1.0" encoding="utf-8"?>
<!-- Generator: Adobe Illustrator 25.0.1, SVG Export Plug-In . SVG Version: 6.00 Build 0)  -->
<svg version="1.1" id="Calque_1" xmlns="http://www.w3.org/2000/svg" xmlns:xlink="http://www.w3.org/1999/xlink" x="0px" y="0px"
	 viewBox="0 0 30 30" style="enable-background:new 0 0 30 30;" xml:space="preserve">
<style type="text/css">
	.st0{fill:#376EB4;}
	.st1{fill:#FFFFFF;}
</style>
<path class="st0" d="M27.7,30H2.3C1,30,0,29,0,27.7L0,2.3C0,1,1,0,2.3,0l25.5,0C29,0,30,1,30,2.3v25.5C30,29,29,30,27.7,30z"/>
<path class="st1" d="M24.2,14.5c-2-3.4-5.7-5.6-9.7-5.6c-4,0-7.7,2.1-9.7,5.6L4.7,15l0.3,0.5c2,3.4,5.7,5.6,9.7,5.6
	c4,0,7.7-2.1,9.7-5.6l0.3-0.5L24.2,14.5z M14.7,18.2c-2,0-3.5-1.6-3.5-3.5c0-2,1.6-3.5,3.5-3.5s3.5,1.6,3.5,3.5
	C18.2,16.7,16.6,18.2,14.7,18.2z M6.8,15c0.8-1.3,2-2.3,3.3-3c-0.5,0.8-0.8,1.7-0.8,2.7c0,1.4,0.6,2.7,1.5,3.7
	C9.2,17.7,7.8,16.5,6.8,15z M18.7,18.2c0.8-0.9,1.3-2.2,1.3-3.5c0-0.9-0.2-1.8-0.7-2.6c1.2,0.7,2.2,1.7,3,2.9
	C21.5,16.4,20.2,17.5,18.7,18.2z M16.1,14.6c0,0.8-0.7,1.5-1.5,1.5c-0.8,0-1.5-0.7-1.5-1.5c0-0.8,0.7-1.5,1.5-1.5
	C15.4,13.1,16.1,13.8,16.1,14.6z"/>
</svg>
