<?xml version="1.0" encoding="utf-8"?>
<!-- Generator: Adobe Illustrator 25.0.1, SVG Export Plug-In . SVG Version: 6.00 Build 0)  -->
<svg version="1.1" id="Calque_1" xmlns="http://www.w3.org/2000/svg" xmlns:xlink="http://www.w3.org/1999/xlink" x="0px" y="0px"
	 viewBox="0 0 30 30" style="enable-background:new 0 0 30 30;" xml:space="preserve">
<style type="text/css">
	.st0{fill:#E74239;}
	.st1{fill:#FFFFFF;}
</style>
<g>
	<path class="st0" d="M27.7,30H2.3C1,30,0,29,0,27.7L0,2.3C0,1,1,0,2.3,0l25.5,0C29,0,30,1,30,2.3v25.5C30,29,29,30,27.7,30z"/>
	<g>
		<path class="st1" d="M13.8,17.4v6.1l0.8,1.3c0.2,0.3,0.6,0.3,0.8,0l0.8-1.3v-6.1c-0.4,0.1-0.8,0.1-1.2,0.1S14.2,17.4,13.8,17.4z
			 M15,5.1c-3.1,0-5.6,2.5-5.6,5.6s2.5,5.6,5.6,5.6s5.6-2.5,5.6-5.6S18.1,5.1,15,5.1z M15,8c-1.4,0-2.6,1.2-2.6,2.6
			c0,0.3-0.2,0.5-0.5,0.5c-0.3,0-0.5-0.2-0.5-0.5c0-2,1.6-3.6,3.6-3.6c0.3,0,0.5,0.2,0.5,0.5S15.3,8,15,8z"/>
	</g>
</g>
</svg>
