<?xml version="1.0" encoding="utf-8"?>
<!-- Generator: Adobe Illustrator 25.0.1, SVG Export Plug-In . SVG Version: 6.00 Build 0)  -->
<svg version="1.1" id="Calque_1" xmlns="http://www.w3.org/2000/svg" xmlns:xlink="http://www.w3.org/1999/xlink" x="0px" y="0px"
	 viewBox="0 0 30 30" style="enable-background:new 0 0 30 30;" xml:space="preserve">
<style type="text/css">
	.st0{fill:#4E56A1;}
	.st1{fill:#FFFFFF;}
</style>
<g>
	<path class="st0" d="M27.7,30H2.3C1,30,0,29,0,27.7L0,2.3C0,1,1,0,2.3,0l25.5,0C29,0,30,1,30,2.3v25.5C30,29,29,30,27.7,30z"/>
	<g>
		<path class="st1" d="M17.7,12.3c2.3,2.3,2.3,6,0,8.3c0,0,0,0,0,0l-2.6,2.6c-2.3,2.3-6,2.3-8.3,0s-2.3-6,0-8.3l1.4-1.4
			c0.4-0.4,1-0.1,1.1,0.4c0,0.7,0.1,1.4,0.4,2c0.1,0.2,0,0.5-0.1,0.6L9,17C8,18.1,7.9,19.9,9,21c1.1,1.1,2.9,1.1,3.9,0l2.6-2.6
			c1.1-1.1,1.1-2.9,0-3.9c-0.1-0.1-0.3-0.3-0.4-0.3c-0.2-0.1-0.3-0.3-0.3-0.5c0-0.4,0.1-0.8,0.5-1.2l0.8-0.8
			c0.2-0.2,0.5-0.2,0.8-0.1C17.2,11.8,17.5,12,17.7,12.3L17.7,12.3z M23.2,6.8c-2.3-2.3-6-2.3-8.3,0l-2.6,2.6c0,0,0,0,0,0
			c-2.3,2.3-2.3,6,0,8.3c0.2,0.2,0.5,0.5,0.8,0.7c0.2,0.2,0.6,0.1,0.8-0.1l0.8-0.8c0.3-0.3,0.5-0.7,0.5-1.2c0-0.2-0.1-0.4-0.3-0.5
			c-0.1-0.1-0.3-0.2-0.4-0.3c-1.1-1.1-1.1-2.8,0-3.9L17.1,9c1.1-1.1,2.9-1.1,3.9,0c1.1,1.1,1,2.9,0,3.9l-0.5,0.5
			c-0.2,0.2-0.2,0.4-0.1,0.6c0.2,0.7,0.3,1.4,0.4,2c0,0.5,0.7,0.8,1.1,0.4l1.4-1.4C25.5,12.8,25.5,9.1,23.2,6.8L23.2,6.8z"/>
	</g>
</g>
</svg>
