<?xml version="1.0" encoding="utf-8"?>
<!-- Generator: Adobe Illustrator 25.0.1, SVG Export Plug-In . SVG Version: 6.00 Build 0)  -->
<svg version="1.1" id="Calque_1" xmlns="http://www.w3.org/2000/svg" xmlns:xlink="http://www.w3.org/1999/xlink" x="0px" y="0px"
	 viewBox="0 0 30 30" style="enable-background:new 0 0 30 30;" xml:space="preserve">
<style type="text/css">
	.st0{fill:#4E56A1;}
	.st1{fill:#FFFFFF;}
</style>
<g>
	<path class="st0" d="M27.7,30H2.3C1,30,0,29,0,27.7L0,2.3C0,1,1,0,2.3,0l25.5,0C29,0,30,1,30,2.3v25.5C30,29,29,30,27.7,30z"/>
	<g>
		<path class="st1" d="M24.5,12.5c0.2-0.1,0.4,0,0.4,0.2v7.9c0,1-0.8,1.9-1.9,1.9H7c-1,0-1.9-0.8-1.9-1.9v-7.9
			c0-0.2,0.2-0.3,0.4-0.2c0.9,0.7,2,1.5,6,4.4c0.8,0.6,2.2,1.9,3.6,1.8c1.4,0,2.8-1.3,3.6-1.8C22.5,14,23.6,13.1,24.5,12.5z
			 M15,17.5c0.9,0,2.2-1.1,2.8-1.6c5.1-3.7,5.5-4.1,6.7-5c0.2-0.2,0.4-0.4,0.4-0.7V9.4c0-1-0.8-1.9-1.9-1.9H7c-1,0-1.9,0.8-1.9,1.9
			v0.7c0,0.3,0.1,0.6,0.4,0.7c1.2,0.9,1.6,1.3,6.7,5C12.8,16.3,14.1,17.5,15,17.5L15,17.5z"/>
	</g>
</g>
</svg>
