<?xml version="1.0" encoding="utf-8"?>
<!-- Generator: Adobe Illustrator 25.0.1, SVG Export Plug-In . SVG Version: 6.00 Build 0)  -->
<svg version="1.1" id="Calque_1" xmlns="http://www.w3.org/2000/svg" xmlns:xlink="http://www.w3.org/1999/xlink" x="0px" y="0px"
	 viewBox="0 0 30 30" style="enable-background:new 0 0 30 30;" xml:space="preserve">
<style type="text/css">
	.st0{fill:#F29218;}
	.st1{fill:#FFFFFF;}
</style>
<g>
	<path class="st0" d="M27.7,30H2.3C1,30,0,29,0,27.7L0,2.3C0,1,1,0,2.3,0l25.5,0C29,0,30,1,30,2.3v25.5C30,29,29,30,27.7,30z"/>
	<path class="st1" d="M19.7,6.1c-0.4,0-0.8,0.1-1.1,0.3c-0.3-0.8-1-1.4-1.9-1.4c-0.6,0-1.1,0.3-1.5,0.7c-0.4-0.4-0.9-0.7-1.5-0.7
		c-0.6,0-1.1,0.3-1.5,0.7c-0.4-0.4-0.9-0.7-1.5-0.7c-1.1,0-2,0.9-2,2v2.8c-0.6,0.5-1,1.2-1,2c0,2.7,1.3,5.3,3.4,6.9
		c0.4,0.3,0.6,0.7,0.6,1.2v4.4c0,0.3,0.2,0.5,0.5,0.5h8.1c0.3,0,0.5-0.2,0.5-0.5v-4.3c0.3-1,0.6-2,0.8-3.1c0.2-1.1,0.3-2.2,0.3-3.2
		c0-0.7,0-5,0-5.7C21.7,7,20.8,6.1,19.7,6.1z M19.7,7.1c0.6,0,1,0.5,1,1v3.3c0,0.6-0.5,1-1,1s-1-0.5-1-1c0-0.9,0-2.6,0-3.3
		C18.7,7.6,19.1,7.1,19.7,7.1z M16.6,6.1c0.6,0,1,0.5,1,1v3.3c0,0.6-0.5,1-1,1s-1-0.5-1-1V7.1C15.6,6.5,16.1,6.1,16.6,6.1z
		 M13.6,6.1c0.6,0,1,0.5,1,1v2.3h-2V7.1C12.6,6.5,13,6.1,13.6,6.1z M10.6,6.1c0.6,0,1,0.5,1,1v2.3h-1.5c-0.2,0-0.3,0-0.5,0.1V7.1
		C9.5,6.5,10,6.1,10.6,6.1z M12.6,23.9v-2.3h7.1v2.3H12.6z M20.4,16.9c-0.3,2-0.8,2.9-0.8,3.2v0.5h-7.1v-0.5c0-0.8-0.4-1.5-1-2
		c-1.9-1.4-3-3.7-3-6.1c0-0.8,0.7-1.5,1.5-1.5h4.5c-0.2,1.2-1.3,2-2.5,2h-1c-0.3,0-0.5,0.2-0.5,0.5c0,0.3,0.2,0.5,0.5,0.5h0.5
		c1,0,1.8,0.7,2,1.6c0.1,0.3,0.3,0.5,0.6,0.4c0.3-0.1,0.5-0.3,0.4-0.6c-0.1-0.7-0.5-1.3-1-1.7c0.7-0.3,1.2-0.8,1.6-1.4
		c0.4,0.4,0.9,0.7,1.5,0.7c0.4,0,0.8-0.1,1.1-0.3c0.3,0.8,1,1.4,1.9,1.4c0.4,0,0.7-0.1,1-0.3v0.6C20.7,14.9,20.6,15.9,20.4,16.9z"/>
</g>
</svg>
