<?xml version="1.0" encoding="utf-8"?>
<!-- Generator: Adobe Illustrator 25.0.1, SVG Export Plug-In . SVG Version: 6.00 Build 0)  -->
<svg version="1.1" id="Calque_1" xmlns="http://www.w3.org/2000/svg" xmlns:xlink="http://www.w3.org/1999/xlink" x="0px" y="0px"
	 viewBox="0 0 30 30" style="enable-background:new 0 0 30 30;" xml:space="preserve">
<style type="text/css">
	.st0{fill:#51B05A;}
	.st1{fill:#FFFFFF;}
</style>
<path class="st0" d="M27.7,30H2.3C1,30,0,29,0,27.7L0,2.3C0,1,1,0,2.3,0l25.5,0C29,0,30,1,30,2.3v25.5C30,29,29,30,27.7,30z"/>
<g>
	<g>
		<g>
			<path class="st1" d="M23.2,7.9C22.3,7,21,6.5,19.3,6.5c-0.5,0-0.9,0.1-1.4,0.2c-0.5,0.2-0.9,0.4-1.3,0.6
				c-0.4,0.3-0.8,0.5-1.1,0.8c-0.3,0.2-0.6,0.5-0.8,0.8c-0.3-0.3-0.5-0.5-0.8-0.8c-0.3-0.2-0.6-0.5-1.1-0.8
				c-0.4-0.3-0.9-0.5-1.3-0.6c-0.5-0.2-0.9-0.2-1.4-0.2C8.4,6.5,7.1,7,6.2,7.9c-0.9,0.9-1.4,2.2-1.4,3.8c0,0.5,0.1,1,0.3,1.5
				c0.2,0.5,0.4,1,0.6,1.3c0.2,0.4,0.5,0.7,0.8,1.1C6.7,16,6.9,16.2,7,16.3c0.1,0.1,0.2,0.2,0.3,0.3l6.9,6.7
				c0.1,0.1,0.3,0.2,0.5,0.2s0.4-0.1,0.5-0.2l6.9-6.6c1.7-1.7,2.5-3.3,2.5-5C24.6,10.1,24.1,8.8,23.2,7.9z M21.1,15.6l-6.4,6.2
				l-6.4-6.2c-1.4-1.4-2.1-2.7-2.1-3.9c0-0.6,0.1-1.1,0.2-1.6C6.6,9.6,6.8,9.3,7,9c0.2-0.3,0.5-0.5,0.9-0.7C8.3,8.2,8.6,8.1,9,8
				c0.3-0.1,0.7-0.1,1.1-0.1c0.4,0,0.8,0.1,1.2,0.3c0.4,0.2,0.9,0.4,1.2,0.7c0.4,0.3,0.7,0.5,1,0.8c0.3,0.2,0.5,0.5,0.7,0.7
				c0.1,0.2,0.3,0.2,0.5,0.2c0.2,0,0.4-0.1,0.5-0.2c0.2-0.2,0.4-0.4,0.7-0.7c0.3-0.2,0.6-0.5,1-0.8c0.4-0.3,0.8-0.5,1.2-0.7
				c0.4-0.2,0.9-0.3,1.2-0.3c0.4,0,0.7,0,1.1,0.1c0.3,0.1,0.7,0.2,1,0.3c0.4,0.2,0.7,0.4,0.9,0.7c0.2,0.3,0.5,0.6,0.6,1.1
				c0.2,0.5,0.2,1,0.2,1.6C23.2,12.9,22.5,14.2,21.1,15.6z"/>
		</g>
	</g>
</g>
</svg>
