<?xml version="1.0" encoding="utf-8"?>
<!-- Generator: Adobe Illustrator 25.0.1, SVG Export Plug-In . SVG Version: 6.00 Build 0)  -->
<svg version="1.1" id="Calque_1" xmlns="http://www.w3.org/2000/svg" xmlns:xlink="http://www.w3.org/1999/xlink" x="0px" y="0px"
	 viewBox="0 0 30 30" style="enable-background:new 0 0 30 30;" xml:space="preserve">
<style type="text/css">
	.st0{fill:#4E56A1;}
	.st1{fill:#FFFFFF;}
</style>
<path class="st0" d="M27.7,30H2.3C1,30,0,29,0,27.7L0,2.3C0,1,1,0,2.3,0l25.5,0C29,0,30,1,30,2.3v25.5C30,29,29,30,27.7,30z"/>
<g>
	<path class="st1" d="M24.5,6l-4-0.9c-0.4-0.1-0.9,0.1-1.1,0.5L17.6,10c-0.2,0.4-0.1,0.8,0.3,1.1l2.3,1.9c-1.4,3-3.8,5.4-6.8,6.9
		l-1.9-2.3c-0.3-0.3-0.7-0.4-1.1-0.3L6,19.1c-0.4,0.2-0.6,0.6-0.5,1.1l0.9,4c0.1,0.4,0.5,0.7,0.9,0.7c9.9,0,17.9-8,17.9-18
		C25.2,6.5,24.9,6.1,24.5,6z"/>
</g>
</svg>
